mtllib paladin.mtl
usemtl Paladin_Mat
v 0.64809 1.47268 -0.19192
v 0.67790 1.47007 -0.19035
v 0.63432 1.48081 0.08252
v 0.66412 1.47820 0.08410
v 0.66693 1.47654 0.02828
v 0.67509 1.47172 -0.13453
v 0.64529 1.47433 -0.13610
v 0.63712 1.47915 0.02671
v 0.66912 1.41705 -0.11196
v 0.66307 1.42061 0.00849
v 0.63327 1.42322 0.00691
v 0.63931 1.41966 -0.11353
v 0.67686 1.47068 -0.16965
v 0.63536 1.48019 0.06182
v 0.66516 1.47758 0.06340
v 0.64705 1.47329 -0.17122
v 0.50996 1.48753 -0.19929
v 0.53976 1.48492 -0.19772
v 0.49619 1.49565 0.07515
v 0.52599 1.49304 0.07673
v 0.52879 1.49139 0.02091
v 0.53696 1.48657 -0.14190
v 0.50716 1.48918 -0.14347
v 0.49899 1.49400 0.01933
v 0.52740 1.39782 -0.10786
v 0.52242 1.40076 -0.00862
v 0.49261 1.40337 -0.01019
v 0.49759 1.40043 -0.10943
v 0.52510 1.44390 0.01221
v 0.50247 1.44227 -0.13240
v 0.53227 1.43967 -0.13083
v 0.49529 1.44651 0.01064
v 0.53872 1.48553 -0.17702
v 0.49722 1.49504 0.05445
v 0.52703 1.49243 0.05603
v 0.50892 1.48814 -0.17859
v 0.60324 1.47387 -0.44583
v 0.44561 1.49155 -0.29968
v 0.34911 1.51287 0.20667
v 0.79073 1.47421 0.22997
v 0.79750 1.46389 -0.15638
v 0.38105 1.50034 -0.17835
v 0.74542 1.46531 -0.28386
v 0.56992 1.49354 0.21832
v 0.58927 1.48212 -0.16736
v 0.59551 1.47843 -0.29177
v 0.57101 1.50583 0.21801
v 0.59008 1.50677 -0.16805
v 0.59738 1.49940 -0.29230
v 0.78800 1.47443 -0.15453
v 0.57233 1.51449 0.20749
v 0.60328 1.48392 -0.42978
v 0.73848 1.47578 -0.27576
v 0.45337 1.50074 -0.29081
v 0.39198 1.50909 -0.17542
v 0.78127 1.48442 0.21887
v 0.36130 1.52118 0.19670
v 0.58078 1.51364 0.01961
v 0.36508 1.50660 0.01416
v 0.79411 1.46905 0.03680
v 0.57960 1.48783 0.02548
v 0.78464 1.47943 0.03217
v 0.37664 1.51514 0.01064
v 0.60077 1.49314 -0.36691
v 0.51927 1.49993 -0.29149
v 0.72399 1.48700 -0.15897
v 0.43557 1.51915 0.13885
v 0.67387 1.48639 -0.28333
v 0.71423 1.49476 0.15355
v 0.45731 1.51035 -0.17304
v 0.44401 1.51745 0.01352
v 0.71876 1.49340 0.02802
v 0.57577 1.51679 0.14609
vt 0.01808 0.97848
vt 0.00833 0.97848
vt 0.00832 0.99257
vt 0.01807 0.99257
vt 0.16381 0.97848
vt 0.14727 0.97848
vt 0.14727 0.99257
vt 0.16381 0.99257
vt 0.06257 0.97848
vt 0.03462 0.97848
vt 0.03462 0.99257
vt 0.06257 0.99257
vt 0.14727 0.97848
vt 0.11931 0.97848
vt 0.11931 0.99257
vt 0.14727 0.99257
vt 0.11931 0.97848
vt 0.06257 0.97848
vt 0.06257 0.99257
vt 0.11931 0.99257
vt 0.03462 0.97848
vt 0.01808 0.97848
vt 0.01807 0.99257
vt 0.03462 0.99257
vt 0.17356 0.97848
vt 0.16381 0.97848
vt 0.16381 0.99257
vt 0.17356 0.99257
vt 0.19166 0.97864
vt 0.18191 0.97864
vt 0.18191 0.99273
vt 0.19166 0.99273
vt 0.36216 0.97864
vt 0.34563 0.97864
vt 0.34563 0.99272
vt 0.36216 0.99272
vt 0.23099 0.97864
vt 0.20821 0.97864
vt 0.20821 0.99273
vt 0.23099 0.99273
vt 0.32287 0.97864
vt 0.30031 0.97864
vt 0.30031 0.99273
vt 0.32287 0.99273
vt 0.30031 0.97864
vt 0.25356 0.97864
vt 0.25356 0.99273
vt 0.30031 0.99273
vt 0.25356 0.97864
vt 0.23099 0.97864
vt 0.23099 0.99273
vt 0.25356 0.99273
vt 0.34563 0.97864
vt 0.32287 0.97864
vt 0.32287 0.99273
vt 0.34563 0.99272
vt 0.20821 0.97864
vt 0.19166 0.97864
vt 0.19166 0.99273
vt 0.20821 0.99273
vt 0.37190 0.97864
vt 0.36216 0.97864
vt 0.36216 0.99272
vt 0.37190 0.99272
vt 0.28471 0.78964
vt 0.28471 0.73094
vt 0.35562 0.73094
vt 0.38308 0.78969
vt 0.28471 0.88049
vt 0.28471 0.78964
vt 0.38308 0.78969
vt 0.38614 0.88049
vt 0.28471 0.73094
vt 0.28471 0.65832
vt 0.35562 0.73094
vt 0.18633 0.78969
vt 0.21379 0.73094
vt 0.28471 0.73094
vt 0.28471 0.78964
vt 0.18328 0.88049
vt 0.18633 0.78969
vt 0.28471 0.78964
vt 0.28471 0.88049
vt 0.21379 0.73094
vt 0.28471 0.65832
vt 0.28471 0.73094
vt 0.43134 0.89890
vt 0.39833 0.90232
vt 0.39684 0.81409
vt 0.43182 0.80779
vt 0.42033 0.75677
vt 0.41641 0.75268
vt 0.48418 0.67633
vt 0.48457 0.68425
vt 0.39684 0.81409
vt 0.39168 0.81302
vt 0.41641 0.75268
vt 0.42033 0.75677
vt 0.49971 0.99060
vt 0.60470 0.98544
vt 0.50000 0.99642
vt 0.54828 0.80303
vt 0.49083 0.80611
vt 0.48780 0.75108
vt 0.52509 0.75100
vt 0.50000 0.99642
vt 0.39473 0.99582
vt 0.49971 0.99060
vt 0.52509 0.75100
vt 0.48780 0.75108
vt 0.48556 0.71858
vt 0.55990 0.89379
vt 0.56503 0.95455
vt 0.49727 0.95803
vt 0.49503 0.89535
vt 0.49971 0.99060
vt 0.39473 0.99582
vt 0.39980 0.99038
vt 0.49946 0.98535
vt 0.39308 0.90430
vt 0.39168 0.81302
vt 0.39684 0.81409
vt 0.39833 0.90232
vt 0.48556 0.71858
vt 0.45015 0.75526
vt 0.42033 0.75677
vt 0.48457 0.68425
vt 0.43182 0.80779
vt 0.39684 0.81409
vt 0.42033 0.75677
vt 0.45015 0.75526
vt 0.58971 0.80323
vt 0.58468 0.80480
vt 0.55566 0.75008
vt 0.55915 0.74562
vt 0.55915 0.74562
vt 0.55566 0.75008
vt 0.48457 0.68425
vt 0.48418 0.67633
vt 0.59731 0.89420
vt 0.60470 0.98504
vt 0.59912 0.98053
vt 0.59190 0.89275
vt 0.60470 0.98544
vt 0.49971 0.99060
vt 0.49946 0.98535
vt 0.59912 0.98053
vt 0.28471 0.97124
vt 0.28471 0.88049
vt 0.38614 0.88049
vt 0.38896 0.97124
vt 0.18045 0.97124
vt 0.18328 0.88049
vt 0.28471 0.88049
vt 0.28471 0.97124
vt 0.49727 0.95803
vt 0.42972 0.96123
vt 0.43134 0.89890
vt 0.49503 0.89535
vt 0.54828 0.80303
vt 0.55990 0.89379
vt 0.49503 0.89535
vt 0.49083 0.80611
vt 0.39470 0.99542
vt 0.39308 0.90430
vt 0.39833 0.90232
vt 0.39980 0.99038
vt 0.58971 0.80323
vt 0.59731 0.89420
vt 0.59190 0.89275
vt 0.58468 0.80480
vt 0.59190 0.89275
vt 0.59912 0.98053
vt 0.56503 0.95455
vt 0.55990 0.89379
vt 0.49503 0.89535
vt 0.43134 0.89890
vt 0.43182 0.80779
vt 0.49083 0.80611
vt 0.58468 0.80480
vt 0.54828 0.80303
vt 0.52509 0.75100
vt 0.55566 0.75008
vt 0.55566 0.75008
vt 0.52509 0.75100
vt 0.48556 0.71858
vt 0.48457 0.68425
vt 0.59912 0.98053
vt 0.49946 0.98535
vt 0.49727 0.95803
vt 0.56503 0.95455
vt 0.49946 0.98535
vt 0.39980 0.99038
vt 0.42972 0.96123
vt 0.49727 0.95803
vt 0.48780 0.75108
vt 0.45015 0.75526
vt 0.48556 0.71858
vt 0.49083 0.80611
vt 0.43182 0.80779
vt 0.45015 0.75526
vt 0.48780 0.75108
vt 0.39980 0.99038
vt 0.39833 0.90232
vt 0.43134 0.89890
vt 0.42972 0.96123
vt 0.58468 0.80480
vt 0.59190 0.89275
vt 0.55990 0.89379
vt 0.54828 0.80303
vn -0.08890 -0.99576 0.02350
vn -0.08890 -0.99576 0.02350
vn -0.08890 -0.99576 0.02349
vn -0.08890 -0.99576 0.02349
vn -0.11071 -0.68873 0.71651
vn -0.01598 -0.73022 -0.68302
vn -0.01598 -0.73022 -0.68302
vn -0.11071 -0.68873 0.71651
vn -0.05818 -0.93802 -0.34167
vn -0.10740 -0.91646 0.38544
vn -0.10740 -0.91646 0.38544
vn -0.05818 -0.93802 -0.34167
vn -0.08890 -0.99576 0.02350
vn -0.08890 -0.99576 0.02350
vn -0.08890 -0.99576 0.02350
vn -0.08890 -0.99576 0.02350
vn -0.08891 -0.99576 0.02350
vn -0.08891 -0.99576 0.02350
vn -0.08891 -0.99576 0.02351
vn -0.08891 -0.99576 0.02351
vn -0.11018 -0.66481 0.73884
vn -0.01235 -0.70766 -0.70645
vn -0.01235 -0.70765 -0.70645
vn -0.11018 -0.66481 0.73884
vn -0.06147 -0.94917 -0.30871
vn -0.10626 -0.92955 0.35305
vn -0.10626 -0.92955 0.35306
vn -0.06147 -0.94917 -0.30871
vn -0.09327 -0.30398 0.94810
vn 0.03402 -0.35973 -0.93244
vn 0.03402 -0.35973 -0.93244
vn -0.09327 -0.30398 0.94810
vn -0.08891 -0.99576 0.02350
vn -0.08891 -0.99576 0.02350
vn -0.08891 -0.99576 0.02350
vn -0.08891 -0.99576 0.02350
vn -0.07492 -0.98412 -0.16094
vn -0.16218 -0.98581 -0.04338
vn -0.12001 -0.99153 0.04957
vn -0.06146 -0.99666 0.05368
vn -0.03936 -0.99908 0.01687
vn -0.13688 -0.99054 0.01001
vn -0.00645 -0.99945 -0.03243
vn -0.09105 -0.99428 0.05580
vn -0.08891 -0.99576 0.02350
vn -0.08891 -0.99576 0.02350
vn -0.00516 0.58918 0.80799
vn 0.08994 0.99509 -0.04136
vn 0.09203 0.99365 -0.06470
vn 0.32137 0.94552 -0.05208
vn 0.07511 0.98446 0.15875
vn 0.10587 0.93359 -0.34234
vn 0.32043 0.93309 -0.16327
vn -0.12829 0.97242 -0.19481
vn -0.14249 0.98617 -0.08469
vn 0.28295 0.94480 0.16521
vn -0.13532 0.98145 0.13581
vn 0.08875 0.99577 -0.02385
vn -0.13437 -0.99075 0.01878
vn -0.04305 -0.99875 0.02520
vn -0.08891 -0.99576 0.02350
vn 0.30787 0.95135 -0.01270
vn -0.13378 0.99005 -0.04374
vn 0.09449 0.98932 -0.11100
vn 0.00791 0.99617 -0.08713
vn 0.16755 0.98515 -0.03758
vn 0.01277 0.99989 -0.00799
vn 0.17620 0.98152 -0.07469
vn 0.16147 0.98687 0.00218
vn 0.01147 0.99874 -0.04878
vn 0.01087 0.99951 -0.02940
vn 0.16569 0.98600 -0.01873
vn 0.08753 0.99616 0.00051
s 1
f 16/1/16 1/2/1 2/3/2 13/4/13
f 14/5/14 8/6/8 5/7/5 15/8/15
f 12/9/12 7/10/7 6/11/6 9/12/9
f 8/13/8 11/14/11 10/15/10 5/16/5
f 11/17/11 12/18/12 9/19/9 10/20/10
f 7/21/7 16/22/16 13/23/13 6/24/6
f 3/25/3 14/26/14 15/27/15 4/28/4
f 36/29/36 17/30/17 18/31/18 33/32/33
f 34/33/34 24/34/24 21/35/21 35/36/35
f 30/37/30 23/38/23 22/39/22 31/40/31
f 32/41/32 27/42/27 26/43/26 29/44/29
f 27/45/27 28/46/28 25/47/25 26/48/26
f 28/49/28 30/50/30 31/51/31 25/52/25
f 24/53/24 32/54/32 29/55/29 21/56/21
f 23/57/23 36/58/36 33/59/33 22/60/22
f 19/61/19 34/62/34 35/63/35 20/64/20
f 45/65/45 46/66/46 43/67/43 41/68/41
f 61/69/61 45/70/45 41/71/41 60/72/60
f 46/73/46 37/74/37 43/75/43
f 42/76/42 38/77/38 46/78/46 45/79/45
f 59/80/59 42/81/42 45/82/45 61/83/61
f 38/84/38 37/85/37 46/86/46
f 72/87/72 62/88/62 50/89/50 66/90/66
f 53/91/53 43/92/43 37/93/37 52/94/52
f 50/95/50 41/96/41 43/97/43 53/98/53
f 47/99/47 39/100/39 44/101/44
f 70/102/70 48/103/48 49/104/49 65/105/65
f 44/106/44 40/107/40 47/108/47
f 65/109/65 49/110/49 64/111/64
f 71/112/71 67/113/67 73/114/73 58/115/58
f 47/116/47 40/117/40 56/118/56 51/119/51
f 60/120/60 41/121/41 50/122/50 62/123/62
f 64/124/64 68/125/68 53/126/53 52/127/52
f 66/128/66 50/129/50 53/130/53 68/131/68
f 42/132/42 55/133/55 54/134/54 38/135/38
f 38/136/38 54/137/54 52/138/52 37/139/37
f 59/140/59 39/141/39 57/142/57 63/143/63
f 39/144/39 47/145/47 51/146/51 57/147/57
f 44/148/44 61/149/61 60/150/60 40/151/40
f 39/152/39 59/153/59 61/154/61 44/155/44
f 73/156/73 69/157/69 72/158/72 58/159/58
f 70/160/70 71/161/71 58/162/58 48/163/48
f 40/164/40 60/165/60 62/166/62 56/167/56
f 42/168/42 59/169/59 63/170/63 55/171/55
f 63/172/63 57/173/57 67/174/67 71/175/71
f 58/176/58 72/177/72 66/178/66 48/179/48
f 55/180/55 70/181/70 65/182/65 54/183/54
f 54/184/54 65/185/65 64/186/64 52/187/52
f 57/188/57 51/189/51 73/190/73 67/191/67
f 51/192/51 56/193/56 69/194/69 73/195/73
f 49/196/49 68/197/68 64/198/64
f 48/199/48 66/200/66 68/201/68 49/202/49
f 56/203/56 62/204/62 72/205/72 69/206/69
f 55/207/55 63/208/63 71/209/71 70/210/70
