mtllib paladin.mtl
usemtl Paladin_Mat
v -0.41000 0.90641 -0.20697
v -0.42239 0.84476 0.03187
v -0.41929 0.89609 -0.21011
v -0.43169 0.83445 0.02873
v -0.43347 0.89527 -0.21106
v -0.44587 0.83362 0.02778
v -0.44423 0.90441 -0.20926
v -0.45662 0.84277 0.02958
v -0.44527 0.91817 -0.20576
v -0.45766 0.85653 0.03308
v -0.43597 0.92849 -0.20262
v -0.44837 0.86684 0.03622
v -0.42180 0.92931 -0.20167
v -0.43419 0.86767 0.03717
v -0.41104 0.92017 -0.20347
v -0.42343 0.85852 0.03537
v -0.40563 0.90275 0.06708
v -0.41869 0.93952 -0.21052
v -0.41662 0.94714 -0.22437
v -0.41715 0.94721 -0.24031
v -0.42012 0.93970 -0.25407
v -0.40485 0.90659 0.05221
v -0.40326 0.92640 -0.21311
v -0.39880 0.93200 -0.22736
v -0.40171 0.93409 -0.24290
v -0.41121 0.93213 -0.25556
v -0.40305 0.95698 0.07668
v -0.40177 0.90666 -0.21812
v -0.39709 0.90920 -0.23315
v -0.40023 0.91435 -0.24792
v -0.41035 0.92073 -0.25846
v -0.43333 0.91609 0.05318
v -0.46033 0.85652 0.03640
v -0.41510 0.89187 -0.22263
v -0.41248 0.89212 -0.23836
v -0.41356 0.89956 -0.25243
v -0.41805 0.91219 -0.26106
v -0.42083 0.83925 0.04990
v -0.44783 0.77969 0.03313
v -0.47554 0.79303 0.01923
v -0.43544 0.89068 -0.22400
v -0.43597 0.89075 -0.23993
v -0.43390 0.89837 -0.25379
v -0.42979 0.91151 -0.26185
v -0.47867 0.73605 0.02026
v -0.47631 0.78919 0.03410
v -0.47845 0.73714 0.01603
v -0.45088 0.90380 -0.22141
v -0.45379 0.90590 -0.23695
v -0.44933 0.91149 -0.25120
v -0.43870 0.91908 -0.26035
v -0.46110 0.85268 0.05128
v -0.43410 0.91225 0.06806
v -0.44706 0.78353 0.01825
v -0.45237 0.92354 -0.21639
v -0.45551 0.92869 -0.23116
v -0.45082 0.93123 -0.24619
v -0.43956 0.93048 -0.25746
v -0.40327 0.95589 0.08092
v -0.40208 0.92442 -0.20191
v -0.42006 0.84309 0.03503
v -0.43903 0.93834 -0.21188
v -0.44011 0.94577 -0.22595
v -0.43749 0.94603 -0.24168
v -0.43187 0.93902 -0.25485
v -0.41864 0.93850 -0.19914
v -0.44048 0.93723 -0.20060
v -0.45479 0.92135 -0.20544
v -0.45319 0.90016 -0.21082
v -0.43662 0.88608 -0.21360
v -0.41479 0.88735 -0.21214
v -0.40048 0.90323 -0.20730
v -0.42475 0.92664 -0.26195
v -0.41799 0.91471 0.05189
v -0.46223 0.78574 0.01630
v -0.43263 0.84319 0.05031
v -0.44930 0.84875 0.05088
v -0.43502 0.88529 0.06105
v -0.42149 0.88078 0.06059
v -0.44692 0.80665 0.04014
v -0.46044 0.81116 0.04060
v -0.43327 0.83999 0.06269
v -0.44995 0.84555 0.06326
v -0.43566 0.88209 0.07343
v -0.42214 0.87758 0.07296
v -0.44756 0.80346 0.05251
v -0.46108 0.80797 0.05298
v -0.44480 0.84384 0.06308
v -0.43842 0.84171 0.06286
v -0.43418 0.86444 0.06895
v -0.47042 0.68254 0.67955
v -0.44904 0.82111 0.05699
v -0.47680 0.68467 0.67977
v -0.46618 0.70527 0.68564
v -0.48104 0.66194 0.67369
v -0.47738 0.66487 0.75223
v -0.42002 0.92658 0.07000
v -0.46168 0.76656 0.02653
v -0.46131 0.76839 0.01945
v -0.41965 0.92841 0.06292
v -0.40365 0.94019 0.06852
v -0.47748 0.75577 0.01709
v -0.46799 0.75260 0.01677
v -0.40778 0.92445 0.06251
v -0.41314 0.94335 0.06885
v -0.41326 0.92783 0.06238
v -0.46839 0.75059 0.02455
v -0.47788 0.75376 0.02488
v -0.46763 0.76931 0.01864
v -0.47354 0.77052 0.02694
v -0.41354 0.94134 0.07663
v -0.47318 0.77234 0.01986
v -0.40405 0.93818 0.07631
v -0.40815 0.92262 0.06959
v -0.40803 0.94289 0.06842
v -0.47304 0.75334 0.01612
vt 0.37357 0.09006
vt 0.50220 0.09006
vt 0.50220 0.09747
vt 0.37357 0.09747
vt 0.37357 0.09747
vt 0.50220 0.09747
vt 0.50220 0.10489
vt 0.37357 0.10489
vt 0.37357 0.10489
vt 0.50220 0.10489
vt 0.50220 0.11230
vt 0.37357 0.11230
vt 0.37357 0.11230
vt 0.50220 0.11230
vt 0.50220 0.11971
vt 0.37357 0.11971
vt 0.37357 0.11971
vt 0.50220 0.11971
vt 0.50220 0.12713
vt 0.37357 0.12713
vt 0.37357 0.12713
vt 0.50220 0.12713
vt 0.50220 0.13454
vt 0.37357 0.13454
vt 0.37357 0.13454
vt 0.50220 0.13454
vt 0.50220 0.14196
vt 0.37357 0.14196
vt 0.37357 0.14196
vt 0.50220 0.14196
vt 0.50220 0.14937
vt 0.37357 0.14937
vt 0.90524 0.70321
vt 0.90933 0.70816
vt 0.90589 0.71868
vt 0.89872 0.71896
vt 0.90146 0.70027
vt 0.90524 0.70321
vt 0.89872 0.71896
vt 0.89537 0.71965
vt 0.64238 0.35046
vt 0.64602 0.35996
vt 0.63807 0.35854
vt 0.63789 0.34965
vt 0.90933 0.70816
vt 0.91439 0.71282
vt 0.91250 0.71857
vt 0.90589 0.71868
vt 0.92055 0.69709
vt 0.91960 0.70346
vt 0.90933 0.70816
vt 0.90524 0.70321
vt 0.92075 0.69233
vt 0.92055 0.69709
vt 0.90524 0.70321
vt 0.90146 0.70027
vt 0.66365 0.44558
vt 0.66859 0.44565
vt 0.66599 0.45496
vt 0.91960 0.70346
vt 0.92011 0.71044
vt 0.91439 0.71282
vt 0.90933 0.70816
vt 0.62793 0.39460
vt 0.63002 0.36025
vt 0.63213 0.38771
vt 0.63015 0.39447
vt 0.93021 0.70742
vt 0.92570 0.71275
vt 0.92011 0.71044
vt 0.91960 0.70346
vt 0.65650 0.39294
vt 0.65836 0.42663
vt 0.65012 0.42699
vt 0.64921 0.39334
vt 0.93543 0.70354
vt 0.93021 0.70742
vt 0.91960 0.70346
vt 0.92055 0.69709
vt 0.93922 0.70040
vt 0.93543 0.70354
vt 0.92055 0.69709
vt 0.92075 0.69233
vt 0.62317 0.34072
vt 0.62223 0.33115
vt 0.62584 0.33127
vt 0.62621 0.34086
vt 0.65408 0.35930
vt 0.65650 0.39294
vt 0.64921 0.39334
vt 0.64608 0.36000
vt 0.63403 0.42867
vt 0.62793 0.39460
vt 0.63015 0.39447
vt 0.63292 0.40097
vt 0.93490 0.71778
vt 0.92791 0.71819
vt 0.92570 0.71275
vt 0.93021 0.70742
vt 0.65960 0.44618
vt 0.66110 0.45587
vt 0.65739 0.45613
vt 0.65556 0.44640
vt 0.94151 0.71839
vt 0.93490 0.71778
vt 0.93021 0.70742
vt 0.93543 0.70354
vt 0.94704 0.71852
vt 0.94151 0.71839
vt 0.93543 0.70354
vt 0.93922 0.70040
vt 0.94043 0.73766
vt 0.93558 0.73328
vt 0.94151 0.71839
vt 0.94704 0.71852
vt 0.62002 0.39504
vt 0.62199 0.35980
vt 0.63002 0.36025
vt 0.62793 0.39460
vt 0.63895 0.43786
vt 0.63409 0.42871
vt 0.64221 0.42943
vt 0.64316 0.43824
vt 0.93125 0.72844
vt 0.92609 0.72392
vt 0.92791 0.71819
vt 0.93490 0.71778
vt 0.62607 0.43009
vt 0.62002 0.39504
vt 0.62793 0.39460
vt 0.63403 0.42867
vt 0.93558 0.73328
vt 0.93125 0.72844
vt 0.93490 0.71778
vt 0.94151 0.71839
vt 0.92168 0.74703
vt 0.92109 0.73932
vt 0.93558 0.73328
vt 0.94043 0.73766
vt 0.65321 0.34981
vt 0.65403 0.35928
vt 0.64613 0.35996
vt 0.64769 0.35027
vt 0.92071 0.73333
vt 0.92043 0.72617
vt 0.92609 0.72392
vt 0.93125 0.72844
vt 0.62755 0.43958
vt 0.62612 0.43011
vt 0.63398 0.42871
vt 0.63354 0.43854
vt 0.92109 0.73932
vt 0.92071 0.73333
vt 0.93125 0.72844
vt 0.93558 0.73328
vt 0.89809 0.69654
vt 0.89128 0.71955
vt 0.88791 0.71978
vt 0.89477 0.69641
vt 0.90610 0.73417
vt 0.90990 0.72901
vt 0.92071 0.73333
vt 0.92109 0.73932
vt 0.90236 0.73871
vt 0.90610 0.73417
vt 0.92109 0.73932
vt 0.92168 0.74703
vt 0.89128 0.71955
vt 0.89949 0.74168
vt 0.89785 0.74280
vt 0.88791 0.71978
vt 0.64921 0.39334
vt 0.65012 0.42699
vt 0.64570 0.39977
vt 0.64727 0.39346
vt 0.90990 0.72901
vt 0.91465 0.72421
vt 0.92043 0.72617
vt 0.92071 0.73333
vt 0.89949 0.74168
vt 0.92217 0.74956
vt 0.92179 0.75141
vt 0.89785 0.74280
vt 0.92217 0.74956
vt 0.94350 0.73955
vt 0.94446 0.74081
vt 0.92179 0.75141
vt 0.94350 0.73955
vt 0.95006 0.71788
vt 0.95237 0.71846
vt 0.94446 0.74081
vt 0.95006 0.71788
vt 0.94172 0.69832
vt 0.94525 0.69818
vt 0.95237 0.71846
vt 0.92140 0.68832
vt 0.89809 0.69654
vt 0.89477 0.69641
vt 0.90966 0.68519
vt 0.94172 0.69832
vt 0.92140 0.68832
vt 0.93129 0.68636
vt 0.94525 0.69818
vt 0.91439 0.71282
vt 0.92021 0.71832
vt 0.91250 0.71857
vt 0.64608 0.36000
vt 0.64921 0.39334
vt 0.64727 0.39346
vt 0.64495 0.38739
vt 0.89128 0.71955
vt 0.89537 0.71965
vt 0.90236 0.73871
vt 0.89949 0.74168
vt 0.92011 0.71044
vt 0.92021 0.71832
vt 0.91439 0.71282
vt 0.89537 0.71965
vt 0.89128 0.71955
vt 0.89809 0.69654
vt 0.90146 0.70027
vt 0.92570 0.71275
vt 0.92021 0.71832
vt 0.92011 0.71044
vt 0.92791 0.71819
vt 0.92021 0.71832
vt 0.92570 0.71275
vt 0.90146 0.70027
vt 0.89809 0.69654
vt 0.92140 0.68832
vt 0.92075 0.69233
vt 0.92609 0.72392
vt 0.92021 0.71832
vt 0.92791 0.71819
vt 0.94172 0.69832
vt 0.93922 0.70040
vt 0.92075 0.69233
vt 0.92140 0.68832
vt 0.92043 0.72617
vt 0.92021 0.71832
vt 0.92609 0.72392
vt 0.95006 0.71788
vt 0.94704 0.71852
vt 0.93922 0.70040
vt 0.94172 0.69832
vt 0.94704 0.71852
vt 0.95006 0.71788
vt 0.94350 0.73955
vt 0.94043 0.73766
vt 0.91465 0.72421
vt 0.92021 0.71832
vt 0.92043 0.72617
vt 0.90589 0.71868
vt 0.91250 0.71857
vt 0.91465 0.72421
vt 0.90990 0.72901
vt 0.94043 0.73766
vt 0.94350 0.73955
vt 0.92217 0.74956
vt 0.92168 0.74703
vt 0.89872 0.71896
vt 0.90589 0.71868
vt 0.90990 0.72901
vt 0.90610 0.73417
vt 0.89537 0.71965
vt 0.89872 0.71896
vt 0.90610 0.73417
vt 0.90236 0.73871
vt 0.91250 0.71857
vt 0.92021 0.71832
vt 0.91465 0.72421
vt 0.92168 0.74703
vt 0.92217 0.74956
vt 0.89949 0.74168
vt 0.90236 0.73871
vt 0.64608 0.36000
vt 0.64495 0.38739
vt 0.63855 0.38477
vt 0.63803 0.35855
vt 0.67103 0.39198
vt 0.67755 0.39156
vt 0.67444 0.42686
vt 0.67030 0.41282
vt 0.64675 0.44665
vt 0.64508 0.45639
vt 0.64414 0.44746
vt 0.63213 0.38771
vt 0.63002 0.36025
vt 0.63803 0.35855
vt 0.63855 0.38477
vt 0.66232 0.39256
vt 0.65650 0.39294
vt 0.65408 0.35930
vt 0.66035 0.37249
vt 0.63508 0.34111
vt 0.63760 0.33163
vt 0.63774 0.34054
vt 0.66198 0.33915
vt 0.65670 0.33991
vt 0.65802 0.33030
vt 0.64570 0.39977
vt 0.65012 0.42699
vt 0.64224 0.42941
vt 0.63964 0.40314
vt 0.63403 0.42867
vt 0.63292 0.40097
vt 0.63964 0.40314
vt 0.64224 0.42941
vt 0.65650 0.39294
vt 0.66232 0.39256
vt 0.66294 0.41278
vt 0.65836 0.42663
vt 0.66294 0.41278
vt 0.67030 0.41282
vt 0.67444 0.42686
vt 0.65836 0.42663
vt 0.67755 0.39156
vt 0.67103 0.39198
vt 0.66764 0.37145
vt 0.66995 0.35703
vt 0.66764 0.37145
vt 0.66035 0.37249
vt 0.65408 0.35930
vt 0.66995 0.35703
vt 0.44295 0.05354
vt 0.46419 0.05291
vt 0.46418 0.05955
vt 0.44315 0.06025
vt 0.43641 0.06775
vt 0.43641 0.06025
vt 0.44315 0.06025
vt 0.44314 0.06775
vt 0.96108 0.38181
vt 0.94863 0.38177
vt 0.94862 0.04964
vt 0.96108 0.04964
vt 0.48520 0.06032
vt 0.46418 0.05955
vt 0.46419 0.05291
vt 0.48542 0.05361
vt 0.48538 0.07451
vt 0.46416 0.07514
vt 0.46417 0.06850
vt 0.48518 0.06781
vt 0.49192 0.06033
vt 0.49191 0.06783
vt 0.48518 0.06781
vt 0.48520 0.06032
vt 0.44314 0.06775
vt 0.46417 0.06850
vt 0.46416 0.07514
vt 0.44293 0.07445
vt 0.46418 0.05955
vt 0.46418 0.06231
vt 0.45190 0.06401
vt 0.44315 0.06025
vt 0.47644 0.06405
vt 0.48520 0.06032
vt 0.48518 0.06781
vt 0.46417 0.06850
vt 0.46417 0.06574
vt 0.47644 0.06405
vt 0.48518 0.06781
vt 0.98598 0.38181
vt 0.97353 0.38177
vt 0.97353 0.04964
vt 0.98598 0.04964
vt 0.46418 0.06231
vt 0.46418 0.05955
vt 0.48520 0.06032
vt 0.47644 0.06405
vt 0.96108 0.04964
vt 0.97353 0.04964
vt 0.97353 0.38177
vt 0.96108 0.38181
vt 0.46417 0.06574
vt 0.46417 0.06850
vt 0.44314 0.06775
vt 0.45190 0.06401
vt 0.45190 0.06401
vt 0.44314 0.06775
vt 0.44315 0.06025
vt 0.93617 0.04964
vt 0.94862 0.04964
vt 0.94863 0.38177
vt 0.93617 0.38181
vt 0.97353 0.42089
vt 0.97353 0.38177
vt 0.98598 0.38181
vt 0.96108 0.38181
vt 0.97353 0.38177
vt 0.97353 0.42089
vt 0.94863 0.42089
vt 0.94863 0.38177
vt 0.96108 0.38181
vt 0.93617 0.38181
vt 0.94863 0.38177
vt 0.94863 0.42089
vt 0.63761 0.33160
vt 0.64043 0.34103
vt 0.63775 0.34055
vt 0.64041 0.34104
vt 0.64238 0.35046
vt 0.63789 0.34965
vt 0.63777 0.34056
vt 0.65839 0.42664
vt 0.67440 0.42688
vt 0.67100 0.43624
vt 0.66152 0.43610
vt 0.66154 0.43611
vt 0.67098 0.43625
vt 0.66859 0.44565
vt 0.66365 0.44558
vt 0.62202 0.35978
vt 0.62243 0.35026
vt 0.62827 0.35057
vt 0.62999 0.36023
vt 0.62245 0.35025
vt 0.62317 0.34072
vt 0.62621 0.34086
vt 0.62825 0.35056
vt 0.65833 0.42664
vt 0.65887 0.43640
vt 0.65295 0.43669
vt 0.65016 0.42701
vt 0.65886 0.43641
vt 0.65960 0.44618
vt 0.65556 0.44640
vt 0.65255 0.43672
vt 0.64506 0.45642
vt 0.64140 0.44721
vt 0.64413 0.44746
vt 0.64141 0.44720
vt 0.63895 0.43786
vt 0.64316 0.43824
vt 0.64411 0.44744
vt 0.65302 0.33070
vt 0.65264 0.34028
vt 0.64900 0.34055
vt 0.64936 0.33093
vt 0.65263 0.34029
vt 0.65321 0.34981
vt 0.64769 0.35027
vt 0.64901 0.34056
vt 0.62971 0.45870
vt 0.62917 0.44907
vt 0.63292 0.44844
vt 0.63336 0.45814
vt 0.62919 0.44905
vt 0.62755 0.43958
vt 0.63354 0.43854
vt 0.63290 0.44844
vt 0.65009 0.42702
vt 0.64721 0.43700
vt 0.64316 0.43824
vt 0.64227 0.42941
vt 0.64719 0.43701
vt 0.64675 0.44665
vt 0.64414 0.44746
vt 0.64318 0.43824
vt 0.63005 0.36023
vt 0.63343 0.35060
vt 0.63789 0.34965
vt 0.63801 0.35855
vt 0.63344 0.35059
vt 0.63508 0.34111
vt 0.63774 0.34054
vt 0.63788 0.34964
vt 0.66992 0.35701
vt 0.65411 0.35928
vt 0.65642 0.34947
vt 0.66494 0.34824
vt 0.66492 0.34824
vt 0.65644 0.34945
vt 0.65670 0.33991
vt 0.66198 0.33915
vn 0.09842 -0.99475 0.02820
vn 0.13240 -0.98443 -0.11564
vn -0.61670 -0.77671 -0.12806
vn -0.54520 -0.77088 -0.32939
vn -0.97927 -0.10595 -0.17266
vn -0.86632 -0.08195 -0.49272
vn -0.77688 0.62461 -0.07949
vn -0.70748 0.64882 -0.28018
vn -0.12811 0.98702 0.09688
vn -0.09379 0.99448 -0.04706
vn 0.58702 0.76898 0.25313
vn 0.61342 0.78864 0.04196
vn 0.94958 0.09822 0.29774
vn 0.99261 0.11483 -0.03937
vn 0.74719 -0.63234 0.20457
vn 0.77570 -0.63106 -0.00725
vn 0.09589 -0.81072 0.57752
vn 0.94259 0.09666 0.31966
vn 0.96643 0.10230 0.23569
vn 0.97048 0.11822 -0.21023
vn 0.79148 0.11130 -0.60098
vn 0.38003 -0.73644 -0.55967
vn 0.74056 -0.63262 0.22664
vn 0.76362 -0.62978 0.14233
vn 0.78786 -0.54098 -0.29430
vn 0.66276 -0.35332 -0.66023
vn 0.99274 0.11196 0.04396
vn 0.09292 -0.99439 0.05058
vn 0.11350 -0.99294 -0.03441
vn 0.20246 -0.86799 -0.45344
vn 0.25017 -0.58379 -0.77240
vn 0.19988 0.83963 -0.50504
vn -0.06476 0.98469 -0.16185
vn -0.62095 -0.77673 -0.10539
vn -0.60312 -0.77445 -0.19099
vn -0.44281 -0.67124 -0.59443
vn -0.20463 -0.44513 -0.87177
vn -0.01090 -0.90017 0.43541
vn -0.18602 -0.84056 0.50878
vn -0.10943 0.80688 -0.58049
vn -0.98287 -0.10715 -0.14992
vn -0.96643 -0.10229 -0.23569
vn -0.76995 -0.06601 -0.63468
vn -0.43521 -0.01855 -0.90014
vn -0.96756 -0.11835 0.22322
vn -0.36671 0.74022 0.56356
vn -0.90384 -0.08882 -0.41855
vn -0.78084 0.62213 -0.05692
vn -0.76362 0.62978 -0.14233
vn -0.58734 0.59318 -0.55061
vn -0.30650 0.44606 -0.84089
vn -0.21011 0.84263 0.49581
vn -0.08480 0.77006 0.63231
vn 0.07072 -0.76920 -0.63509
vn -0.13320 0.98390 0.11914
vn -0.11350 0.99294 0.03441
vn -0.00193 0.92019 -0.39147
vn 0.10610 0.67654 -0.72872
vn 0.76152 0.06470 0.64491
vn 0.61392 -0.60356 0.50874
vn 0.15758 -0.96052 -0.22926
vn 0.58067 0.76624 0.27513
vn 0.60311 0.77445 0.19099
vn 0.64333 0.72345 -0.25048
vn 0.56090 0.53788 -0.62935
vn 0.80076 0.07092 0.59477
vn 0.46604 0.69019 0.55358
vn -0.19419 0.89148 0.40932
vn -0.79316 0.55690 0.24650
vn -0.98001 -0.11758 0.16047
vn -0.64528 -0.73685 0.20166
vn 0.01494 -0.93815 0.34592
vn 0.23051 0.06001 -0.97122
vn 0.35129 0.07250 -0.93346
vn 0.10600 0.04654 -0.99328
vn -0.10328 -0.68528 0.72092
vn -0.24944 0.59345 0.76524
vn -0.14569 0.23055 0.96209
vn -0.08246 -0.32264 0.94292
vn -0.29418 -0.34505 0.89129
vn -0.35741 0.20813 0.91046
vn 0.01576 -0.93920 0.34302
vn -0.19365 0.89289 0.40650
vn 0.17862 0.91179 0.36977
vn 0.38241 -0.87115 0.30799
vn -0.29998 -0.94338 0.14158
vn -0.50377 0.83956 0.20335
vn -0.11719 0.99185 0.05001
vn 0.10978 -0.99378 -0.01880
vn 0.90799 0.08961 0.40930
vn 0.11293 -0.99309 -0.03200
vn -0.99228 -0.11156 -0.05412
vn -0.11407 0.99279 0.03682
vn 0.96303 0.10144 0.24956
vn -0.96963 -0.10316 -0.22177
vn -0.23050 -0.06004 0.97122
vn -0.05793 0.42899 0.90145
vn -0.33999 -0.53258 0.77509
vn -0.17893 -0.73652 -0.65232
vn 0.43160 0.80231 -0.41234
vn 0.39148 -0.80535 -0.44515
vn -0.17284 0.86226 -0.47606
vn 0.02224 -0.84443 -0.53520
vn 0.59810 -0.65428 -0.46282
vn 0.19640 0.90135 -0.38601
vn 0.48781 0.08587 -0.86871
vn -0.13510 -0.68566 0.71527
vn -0.28058 0.58704 0.75938
vn -0.04464 0.02951 -0.99857
vn -0.44521 0.38799 0.80700
vn -0.21848 0.59362 0.77452
vn -0.34542 0.72006 -0.60183
vn -0.07301 -0.67909 0.73041
vn 0.04730 -0.49158 0.86954
vn 0.38028 0.07541 -0.92179
vn 0.07494 0.04310 -0.99626
s 1
f 1/1/1 2/2/2 4/3/4 3/4/3
f 3/5/3 4/6/4 6/7/6 5/8/5
f 5/9/5 6/10/6 8/11/8 7/12/7
f 7/13/7 8/14/8 10/15/10 9/16/9
f 9/17/9 10/18/10 12/19/12 11/20/11
f 11/21/11 12/22/12 14/23/14 13/24/13
f 13/25/13 14/26/14 16/27/16 15/28/15
f 15/29/15 16/30/16 2/31/2 1/32/1
f 24/33/24 25/34/25 20/35/20 19/36/19
f 23/37/23 24/38/24 19/39/19 18/40/18
f 112/41/112 40/42/40 75/43/75 109/44/109
f 25/45/25 26/46/26 21/47/21 20/48/20
f 29/49/29 30/50/30 25/51/25 24/52/24
f 28/53/28 29/54/29 24/55/24 23/56/23
f 111/57/111 113/58/113 59/59/59
f 30/60/30 31/61/31 26/62/26 25/63/25
f 61/64/61 54/65/54 4/66/4 2/67/2
f 36/68/36 37/69/37 31/70/31 30/71/30
f 52/72/52 53/73/53 32/74/32 33/75/33
f 35/76/35 36/77/36 30/78/30 29/79/29
f 34/80/34 35/81/35 29/82/29 28/83/28
f 107/84/107 45/85/45 47/86/47 103/87/103
f 46/88/46 52/89/52 33/90/33 40/91/40
f 22/92/22 61/93/61 2/94/2 16/95/16
f 43/96/43 44/97/44 37/98/37 36/99/36
f 111/100/111 59/101/59 27/102/27 105/103/105
f 42/104/42 43/105/43 36/106/36 35/107/35
f 41/108/41 42/109/42 35/110/35 34/111/34
f 48/112/48 49/113/49 42/114/42 41/115/41
f 38/116/38 39/117/39 54/118/54 61/119/61
f 104/120/104 22/121/22 74/122/74 106/123/106
f 50/124/50 51/125/51 44/126/44 43/127/43
f 17/128/17 38/129/38 61/130/61 22/131/22
f 49/132/49 50/133/50 43/134/43 42/135/42
f 55/136/55 56/137/56 49/138/49 48/139/48
f 110/140/110 46/141/46 40/142/40 112/143/112
f 57/144/57 58/145/58 51/146/51 50/147/50
f 114/148/114 17/149/17 22/150/22 104/151/104
f 56/152/56 57/153/57 50/154/50 49/155/49
f 60/156/60 66/157/66 13/158/13 15/159/15
f 63/160/63 64/161/64 57/162/57 56/163/56
f 62/164/62 63/165/63 56/166/56 55/167/55
f 66/168/66 67/169/67 11/170/11 13/171/13
f 33/172/33 32/173/32 12/174/12 10/175/10
f 64/176/64 65/177/65 58/178/58 57/179/57
f 67/180/67 68/181/68 9/182/9 11/183/11
f 68/184/68 69/185/69 7/186/7 9/187/9
f 69/188/69 70/189/70 5/190/5 7/191/7
f 70/192/70 71/193/71 3/194/3 5/195/5
f 72/196/72 60/197/60 15/198/15 1/199/1
f 71/200/71 72/201/72 1/202/1 3/203/3
f 26/204/26 73/205/73 21/206/21
f 40/207/40 33/208/33 10/209/10 8/210/8
f 66/211/66 18/212/18 62/213/62 67/214/67
f 31/215/31 73/216/73 26/217/26
f 18/218/18 66/219/66 60/220/60 23/221/23
f 37/222/37 73/223/73 31/224/31
f 44/225/44 73/226/73 37/227/37
f 23/228/23 60/229/60 72/230/72 28/231/28
f 51/232/51 73/233/73 44/234/44
f 71/235/71 34/236/34 28/237/28 72/238/72
f 58/239/58 73/240/73 51/241/51
f 70/242/70 41/243/41 34/244/34 71/245/71
f 41/246/41 70/247/70 69/248/69 48/249/48
f 65/250/65 73/251/73 58/252/58
f 20/253/20 21/254/21 65/255/65 64/256/64
f 48/257/48 69/258/69 68/259/68 55/260/55
f 19/261/19 20/262/20 64/263/64 63/264/63
f 18/265/18 19/266/19 63/267/63 62/268/62
f 21/269/21 73/270/73 65/271/65
f 55/272/55 68/273/68 67/274/67 62/275/62
f 40/276/40 8/277/8 6/278/6 75/279/75
f 76/280/76 38/281/38 17/282/17 79/283/79
f 105/284/105 27/285/27 115/286/115
f 4/287/4 54/288/54 75/289/75 6/290/6
f 77/291/77 52/292/52 46/293/46 81/294/81
f 103/295/103 47/296/47 116/297/116
f 107/298/107 108/299/108 45/300/45
f 12/301/12 32/302/32 74/303/74 14/304/14
f 22/305/22 16/306/16 14/307/14 74/308/74
f 52/309/52 77/310/77 78/311/78 53/312/53
f 78/313/78 79/314/79 17/315/17 53/316/53
f 38/317/38 76/318/76 80/319/80 39/320/39
f 80/321/80 81/322/81 46/323/46 39/324/39
f 78/325/78 77/326/77 83/327/83 84/328/84
f 79/329/79 78/330/78 84/331/84 85/332/85
f 94/333/94 91/334/91 89/335/89 90/336/90
f 87/337/87 83/338/83 77/339/77 81/340/81
f 80/341/80 76/342/76 82/343/82 86/344/86
f 81/345/81 80/346/80 86/347/86 87/348/87
f 85/349/85 82/350/82 76/351/76 79/352/79
f 83/353/83 88/354/88 90/355/90 84/356/84
f 92/357/92 87/358/87 86/359/86
f 82/360/82 89/361/89 92/362/92 86/363/86
f 95/364/95 93/365/93 88/366/88 92/367/92
f 88/368/88 83/369/83 87/370/87 92/371/92
f 90/372/90 88/373/88 93/374/93 94/375/94
f 89/376/89 82/377/82 85/378/85 90/379/90
f 90/380/90 85/381/85 84/382/84
f 92/383/92 89/384/89 91/385/91 95/386/95
f 96/387/96 93/388/93 95/389/95
f 94/390/94 93/391/93 96/392/96
f 96/393/96 91/394/91 94/395/94
f 95/396/95 91/397/91 96/398/96
f 47/399/47 102/400/102 116/401/116
f 102/402/102 112/403/112 109/404/109 116/405/116
f 53/406/53 17/407/17 114/408/114 97/409/97
f 97/410/97 114/411/114 113/412/113 111/413/111
f 39/414/39 98/415/98 99/416/99 54/417/54
f 98/418/98 107/419/107 103/420/103 99/421/99
f 53/422/53 97/423/97 100/424/100 32/425/32
f 97/426/97 111/427/111 105/428/105 100/429/100
f 27/430/27 101/431/101 115/432/115
f 101/433/101 104/434/104 106/435/106 115/436/115
f 45/437/45 108/438/108 102/439/102 47/440/47
f 108/441/108 110/442/110 112/443/112 102/444/102
f 59/445/59 113/446/113 101/447/101 27/448/27
f 113/449/113 114/450/114 104/451/104 101/452/101
f 32/453/32 100/454/100 106/455/106 74/456/74
f 100/457/100 105/458/105 115/459/115 106/460/106
f 54/461/54 99/462/99 109/463/109 75/464/75
f 99/465/99 103/466/103 116/467/116 109/468/109
f 39/469/39 46/470/46 110/471/110 98/472/98
f 98/473/98 110/474/110 108/475/108 107/476/107
