# Blender 5.1.1
# www.blender.org
mtllib castle_tarmin.mtl
o CastleTarmin
v 0.000000 0.000000 -28.000000
v 0.000000 4.000000 -28.000000
v 14.000000 0.000000 -24.248711
v 14.000000 4.000000 -24.248711
v 24.248711 0.000000 -14.000000
v 24.248711 4.000000 -14.000000
v 28.000000 0.000000 0.000000
v 28.000000 4.000000 0.000000
v 24.248711 0.000000 14.000000
v 24.248711 4.000000 14.000000
v 14.000000 0.000000 24.248711
v 14.000000 4.000000 24.248711
v 0.000000 0.000000 28.000000
v 0.000000 4.000000 28.000000
v -14.000000 0.000000 24.248711
v -14.000000 4.000000 24.248711
v -24.248711 0.000000 14.000000
v -24.248711 4.000000 14.000000
v -28.000000 0.000000 0.000000
v -28.000000 4.000000 0.000000
v -24.248711 0.000000 -14.000000
v -24.248711 4.000000 -14.000000
v -14.000000 0.000000 -24.248711
v -14.000000 4.000000 -24.248711
v 0.000000 4.000000 -23.000000
v 0.000000 8.000000 -23.000000
v 11.500000 4.000000 -19.918585
v 11.500000 8.000000 -19.918585
v 19.918585 4.000000 -11.500000
v 19.918585 8.000000 -11.500000
v 23.000000 4.000000 0.000000
v 23.000000 8.000000 0.000000
v 19.918585 4.000000 11.500000
v 19.918585 8.000000 11.500000
v 11.500000 4.000000 19.918585
v 11.500000 8.000000 19.918585
v 0.000000 4.000000 23.000000
v 0.000000 8.000000 23.000000
v -11.500000 4.000000 19.918585
v -11.500000 8.000000 19.918585
v -19.918585 4.000000 11.500000
v -19.918585 8.000000 11.500000
v -23.000000 4.000000 0.000000
v -23.000000 8.000000 0.000000
v -19.918585 4.000000 -11.500000
v -19.918585 8.000000 -11.500000
v -11.500000 4.000000 -19.918585
v -11.500000 8.000000 -19.918585
v 0.000000 8.000000 -18.000000
v 0.000000 12.000000 -18.000000
v 9.000000 8.000000 -15.588457
v 9.000000 12.000000 -15.588457
v 15.588457 8.000000 -9.000000
v 15.588457 12.000000 -9.000000
v 18.000000 8.000000 0.000000
v 18.000000 12.000000 0.000000
v 15.588457 8.000000 9.000000
v 15.588457 12.000000 9.000000
v 9.000000 8.000000 15.588457
v 9.000000 12.000000 15.588457
v 0.000000 8.000000 18.000000
v 0.000000 12.000000 18.000000
v -9.000000 8.000000 15.588457
v -9.000000 12.000000 15.588457
v -15.588457 8.000000 9.000000
v -15.588457 12.000000 9.000000
v -18.000000 8.000000 0.000000
v -18.000000 12.000000 0.000000
v -15.588457 8.000000 -9.000000
v -15.588457 12.000000 -9.000000
v -9.000000 8.000000 -15.588457
v -9.000000 12.000000 -15.588457
v 0.000000 12.000000 -14.000000
v 0.000000 16.000000 -14.000000
v 7.000000 12.000000 -12.124355
v 7.000000 16.000000 -12.124355
v 12.124355 12.000000 -7.000000
v 12.124355 16.000000 -7.000000
v 14.000000 12.000000 0.000000
v 14.000000 16.000000 0.000000
v 12.124355 12.000000 7.000000
v 12.124355 16.000000 7.000000
v 7.000000 12.000000 12.124355
v 7.000000 16.000000 12.124355
v 0.000000 12.000000 14.000000
v 0.000000 16.000000 14.000000
v -7.000000 12.000000 12.124355
v -7.000000 16.000000 12.124355
v -12.124355 12.000000 7.000000
v -12.124355 16.000000 7.000000
v -14.000000 12.000000 0.000000
v -14.000000 16.000000 0.000000
v -12.124355 12.000000 -7.000000
v -12.124355 16.000000 -7.000000
v -7.000000 12.000000 -12.124355
v -7.000000 16.000000 -12.124355
v 0.000000 16.000000 -10.500000
v 0.000000 20.000000 -10.500000
v 5.250000 16.000000 -9.093266
v 5.250000 20.000000 -9.093266
v 9.093266 16.000000 -5.250000
v 9.093266 20.000000 -5.250000
v 10.500000 16.000000 0.000000
v 10.500000 20.000000 0.000000
v 9.093266 16.000000 5.250000
v 9.093266 20.000000 5.250000
v 5.250000 16.000000 9.093266
v 5.250000 20.000000 9.093266
v 0.000000 16.000000 10.500000
v 0.000000 20.000000 10.500000
v -5.250000 16.000000 9.093266
v -5.250000 20.000000 9.093266
v -9.093266 16.000000 5.250000
v -9.093266 20.000000 5.250000
v -10.500000 16.000000 0.000000
v -10.500000 20.000000 0.000000
v -9.093266 16.000000 -5.250000
v -9.093266 20.000000 -5.250000
v -5.250000 16.000000 -9.093266
v -5.250000 20.000000 -9.093266
v 15.912618 4.900931 0.900000
v 14.323263 12.741464 0.900000
v 15.912618 4.900931 -0.900000
v 14.323263 12.741464 -0.900000
v 17.676737 5.258536 0.900000
v 16.087383 13.099069 0.900000
v 17.676737 5.258536 -0.900000
v 16.087383 13.099069 -0.900000
v 11.322371 4.827024 -10.859622
v 11.330332 12.668088 -9.272910
v 10.037000 5.078201 -12.094421
v 10.044960 12.919266 -10.507710
v 12.582457 5.080734 -12.119707
v 12.590417 12.921799 -10.532995
v 11.297085 5.331912 -13.354506
v 11.305045 13.172976 -11.767795
v 0.087383 4.900931 -15.100000
v 1.676737 12.741464 -15.100000
v -1.676737 5.258536 -15.100000
v -0.087383 13.099069 -15.100000
v 0.087383 4.900931 -16.900000
v 1.676737 12.741464 -16.900000
v -1.676737 5.258536 -16.900000
v -0.087383 13.099069 -16.900000
v -10.044960 5.080734 -10.507710
v -10.037000 12.921799 -12.094421
v -11.330332 5.331912 -9.272910
v -11.322371 13.172976 -10.859622
v -11.305045 4.827024 -11.767795
v -11.297085 12.668088 -13.354506
v -12.590417 5.078201 -10.532995
v -12.582457 12.919266 -12.119707
v -14.323263 5.258536 -0.900000
v -15.912618 13.099069 -0.900000
v -14.323263 5.258536 0.900000
v -15.912618 13.099069 0.900000
v -16.087383 4.900931 -0.900000
v -17.676737 12.741464 -0.900000
v -16.087383 4.900931 0.900000
v -17.676737 12.741464 0.900000
v -11.330332 5.331912 9.272910
v -11.322371 13.172976 10.859622
v -10.044960 5.080734 10.507710
v -10.037000 12.921799 12.094421
v -12.590417 5.078201 10.532995
v -12.582457 12.919266 12.119707
v -11.305045 4.827024 11.767795
v -11.297085 12.668088 13.354506
v -1.676737 5.258536 15.100000
v -0.087383 13.099069 15.100000
v 0.087383 4.900931 15.100000
v 1.676737 12.741464 15.100000
v -1.676737 5.258536 16.900000
v -0.087383 13.099069 16.900000
v 0.087383 4.900931 16.900000
v 1.676737 12.741464 16.900000
v 10.037000 5.078201 12.094420
v 10.044960 12.919266 10.507709
v 11.322371 4.827024 10.859622
v 11.330332 12.668088 9.272910
v 11.297085 5.331912 13.354506
v 11.305045 13.172976 11.767795
v 12.582457 5.080734 12.119708
v 12.590417 12.921799 10.532996
v -2.488603 4.500000 12.986526
v -2.488603 13.500000 12.986526
v -2.686527 4.500000 12.211396
v -2.686527 13.500000 12.211396
v -1.713473 4.500000 12.788604
v -1.713473 13.500000 12.788604
v -1.911397 4.500000 12.013474
v -1.911397 13.500000 12.013474
v 1.713473 4.500000 12.788604
v 1.713473 13.500000 12.788604
v 1.911397 4.500000 12.013474
v 1.911397 13.500000 12.013474
v 2.488603 4.500000 12.986526
v 2.488603 13.500000 12.986526
v 2.686527 4.500000 12.211396
v 2.686527 13.500000 12.211396
v -1.512559 10.500000 10.971495
v -1.512559 17.500000 10.971495
v -1.671494 10.500000 10.187441
v -1.671494 17.500000 10.187441
v -0.728506 10.500000 10.812559
v -0.728506 17.500000 10.812559
v -0.887441 10.500000 10.028505
v -0.887441 17.500000 10.028505
v 0.728506 10.500000 10.812559
v 0.728506 17.500000 10.812559
v 0.887441 10.500000 10.028505
v 0.887441 17.500000 10.028505
v 1.512559 10.500000 10.971495
v 1.512559 17.500000 10.971495
v 1.671494 10.500000 10.187441
v 1.671494 17.500000 10.187441
v -0.500000 15.700000 9.500000
v -0.500000 19.299999 9.500000
v -0.500000 15.700000 8.500000
v -0.500000 19.299999 8.500000
v 0.500000 15.700000 9.500000
v 0.500000 19.299999 9.500000
v 0.500000 15.700000 8.500000
v 0.500000 19.299999 8.500000
v -6.000000 19.750000 6.000000
v -6.000000 21.250000 6.000000
v -6.000000 19.750000 -6.000000
v -6.000000 21.250000 -6.000000
v 6.000000 19.750000 6.000000
v 6.000000 21.250000 6.000000
v 6.000000 19.750000 -6.000000
v 6.000000 21.250000 -6.000000
v -4.250000 21.250000 4.250000
v -4.250000 27.750000 4.250000
v -4.250000 21.250000 -4.250000
v -4.250000 27.750000 -4.250000
v 4.250000 21.250000 4.250000
v 4.250000 27.750000 4.250000
v 4.250000 21.250000 -4.250000
v 4.250000 27.750000 -4.250000
v -5.500000 21.250000 5.500000
v -5.500000 31.750000 5.500000
v -5.500000 21.250000 2.900000
v -5.500000 31.750000 2.900000
v -2.900000 21.250000 5.500000
v -2.900000 31.750000 5.500000
v -2.900000 21.250000 2.900000
v -2.900000 31.750000 2.900000
v -5.350000 31.700001 5.350000
v -5.350000 32.700001 5.350000
v -5.350000 31.700001 4.850000
v -5.350000 32.700001 4.850000
v -4.850000 31.700001 5.350000
v -4.850000 32.700001 5.350000
v -4.850000 31.700001 4.850000
v -4.850000 32.700001 4.850000
v -3.550000 31.700001 5.350000
v -3.550000 32.700001 5.350000
v -3.550000 31.700001 4.850000
v -3.550000 32.700001 4.850000
v -3.050000 31.700001 5.350000
v -3.050000 32.700001 5.350000
v -3.050000 31.700001 4.850000
v -3.050000 32.700001 4.850000
v -3.550000 31.700001 3.550000
v -3.550000 32.700001 3.550000
v -3.550000 31.700001 3.050000
v -3.550000 32.700001 3.050000
v -3.050000 31.700001 3.550000
v -3.050000 32.700001 3.550000
v -3.050000 31.700001 3.050000
v -3.050000 32.700001 3.050000
v -5.350000 31.700001 3.550000
v -5.350000 32.700001 3.550000
v -5.350000 31.700001 3.050000
v -5.350000 32.700001 3.050000
v -4.850000 31.700001 3.550000
v -4.850000 32.700001 3.550000
v -4.850000 31.700001 3.050000
v -4.850000 32.700001 3.050000
v 2.900000 21.250000 5.500000
v 2.900000 31.750000 5.500000
v 2.900000 21.250000 2.900000
v 2.900000 31.750000 2.900000
v 5.500000 21.250000 5.500000
v 5.500000 31.750000 5.500000
v 5.500000 21.250000 2.900000
v 5.500000 31.750000 2.900000
v 3.050000 31.700001 5.350000
v 3.050000 32.700001 5.350000
v 3.050000 31.700001 4.850000
v 3.050000 32.700001 4.850000
v 3.550000 31.700001 5.350000
v 3.550000 32.700001 5.350000
v 3.550000 31.700001 4.850000
v 3.550000 32.700001 4.850000
v 4.850000 31.700001 5.350000
v 4.850000 32.700001 5.350000
v 4.850000 31.700001 4.850000
v 4.850000 32.700001 4.850000
v 5.350000 31.700001 5.350000
v 5.350000 32.700001 5.350000
v 5.350000 31.700001 4.850000
v 5.350000 32.700001 4.850000
v 4.850000 31.700001 3.550000
v 4.850000 32.700001 3.550000
v 4.850000 31.700001 3.050000
v 4.850000 32.700001 3.050000
v 5.350000 31.700001 3.550000
v 5.350000 32.700001 3.550000
v 5.350000 31.700001 3.050000
v 5.350000 32.700001 3.050000
v 3.050000 31.700001 3.550000
v 3.050000 32.700001 3.550000
v 3.050000 31.700001 3.050000
v 3.050000 32.700001 3.050000
v 3.550000 31.700001 3.550000
v 3.550000 32.700001 3.550000
v 3.550000 31.700001 3.050000
v 3.550000 32.700001 3.050000
v -5.500000 21.250000 -2.900000
v -5.500000 31.750000 -2.900000
v -5.500000 21.250000 -5.500000
v -5.500000 31.750000 -5.500000
v -2.900000 21.250000 -2.900000
v -2.900000 31.750000 -2.900000
v -2.900000 21.250000 -5.500000
v -2.900000 31.750000 -5.500000
v -5.350000 31.700001 -3.050000
v -5.350000 32.700001 -3.050000
v -5.350000 31.700001 -3.550000
v -5.350000 32.700001 -3.550000
v -4.850000 31.700001 -3.050000
v -4.850000 32.700001 -3.050000
v -4.850000 31.700001 -3.550000
v -4.850000 32.700001 -3.550000
v -3.550000 31.700001 -3.050000
v -3.550000 32.700001 -3.050000
v -3.550000 31.700001 -3.550000
v -3.550000 32.700001 -3.550000
v -3.050000 31.700001 -3.050000
v -3.050000 32.700001 -3.050000
v -3.050000 31.700001 -3.550000
v -3.050000 32.700001 -3.550000
v -3.550000 31.700001 -4.850000
v -3.550000 32.700001 -4.850000
v -3.550000 31.700001 -5.350000
v -3.550000 32.700001 -5.350000
v -3.050000 31.700001 -4.850000
v -3.050000 32.700001 -4.850000
v -3.050000 31.700001 -5.350000
v -3.050000 32.700001 -5.350000
v -5.350000 31.700001 -4.850000
v -5.350000 32.700001 -4.850000
v -5.350000 31.700001 -5.350000
v -5.350000 32.700001 -5.350000
v -4.850000 31.700001 -4.850000
v -4.850000 32.700001 -4.850000
v -4.850000 31.700001 -5.350000
v -4.850000 32.700001 -5.350000
v 2.900000 21.250000 -2.900000
v 2.900000 31.750000 -2.900000
v 2.900000 21.250000 -5.500000
v 2.900000 31.750000 -5.500000
v 5.500000 21.250000 -2.900000
v 5.500000 31.750000 -2.900000
v 5.500000 21.250000 -5.500000
v 5.500000 31.750000 -5.500000
v 3.050000 31.700001 -3.050000
v 3.050000 32.700001 -3.050000
v 3.050000 31.700001 -3.550000
v 3.050000 32.700001 -3.550000
v 3.550000 31.700001 -3.050000
v 3.550000 32.700001 -3.050000
v 3.550000 31.700001 -3.550000
v 3.550000 32.700001 -3.550000
v 4.850000 31.700001 -3.050000
v 4.850000 32.700001 -3.050000
v 4.850000 31.700001 -3.550000
v 4.850000 32.700001 -3.550000
v 5.350000 31.700001 -3.050000
v 5.350000 32.700001 -3.050000
v 5.350000 31.700001 -3.550000
v 5.350000 32.700001 -3.550000
v 4.850000 31.700001 -4.850000
v 4.850000 32.700001 -4.850000
v 4.850000 31.700001 -5.350000
v 4.850000 32.700001 -5.350000
v 5.350000 31.700001 -4.850000
v 5.350000 32.700001 -4.850000
v 5.350000 31.700001 -5.350000
v 5.350000 32.700001 -5.350000
v 3.050000 31.700001 -4.850000
v 3.050000 32.700001 -4.850000
v 3.050000 31.700001 -5.350000
v 3.050000 32.700001 -5.350000
v 3.550000 31.700001 -4.850000
v 3.550000 32.700001 -4.850000
v 3.550000 31.700001 -5.350000
v 3.550000 32.700001 -5.350000
v -2.250000 25.000000 2.250000
v -2.250000 33.000000 2.250000
v -2.250000 25.000000 -2.250000
v -2.250000 33.000000 -2.250000
v 2.250000 25.000000 2.250000
v 2.250000 33.000000 2.250000
v 2.250000 25.000000 -2.250000
v 2.250000 33.000000 -2.250000
v -0.250000 24.299999 4.400000
v -0.250000 25.700001 4.400000
v -0.250000 24.299999 4.200000
v -0.250000 25.700001 4.200000
v 0.250000 24.299999 4.400000
v 0.250000 25.700001 4.400000
v 0.250000 24.299999 4.200000
v 0.250000 25.700001 4.200000
v -2.450000 23.299999 4.400000
v -2.450000 24.700001 4.400000
v -2.450000 23.299999 4.200000
v -2.450000 24.700001 4.200000
v -1.950000 23.299999 4.400000
v -1.950000 24.700001 4.400000
v -1.950000 23.299999 4.200000
v -1.950000 24.700001 4.200000
v 1.950000 23.299999 4.400000
v 1.950000 24.700001 4.400000
v 1.950000 23.299999 4.200000
v 1.950000 24.700001 4.200000
v 2.450000 23.299999 4.400000
v 2.450000 24.700001 4.400000
v 2.450000 23.299999 4.200000
v 2.450000 24.700001 4.200000
v -0.250000 29.299999 2.400000
v -0.250000 30.700001 2.400000
v -0.250000 29.299999 2.200000
v -0.250000 30.700001 2.200000
v 0.250000 29.299999 2.400000
v 0.250000 30.700001 2.400000
v 0.250000 29.299999 2.200000
v 0.250000 30.700001 2.200000
vn 0.2588 -0.0000 -0.9659
vn 0.7071 -0.0000 -0.7071
vn 0.9659 -0.0000 -0.2588
vn 0.9659 -0.0000 0.2588
vn 0.7071 -0.0000 0.7071
vn 0.2588 -0.0000 0.9659
vn -0.2588 -0.0000 0.9659
vn -0.7071 -0.0000 0.7071
vn -0.9659 -0.0000 0.2588
vn -0.9659 -0.0000 -0.2588
vn -0.0000 1.0000 -0.0000
vn -0.7071 -0.0000 -0.7071
vn -0.2588 -0.0000 -0.9659
vn -0.0000 -1.0000 -0.0000
vn -0.9801 -0.1987 -0.0000
vn -0.0000 -0.0000 -1.0000
vn 0.9801 0.1987 -0.0000
vn -0.0000 -0.0000 1.0000
vn 0.1987 -0.9801 -0.0000
vn -0.1987 0.9801 -0.0000
vn -0.7000 -0.1410 0.7000
vn -0.7141 0.1395 -0.6860
vn 0.7000 0.1410 -0.7000
vn 0.7141 -0.1395 0.6860
vn -0.0010 -0.9801 -0.1983
vn 0.0010 0.9801 0.1983
vn -0.9801 0.1987 -0.0000
vn 0.9801 -0.1987 -0.0000
vn -0.1987 -0.9801 -0.0000
vn 0.1987 0.9801 -0.0000
vn 0.7000 0.1410 0.7000
vn -0.7141 0.1395 0.6860
vn -0.7000 -0.1410 -0.7000
vn 0.7141 -0.1395 -0.6860
vn -0.0010 -0.9801 0.1983
vn 0.0010 0.9801 -0.1983
vn -0.9689 -0.0000 0.2474
vn -0.2474 -0.0000 -0.9689
vn 0.9689 -0.0000 -0.2474
vn 0.2474 -0.0000 0.9689
vn -0.9689 -0.0000 -0.2474
vn 0.2474 -0.0000 -0.9689
vn 0.9689 -0.0000 0.2474
vn -0.2474 -0.0000 0.9689
vn -0.9801 -0.0000 0.1987
vn -0.1987 -0.0000 -0.9801
vn 0.9801 -0.0000 -0.1987
vn 0.1987 -0.0000 0.9801
vn -0.9801 -0.0000 -0.1987
vn 0.1987 -0.0000 -0.9801
vn 0.9801 -0.0000 0.1987
vn -0.1987 -0.0000 0.9801
vn -1.0000 -0.0000 -0.0000
vn 1.0000 -0.0000 -0.0000
vt 1.000000 1.000000
vt 0.916667 0.500000
vt 1.000000 0.500000
vt 0.916667 1.000000
vt 0.833333 0.500000
vt 0.833333 1.000000
vt 0.750000 0.500000
vt 0.750000 1.000000
vt 0.666667 0.500000
vt 0.666667 1.000000
vt 0.583333 0.500000
vt 0.583333 1.000000
vt 0.500000 0.500000
vt 0.500000 1.000000
vt 0.416667 0.500000
vt 0.416667 1.000000
vt 0.333333 0.500000
vt 0.333333 1.000000
vt 0.250000 0.500000
vt 0.250000 1.000000
vt 0.166667 0.500000
vt 0.042154 0.370000
vt 0.250000 0.010000
vt 0.457846 0.370000
vt 0.166667 1.000000
vt 0.083333 0.500000
vt 0.083333 1.000000
vt 0.000000 0.500000
vt 0.990000 0.250000
vt 0.630000 0.042154
vt 0.630000 0.457846
vt 0.625000 0.000000
vt 0.375000 0.250000
vt 0.375000 0.000000
vt 0.625000 0.250000
vt 0.375000 0.500000
vt 0.625000 0.500000
vt 0.375000 0.750000
vt 0.625000 0.750000
vt 0.375000 1.000000
vt 0.125000 0.750000
vt 0.125000 0.500000
vt 0.875000 0.500000
vt 0.875000 0.750000
vt 0.370000 0.457846
vt 0.250000 0.490000
vt 0.130000 0.457846
vt 0.010000 0.250000
vt 0.042154 0.130000
vt 0.130000 0.042154
vt 0.370000 0.042154
vt 0.457846 0.130000
vt 0.490000 0.250000
vt 0.000000 1.000000
vt 0.750000 0.490000
vt 0.870000 0.457846
vt 0.957846 0.370000
vt 0.957846 0.130000
vt 0.870000 0.042154
vt 0.750000 0.010000
vt 0.542154 0.130000
vt 0.510000 0.250000
vt 0.542154 0.370000
vt 0.625000 1.000000
s 0
usemtl MatMountain
f 2/1/1 3/2/1 1/3/1
f 4/4/2 5/5/2 3/2/2
f 6/6/3 7/7/3 5/5/3
f 8/8/4 9/9/4 7/7/4
f 10/10/5 11/11/5 9/9/5
f 12/12/6 13/13/6 11/11/6
f 14/14/7 15/15/7 13/13/7
f 16/16/8 17/17/8 15/15/8
f 18/18/9 19/19/9 17/17/9
f 20/20/10 21/21/10 19/19/10
f 22/22/11 14/23/11 6/24/11
f 22/25/12 23/26/12 21/21/12
f 24/27/13 1/28/13 23/26/13
f 7/29/14 15/30/14 23/31/14
f 26/1/1 27/2/1 25/3/1
f 28/4/2 29/5/2 27/2/2
f 30/6/3 31/7/3 29/5/3
f 32/8/4 33/9/4 31/7/4
f 34/10/5 35/11/5 33/9/5
f 36/12/6 37/13/6 35/11/6
f 38/14/7 39/15/7 37/13/7
f 40/16/8 41/17/8 39/15/8
f 42/18/9 43/19/9 41/17/9
f 44/20/10 45/21/10 43/19/10
f 46/22/11 38/23/11 30/24/11
f 46/25/12 47/26/12 45/21/12
f 48/27/13 25/28/13 47/26/13
f 31/29/14 39/30/14 47/31/14
f 50/1/1 51/2/1 49/3/1
f 52/4/2 53/5/2 51/2/2
f 54/6/3 55/7/3 53/5/3
f 56/8/4 57/9/4 55/7/4
f 58/10/5 59/11/5 57/9/5
f 60/12/6 61/13/6 59/11/6
f 62/14/7 63/15/7 61/13/7
f 64/16/8 65/17/8 63/15/8
f 66/18/9 67/19/9 65/17/9
f 68/20/10 69/21/10 67/19/10
f 70/22/11 62/23/11 54/24/11
f 70/25/12 71/26/12 69/21/12
f 72/27/13 49/28/13 71/26/13
f 55/29/14 63/30/14 71/31/14
f 74/1/1 75/2/1 73/3/1
f 76/4/2 77/5/2 75/2/2
f 78/6/3 79/7/3 77/5/3
f 80/8/4 81/9/4 79/7/4
f 82/10/5 83/11/5 81/9/5
f 84/12/6 85/13/6 83/11/6
f 86/14/7 87/15/7 85/13/7
f 88/16/8 89/17/8 87/15/8
f 90/18/9 91/19/9 89/17/9
f 92/20/10 93/21/10 91/19/10
f 94/22/11 86/23/11 78/24/11
f 94/25/12 95/26/12 93/21/12
f 96/27/13 73/28/13 95/26/13
f 79/29/14 87/30/14 95/31/14
f 98/1/1 99/2/1 97/3/1
f 100/4/2 101/5/2 99/2/2
f 102/6/3 103/7/3 101/5/3
f 104/8/4 105/9/4 103/7/4
f 106/10/5 107/11/5 105/9/5
f 108/12/6 109/13/6 107/11/6
f 110/14/7 111/15/7 109/13/7
f 112/16/8 113/17/8 111/15/8
f 114/18/9 115/19/9 113/17/9
f 116/20/10 117/21/10 115/19/10
f 118/22/11 110/23/11 102/24/11
f 118/25/12 119/26/12 117/21/12
f 120/27/13 97/28/13 119/26/13
f 103/29/14 111/30/14 119/31/14
f 122/32/15 123/33/15 121/34/15
f 124/35/16 127/36/16 123/33/16
f 128/37/17 125/38/17 127/36/17
f 126/39/18 121/40/18 125/38/18
f 127/36/19 121/41/19 123/42/19
f 124/43/20 126/39/20 128/37/20
f 129/34/21 132/35/21 131/33/21
f 132/35/22 135/36/22 131/33/22
f 136/37/23 133/38/23 135/36/23
f 134/39/24 129/40/24 133/38/24
f 131/42/25 133/38/25 129/41/25
f 132/43/26 134/39/26 136/37/26
f 138/32/18 139/33/18 137/34/18
f 140/35/27 143/36/27 139/33/27
f 144/37/16 141/38/16 143/36/16
f 142/39/28 137/40/28 141/38/28
f 143/36/29 137/41/29 139/42/29
f 140/43/30 142/39/30 144/37/30
f 146/32/31 147/33/31 145/34/31
f 148/35/32 151/36/32 147/33/32
f 152/37/33 149/38/33 151/36/33
f 150/39/34 145/40/34 149/38/34
f 151/36/35 145/41/35 147/42/35
f 152/37/36 146/44/36 150/39/36
f 154/32/17 155/33/17 153/34/17
f 156/35/18 159/36/18 155/33/18
f 160/37/15 157/38/15 159/36/15
f 158/39/16 153/40/16 157/38/16
f 159/36/19 153/41/19 155/42/19
f 156/43/20 158/39/20 160/37/20
f 162/32/23 163/33/23 161/34/23
f 164/35/24 167/36/24 163/33/24
f 168/37/21 165/38/21 167/36/21
f 166/39/22 161/40/22 165/38/22
f 163/42/25 165/38/25 161/41/25
f 164/43/26 166/39/26 168/37/26
f 170/32/16 171/33/16 169/34/16
f 172/35/28 175/36/28 171/33/28
f 175/36/18 174/39/18 173/38/18
f 174/39/27 169/40/27 173/38/27
f 175/36/29 169/41/29 171/42/29
f 172/43/30 174/39/30 176/37/30
f 177/34/33 180/35/33 179/33/33
f 180/35/34 183/36/34 179/33/34
f 184/37/31 181/38/31 183/36/31
f 182/39/32 177/40/32 181/38/32
f 183/36/35 177/41/35 179/42/35
f 184/37/36 178/44/36 182/39/36
f 2/1/1 4/4/1 3/2/1
f 4/4/2 6/6/2 5/5/2
f 6/6/3 8/8/3 7/7/3
f 8/8/4 10/10/4 9/9/4
f 10/10/5 12/12/5 11/11/5
f 12/12/6 14/14/6 13/13/6
f 14/14/7 16/16/7 15/15/7
f 16/16/8 18/18/8 17/17/8
f 18/18/9 20/20/9 19/19/9
f 20/20/10 22/25/10 21/21/10
f 6/24/11 4/45/11 2/46/11
f 2/46/11 24/47/11 22/22/11
f 22/22/11 20/48/11 18/49/11
f 18/49/11 16/50/11 14/23/11
f 14/23/11 12/51/11 10/52/11
f 10/52/11 8/53/11 6/24/11
f 6/24/11 2/46/11 22/22/11
f 22/22/11 18/49/11 14/23/11
f 14/23/11 10/52/11 6/24/11
f 22/25/12 24/27/12 23/26/12
f 24/27/13 2/54/13 1/28/13
f 23/31/14 1/55/14 3/56/14
f 3/56/14 5/57/14 7/29/14
f 7/29/14 9/58/14 11/59/14
f 11/59/14 13/60/14 15/30/14
f 15/30/14 17/61/14 19/62/14
f 19/62/14 21/63/14 23/31/14
f 23/31/14 3/56/14 7/29/14
f 7/29/14 11/59/14 15/30/14
f 15/30/14 19/62/14 23/31/14
f 26/1/1 28/4/1 27/2/1
f 28/4/2 30/6/2 29/5/2
f 30/6/3 32/8/3 31/7/3
f 32/8/4 34/10/4 33/9/4
f 34/10/5 36/12/5 35/11/5
f 36/12/6 38/14/6 37/13/6
f 38/14/7 40/16/7 39/15/7
f 40/16/8 42/18/8 41/17/8
f 42/18/9 44/20/9 43/19/9
f 44/20/10 46/25/10 45/21/10
f 30/24/11 28/45/11 26/46/11
f 26/46/11 48/47/11 46/22/11
f 46/22/11 44/48/11 42/49/11
f 42/49/11 40/50/11 38/23/11
f 38/23/11 36/51/11 34/52/11
f 34/52/11 32/53/11 30/24/11
f 30/24/11 26/46/11 46/22/11
f 46/22/11 42/49/11 38/23/11
f 38/23/11 34/52/11 30/24/11
f 46/25/12 48/27/12 47/26/12
f 48/27/13 26/54/13 25/28/13
f 47/31/14 25/55/14 27/56/14
f 27/56/14 29/57/14 31/29/14
f 31/29/14 33/58/14 35/59/14
f 35/59/14 37/60/14 39/30/14
f 39/30/14 41/61/14 43/62/14
f 43/62/14 45/63/14 47/31/14
f 47/31/14 27/56/14 31/29/14
f 31/29/14 35/59/14 39/30/14
f 39/30/14 43/62/14 47/31/14
f 50/1/1 52/4/1 51/2/1
f 52/4/2 54/6/2 53/5/2
f 54/6/3 56/8/3 55/7/3
f 56/8/4 58/10/4 57/9/4
f 58/10/5 60/12/5 59/11/5
f 60/12/6 62/14/6 61/13/6
f 62/14/7 64/16/7 63/15/7
f 64/16/8 66/18/8 65/17/8
f 66/18/9 68/20/9 67/19/9
f 68/20/10 70/25/10 69/21/10
f 54/24/11 52/45/11 50/46/11
f 50/46/11 72/47/11 70/22/11
f 70/22/11 68/48/11 66/49/11
f 66/49/11 64/50/11 62/23/11
f 62/23/11 60/51/11 58/52/11
f 58/52/11 56/53/11 54/24/11
f 54/24/11 50/46/11 70/22/11
f 70/22/11 66/49/11 62/23/11
f 62/23/11 58/52/11 54/24/11
f 70/25/12 72/27/12 71/26/12
f 72/27/13 50/54/13 49/28/13
f 71/31/14 49/55/14 51/56/14
f 51/56/14 53/57/14 55/29/14
f 55/29/14 57/58/14 59/59/14
f 59/59/14 61/60/14 63/30/14
f 63/30/14 65/61/14 67/62/14
f 67/62/14 69/63/14 71/31/14
f 71/31/14 51/56/14 55/29/14
f 55/29/14 59/59/14 63/30/14
f 63/30/14 67/62/14 71/31/14
f 74/1/1 76/4/1 75/2/1
f 76/4/2 78/6/2 77/5/2
f 78/6/3 80/8/3 79/7/3
f 80/8/4 82/10/4 81/9/4
f 82/10/5 84/12/5 83/11/5
f 84/12/6 86/14/6 85/13/6
f 86/14/7 88/16/7 87/15/7
f 88/16/8 90/18/8 89/17/8
f 90/18/9 92/20/9 91/19/9
f 92/20/10 94/25/10 93/21/10
f 78/24/11 76/45/11 74/46/11
f 74/46/11 96/47/11 94/22/11
f 94/22/11 92/48/11 90/49/11
f 90/49/11 88/50/11 86/23/11
f 86/23/11 84/51/11 82/52/11
f 82/52/11 80/53/11 78/24/11
f 78/24/11 74/46/11 94/22/11
f 94/22/11 90/49/11 86/23/11
f 86/23/11 82/52/11 78/24/11
f 94/25/12 96/27/12 95/26/12
f 96/27/13 74/54/13 73/28/13
f 95/31/14 73/55/14 75/56/14
f 75/56/14 77/57/14 79/29/14
f 79/29/14 81/58/14 83/59/14
f 83/59/14 85/60/14 87/30/14
f 87/30/14 89/61/14 91/62/14
f 91/62/14 93/63/14 95/31/14
f 95/31/14 75/56/14 79/29/14
f 79/29/14 83/59/14 87/30/14
f 87/30/14 91/62/14 95/31/14
f 98/1/1 100/4/1 99/2/1
f 100/4/2 102/6/2 101/5/2
f 102/6/3 104/8/3 103/7/3
f 104/8/4 106/10/4 105/9/4
f 106/10/5 108/12/5 107/11/5
f 108/12/6 110/14/6 109/13/6
f 110/14/7 112/16/7 111/15/7
f 112/16/8 114/18/8 113/17/8
f 114/18/9 116/20/9 115/19/9
f 116/20/10 118/25/10 117/21/10
f 102/24/11 100/45/11 98/46/11
f 98/46/11 120/47/11 118/22/11
f 118/22/11 116/48/11 114/49/11
f 114/49/11 112/50/11 110/23/11
f 110/23/11 108/51/11 106/52/11
f 106/52/11 104/53/11 102/24/11
f 102/24/11 98/46/11 118/22/11
f 118/22/11 114/49/11 110/23/11
f 110/23/11 106/52/11 102/24/11
f 118/25/12 120/27/12 119/26/12
f 120/27/13 98/54/13 97/28/13
f 119/31/14 97/55/14 99/56/14
f 99/56/14 101/57/14 103/29/14
f 103/29/14 105/58/14 107/59/14
f 107/59/14 109/60/14 111/30/14
f 111/30/14 113/61/14 115/62/14
f 115/62/14 117/63/14 119/31/14
f 119/31/14 99/56/14 103/29/14
f 103/29/14 107/59/14 111/30/14
f 111/30/14 115/62/14 119/31/14
f 122/32/15 124/35/15 123/33/15
f 124/35/16 128/37/16 127/36/16
f 128/37/17 126/39/17 125/38/17
f 126/39/18 122/64/18 121/40/18
f 127/36/19 125/38/19 121/41/19
f 124/43/20 122/44/20 126/39/20
f 129/34/21 130/32/21 132/35/21
f 132/35/22 136/37/22 135/36/22
f 136/37/23 134/39/23 133/38/23
f 134/39/24 130/64/24 129/40/24
f 131/42/25 135/36/25 133/38/25
f 132/43/26 130/44/26 134/39/26
f 138/32/18 140/35/18 139/33/18
f 140/35/27 144/37/27 143/36/27
f 144/37/16 142/39/16 141/38/16
f 142/39/28 138/64/28 137/40/28
f 143/36/29 141/38/29 137/41/29
f 140/43/30 138/44/30 142/39/30
f 146/32/31 148/35/31 147/33/31
f 148/35/32 152/37/32 151/36/32
f 152/37/33 150/39/33 149/38/33
f 150/39/34 146/64/34 145/40/34
f 151/36/35 149/38/35 145/41/35
f 152/37/36 148/43/36 146/44/36
f 154/32/17 156/35/17 155/33/17
f 156/35/18 160/37/18 159/36/18
f 160/37/15 158/39/15 157/38/15
f 158/39/16 154/64/16 153/40/16
f 159/36/19 157/38/19 153/41/19
f 156/43/20 154/44/20 158/39/20
f 162/32/23 164/35/23 163/33/23
f 164/35/24 168/37/24 167/36/24
f 168/37/21 166/39/21 165/38/21
f 166/39/22 162/64/22 161/40/22
f 163/42/25 167/36/25 165/38/25
f 164/43/26 162/44/26 166/39/26
f 170/32/16 172/35/16 171/33/16
f 172/35/28 176/37/28 175/36/28
f 175/36/18 176/37/18 174/39/18
f 174/39/27 170/64/27 169/40/27
f 175/36/29 173/38/29 169/41/29
f 172/43/30 170/44/30 174/39/30
f 177/34/33 178/32/33 180/35/33
f 180/35/34 184/37/34 183/36/34
f 184/37/31 182/39/31 181/38/31
f 182/39/32 178/64/32 177/40/32
f 183/36/35 181/38/35 177/41/35
f 184/37/36 180/43/36 178/44/36
usemtl MatChevron
f 186/32/37 187/33/37 185/34/37
f 188/35/38 191/36/38 187/33/38
f 192/37/39 189/38/39 191/36/39
f 190/39/40 185/40/40 189/38/40
f 191/36/14 185/41/14 187/42/14
f 192/37/11 186/44/11 190/39/11
f 194/32/41 195/33/41 193/34/41
f 196/35/42 199/36/42 195/33/42
f 200/37/43 197/38/43 199/36/43
f 198/39/44 193/40/44 197/38/44
f 195/42/14 197/38/14 193/41/14
f 196/43/11 198/39/11 200/37/11
f 202/32/45 203/33/45 201/34/45
f 204/35/46 207/36/46 203/33/46
f 208/37/47 205/38/47 207/36/47
f 206/39/48 201/40/48 205/38/48
f 207/36/14 201/41/14 203/42/14
f 208/37/11 202/44/11 206/39/11
f 210/32/49 211/33/49 209/34/49
f 212/35/50 215/36/50 211/33/50
f 216/37/51 213/38/51 215/36/51
f 214/39/52 209/40/52 213/38/52
f 211/42/14 213/38/14 209/41/14
f 212/43/11 214/39/11 216/37/11
f 218/32/53 219/33/53 217/34/53
f 220/35/16 223/36/16 219/33/16
f 224/37/54 221/38/54 223/36/54
f 222/39/18 217/40/18 221/38/18
f 223/36/14 217/41/14 219/42/14
f 220/43/11 222/39/11 224/37/11
f 186/32/37 188/35/37 187/33/37
f 188/35/38 192/37/38 191/36/38
f 192/37/39 190/39/39 189/38/39
f 190/39/40 186/64/40 185/40/40
f 191/36/14 189/38/14 185/41/14
f 192/37/11 188/43/11 186/44/11
f 194/32/41 196/35/41 195/33/41
f 196/35/42 200/37/42 199/36/42
f 200/37/43 198/39/43 197/38/43
f 198/39/44 194/64/44 193/40/44
f 195/42/14 199/36/14 197/38/14
f 196/43/11 194/44/11 198/39/11
f 202/32/45 204/35/45 203/33/45
f 204/35/46 208/37/46 207/36/46
f 208/37/47 206/39/47 205/38/47
f 206/39/48 202/64/48 201/40/48
f 207/36/14 205/38/14 201/41/14
f 208/37/11 204/43/11 202/44/11
f 210/32/49 212/35/49 211/33/49
f 212/35/50 216/37/50 215/36/50
f 216/37/51 214/39/51 213/38/51
f 214/39/52 210/64/52 209/40/52
f 211/42/14 215/36/14 213/38/14
f 212/43/11 210/44/11 214/39/11
f 218/32/53 220/35/53 219/33/53
f 220/35/16 224/37/16 223/36/16
f 224/37/54 222/39/54 221/38/54
f 222/39/18 218/64/18 217/40/18
f 223/36/14 221/38/14 217/41/14
f 220/43/11 218/44/11 222/39/11
usemtl MatCitadel
f 226/32/53 227/33/53 225/34/53
f 228/35/16 231/36/16 227/33/16
f 232/37/54 229/38/54 231/36/54
f 230/39/18 225/40/18 229/38/18
f 231/36/14 225/41/14 227/42/14
f 228/43/11 230/39/11 232/37/11
f 234/32/53 235/33/53 233/34/53
f 236/35/16 239/36/16 235/33/16
f 240/37/54 237/38/54 239/36/54
f 238/39/18 233/40/18 237/38/18
f 239/36/14 233/41/14 235/42/14
f 236/43/11 238/39/11 240/37/11
f 242/32/53 243/33/53 241/34/53
f 244/35/16 247/36/16 243/33/16
f 248/37/54 245/38/54 247/36/54
f 246/39/18 241/40/18 245/38/18
f 247/36/14 241/41/14 243/42/14
f 244/43/11 246/39/11 248/37/11
f 250/32/53 251/33/53 249/34/53
f 252/35/16 255/36/16 251/33/16
f 256/37/54 253/38/54 255/36/54
f 254/39/18 249/40/18 253/38/18
f 255/36/14 249/41/14 251/42/14
f 252/43/11 254/39/11 256/37/11
f 258/32/53 259/33/53 257/34/53
f 260/35/16 263/36/16 259/33/16
f 264/37/54 261/38/54 263/36/54
f 262/39/18 257/40/18 261/38/18
f 263/36/14 257/41/14 259/42/14
f 260/43/11 262/39/11 264/37/11
f 266/32/53 267/33/53 265/34/53
f 268/35/16 271/36/16 267/33/16
f 272/37/54 269/38/54 271/36/54
f 270/39/18 265/40/18 269/38/18
f 271/36/14 265/41/14 267/42/14
f 268/43/11 270/39/11 272/37/11
f 274/32/53 275/33/53 273/34/53
f 276/35/16 279/36/16 275/33/16
f 280/37/54 277/38/54 279/36/54
f 278/39/18 273/40/18 277/38/18
f 279/36/14 273/41/14 275/42/14
f 276/43/11 278/39/11 280/37/11
f 282/32/53 283/33/53 281/34/53
f 284/35/16 287/36/16 283/33/16
f 288/37/54 285/38/54 287/36/54
f 286/39/18 281/40/18 285/38/18
f 287/36/14 281/41/14 283/42/14
f 284/43/11 286/39/11 288/37/11
f 290/32/53 291/33/53 289/34/53
f 292/35/16 295/36/16 291/33/16
f 296/37/54 293/38/54 295/36/54
f 294/39/18 289/40/18 293/38/18
f 295/36/14 289/41/14 291/42/14
f 292/43/11 294/39/11 296/37/11
f 298/32/53 299/33/53 297/34/53
f 300/35/16 303/36/16 299/33/16
f 304/37/54 301/38/54 303/36/54
f 302/39/18 297/40/18 301/38/18
f 303/36/14 297/41/14 299/42/14
f 300/43/11 302/39/11 304/37/11
f 306/32/53 307/33/53 305/34/53
f 308/35/16 311/36/16 307/33/16
f 312/37/54 309/38/54 311/36/54
f 310/39/18 305/40/18 309/38/18
f 311/36/14 305/41/14 307/42/14
f 308/43/11 310/39/11 312/37/11
f 314/32/53 315/33/53 313/34/53
f 316/35/16 319/36/16 315/33/16
f 320/37/54 317/38/54 319/36/54
f 318/39/18 313/40/18 317/38/18
f 319/36/14 313/41/14 315/42/14
f 316/43/11 318/39/11 320/37/11
f 322/32/53 323/33/53 321/34/53
f 324/35/16 327/36/16 323/33/16
f 328/37/54 325/38/54 327/36/54
f 326/39/18 321/40/18 325/38/18
f 327/36/14 321/41/14 323/42/14
f 324/43/11 326/39/11 328/37/11
f 330/32/53 331/33/53 329/34/53
f 332/35/16 335/36/16 331/33/16
f 336/37/54 333/38/54 335/36/54
f 334/39/18 329/40/18 333/38/18
f 335/36/14 329/41/14 331/42/14
f 332/43/11 334/39/11 336/37/11
f 338/32/53 339/33/53 337/34/53
f 340/35/16 343/36/16 339/33/16
f 344/37/54 341/38/54 343/36/54
f 342/39/18 337/40/18 341/38/18
f 343/36/14 337/41/14 339/42/14
f 340/43/11 342/39/11 344/37/11
f 346/32/53 347/33/53 345/34/53
f 348/35/16 351/36/16 347/33/16
f 352/37/54 349/38/54 351/36/54
f 350/39/18 345/40/18 349/38/18
f 351/36/14 345/41/14 347/42/14
f 348/43/11 350/39/11 352/37/11
f 354/32/53 355/33/53 353/34/53
f 356/35/16 359/36/16 355/33/16
f 360/37/54 357/38/54 359/36/54
f 358/39/18 353/40/18 357/38/18
f 359/36/14 353/41/14 355/42/14
f 356/43/11 358/39/11 360/37/11
f 362/32/53 363/33/53 361/34/53
f 364/35/16 367/36/16 363/33/16
f 368/37/54 365/38/54 367/36/54
f 366/39/18 361/40/18 365/38/18
f 367/36/14 361/41/14 363/42/14
f 364/43/11 366/39/11 368/37/11
f 370/32/53 371/33/53 369/34/53
f 372/35/16 375/36/16 371/33/16
f 376/37/54 373/38/54 375/36/54
f 374/39/18 369/40/18 373/38/18
f 375/36/14 369/41/14 371/42/14
f 372/43/11 374/39/11 376/37/11
f 378/32/53 379/33/53 377/34/53
f 380/35/16 383/36/16 379/33/16
f 384/37/54 381/38/54 383/36/54
f 382/39/18 377/40/18 381/38/18
f 383/36/14 377/41/14 379/42/14
f 380/43/11 382/39/11 384/37/11
f 386/32/53 387/33/53 385/34/53
f 388/35/16 391/36/16 387/33/16
f 392/37/54 389/38/54 391/36/54
f 390/39/18 385/40/18 389/38/18
f 391/36/14 385/41/14 387/42/14
f 388/43/11 390/39/11 392/37/11
f 394/32/53 395/33/53 393/34/53
f 396/35/16 399/36/16 395/33/16
f 400/37/54 397/38/54 399/36/54
f 398/39/18 393/40/18 397/38/18
f 399/36/14 393/41/14 395/42/14
f 396/43/11 398/39/11 400/37/11
f 402/32/53 403/33/53 401/34/53
f 404/35/16 407/36/16 403/33/16
f 408/37/54 405/38/54 407/36/54
f 406/39/18 401/40/18 405/38/18
f 407/36/14 401/41/14 403/42/14
f 404/43/11 406/39/11 408/37/11
f 226/32/53 228/35/53 227/33/53
f 228/35/16 232/37/16 231/36/16
f 232/37/54 230/39/54 229/38/54
f 230/39/18 226/64/18 225/40/18
f 231/36/14 229/38/14 225/41/14
f 228/43/11 226/44/11 230/39/11
f 234/32/53 236/35/53 235/33/53
f 236/35/16 240/37/16 239/36/16
f 240/37/54 238/39/54 237/38/54
f 238/39/18 234/64/18 233/40/18
f 239/36/14 237/38/14 233/41/14
f 236/43/11 234/44/11 238/39/11
f 242/32/53 244/35/53 243/33/53
f 244/35/16 248/37/16 247/36/16
f 248/37/54 246/39/54 245/38/54
f 246/39/18 242/64/18 241/40/18
f 247/36/14 245/38/14 241/41/14
f 244/43/11 242/44/11 246/39/11
f 250/32/53 252/35/53 251/33/53
f 252/35/16 256/37/16 255/36/16
f 256/37/54 254/39/54 253/38/54
f 254/39/18 250/64/18 249/40/18
f 255/36/14 253/38/14 249/41/14
f 252/43/11 250/44/11 254/39/11
f 258/32/53 260/35/53 259/33/53
f 260/35/16 264/37/16 263/36/16
f 264/37/54 262/39/54 261/38/54
f 262/39/18 258/64/18 257/40/18
f 263/36/14 261/38/14 257/41/14
f 260/43/11 258/44/11 262/39/11
f 266/32/53 268/35/53 267/33/53
f 268/35/16 272/37/16 271/36/16
f 272/37/54 270/39/54 269/38/54
f 270/39/18 266/64/18 265/40/18
f 271/36/14 269/38/14 265/41/14
f 268/43/11 266/44/11 270/39/11
f 274/32/53 276/35/53 275/33/53
f 276/35/16 280/37/16 279/36/16
f 280/37/54 278/39/54 277/38/54
f 278/39/18 274/64/18 273/40/18
f 279/36/14 277/38/14 273/41/14
f 276/43/11 274/44/11 278/39/11
f 282/32/53 284/35/53 283/33/53
f 284/35/16 288/37/16 287/36/16
f 288/37/54 286/39/54 285/38/54
f 286/39/18 282/64/18 281/40/18
f 287/36/14 285/38/14 281/41/14
f 284/43/11 282/44/11 286/39/11
f 290/32/53 292/35/53 291/33/53
f 292/35/16 296/37/16 295/36/16
f 296/37/54 294/39/54 293/38/54
f 294/39/18 290/64/18 289/40/18
f 295/36/14 293/38/14 289/41/14
f 292/43/11 290/44/11 294/39/11
f 298/32/53 300/35/53 299/33/53
f 300/35/16 304/37/16 303/36/16
f 304/37/54 302/39/54 301/38/54
f 302/39/18 298/64/18 297/40/18
f 303/36/14 301/38/14 297/41/14
f 300/43/11 298/44/11 302/39/11
f 306/32/53 308/35/53 307/33/53
f 308/35/16 312/37/16 311/36/16
f 312/37/54 310/39/54 309/38/54
f 310/39/18 306/64/18 305/40/18
f 311/36/14 309/38/14 305/41/14
f 308/43/11 306/44/11 310/39/11
f 314/32/53 316/35/53 315/33/53
f 316/35/16 320/37/16 319/36/16
f 320/37/54 318/39/54 317/38/54
f 318/39/18 314/64/18 313/40/18
f 319/36/14 317/38/14 313/41/14
f 316/43/11 314/44/11 318/39/11
f 322/32/53 324/35/53 323/33/53
f 324/35/16 328/37/16 327/36/16
f 328/37/54 326/39/54 325/38/54
f 326/39/18 322/64/18 321/40/18
f 327/36/14 325/38/14 321/41/14
f 324/43/11 322/44/11 326/39/11
f 330/32/53 332/35/53 331/33/53
f 332/35/16 336/37/16 335/36/16
f 336/37/54 334/39/54 333/38/54
f 334/39/18 330/64/18 329/40/18
f 335/36/14 333/38/14 329/41/14
f 332/43/11 330/44/11 334/39/11
f 338/32/53 340/35/53 339/33/53
f 340/35/16 344/37/16 343/36/16
f 344/37/54 342/39/54 341/38/54
f 342/39/18 338/64/18 337/40/18
f 343/36/14 341/38/14 337/41/14
f 340/43/11 338/44/11 342/39/11
f 346/32/53 348/35/53 347/33/53
f 348/35/16 352/37/16 351/36/16
f 352/37/54 350/39/54 349/38/54
f 350/39/18 346/64/18 345/40/18
f 351/36/14 349/38/14 345/41/14
f 348/43/11 346/44/11 350/39/11
f 354/32/53 356/35/53 355/33/53
f 356/35/16 360/37/16 359/36/16
f 360/37/54 358/39/54 357/38/54
f 358/39/18 354/64/18 353/40/18
f 359/36/14 357/38/14 353/41/14
f 356/43/11 354/44/11 358/39/11
f 362/32/53 364/35/53 363/33/53
f 364/35/16 368/37/16 367/36/16
f 368/37/54 366/39/54 365/38/54
f 366/39/18 362/64/18 361/40/18
f 367/36/14 365/38/14 361/41/14
f 364/43/11 362/44/11 366/39/11
f 370/32/53 372/35/53 371/33/53
f 372/35/16 376/37/16 375/36/16
f 376/37/54 374/39/54 373/38/54
f 374/39/18 370/64/18 369/40/18
f 375/36/14 373/38/14 369/41/14
f 372/43/11 370/44/11 374/39/11
f 378/32/53 380/35/53 379/33/53
f 380/35/16 384/37/16 383/36/16
f 384/37/54 382/39/54 381/38/54
f 382/39/18 378/64/18 377/40/18
f 383/36/14 381/38/14 377/41/14
f 380/43/11 378/44/11 382/39/11
f 386/32/53 388/35/53 387/33/53
f 388/35/16 392/37/16 391/36/16
f 392/37/54 390/39/54 389/38/54
f 390/39/18 386/64/18 385/40/18
f 391/36/14 389/38/14 385/41/14
f 388/43/11 386/44/11 390/39/11
f 394/32/53 396/35/53 395/33/53
f 396/35/16 400/37/16 399/36/16
f 400/37/54 398/39/54 397/38/54
f 398/39/18 394/64/18 393/40/18
f 399/36/14 397/38/14 393/41/14
f 396/43/11 394/44/11 398/39/11
f 402/32/53 404/35/53 403/33/53
f 404/35/16 408/37/16 407/36/16
f 408/37/54 406/39/54 405/38/54
f 406/39/18 402/64/18 401/40/18
f 407/36/14 405/38/14 401/41/14
f 404/43/11 402/44/11 406/39/11
usemtl MatSlits
f 410/32/53 411/33/53 409/34/53
f 412/35/16 415/36/16 411/33/16
f 416/37/54 413/38/54 415/36/54
f 414/39/18 409/40/18 413/38/18
f 415/36/14 409/41/14 411/42/14
f 412/43/11 414/39/11 416/37/11
f 418/32/53 419/33/53 417/34/53
f 420/35/16 423/36/16 419/33/16
f 424/37/54 421/38/54 423/36/54
f 422/39/18 417/40/18 421/38/18
f 423/36/14 417/41/14 419/42/14
f 420/43/11 422/39/11 424/37/11
f 426/32/53 427/33/53 425/34/53
f 428/35/16 431/36/16 427/33/16
f 432/37/54 429/38/54 431/36/54
f 430/39/18 425/40/18 429/38/18
f 431/36/14 425/41/14 427/42/14
f 428/43/11 430/39/11 432/37/11
f 434/32/53 435/33/53 433/34/53
f 436/35/16 439/36/16 435/33/16
f 440/37/54 437/38/54 439/36/54
f 438/39/18 433/40/18 437/38/18
f 439/36/14 433/41/14 435/42/14
f 436/43/11 438/39/11 440/37/11
f 410/32/53 412/35/53 411/33/53
f 412/35/16 416/37/16 415/36/16
f 416/37/54 414/39/54 413/38/54
f 414/39/18 410/64/18 409/40/18
f 415/36/14 413/38/14 409/41/14
f 412/43/11 410/44/11 414/39/11
f 418/32/53 420/35/53 419/33/53
f 420/35/16 424/37/16 423/36/16
f 424/37/54 422/39/54 421/38/54
f 422/39/18 418/64/18 417/40/18
f 423/36/14 421/38/14 417/41/14
f 420/43/11 418/44/11 422/39/11
f 426/32/53 428/35/53 427/33/53
f 428/35/16 432/37/16 431/36/16
f 432/37/54 430/39/54 429/38/54
f 430/39/18 426/64/18 425/40/18
f 431/36/14 429/38/14 425/41/14
f 428/43/11 426/44/11 430/39/11
f 434/32/53 436/35/53 435/33/53
f 436/35/16 440/37/16 439/36/16
f 440/37/54 438/39/54 437/38/54
f 438/39/18 434/64/18 433/40/18
f 439/36/14 437/38/14 433/41/14
f 436/43/11 434/44/11 438/39/11
