# Blender 5.1.1
# www.blender.org
mtllib celestial_dome.mtl
o CelestialDome
v 0.000000 280.000000 0.000000
v 0.000000 249.481827 -127.117355
v 0.000000 226.524765 -164.579865
v 0.000000 197.989899 -197.989899
v 0.000000 164.579865 -226.524765
v 0.000000 127.117355 -249.481827
v 0.000000 86.524757 -266.295837
v 0.000000 43.801655 -276.552734
v 0.000000 0.000000 -280.000000
v 0.000000 -43.801655 -276.552734
v 0.000000 -164.579865 -226.524765
v 0.000000 -226.524765 -164.579865
v 0.000000 -266.295837 -86.524757
v 0.000000 -280.000000 0.000000
v 8.545279 276.552734 -42.960018
v 16.880142 266.295837 -84.862206
v 24.799366 249.481827 -124.674828
v 32.107941 226.524765 -161.417511
v 38.625912 197.989899 -194.185577
v 44.192791 164.579865 -222.172150
v 48.671490 127.117355 -244.688095
v 51.951740 86.524757 -261.179016
v 53.952763 43.801655 -271.238831
v 54.625290 0.000000 -274.619873
v 53.952763 -43.801655 -271.238831
v 51.951740 -86.524757 -261.179016
v 48.671490 -127.117355 -244.688095
v 44.192791 -164.579865 -222.172150
v 38.625912 -197.989899 -194.185577
v 32.107941 -226.524765 -161.417511
v 24.799366 -249.481827 -124.674828
v 16.880142 -266.295837 -84.862206
v 8.545279 -276.552734 -42.960018
v 16.762167 276.552734 -40.467449
v 33.111588 266.295837 -79.938446
v 48.645706 249.481827 -117.441109
v 62.981991 226.524765 -152.051971
v 75.767456 197.989899 -182.918808
v 86.687271 164.579865 -209.281586
v 95.472557 127.117355 -230.491150
v 101.906998 86.524757 -246.025238
v 105.832146 43.801655 -255.501373
v 107.151360 0.000000 -258.686249
v 105.832146 -43.801655 -255.501373
v 101.906998 -86.524757 -246.025238
v 95.472557 -127.117355 -230.491150
v 86.687271 -164.579865 -209.281586
v 75.767456 -197.989899 -182.918808
v 62.981991 -226.524765 -152.051971
v 48.645706 -249.481827 -117.441109
v 33.111588 -266.295837 -79.938446
v 16.762167 -276.552734 -40.467449
v 24.334894 276.552734 -36.419739
v 48.070576 266.295837 -71.942703
v 70.622612 249.481827 -105.694199
v 91.435677 226.524765 -136.843155
v 109.997284 197.989899 -164.622574
v 125.850410 164.579865 -188.348450
v 138.604675 127.117355 -207.436539
v 147.946030 86.524757 -221.416855
v 153.644455 43.801655 -229.945160
v 155.559662 0.000000 -232.811462
v 153.644455 -43.801655 -229.945160
v 147.946030 -86.524757 -221.416855
v 138.604675 -127.117355 -207.436539
v 125.850410 -164.579865 -188.348450
v 109.997284 -197.989899 -164.622574
v 91.435677 -226.524765 -136.843155
v 70.622612 -249.481827 -105.694199
v 48.070576 -266.295837 -71.942703
v 24.334894 -276.552734 -36.419739
v 30.972445 276.552734 -30.972443
v 61.182236 266.295837 -61.182236
v 89.885529 249.481827 -89.885529
v 116.375542 226.524765 -116.375534
v 139.999985 197.989899 -139.999985
v 160.177185 164.579865 -160.177185
v 176.410278 127.117355 -176.410263
v 188.299576 86.524757 -188.299545
v 195.552292 43.801655 -195.552277
v 197.989883 0.000000 -197.989853
v 195.552292 -43.801655 -195.552277
v 188.299576 -86.524757 -188.299545
v 176.410278 -127.117355 -176.410263
v 160.177185 -164.579865 -160.177185
v 139.999985 -197.989899 -139.999985
v 116.375542 -226.524765 -116.375534
v 89.885529 -249.481827 -89.885529
v 61.182236 -266.295837 -61.182236
v 30.972445 -276.552734 -30.972443
v 36.419743 276.552734 -24.334892
v 71.942696 266.295837 -48.070572
v 105.694199 249.481827 -70.622604
v 136.843155 226.524765 -91.435661
v 164.622559 197.989899 -109.997276
v 188.348450 164.579865 -125.850403
v 207.436539 127.117355 -138.604645
v 221.416870 86.524757 -147.945984
v 229.945160 43.801655 -153.644424
v 232.811462 0.000000 -155.559616
v 229.945160 -43.801655 -153.644424
v 221.416870 -86.524757 -147.945984
v 207.436539 -127.117355 -138.604645
v 188.348450 -164.579865 -125.850403
v 164.622559 -197.989899 -109.997276
v 136.843155 -226.524765 -91.435661
v 105.694199 -249.481827 -70.622604
v 71.942696 -266.295837 -48.070572
v 36.419743 -276.552734 -24.334892
v 40.467449 276.552734 -16.762165
v 79.938438 266.295837 -33.111584
v 117.441101 249.481827 -48.645695
v 152.051956 226.524765 -62.981972
v 182.918793 197.989899 -75.767441
v 209.281586 164.579865 -86.687256
v 230.491119 127.117355 -95.472534
v 246.025223 86.524757 -101.906952
v 255.501373 43.801655 -105.832108
v 258.686218 0.000000 -107.151306
v 255.501373 -43.801655 -105.832108
v 246.025223 -86.524757 -101.906952
v 230.491119 -127.117355 -95.472534
v 209.281586 -164.579865 -86.687256
v 182.918793 -197.989899 -75.767441
v 152.051956 -226.524765 -62.981972
v 117.441101 -249.481827 -48.645695
v 79.938438 -266.295837 -33.111584
v 40.467449 -276.552734 -16.762165
v 42.960014 276.552734 -8.545277
v 84.862190 266.295837 -16.880138
v 124.674805 249.481827 -24.799356
v 161.417480 226.524765 -32.107925
v 194.185547 197.989899 -38.625904
v 222.172150 164.579865 -44.192772
v 244.688049 127.117355 -48.671467
v 261.178986 86.524757 -51.951698
v 271.238800 43.801655 -53.952724
v 274.619812 0.000000 -54.625244
v 271.238800 -43.801655 -53.952724
v 261.178986 -86.524757 -51.951698
v 244.688049 -127.117355 -48.671467
v 222.172150 -164.579865 -44.192772
v 194.185547 -197.989899 -38.625904
v 161.417480 -226.524765 -32.107925
v 124.674805 -249.481827 -24.799356
v 84.862190 -266.295837 -16.880138
v 42.960014 -276.552734 -8.545277
v 43.801647 276.552734 0.000002
v 86.524734 266.295837 0.000002
v 127.117325 249.481827 0.000004
v 164.579834 226.524765 0.000008
v 197.989853 197.989899 0.000004
v 226.524750 164.579865 0.000015
v 249.481766 127.117355 0.000015
v 266.295776 86.524757 0.000031
v 276.552673 43.801655 0.000031
v 279.999908 0.000000 0.000034
v 276.552673 -43.801655 0.000031
v 266.295776 -86.524757 0.000031
v 249.481766 -127.117355 0.000015
v 226.524750 -164.579865 0.000015
v 197.989853 -197.989899 0.000004
v 164.579834 -226.524765 0.000008
v 127.117325 -249.481827 0.000004
v 86.524734 -266.295837 0.000002
v 43.801647 -276.552734 0.000002
v 42.960011 276.552734 8.545280
v 84.862183 266.295837 16.880140
v 124.674797 249.481827 24.799364
v 161.417480 226.524765 32.107941
v 194.185532 197.989899 38.625908
v 222.172134 164.579865 44.192802
v 244.688034 127.117355 48.671494
v 261.178955 86.524757 51.951759
v 271.238770 43.801655 53.952782
v 274.619781 0.000000 54.625309
v 271.238770 -43.801655 53.952782
v 261.178955 -86.524757 51.951759
v 244.688034 -127.117355 48.671494
v 222.172134 -164.579865 44.192802
v 194.185532 -197.989899 38.625908
v 161.417480 -226.524765 32.107941
v 124.674797 -249.481827 24.799364
v 84.862183 -266.295837 16.880140
v 42.960011 -276.552734 8.545280
v 40.467442 276.552734 16.762167
v 79.938423 266.295837 33.111580
v 117.441086 249.481827 48.645699
v 152.051941 226.524765 62.981983
v 182.918762 197.989899 75.767441
v 209.281570 164.579865 86.687279
v 230.491089 127.117355 95.472549
v 246.025177 86.524757 101.907005
v 255.501312 43.801655 105.832153
v 258.686157 0.000000 107.151360
v 255.501312 -43.801655 105.832153
v 246.025177 -86.524757 101.907005
v 230.491089 -127.117355 95.472549
v 209.281570 -164.579865 86.687279
v 182.918762 -197.989899 75.767441
v 152.051941 -226.524765 62.981983
v 117.441086 -249.481827 48.645699
v 79.938423 -266.295837 33.111580
v 40.467442 -276.552734 16.762167
v 36.419731 276.552734 24.334892
v 71.942680 266.295837 48.070564
v 105.694183 249.481827 70.622604
v 136.843124 226.524765 91.435661
v 164.622528 197.989899 109.997269
v 188.348434 164.579865 125.850418
v 207.436493 127.117355 138.604645
v 221.416794 86.524757 147.946014
v 229.945084 43.801655 153.644440
v 232.811371 0.000000 155.559647
v 229.945084 -43.801655 153.644440
v 221.416794 -86.524757 147.946014
v 207.436493 -127.117355 138.604645
v 188.348434 -164.579865 125.850418
v 164.622528 -197.989899 109.997269
v 136.843124 -226.524765 91.435661
v 105.694183 -249.481827 70.622604
v 71.942680 -266.295837 48.070564
v 36.419731 -276.552734 24.334892
v 30.972435 276.552734 30.972441
v 61.182217 266.295837 61.182220
v 89.885513 249.481827 89.885521
v 116.375504 226.524765 116.375519
v 139.999954 197.989899 139.999954
v 160.177170 164.579865 160.177185
v 176.410233 127.117355 176.410248
v 188.299484 86.524757 188.299545
v 195.552200 43.801655 195.552261
v 197.989777 0.000000 197.989853
v 195.552200 -43.801655 195.552261
v 188.299484 -86.524757 188.299545
v 176.410233 -127.117355 176.410248
v 160.177170 -164.579865 160.177185
v 139.999954 -197.989899 139.999954
v 116.375504 -226.524765 116.375519
v 89.885513 -249.481827 89.885521
v 61.182217 -266.295837 61.182220
v 30.972435 -276.552734 30.972441
v 24.334885 276.552734 36.419735
v 48.070557 266.295837 71.942673
v 70.622589 249.481827 105.694183
v 91.435638 226.524765 136.843124
v 109.997253 197.989899 164.622528
v 125.850388 164.579865 188.348450
v 138.604614 127.117355 207.436493
v 147.945923 86.524757 221.416824
v 153.644348 43.801655 229.945114
v 155.559555 0.000000 232.811417
v 153.644348 -43.801655 229.945114
v 147.945923 -86.524757 221.416824
v 138.604614 -127.117355 207.436493
v 125.850388 -164.579865 188.348450
v 109.997253 -197.989899 164.622528
v 91.435638 -226.524765 136.843124
v 70.622589 -249.481827 105.694183
v 48.070557 -266.295837 71.942673
v 24.334885 -276.552734 36.419735
v 16.762157 276.552734 40.467442
v 33.111572 266.295837 79.938408
v 48.645683 249.481827 117.441086
v 62.981956 226.524765 152.051926
v 75.767426 197.989899 182.918747
v 86.687241 164.579865 209.281586
v 95.472504 127.117355 230.491074
v 101.906898 86.524757 246.025177
v 105.832047 43.801655 255.501312
v 107.151260 0.000000 258.686157
v 105.832047 -43.801655 255.501312
v 101.906898 -86.524757 246.025177
v 95.472504 -127.117355 230.491074
v 86.687241 -164.579865 209.281586
v 75.767426 -197.989899 182.918747
v 62.981956 -226.524765 152.051926
v 48.645683 -249.481827 117.441086
v 33.111572 -266.295837 79.938408
v 16.762157 -276.552734 40.467442
v 8.545271 276.552734 42.960003
v 16.880131 266.295837 84.862160
v 24.799349 249.481827 124.674789
v 32.107914 226.524765 161.417450
v 38.625900 197.989899 194.185501
v 44.192757 164.579865 222.172150
v 48.671444 127.117355 244.688004
v 51.951653 86.524757 261.178925
v 53.952675 43.801655 271.238739
v 54.625210 0.000000 274.619751
v 53.952675 -43.801655 271.238739
v 51.951653 -86.524757 261.178925
v 48.671444 -127.117355 244.688004
v 44.192757 -164.579865 222.172150
v 38.625900 -197.989899 194.185501
v 32.107914 -226.524765 161.417450
v 24.799349 -249.481827 124.674789
v 16.880131 -266.295837 84.862160
v 8.545271 -276.552734 42.960003
v -0.000005 276.552734 43.801636
v -0.000002 266.295837 86.524704
v -0.000010 249.481827 127.117310
v -0.000013 226.524765 164.579803
v 0.000000 197.989899 197.989807
v -0.000031 164.579865 226.524750
v -0.000031 127.117355 249.481720
v -0.000065 86.524757 266.295685
v -0.000065 43.801655 276.552582
v -0.000057 0.000000 279.999847
v -0.000065 -43.801655 276.552582
v -0.000065 -86.524757 266.295685
v -0.000031 -127.117355 249.481720
v -0.000031 -164.579865 226.524750
v 0.000000 -197.989899 197.989807
v -0.000013 -226.524765 164.579803
v -0.000010 -249.481827 127.117310
v -0.000002 -266.295837 86.524704
v -0.000005 -276.552734 43.801636
v -8.545280 276.552734 42.959999
v -16.880135 266.295837 84.862152
v -24.799366 249.481827 124.674782
v -32.107937 226.524765 161.417450
v -38.625896 197.989899 194.185486
v -44.192818 164.579865 222.172134
v -48.671501 127.117355 244.687988
v -51.951775 86.524757 261.178894
v -53.952797 43.801655 271.238708
v -54.625317 0.000000 274.619720
v -53.952797 -43.801655 271.238708
v -51.951775 -86.524757 261.178894
v -48.671501 -127.117355 244.687988
v -44.192818 -164.579865 222.172134
v -38.625896 -197.989899 194.185486
v -32.107937 -226.524765 161.417450
v -24.799366 -249.481827 124.674782
v -16.880135 -266.295837 84.862152
v -8.545280 -276.552734 42.959999
v -16.762165 276.552734 40.467430
v -33.111572 266.295837 79.938393
v -48.645699 249.481827 117.441071
v -62.981972 226.524765 152.051910
v -75.767418 197.989899 182.918716
v -86.687294 164.579865 209.281555
v -95.472549 127.117355 230.491028
v -101.907013 86.524757 246.025116
v -105.832153 43.801655 255.501251
v -107.151352 0.000000 258.686096
v -105.832153 -43.801655 255.501251
v -101.907013 -86.524757 246.025116
v -95.472549 -127.117355 230.491028
v -86.687294 -164.579865 209.281555
v -75.767418 -197.989899 182.918716
v -62.981972 -226.524765 152.051910
v -48.645699 -249.481827 117.441071
v -33.111572 -266.295837 79.938393
v -16.762165 -276.552734 40.467430
v -24.334888 276.552734 36.419720
v -48.070549 266.295837 71.942650
v -70.622604 249.481827 105.694168
v -91.435646 226.524765 136.843094
v -109.997238 197.989899 164.622482
v -125.850433 164.579865 188.348419
v -138.604645 127.117355 207.436432
v -147.946014 86.524757 221.416733
v -153.644440 43.801655 229.945023
v -155.559631 0.000000 232.811325
v -153.644440 -43.801655 229.945023
v -147.946014 -86.524757 221.416733
v -138.604645 -127.117355 207.436432
v -125.850433 -164.579865 188.348419
v -109.997238 -197.989899 164.622482
v -91.435646 -226.524765 136.843094
v -70.622604 -249.481827 105.694168
v -48.070549 -266.295837 71.942650
v -24.334888 -276.552734 36.419720
v -30.972435 276.552734 30.972424
v -61.182198 266.295837 61.182190
v -89.885521 249.481827 89.885498
v -116.375496 226.524765 116.375473
v -139.999924 197.989899 139.999908
v -160.177200 164.579865 160.177155
v -176.410233 127.117355 176.410172
v -188.299530 86.524757 188.299423
v -195.552246 43.801655 195.552139
v -197.989822 0.000000 197.989746
v -195.552246 -43.801655 195.552139
v -188.299530 -86.524757 188.299423
v -176.410233 -127.117355 176.410172
v -160.177200 -164.579865 160.177155
v -139.999924 -197.989899 139.999908
v -116.375496 -226.524765 116.375473
v -89.885521 -249.481827 89.885498
v -61.182198 -266.295837 61.182190
v -30.972435 -276.552734 30.972424
v -36.419727 276.552734 24.334873
v -71.942650 266.295837 48.070534
v -105.694183 249.481827 70.622574
v -136.843094 226.524765 91.435616
v -164.622482 197.989899 109.997215
v -188.348450 164.579865 125.850372
v -207.436462 127.117355 138.604568
v -221.416794 86.524757 147.945877
v -229.945084 43.801655 153.644287
v -232.811386 0.000000 155.559525
v -229.945084 -43.801655 153.644287
v -221.416794 -86.524757 147.945877
v -207.436462 -127.117355 138.604568
v -188.348450 -164.579865 125.850372
v -164.622482 -197.989899 109.997215
v -136.843094 -226.524765 91.435616
v -105.694183 -249.481827 70.622574
v -71.942650 -266.295837 48.070534
v -36.419727 -276.552734 24.334873
v -40.467430 276.552734 16.762148
v -79.938385 266.295837 33.111557
v -117.441078 249.481827 48.645668
v -152.051880 226.524765 62.981941
v -182.918701 197.989899 75.767395
v -209.281570 164.579865 86.687225
v -230.491028 127.117355 95.472473
v -246.025131 86.524757 101.906860
v -255.501266 43.801655 105.831985
v -258.686127 0.000000 107.151230
v -255.501266 -43.801655 105.831985
v -246.025131 -86.524757 101.906860
v -230.491028 -127.117355 95.472473
v -209.281570 -164.579865 86.687225
v -182.918701 -197.989899 75.767395
v -152.051880 -226.524765 62.981941
v -117.441078 -249.481827 48.645668
v -79.938385 -266.295837 33.111557
v -40.467430 -276.552734 16.762148
v -42.959991 276.552734 8.545263
v -84.862137 266.295837 16.880121
v -124.674774 249.481827 24.799335
v -161.417404 226.524765 32.107910
v -194.185440 197.989899 38.625877
v -222.172119 164.579865 44.192745
v -244.687958 127.117355 48.671425
v -261.178864 86.524757 51.951622
v -271.238678 43.801655 53.952621
v -274.619690 0.000000 54.625187
v -271.238678 -43.801655 53.952621
v -261.178864 -86.524757 51.951622
v -244.687958 -127.117355 48.671425
v -222.172119 -164.579865 44.192745
v -194.185440 -197.989899 38.625877
v -161.417404 -226.524765 32.107910
v -124.674774 -249.481827 24.799335
v -84.862137 -266.295837 16.880121
v -42.959991 -276.552734 8.545263
v -43.801624 276.552734 -0.000010
v -86.524681 266.295837 -0.000008
v -127.117294 249.481827 -0.000019
v -164.579758 226.524765 -0.000010
v -197.989746 197.989899 -0.000011
v -226.524719 164.579865 -0.000038
v -249.481674 127.117355 -0.000034
v -266.295624 86.524757 -0.000084
v -276.552521 43.801655 -0.000107
v -279.999817 0.000000 -0.000069
v -276.552521 -43.801655 -0.000107
v -266.295624 -86.524757 -0.000084
v -249.481674 -127.117355 -0.000034
v -226.524719 -164.579865 -0.000038
v -197.989746 -197.989899 -0.000011
v -164.579758 -226.524765 -0.000010
v -127.117294 -249.481827 -0.000019
v -86.524681 -266.295837 -0.000008
v -43.801624 -276.552734 -0.000010
v -42.959984 276.552734 -8.545283
v -84.862129 266.295837 -16.880136
v -124.674767 249.481827 -24.799374
v -161.417404 226.524765 -32.107925
v -194.185425 197.989899 -38.625896
v -222.172104 164.579865 -44.192818
v -244.687943 127.117355 -48.671494
v -261.178802 86.524757 -51.951782
v -271.238617 43.801655 -53.952824
v -274.619690 0.000000 -54.625324
v -271.238617 -43.801655 -53.952824
v -261.178802 -86.524757 -51.951782
v -244.687943 -127.117355 -48.671494
v -222.172104 -164.579865 -44.192818
v -194.185425 -197.989899 -38.625896
v -161.417404 -226.524765 -32.107925
v -124.674767 -249.481827 -24.799374
v -84.862129 -266.295837 -16.880136
v -42.959984 -276.552734 -8.545283
v -40.467415 276.552734 -16.762165
v -79.938370 266.295837 -33.111568
v -117.441055 249.481827 -48.645699
v -152.051865 226.524765 -62.981956
v -182.918655 197.989899 -75.767410
v -209.281525 164.579865 -86.687286
v -230.490997 127.117355 -95.472534
v -246.025024 86.524757 -101.906998
v -255.501144 43.801655 -105.832169
v -258.686096 0.000000 -107.151360
v -255.501144 -43.801655 -105.832169
v -246.025024 -86.524757 -101.906998
v -230.490997 -127.117355 -95.472534
v -209.281525 -164.579865 -86.687286
v -182.918655 -197.989899 -75.767410
v -152.051865 -226.524765 -62.981956
v -117.441055 -249.481827 -48.645699
v -79.938370 -266.295837 -33.111568
v -40.467415 -276.552734 -16.762165
v -36.419704 276.552734 -24.334885
v -71.942627 266.295837 -48.070541
v -105.694153 249.481827 -70.622597
v -136.843063 226.524765 -91.435623
v -164.622421 197.989899 -109.997223
v -188.348389 164.579865 -125.850418
v -207.436401 127.117355 -138.604614
v -221.416641 86.524757 -147.945984
v -229.944916 43.801655 -153.644440
v -232.811325 0.000000 -155.559631
v -229.944916 -43.801655 -153.644440
v -221.416641 -86.524757 -147.945984
v -207.436401 -127.117355 -138.604614
v -188.348389 -164.579865 -125.850418
v -164.622421 -197.989899 -109.997223
v -136.843063 -226.524765 -91.435623
v -105.694153 -249.481827 -70.622597
v -71.942627 -266.295837 -48.070541
v -36.419704 -276.552734 -24.334885
v -30.972408 276.552734 -30.972427
v -61.182167 266.295837 -61.182190
v -89.885483 249.481827 -89.885513
v -116.375450 226.524765 -116.375473
v -139.999847 197.989899 -139.999893
v -160.177124 164.579865 -160.177185
v -176.410141 127.117355 -176.410187
v -188.299347 86.524757 -188.299484
v -195.552032 43.801655 -195.552231
v -197.989746 0.000000 -197.989822
v -195.552032 -43.801655 -195.552231
v -188.299347 -86.524757 -188.299484
v -176.410141 -127.117355 -176.410187
v -160.177124 -164.579865 -160.177185
v -139.999847 -197.989899 -139.999893
v -116.375450 -226.524765 -116.375473
v -89.885483 -249.481827 -89.885513
v -61.182167 -266.295837 -61.182190
v -30.972408 -276.552734 -30.972427
v -24.334860 276.552734 -36.419716
v -48.070515 266.295837 -71.942635
v -70.622559 249.481827 -105.694176
v -91.435600 226.524765 -136.843079
v -109.997162 197.989899 -164.622452
v -125.850342 164.579865 -188.348434
v -138.604538 127.117355 -207.436417
v -147.945816 86.524757 -221.416733
v -153.644211 43.801655 -229.945053
v -155.559525 0.000000 -232.811386
v -153.644211 -43.801655 -229.945053
v -147.945816 -86.524757 -221.416733
v -138.604538 -127.117355 -207.436417
v -125.850342 -164.579865 -188.348434
v -109.997162 -197.989899 -164.622452
v -91.435600 -226.524765 -136.843079
v -70.622559 -249.481827 -105.694176
v -48.070515 -266.295837 -71.942635
v -24.334860 -276.552734 -36.419716
v -16.762138 276.552734 -40.467415
v -33.111538 266.295837 -79.938362
v -48.645653 249.481827 -117.441071
v -62.981926 226.524765 -152.051865
v -75.767342 197.989899 -182.918655
v -86.687202 164.579865 -209.281555
v -95.472443 127.117355 -230.490982
v -101.906815 86.524757 -246.025055
v -105.831917 43.801655 -255.501221
v -107.151230 0.000000 -258.686127
v -105.831917 -43.801655 -255.501221
v -101.906815 -86.524757 -246.025055
v -95.472443 -127.117355 -230.490982
v -86.687202 -164.579865 -209.281555
v -75.767342 -197.989899 -182.918655
v -62.981926 -226.524765 -152.051865
v -48.645653 -249.481827 -117.441071
v -33.111538 -266.295837 -79.938362
v -16.762138 -276.552734 -40.467415
v -8.545257 276.552734 -42.959972
v -16.880108 266.295837 -84.862106
v -24.799320 249.481827 -124.674767
v -32.107895 226.524765 -161.417404
v -38.625832 197.989899 -194.185394
v -44.192722 164.579865 -222.172104
v -48.671402 127.117355 -244.687897
v -51.951591 86.524757 -261.178772
v -53.952568 43.801655 -271.238617
v -54.625187 0.000000 -274.619690
v -53.952568 -43.801655 -271.238617
v -51.951591 -86.524757 -261.178772
v -48.671402 -127.117355 -244.687897
v -44.192722 -164.579865 -222.172104
v -38.625832 -197.989899 -194.185394
v -32.107895 -226.524765 -161.417404
v -24.799320 -249.481827 -124.674767
v -16.880108 -266.295837 -84.862106
v -8.545257 -276.552734 -42.959972
v 0.000013 276.552734 -43.801601
v 0.000015 266.295837 -86.524643
v 0.000099 -86.524757 -266.295532
v 0.000046 -127.117355 -249.481598
v 0.000046 -197.989899 -197.989700
v 0.000032 -249.481827 -127.117279
v 0.000013 -276.552734 -43.801601
vn -0.0747 0.6476 0.7583
vn -0.0906 -0.3811 0.9201
vn -0.0077 -0.9969 0.0785
vn -0.0638 0.7589 0.6481
vn -0.0953 -0.2324 0.9679
vn -0.0230 -0.9721 0.2334
vn -0.0514 0.8515 0.5218
vn -0.0977 -0.0781 0.9921
vn -0.0377 -0.9232 0.3824
vn -0.0377 0.9232 0.3824
vn -0.0977 0.0781 0.9921
vn -0.0514 -0.8515 0.5218
vn -0.0230 0.9721 0.2334
vn -0.0953 0.2324 0.9679
vn -0.0638 -0.7589 0.6481
vn -0.0077 0.9969 0.0785
vn -0.0906 0.3811 0.9201
vn -0.0747 -0.6476 0.7583
vn -0.0837 0.5207 0.8497
vn -0.0837 -0.5207 0.8496
vn -0.0681 -0.9721 0.2244
vn -0.1522 0.8515 0.5018
vn -0.2894 -0.0781 0.9540
vn -0.1115 -0.9232 0.3677
vn -0.1115 0.9232 0.3677
vn -0.2894 0.0781 0.9540
vn -0.1522 -0.8515 0.5018
vn -0.0681 0.9721 0.2244
vn -0.2823 0.2324 0.9307
vn -0.1891 -0.7589 0.6232
vn -0.0229 0.9969 0.0754
vn -0.2684 0.3811 0.8847
vn -0.2212 -0.6476 0.7291
vn -0.2478 0.5207 0.8170
vn -0.2478 -0.5207 0.8170
vn -0.2212 0.6476 0.7291
vn -0.2684 -0.3811 0.8847
vn -0.0229 -0.9969 0.0754
vn -0.1891 0.7589 0.6232
vn -0.2823 -0.2324 0.9307
vn -0.4358 0.3811 0.8154
vn -0.3592 -0.6476 0.6720
vn -0.4025 0.5207 0.7529
vn -0.4025 -0.5207 0.7529
vn -0.3592 0.6476 0.6720
vn -0.4358 -0.3811 0.8154
vn -0.0372 -0.9969 0.0695
vn -0.3070 0.7589 0.5744
vn -0.4585 -0.2324 0.8578
vn -0.1105 -0.9721 0.2068
vn -0.2472 0.8515 0.4624
vn -0.4700 -0.0781 0.8792
vn -0.1811 -0.9232 0.3389
vn -0.1811 0.9232 0.3389
vn -0.4700 0.0781 0.8792
vn -0.2472 -0.8515 0.4624
vn -0.1105 0.9721 0.2068
vn -0.4585 0.2324 0.8578
vn -0.3070 -0.7589 0.5744
vn -0.0372 0.9969 0.0695
vn -0.6170 -0.2324 0.7518
vn -0.1488 -0.9721 0.1813
vn -0.3326 0.8515 0.4053
vn -0.6325 -0.0781 0.7707
vn -0.2438 -0.9232 0.2970
vn -0.2438 0.9232 0.2970
vn -0.6325 0.0781 0.7707
vn -0.3326 -0.8515 0.4053
vn -0.1488 0.9721 0.1813
vn -0.6170 0.2324 0.7518
vn -0.4132 -0.7589 0.5034
vn -0.0500 0.9969 0.0609
vn -0.5865 0.3811 0.7147
vn -0.4834 -0.6476 0.5890
vn -0.5416 0.5207 0.6600
vn -0.5416 -0.5207 0.6600
vn -0.4834 0.6476 0.5890
vn -0.5865 -0.3811 0.7147
vn -0.0500 -0.9969 0.0609
vn -0.4132 0.7589 0.5034
vn -0.5034 -0.7589 0.4132
vn -0.0609 0.9969 0.0500
vn -0.7147 0.3811 0.5865
vn -0.5890 -0.6476 0.4834
vn -0.6600 0.5207 0.5416
vn -0.6600 -0.5207 0.5416
vn -0.5890 0.6476 0.4834
vn -0.7147 -0.3811 0.5865
vn -0.0609 -0.9969 0.0500
vn -0.5034 0.7589 0.4132
vn -0.7518 -0.2324 0.6170
vn -0.1813 -0.9721 0.1488
vn -0.4053 0.8515 0.3326
vn -0.7707 -0.0781 0.6325
vn -0.2970 -0.9232 0.2438
vn -0.2970 0.9232 0.2438
vn -0.7707 0.0781 0.6325
vn -0.4053 -0.8515 0.3326
vn -0.1813 0.9721 0.1488
vn -0.7518 0.2324 0.6170
vn -0.0695 -0.9969 0.0372
vn -0.5744 0.7589 0.3070
vn -0.8578 -0.2324 0.4585
vn -0.2068 -0.9721 0.1105
vn -0.4624 0.8515 0.2472
vn -0.8792 -0.0781 0.4700
vn -0.3389 -0.9232 0.1811
vn -0.3389 0.9232 0.1811
vn -0.8792 0.0781 0.4700
vn -0.4624 -0.8515 0.2472
vn -0.2068 0.9721 0.1105
vn -0.8578 0.2324 0.4585
vn -0.5744 -0.7589 0.3070
vn -0.0695 0.9969 0.0372
vn -0.8154 0.3811 0.4358
vn -0.6720 -0.6476 0.3592
vn -0.7529 0.5207 0.4025
vn -0.7529 -0.5207 0.4025
vn -0.6720 0.6476 0.3592
vn -0.8154 -0.3811 0.4358
vn -0.2244 0.9721 0.0681
vn -0.9307 0.2324 0.2823
vn -0.6232 -0.7589 0.1891
vn -0.0754 0.9969 0.0229
vn -0.8847 0.3811 0.2684
vn -0.7291 -0.6476 0.2212
vn -0.8170 0.5207 0.2478
vn -0.8170 -0.5207 0.2478
vn -0.7291 0.6476 0.2212
vn -0.8847 -0.3811 0.2684
vn -0.0754 -0.9969 0.0229
vn -0.6232 0.7589 0.1891
vn -0.9307 -0.2324 0.2823
vn -0.2244 -0.9721 0.0681
vn -0.5018 0.8515 0.1522
vn -0.9540 -0.0781 0.2894
vn -0.3677 -0.9232 0.1115
vn -0.3677 0.9232 0.1115
vn -0.9540 0.0781 0.2894
vn -0.5018 -0.8515 0.1522
vn -0.7583 0.6476 0.0747
vn -0.9201 -0.3811 0.0906
vn -0.0785 -0.9969 0.0077
vn -0.6481 0.7589 0.0638
vn -0.9679 -0.2324 0.0953
vn -0.2334 -0.9721 0.0230
vn -0.5218 0.8515 0.0514
vn -0.9921 -0.0781 0.0977
vn -0.3824 -0.9232 0.0377
vn -0.3824 0.9232 0.0377
vn -0.9921 0.0781 0.0977
vn -0.5218 -0.8515 0.0514
vn -0.2334 0.9721 0.0230
vn -0.9679 0.2324 0.0953
vn -0.6481 -0.7589 0.0638
vn -0.0785 0.9969 0.0077
vn -0.9201 0.3811 0.0906
vn -0.7583 -0.6476 0.0747
vn -0.8497 0.5207 0.0837
vn -0.8496 -0.5207 0.0837
vn -0.9921 0.0781 -0.0977
vn -0.5218 -0.8515 -0.0514
vn -0.2334 0.9721 -0.0230
vn -0.9679 0.2324 -0.0953
vn -0.6481 -0.7589 -0.0638
vn -0.0785 0.9969 -0.0077
vn -0.9201 0.3811 -0.0906
vn -0.7583 -0.6476 -0.0747
vn -0.8497 0.5207 -0.0837
vn -0.8496 -0.5207 -0.0837
vn -0.7583 0.6476 -0.0747
vn -0.9201 -0.3811 -0.0906
vn -0.0785 -0.9969 -0.0077
vn -0.6481 0.7589 -0.0638
vn -0.9679 -0.2324 -0.0953
vn -0.2334 -0.9721 -0.0230
vn -0.5218 0.8515 -0.0514
vn -0.9921 -0.0781 -0.0977
vn -0.3824 -0.9232 -0.0377
vn -0.3824 0.9232 -0.0377
vn -0.8170 -0.5207 -0.2478
vn -0.7291 0.6476 -0.2212
vn -0.8847 -0.3811 -0.2684
vn -0.0754 -0.9969 -0.0229
vn -0.6232 0.7589 -0.1891
vn -0.9307 -0.2324 -0.2823
vn -0.2244 -0.9721 -0.0681
vn -0.5018 0.8515 -0.1522
vn -0.9540 -0.0781 -0.2894
vn -0.3677 -0.9232 -0.1115
vn -0.3677 0.9232 -0.1115
vn -0.9540 0.0781 -0.2894
vn -0.5018 -0.8515 -0.1522
vn -0.2244 0.9721 -0.0681
vn -0.9307 0.2324 -0.2823
vn -0.6232 -0.7589 -0.1891
vn -0.0754 0.9969 -0.0229
vn -0.8847 0.3811 -0.2684
vn -0.7291 -0.6476 -0.2212
vn -0.8170 0.5207 -0.2478
vn -0.3389 -0.9232 -0.1811
vn -0.3389 0.9232 -0.1811
vn -0.8792 0.0781 -0.4700
vn -0.4624 -0.8515 -0.2472
vn -0.2068 0.9721 -0.1105
vn -0.8578 0.2324 -0.4585
vn -0.5744 -0.7589 -0.3070
vn -0.0695 0.9969 -0.0372
vn -0.8154 0.3811 -0.4358
vn -0.6720 -0.6476 -0.3592
vn -0.7529 0.5207 -0.4025
vn -0.7529 -0.5207 -0.4025
vn -0.6720 0.6476 -0.3592
vn -0.8154 -0.3811 -0.4358
vn -0.0695 -0.9969 -0.0372
vn -0.5744 0.7589 -0.3070
vn -0.8578 -0.2324 -0.4585
vn -0.2068 -0.9721 -0.1105
vn -0.4624 0.8515 -0.2472
vn -0.8792 -0.0781 -0.4700
vn -0.6600 0.5207 -0.5416
vn -0.6600 -0.5207 -0.5416
vn -0.5890 0.6476 -0.4834
vn -0.7147 -0.3811 -0.5865
vn -0.0609 -0.9969 -0.0500
vn -0.5034 0.7589 -0.4132
vn -0.7518 -0.2324 -0.6170
vn -0.1813 -0.9721 -0.1488
vn -0.4053 0.8515 -0.3326
vn -0.7706 -0.0781 -0.6325
vn -0.2970 -0.9232 -0.2438
vn -0.2970 0.9232 -0.2438
vn -0.7706 0.0781 -0.6325
vn -0.4053 -0.8515 -0.3326
vn -0.1813 0.9721 -0.1488
vn -0.7518 0.2324 -0.6170
vn -0.5034 -0.7589 -0.4132
vn -0.0609 0.9969 -0.0500
vn -0.7147 0.3811 -0.5865
vn -0.5890 -0.6476 -0.4834
vn -0.6325 -0.0781 -0.7707
vn -0.2438 -0.9232 -0.2970
vn -0.2438 0.9232 -0.2970
vn -0.6325 0.0781 -0.7707
vn -0.3326 -0.8515 -0.4053
vn -0.1488 0.9721 -0.1813
vn -0.6170 0.2324 -0.7518
vn -0.4132 -0.7589 -0.5034
vn -0.0500 0.9969 -0.0609
vn -0.5865 0.3811 -0.7147
vn -0.4834 -0.6476 -0.5890
vn -0.5416 0.5207 -0.6600
vn -0.5416 -0.5207 -0.6600
vn -0.4834 0.6476 -0.5890
vn -0.5865 -0.3811 -0.7147
vn -0.0500 -0.9969 -0.0609
vn -0.4132 0.7589 -0.5034
vn -0.6170 -0.2324 -0.7518
vn -0.1488 -0.9721 -0.1813
vn -0.3326 0.8515 -0.4053
vn -0.3592 -0.6476 -0.6720
vn -0.4025 0.5207 -0.7530
vn -0.4025 -0.5207 -0.7530
vn -0.3592 0.6476 -0.6720
vn -0.4358 -0.3811 -0.8154
vn -0.0372 -0.9969 -0.0695
vn -0.3070 0.7589 -0.5744
vn -0.4585 -0.2324 -0.8578
vn -0.1105 -0.9721 -0.2068
vn -0.2472 0.8515 -0.4624
vn -0.4700 -0.0781 -0.8792
vn -0.1811 -0.9232 -0.3389
vn -0.1811 0.9232 -0.3389
vn -0.4700 0.0781 -0.8792
vn -0.2472 -0.8515 -0.4624
vn -0.1106 0.9721 -0.2068
vn -0.4585 0.2324 -0.8578
vn -0.3070 -0.7589 -0.5744
vn -0.0372 0.9969 -0.0695
vn -0.4358 0.3811 -0.8154
vn -0.0681 -0.9721 -0.2244
vn -0.1522 0.8515 -0.5018
vn -0.2894 -0.0781 -0.9540
vn -0.1115 -0.9232 -0.3677
vn -0.1115 0.9232 -0.3677
vn -0.2894 0.0781 -0.9540
vn -0.1522 -0.8515 -0.5018
vn -0.0681 0.9721 -0.2244
vn -0.2823 0.2324 -0.9307
vn -0.1891 -0.7589 -0.6232
vn -0.0229 0.9969 -0.0754
vn -0.2684 0.3811 -0.8847
vn -0.2212 -0.6476 -0.7291
vn -0.2478 0.5207 -0.8170
vn -0.2478 -0.5207 -0.8170
vn -0.2212 0.6476 -0.7291
vn -0.2684 -0.3811 -0.8847
vn -0.0229 -0.9969 -0.0754
vn -0.1891 0.7589 -0.6232
vn -0.2823 -0.2324 -0.9307
vn -0.0077 0.9969 -0.0785
vn -0.0906 0.3811 -0.9201
vn -0.0747 -0.6476 -0.7583
vn -0.0837 0.5207 -0.8496
vn -0.0837 -0.5207 -0.8497
vn -0.0747 0.6476 -0.7583
vn -0.0906 -0.3811 -0.9201
vn -0.0077 -0.9969 -0.0785
vn -0.0638 0.7589 -0.6481
vn -0.0953 -0.2324 -0.9679
vn -0.0230 -0.9721 -0.2334
vn -0.0514 0.8515 -0.5218
vn -0.0977 -0.0781 -0.9921
vn -0.0377 -0.9232 -0.3824
vn -0.0377 0.9232 -0.3824
vn -0.0977 0.0781 -0.9921
vn -0.0514 -0.8515 -0.5218
vn -0.0230 0.9721 -0.2334
vn -0.0953 0.2324 -0.9679
vn -0.0638 -0.7589 -0.6481
vn 0.0638 0.7589 -0.6481
vn 0.0953 -0.2324 -0.9679
vn 0.0230 -0.9721 -0.2334
vn 0.0514 0.8515 -0.5218
vn 0.0977 -0.0781 -0.9921
vn 0.0377 -0.9232 -0.3824
vn 0.0377 0.9232 -0.3824
vn 0.0977 0.0781 -0.9921
vn 0.0514 -0.8515 -0.5218
vn 0.0230 0.9721 -0.2334
vn 0.0953 0.2324 -0.9679
vn 0.0638 -0.7589 -0.6481
vn 0.0077 0.9969 -0.0785
vn 0.0906 0.3811 -0.9201
vn 0.0747 -0.6476 -0.7583
vn 0.0837 0.5207 -0.8497
vn 0.0837 -0.5207 -0.8497
vn 0.0747 0.6476 -0.7583
vn 0.0906 -0.3811 -0.9201
vn 0.0077 -0.9969 -0.0785
vn 0.2823 0.2324 -0.9307
vn 0.1891 -0.7589 -0.6232
vn 0.0229 0.9969 -0.0754
vn 0.2684 0.3811 -0.8847
vn 0.2212 -0.6476 -0.7291
vn 0.2478 0.5207 -0.8170
vn 0.2478 -0.5207 -0.8170
vn 0.2212 0.6476 -0.7291
vn 0.2684 -0.3811 -0.8847
vn 0.0229 -0.9969 -0.0754
vn 0.1891 0.7589 -0.6232
vn 0.2823 -0.2324 -0.9307
vn 0.0681 -0.9721 -0.2244
vn 0.1522 0.8515 -0.5018
vn 0.2894 -0.0781 -0.9540
vn 0.1115 -0.9232 -0.3677
vn 0.1115 0.9232 -0.3677
vn 0.2894 0.0781 -0.9540
vn 0.1522 -0.8515 -0.5018
vn 0.0681 0.9721 -0.2244
vn 0.4358 -0.3811 -0.8154
vn 0.0372 -0.9969 -0.0695
vn 0.3070 0.7589 -0.5744
vn 0.4585 -0.2324 -0.8578
vn 0.1106 -0.9721 -0.2068
vn 0.2472 0.8515 -0.4624
vn 0.4700 -0.0781 -0.8792
vn 0.1811 -0.9232 -0.3389
vn 0.1811 0.9232 -0.3389
vn 0.4700 0.0781 -0.8792
vn 0.2472 -0.8515 -0.4624
vn 0.1106 0.9721 -0.2068
vn 0.4585 0.2324 -0.8578
vn 0.3070 -0.7589 -0.5744
vn 0.0372 0.9969 -0.0695
vn 0.4358 0.3811 -0.8154
vn 0.3592 -0.6476 -0.6720
vn 0.4025 0.5207 -0.7530
vn 0.4025 -0.5207 -0.7530
vn 0.3592 0.6476 -0.6720
vn 0.3326 -0.8515 -0.4053
vn 0.1488 0.9721 -0.1813
vn 0.6170 0.2324 -0.7518
vn 0.4132 -0.7589 -0.5034
vn 0.0500 0.9969 -0.0609
vn 0.5865 0.3811 -0.7147
vn 0.4834 -0.6476 -0.5890
vn 0.5416 0.5207 -0.6600
vn 0.5416 -0.5207 -0.6600
vn 0.4834 0.6476 -0.5890
vn 0.5865 -0.3811 -0.7147
vn 0.0500 -0.9969 -0.0609
vn 0.4132 0.7589 -0.5034
vn 0.6170 -0.2324 -0.7518
vn 0.1488 -0.9721 -0.1813
vn 0.3326 0.8515 -0.4053
vn 0.6325 -0.0781 -0.7707
vn 0.2438 -0.9232 -0.2970
vn 0.2438 0.9232 -0.2970
vn 0.6325 0.0781 -0.7707
vn 0.5890 0.6476 -0.4834
vn 0.7147 -0.3811 -0.5865
vn 0.0609 -0.9969 -0.0500
vn 0.5034 0.7589 -0.4132
vn 0.7518 -0.2324 -0.6170
vn 0.1813 -0.9721 -0.1488
vn 0.4053 0.8515 -0.3326
vn 0.7707 -0.0781 -0.6325
vn 0.2970 -0.9232 -0.2438
vn 0.2970 0.9232 -0.2438
vn 0.7707 0.0781 -0.6325
vn 0.4053 -0.8515 -0.3326
vn 0.1813 0.9721 -0.1488
vn 0.7518 0.2324 -0.6170
vn 0.5034 -0.7589 -0.4132
vn 0.0609 0.9969 -0.0500
vn 0.7147 0.3811 -0.5865
vn 0.5890 -0.6476 -0.4834
vn 0.6600 0.5207 -0.5416
vn 0.6600 -0.5207 -0.5416
vn 0.8792 0.0781 -0.4700
vn 0.4624 -0.8515 -0.2472
vn 0.2068 0.9721 -0.1105
vn 0.8578 0.2324 -0.4585
vn 0.5744 -0.7589 -0.3070
vn 0.0695 0.9969 -0.0372
vn 0.8154 0.3811 -0.4358
vn 0.6720 -0.6476 -0.3592
vn 0.7530 0.5207 -0.4025
vn 0.7530 -0.5207 -0.4025
vn 0.6720 0.6476 -0.3592
vn 0.8154 -0.3811 -0.4358
vn 0.0695 -0.9969 -0.0372
vn 0.5744 0.7589 -0.3070
vn 0.8578 -0.2324 -0.4585
vn 0.2068 -0.9721 -0.1105
vn 0.4624 0.8515 -0.2472
vn 0.8792 -0.0781 -0.4700
vn 0.3389 -0.9232 -0.1811
vn 0.3389 0.9232 -0.1811
vn 0.8170 -0.5207 -0.2478
vn 0.7291 0.6476 -0.2212
vn 0.8847 -0.3811 -0.2684
vn 0.0754 -0.9969 -0.0229
vn 0.6232 0.7589 -0.1891
vn 0.9307 -0.2324 -0.2823
vn 0.2244 -0.9721 -0.0681
vn 0.5018 0.8515 -0.1522
vn 0.9540 -0.0781 -0.2894
vn 0.3677 -0.9232 -0.1115
vn 0.3677 0.9232 -0.1115
vn 0.9540 0.0781 -0.2894
vn 0.5018 -0.8515 -0.1522
vn 0.2244 0.9721 -0.0681
vn 0.9307 0.2324 -0.2823
vn 0.6232 -0.7589 -0.1891
vn 0.0754 0.9969 -0.0229
vn 0.8847 0.3811 -0.2684
vn 0.7291 -0.6476 -0.2212
vn 0.8170 0.5207 -0.2478
vn 0.3824 -0.9232 -0.0377
vn 0.3824 0.9232 -0.0377
vn 0.9921 0.0781 -0.0977
vn 0.5218 -0.8515 -0.0514
vn 0.2334 0.9721 -0.0230
vn 0.9679 0.2324 -0.0953
vn 0.6481 -0.7589 -0.0638
vn 0.0785 0.9969 -0.0077
vn 0.9201 0.3811 -0.0906
vn 0.7583 -0.6476 -0.0747
vn 0.8497 0.5207 -0.0837
vn 0.8497 -0.5207 -0.0837
vn 0.7583 0.6476 -0.0747
vn 0.9201 -0.3811 -0.0906
vn 0.0785 -0.9969 -0.0077
vn 0.6481 0.7589 -0.0638
vn 0.9679 -0.2324 -0.0953
vn 0.2334 -0.9721 -0.0230
vn 0.5218 0.8515 -0.0514
vn 0.9921 -0.0781 -0.0977
vn 0.8497 0.5207 0.0837
vn 0.8497 -0.5207 0.0837
vn 0.7583 0.6476 0.0747
vn 0.9201 -0.3811 0.0906
vn 0.0785 -0.9969 0.0077
vn 0.6481 0.7589 0.0638
vn 0.9679 -0.2324 0.0953
vn 0.2334 -0.9721 0.0230
vn 0.5218 0.8515 0.0514
vn 0.9921 -0.0781 0.0977
vn 0.3824 -0.9232 0.0377
vn 0.3824 0.9232 0.0377
vn 0.9921 0.0781 0.0977
vn 0.5218 -0.8515 0.0514
vn 0.2334 0.9721 0.0230
vn 0.9679 0.2324 0.0953
vn 0.6481 -0.7589 0.0638
vn 0.0785 0.9969 0.0077
vn 0.9201 0.3811 0.0906
vn 0.7583 -0.6476 0.0747
vn 0.5018 0.8515 0.1522
vn 0.9540 -0.0781 0.2894
vn 0.3677 -0.9232 0.1115
vn 0.3677 0.9232 0.1115
vn 0.9540 0.0781 0.2894
vn 0.5018 -0.8515 0.1522
vn 0.2244 0.9721 0.0681
vn 0.9307 0.2324 0.2823
vn 0.6232 -0.7589 0.1891
vn 0.0754 0.9969 0.0229
vn 0.8847 0.3811 0.2684
vn 0.7291 -0.6476 0.2212
vn 0.8170 0.5207 0.2478
vn 0.8170 -0.5207 0.2478
vn 0.7291 0.6476 0.2212
vn 0.8847 -0.3811 0.2684
vn 0.0754 -0.9969 0.0229
vn 0.6232 0.7589 0.1891
vn 0.9307 -0.2324 0.2823
vn 0.2244 -0.9721 0.0681
vn 0.8154 0.3811 0.4358
vn 0.6720 -0.6476 0.3592
vn 0.7530 0.5207 0.4025
vn 0.7530 -0.5207 0.4025
vn 0.6720 0.6476 0.3592
vn 0.8154 -0.3811 0.4358
vn 0.0695 -0.9969 0.0372
vn 0.5744 0.7589 0.3070
vn 0.8578 -0.2324 0.4585
vn 0.2068 -0.9721 0.1105
vn 0.4624 0.8515 0.2472
vn 0.8792 -0.0781 0.4700
vn 0.3389 -0.9232 0.1811
vn 0.3389 0.9232 0.1811
vn 0.8792 0.0781 0.4700
vn 0.4624 -0.8515 0.2472
vn 0.2068 0.9721 0.1105
vn 0.8578 0.2324 0.4585
vn 0.5744 -0.7589 0.3070
vn 0.0695 0.9969 0.0372
vn 0.7518 -0.2324 0.6170
vn 0.1813 -0.9721 0.1488
vn 0.4053 0.8515 0.3326
vn 0.7707 -0.0781 0.6325
vn 0.2970 -0.9232 0.2438
vn 0.2970 0.9232 0.2438
vn 0.7707 0.0781 0.6325
vn 0.4053 -0.8515 0.3326
vn 0.1813 0.9721 0.1488
vn 0.7518 0.2324 0.6170
vn 0.5034 -0.7589 0.4132
vn 0.0609 0.9969 0.0500
vn 0.7147 0.3811 0.5865
vn 0.5890 -0.6476 0.4834
vn 0.6600 0.5207 0.5416
vn 0.6600 -0.5207 0.5416
vn 0.5890 0.6476 0.4834
vn 0.7147 -0.3811 0.5865
vn 0.0609 -0.9969 0.0500
vn 0.5034 0.7589 0.4132
vn 0.4132 -0.7589 0.5034
vn 0.0500 0.9969 0.0609
vn 0.5865 0.3811 0.7147
vn 0.4834 -0.6476 0.5890
vn 0.5416 0.5207 0.6600
vn 0.5416 -0.5207 0.6600
vn 0.4834 0.6476 0.5890
vn 0.5865 -0.3811 0.7147
vn 0.0500 -0.9969 0.0609
vn 0.4132 0.7589 0.5034
vn 0.6170 -0.2324 0.7518
vn 0.1488 -0.9721 0.1813
vn 0.3326 0.8515 0.4053
vn 0.6325 -0.0781 0.7707
vn 0.2438 -0.9232 0.2970
vn 0.2438 0.9232 0.2970
vn 0.6325 0.0781 0.7707
vn 0.3326 -0.8515 0.4053
vn 0.1488 0.9721 0.1813
vn 0.6170 0.2324 0.7518
vn 0.0372 -0.9969 0.0695
vn 0.3070 0.7589 0.5744
vn 0.4585 -0.2324 0.8578
vn 0.1105 -0.9721 0.2068
vn 0.2472 0.8515 0.4624
vn 0.4700 -0.0781 0.8792
vn 0.1811 -0.9232 0.3389
vn 0.1811 0.9232 0.3389
vn 0.4700 0.0781 0.8792
vn 0.2472 -0.8515 0.4624
vn 0.1105 0.9721 0.2068
vn 0.4585 0.2324 0.8578
vn 0.3070 -0.7589 0.5744
vn 0.0372 0.9969 0.0695
vn 0.4358 0.3811 0.8154
vn 0.3592 -0.6476 0.6720
vn 0.4025 0.5207 0.7530
vn 0.4025 -0.5207 0.7530
vn 0.3592 0.6476 0.6720
vn 0.4358 -0.3811 0.8154
vn 0.2823 0.2324 0.9307
vn 0.1891 -0.7589 0.6232
vn 0.0229 0.9969 0.0754
vn 0.2684 0.3811 0.8847
vn 0.2212 -0.6476 0.7291
vn 0.2478 0.5207 0.8170
vn 0.2478 -0.5207 0.8170
vn 0.2212 0.6476 0.7291
vn 0.2684 -0.3811 0.8847
vn 0.0229 -0.9969 0.0754
vn 0.1891 0.7589 0.6232
vn 0.2823 -0.2324 0.9307
vn 0.0681 -0.9721 0.2244
vn 0.1522 0.8515 0.5018
vn 0.2894 -0.0781 0.9540
vn 0.1115 -0.9232 0.3677
vn 0.1115 0.9232 0.3677
vn 0.2894 0.0781 0.9540
vn 0.1522 -0.8515 0.5018
vn 0.0681 0.9721 0.2244
vn 0.0906 -0.3811 0.9201
vn 0.0077 -0.9969 0.0785
vn 0.0638 0.7589 0.6481
vn 0.0953 -0.2324 0.9679
vn 0.0230 -0.9721 0.2334
vn 0.0514 0.8515 0.5218
vn 0.0977 -0.0781 0.9921
vn 0.0377 -0.9232 0.3824
vn 0.0377 0.9232 0.3824
vn 0.0977 0.0781 0.9921
vn 0.0514 -0.8515 0.5218
vn 0.0230 0.9721 0.2334
vn 0.0953 0.2324 0.9679
vn 0.0638 -0.7589 0.6481
vn 0.0077 0.9969 0.0785
vn 0.0906 0.3811 0.9201
vn 0.0747 -0.6476 0.7583
vn 0.0837 0.5207 0.8497
vn 0.0837 -0.5207 0.8497
vn 0.0747 0.6476 0.7583
vn -0.0837 0.5207 0.8496
vn -0.1106 -0.9721 0.2068
vn -0.1106 0.9721 0.2068
vn -0.8496 0.5207 0.0837
vn -0.8497 -0.5207 0.0837
vn -0.8496 0.5207 -0.0837
vn -0.8497 -0.5207 -0.0837
vn -0.7707 -0.0781 -0.6325
vn -0.7707 0.0781 -0.6325
vn -0.1106 -0.9721 -0.2068
vn -0.1105 0.9721 -0.2068
vn -0.0837 0.5207 -0.8497
vn 0.1105 -0.9721 -0.2068
vn 0.1105 0.9721 -0.2068
vn 0.6325 -0.0781 -0.7706
vn 0.6325 0.0781 -0.7706
vn 0.7706 -0.0781 0.6325
vn 0.7706 0.0781 0.6325
vn 0.1106 0.9721 0.2068
vn 0.0837 -0.5207 0.8496
vt 0.718750 0.250000
vt 0.750000 0.300000
vt 0.750000 0.250000
vt 0.750000 0.600000
vt 0.718750 0.650000
vt 0.750000 0.650000
vt 0.750000 0.950000
vt 0.718750 0.950000
vt 0.734375 1.000000
vt 0.718750 0.200000
vt 0.750000 0.200000
vt 0.718750 0.550000
vt 0.750000 0.550000
vt 0.750000 0.900000
vt 0.718750 0.150000
vt 0.750000 0.150000
vt 0.718750 0.500000
vt 0.750000 0.500000
vt 0.750000 0.850000
vt 0.718750 0.900000
vt 0.718750 0.100000
vt 0.750000 0.100000
vt 0.718750 0.450000
vt 0.750000 0.450000
vt 0.750000 0.800000
vt 0.718750 0.850000
vt 0.718750 0.050000
vt 0.750000 0.050000
vt 0.750000 0.400000
vt 0.718750 0.750000
vt 0.750000 0.750000
vt 0.734375 0.000000
vt 0.718750 0.350000
vt 0.750000 0.350000
vt 0.718750 0.700000
vt 0.750000 0.700000
vt 0.718750 0.300000
vt 0.687500 0.900000
vt 0.687500 0.200000
vt 0.687500 0.500000
vt 0.687500 0.850000
vt 0.687500 0.150000
vt 0.687500 0.800000
vt 0.718750 0.800000
vt 0.687500 0.100000
vt 0.687500 0.400000
vt 0.718750 0.400000
vt 0.687500 0.750000
vt 0.703125 0.000000
vt 0.687500 0.050000
vt 0.687500 0.350000
vt 0.687500 0.700000
vt 0.687500 0.300000
vt 0.687500 0.650000
vt 0.687500 0.250000
vt 0.687500 0.600000
vt 0.718750 0.600000
vt 0.687500 0.950000
vt 0.703125 1.000000
vt 0.687500 0.550000
vt 0.656250 0.350000
vt 0.656250 0.750000
vt 0.656250 0.300000
vt 0.656250 0.650000
vt 0.656250 0.250000
vt 0.656250 0.600000
vt 0.656250 0.950000
vt 0.671875 1.000000
vt 0.656250 0.550000
vt 0.656250 0.900000
vt 0.656250 0.200000
vt 0.656250 0.500000
vt 0.656250 0.850000
vt 0.656250 0.100000
vt 0.656250 0.450000
vt 0.687500 0.450000
vt 0.656250 0.800000
vt 0.656250 0.050000
vt 0.656250 0.400000
vt 0.671875 0.000000
vt 0.625000 0.550000
vt 0.625000 0.900000
vt 0.625000 0.150000
vt 0.656250 0.150000
vt 0.625000 0.850000
vt 0.625000 0.450000
vt 0.625000 0.100000
vt 0.625000 0.400000
vt 0.625000 0.750000
vt 0.640625 0.000000
vt 0.625000 0.050000
vt 0.625000 0.350000
vt 0.625000 0.700000
vt 0.656250 0.700000
vt 0.625000 0.300000
vt 0.625000 0.650000
vt 0.625000 0.950000
vt 0.640625 1.000000
vt 0.625000 0.200000
vt 0.593750 0.750000
vt 0.625000 0.800000
vt 0.609375 0.000000
vt 0.593750 0.050000
vt 0.593750 0.350000
vt 0.593750 0.300000
vt 0.593750 0.650000
vt 0.625000 0.250000
vt 0.625000 0.600000
vt 0.593750 0.950000
vt 0.609375 1.000000
vt 0.593750 0.250000
vt 0.593750 0.550000
vt 0.593750 0.900000
vt 0.593750 0.150000
vt 0.625000 0.500000
vt 0.593750 0.850000
vt 0.593750 0.100000
vt 0.593750 0.450000
vt 0.593750 0.800000
vt 0.562500 0.950000
vt 0.578125 1.000000
vt 0.593750 0.200000
vt 0.562500 0.250000
vt 0.562500 0.550000
vt 0.593750 0.600000
vt 0.562500 0.900000
vt 0.562500 0.150000
vt 0.593750 0.500000
vt 0.562500 0.850000
vt 0.562500 0.100000
vt 0.562500 0.450000
vt 0.562500 0.800000
vt 0.562500 0.050000
vt 0.593750 0.400000
vt 0.562500 0.750000
vt 0.578125 0.000000
vt 0.562500 0.350000
vt 0.562500 0.700000
vt 0.593750 0.700000
vt 0.562500 0.300000
vt 0.562500 0.650000
vt 0.531250 0.050000
vt 0.562500 0.400000
vt 0.531250 0.450000
vt 0.531250 0.750000
vt 0.546875 0.000000
vt 0.531250 0.350000
vt 0.531250 0.300000
vt 0.531250 0.650000
vt 0.531250 0.250000
vt 0.562500 0.600000
vt 0.531250 0.950000
vt 0.546875 1.000000
vt 0.562500 0.200000
vt 0.531250 0.550000
vt 0.531250 0.900000
vt 0.531250 0.200000
vt 0.562500 0.500000
vt 0.531250 0.850000
vt 0.531250 0.150000
vt 0.531250 0.800000
vt 0.500000 0.250000
vt 0.531250 0.600000
vt 0.500000 0.650000
vt 0.500000 0.950000
vt 0.515625 1.000000
vt 0.500000 0.550000
vt 0.500000 0.900000
vt 0.500000 0.150000
vt 0.500000 0.500000
vt 0.531250 0.500000
vt 0.500000 0.850000
vt 0.500000 0.100000
vt 0.531250 0.100000
vt 0.500000 0.450000
vt 0.500000 0.800000
vt 0.531250 0.400000
vt 0.500000 0.750000
vt 0.515625 0.000000
vt 0.500000 0.050000
vt 0.500000 0.350000
vt 0.531250 0.700000
vt 0.500000 0.300000
vt 0.468750 0.450000
vt 0.468750 0.800000
vt 0.468750 0.050000
vt 0.468750 0.400000
vt 0.500000 0.400000
vt 0.468750 0.750000
vt 0.484375 0.000000
vt 0.468750 0.350000
vt 0.468750 0.700000
vt 0.500000 0.700000
vt 0.468750 0.300000
vt 0.468750 0.650000
vt 0.468750 0.250000
vt 0.500000 0.600000
vt 0.468750 0.950000
vt 0.484375 1.000000
vt 0.500000 0.200000
vt 0.468750 0.550000
vt 0.468750 0.150000
vt 0.468750 0.500000
vt 0.468750 0.850000
vt 0.437500 0.650000
vt 0.437500 0.250000
vt 0.468750 0.600000
vt 0.437500 0.950000
vt 0.453125 1.000000
vt 0.437500 0.200000
vt 0.468750 0.200000
vt 0.437500 0.550000
vt 0.437500 0.900000
vt 0.468750 0.900000
vt 0.437500 0.500000
vt 0.437500 0.850000
vt 0.437500 0.100000
vt 0.468750 0.100000
vt 0.437500 0.800000
vt 0.437500 0.050000
vt 0.437500 0.400000
vt 0.437500 0.750000
vt 0.453125 0.000000
vt 0.437500 0.350000
vt 0.437500 0.700000
vt 0.437500 0.300000
vt 0.406250 0.850000
vt 0.406250 0.100000
vt 0.437500 0.150000
vt 0.406250 0.450000
vt 0.437500 0.450000
vt 0.406250 0.800000
vt 0.406250 0.050000
vt 0.406250 0.750000
vt 0.421875 0.000000
vt 0.406250 0.350000
vt 0.406250 0.700000
vt 0.406250 0.650000
vt 0.406250 0.250000
vt 0.437500 0.600000
vt 0.406250 0.950000
vt 0.421875 1.000000
vt 0.406250 0.200000
vt 0.406250 0.550000
vt 0.406250 0.900000
vt 0.406250 0.150000
vt 0.406250 0.300000
vt 0.375000 0.350000
vt 0.375000 0.650000
vt 0.375000 0.250000
vt 0.406250 0.600000
vt 0.375000 0.950000
vt 0.390625 1.000000
vt 0.375000 0.200000
vt 0.375000 0.550000
vt 0.375000 0.900000
vt 0.375000 0.150000
vt 0.375000 0.500000
vt 0.406250 0.500000
vt 0.375000 0.850000
vt 0.375000 0.100000
vt 0.375000 0.450000
vt 0.375000 0.800000
vt 0.406250 0.400000
vt 0.375000 0.750000
vt 0.390625 0.000000
vt 0.375000 0.050000
vt 0.343750 0.550000
vt 0.343750 0.850000
vt 0.343750 0.150000
vt 0.343750 0.450000
vt 0.343750 0.800000
vt 0.343750 0.100000
vt 0.375000 0.400000
vt 0.343750 0.750000
vt 0.359375 0.000000
vt 0.343750 0.050000
vt 0.343750 0.350000
vt 0.375000 0.700000
vt 0.343750 0.300000
vt 0.375000 0.300000
vt 0.343750 0.650000
vt 0.343750 0.250000
vt 0.375000 0.600000
vt 0.343750 0.950000
vt 0.359375 1.000000
vt 0.343750 0.900000
vt 0.343750 0.200000
vt 0.312500 0.700000
vt 0.343750 0.700000
vt 0.312500 0.350000
vt 0.312500 0.650000
vt 0.312500 0.250000
vt 0.343750 0.600000
vt 0.312500 0.950000
vt 0.328125 1.000000
vt 0.312500 0.200000
vt 0.312500 0.550000
vt 0.312500 0.900000
vt 0.312500 0.150000
vt 0.312500 0.500000
vt 0.343750 0.500000
vt 0.312500 0.850000
vt 0.312500 0.800000
vt 0.312500 0.050000
vt 0.343750 0.400000
vt 0.312500 0.450000
vt 0.312500 0.750000
vt 0.328125 0.000000
vt 0.281250 0.900000
vt 0.281250 0.200000
vt 0.281250 0.500000
vt 0.281250 0.850000
vt 0.312500 0.100000
vt 0.281250 0.150000
vt 0.281250 0.800000
vt 0.281250 0.050000
vt 0.312500 0.400000
vt 0.281250 0.450000
vt 0.281250 0.750000
vt 0.296875 0.000000
vt 0.281250 0.350000
vt 0.312500 0.300000
vt 0.281250 0.650000
vt 0.281250 0.250000
vt 0.312500 0.600000
vt 0.281250 0.950000
vt 0.296875 1.000000
vt 0.281250 0.550000
vt 0.265625 0.000000
vt 0.250000 0.050000
vt 0.250000 0.350000
vt 0.281250 0.400000
vt 0.281250 0.700000
vt 0.250000 0.750000
vt 0.281250 0.300000
vt 0.250000 0.650000
vt 0.250000 0.250000
vt 0.281250 0.600000
vt 0.250000 0.950000
vt 0.265625 1.000000
vt 0.250000 0.550000
vt 0.250000 0.900000
vt 0.250000 0.150000
vt 0.250000 0.500000
vt 0.250000 0.850000
vt 0.250000 0.100000
vt 0.281250 0.100000
vt 0.250000 0.450000
vt 0.218750 0.200000
vt 0.250000 0.200000
vt 0.218750 0.600000
vt 0.250000 0.600000
vt 0.218750 0.900000
vt 0.218750 0.150000
vt 0.218750 0.500000
vt 0.218750 0.850000
vt 0.218750 0.100000
vt 0.218750 0.800000
vt 0.250000 0.800000
vt 0.218750 0.050000
vt 0.218750 0.400000
vt 0.250000 0.400000
vt 0.218750 0.750000
vt 0.234375 0.000000
vt 0.218750 0.350000
vt 0.250000 0.700000
vt 0.250000 0.300000
vt 0.218750 0.650000
vt 0.218750 0.250000
vt 0.218750 0.950000
vt 0.234375 1.000000
vt 0.187500 0.450000
vt 0.218750 0.450000
vt 0.187500 0.750000
vt 0.203125 0.000000
vt 0.187500 0.050000
vt 0.187500 0.350000
vt 0.218750 0.700000
vt 0.218750 0.300000
vt 0.187500 0.650000
vt 0.187500 0.250000
vt 0.187500 0.950000
vt 0.203125 1.000000
vt 0.187500 0.550000
vt 0.218750 0.550000
vt 0.187500 0.900000
vt 0.187500 0.150000
vt 0.187500 0.500000
vt 0.187500 0.850000
vt 0.187500 0.100000
vt 0.187500 0.800000
vt 0.187500 0.600000
vt 0.156250 0.650000
vt 0.156250 0.950000
vt 0.171875 1.000000
vt 0.187500 0.200000
vt 0.156250 0.250000
vt 0.156250 0.550000
vt 0.156250 0.900000
vt 0.156250 0.150000
vt 0.156250 0.500000
vt 0.156250 0.100000
vt 0.156250 0.800000
vt 0.156250 0.400000
vt 0.187500 0.400000
vt 0.156250 0.750000
vt 0.171875 0.000000
vt 0.156250 0.050000
vt 0.156250 0.350000
vt 0.187500 0.700000
vt 0.156250 0.300000
vt 0.187500 0.300000
vt 0.125000 0.800000
vt 0.156250 0.850000
vt 0.125000 0.100000
vt 0.125000 0.450000
vt 0.156250 0.450000
vt 0.125000 0.750000
vt 0.140625 0.000000
vt 0.125000 0.050000
vt 0.125000 0.350000
vt 0.156250 0.700000
vt 0.125000 0.300000
vt 0.125000 0.700000
vt 0.125000 0.250000
vt 0.156250 0.600000
vt 0.125000 0.650000
vt 0.125000 0.950000
vt 0.140625 1.000000
vt 0.125000 0.200000
vt 0.156250 0.200000
vt 0.125000 0.550000
vt 0.125000 0.900000
vt 0.125000 0.500000
vt 0.125000 0.850000
vt 0.093750 0.250000
vt 0.125000 0.600000
vt 0.093750 0.650000
vt 0.093750 0.950000
vt 0.109375 1.000000
vt 0.093750 0.600000
vt 0.093750 0.900000
vt 0.125000 0.150000
vt 0.093750 0.200000
vt 0.093750 0.500000
vt 0.093750 0.850000
vt 0.093750 0.100000
vt 0.093750 0.800000
vt 0.093750 0.400000
vt 0.125000 0.400000
vt 0.093750 0.750000
vt 0.109375 0.000000
vt 0.093750 0.050000
vt 0.093750 0.350000
vt 0.093750 0.700000
vt 0.093750 0.300000
vt 0.093750 0.450000
vt 0.062500 0.500000
vt 0.062500 0.800000
vt 0.062500 0.100000
vt 0.062500 0.400000
vt 0.062500 0.750000
vt 0.078125 0.000000
vt 0.062500 0.050000
vt 0.062500 0.350000
vt 0.062500 0.650000
vt 0.062500 0.250000
vt 0.062500 0.950000
vt 0.078125 1.000000
vt 0.062500 0.200000
vt 0.093750 0.550000
vt 0.062500 0.600000
vt 0.062500 0.900000
vt 0.062500 0.150000
vt 0.093750 0.150000
vt 0.031250 0.650000
vt 0.062500 0.700000
vt 0.031250 0.250000
vt 0.062500 0.300000
vt 0.031250 0.950000
vt 0.046875 1.000000
vt 0.062500 0.550000
vt 0.031250 0.600000
vt 0.031250 0.200000
vt 0.031250 0.500000
vt 0.031250 0.850000
vt 0.062500 0.850000
vt 0.031250 0.100000
vt 0.062500 0.450000
vt 0.031250 0.800000
vt 0.031250 0.400000
vt 0.031250 0.750000
vt 0.046875 0.000000
vt 0.031250 0.050000
vt 0.031250 0.350000
vt 0.031250 0.300000
vt 0.000000 0.850000
vt 0.031250 0.900000
vt 0.000000 0.100000
vt 0.031250 0.150000
vt 0.031250 0.450000
vt 0.000000 0.500000
vt 0.000000 0.800000
vt 0.000000 0.400000
vt 0.000000 0.750000
vt 0.015625 0.000000
vt 0.000000 0.050000
vt 0.000000 0.350000
vt 0.031250 0.700000
vt 0.000000 0.650000
vt 0.000000 0.250000
vt 0.000000 0.950000
vt 0.015625 1.000000
vt 0.000000 0.200000
vt 0.031250 0.550000
vt 0.000000 0.600000
vt 0.000000 0.900000
vt 0.000000 0.150000
vt 0.968750 0.300000
vt 1.000000 0.350000
vt 1.000000 0.300000
vt 0.968750 0.650000
vt 1.000000 0.700000
vt 1.000000 0.650000
vt 0.968750 0.250000
vt 1.000000 0.250000
vt 1.000000 0.600000
vt 1.000000 0.950000
vt 0.968750 0.950000
vt 0.984375 1.000000
vt 0.968750 0.200000
vt 1.000000 0.200000
vt 1.000000 0.550000
vt 0.968750 0.600000
vt 0.968750 0.900000
vt 1.000000 0.900000
vt 0.968750 0.150000
vt 1.000000 0.150000
vt 0.968750 0.500000
vt 1.000000 0.500000
vt 0.968750 0.850000
vt 1.000000 0.850000
vt 0.968750 0.100000
vt 1.000000 0.100000
vt 1.000000 0.450000
vt 0.968750 0.800000
vt 1.000000 0.800000
vt 1.000000 0.050000
vt 0.968750 0.400000
vt 1.000000 0.400000
vt 1.000000 0.750000
vt 0.984375 0.000000
vt 0.968750 0.050000
vt 0.968750 0.350000
vt 0.968750 0.750000
vt 0.937500 0.200000
vt 0.937500 0.500000
vt 0.968750 0.550000
vt 0.937500 0.850000
vt 0.937500 0.100000
vt 0.968750 0.450000
vt 0.937500 0.800000
vt 0.937500 0.400000
vt 0.953125 0.000000
vt 0.937500 0.050000
vt 0.937500 0.350000
vt 0.968750 0.700000
vt 0.937500 0.750000
vt 0.937500 0.300000
vt 0.937500 0.650000
vt 0.937500 0.250000
vt 0.937500 0.950000
vt 0.953125 1.000000
vt 0.937500 0.600000
vt 0.937500 0.900000
vt 0.906250 0.350000
vt 0.937500 0.700000
vt 0.906250 0.750000
vt 0.906250 0.650000
vt 0.906250 0.250000
vt 0.906250 0.950000
vt 0.921875 1.000000
vt 0.906250 0.200000
vt 0.937500 0.550000
vt 0.906250 0.600000
vt 0.906250 0.900000
vt 0.937500 0.150000
vt 0.906250 0.500000
vt 0.906250 0.100000
vt 0.937500 0.450000
vt 0.906250 0.800000
vt 0.906250 0.400000
vt 0.921875 0.000000
vt 0.906250 0.050000
vt 0.906250 0.550000
vt 0.875000 0.600000
vt 0.875000 0.900000
vt 0.906250 0.150000
vt 0.875000 0.200000
vt 0.875000 0.500000
vt 0.875000 0.850000
vt 0.906250 0.850000
vt 0.875000 0.100000
vt 0.906250 0.450000
vt 0.875000 0.800000
vt 0.875000 0.400000
vt 0.890625 0.000000
vt 0.875000 0.050000
vt 0.875000 0.350000
vt 0.875000 0.700000
vt 0.906250 0.700000
vt 0.875000 0.300000
vt 0.906250 0.300000
vt 0.875000 0.650000
vt 0.875000 0.250000
vt 0.875000 0.950000
vt 0.890625 1.000000
vt 0.875000 0.750000
vt 0.843750 0.800000
vt 0.859375 0.000000
vt 0.843750 0.050000
vt 0.843750 0.350000
vt 0.843750 0.700000
vt 0.843750 0.650000
vt 0.843750 0.250000
vt 0.843750 0.950000
vt 0.859375 1.000000
vt 0.875000 0.550000
vt 0.843750 0.600000
vt 0.843750 0.900000
vt 0.875000 0.150000
vt 0.843750 0.200000
vt 0.843750 0.500000
vt 0.843750 0.850000
vt 0.843750 0.100000
vt 0.875000 0.450000
vt 0.843750 0.400000
vt 0.812500 0.950000
vt 0.828125 1.000000
vt 0.812500 0.200000
vt 0.843750 0.550000
vt 0.812500 0.600000
vt 0.812500 0.900000
vt 0.843750 0.150000
vt 0.812500 0.500000
vt 0.812500 0.850000
vt 0.812500 0.150000
vt 0.843750 0.450000
vt 0.812500 0.800000
vt 0.812500 0.100000
vt 0.812500 0.400000
vt 0.812500 0.750000
vt 0.843750 0.750000
vt 0.828125 0.000000
vt 0.812500 0.050000
vt 0.812500 0.350000
vt 0.812500 0.700000
vt 0.843750 0.300000
vt 0.812500 0.650000
vt 0.812500 0.300000
vt 0.781250 0.400000
vt 0.812500 0.450000
vt 0.781250 0.800000
vt 0.796875 0.000000
vt 0.781250 0.050000
vt 0.781250 0.350000
vt 0.781250 0.700000
vt 0.781250 0.650000
vt 0.781250 0.250000
vt 0.812500 0.250000
vt 0.781250 0.950000
vt 0.796875 1.000000
vt 0.781250 0.200000
vt 0.812500 0.550000
vt 0.781250 0.600000
vt 0.781250 0.900000
vt 0.781250 0.500000
vt 0.781250 0.850000
vt 0.781250 0.100000
vt 0.765625 1.000000
vt 0.781250 0.550000
vt 0.781250 0.150000
vt 0.781250 0.450000
vt 0.781250 0.750000
vt 0.765625 0.000000
vt 0.781250 0.300000
vt 0.000000 0.450000
vt 0.000000 0.700000
vt 0.000000 0.300000
vt 0.000000 0.550000
s 0
usemtl MatCelestialDome
f 29/1/1 11/2/1 608/3/1
f 7/4/2 21/5/2 6/6/2
f 604/7/3 15/8/3 1/9/3
f 30/10/4 608/3/4 12/11/4
f 23/12/5 7/4/5 8/13/5
f 605/14/6 15/8/6 604/7/6
f 31/15/7 12/11/7 609/16/7
f 24/17/8 8/13/8 9/18/8
f 2/19/9 16/20/9 605/14/9
f 32/21/10 609/16/10 13/22/10
f 25/23/11 9/18/11 10/24/11
f 3/25/12 17/26/12 2/19/12
f 33/27/13 13/22/13 610/28/13
f 606/29/14 25/23/14 10/24/14
f 19/30/15 3/25/15 4/31/15
f 14/32/16 33/27/16 610/28/16
f 27/33/17 606/29/17 607/34/17
f 20/35/18 4/31/18 5/36/18
f 28/37/19 607/34/19 11/2/19
f 21/5/20 5/36/20 6/6/20
f 35/38/21 15/8/21 16/20/21
f 31/15/22 49/39/22 30/10/22
f 43/40/23 23/12/23 24/17/23
f 36/41/24 16/20/24 17/26/24
f 32/21/25 50/42/25 31/15/25
f 25/23/26 43/40/26 24/17/26
f 37/43/27 17/26/27 18/44/27
f 33/27/28 51/45/28 32/21/28
f 45/46/29 25/23/29 26/47/29
f 38/48/30 18/44/30 19/30/30
f 14/49/31 52/50/31 33/27/31
f 46/51/32 26/47/32 27/33/32
f 39/52/33 19/30/33 20/35/33
f 47/53/34 27/33/34 28/37/34
f 40/54/35 20/35/35 21/5/35
f 48/55/36 28/37/36 29/1/36
f 41/56/37 21/5/37 22/57/37
f 15/8/38 34/58/38 1/59/38
f 30/10/39 48/55/39 29/1/39
f 42/60/40 22/57/40 23/12/40
f 65/61/41 45/46/41 46/51/41
f 39/52/42 57/62/42 38/48/42
f 66/63/43 46/51/43 47/53/43
f 59/64/44 39/52/44 40/54/44
f 67/65/45 47/53/45 48/55/45
f 60/66/46 40/54/46 41/56/46
f 34/58/47 53/67/47 1/68/47
f 49/39/48 67/65/48 48/55/48
f 61/69/49 41/56/49 42/60/49
f 54/70/50 34/58/50 35/38/50
f 50/42/51 68/71/51 49/39/51
f 62/72/52 42/60/52 43/40/52
f 55/73/53 35/38/53 36/41/53
f 70/74/54 50/42/54 51/45/54
f 63/75/55 43/40/55 44/76/55
f 56/77/56 36/41/56 37/43/56
f 71/78/57 51/45/57 52/50/57
f 64/79/58 44/76/58 45/46/58
f 57/62/59 37/43/59 38/48/59
f 14/80/60 71/78/60 52/50/60
f 80/81/61 60/66/61 61/69/61
f 73/82/62 53/67/62 54/70/62
f 88/83/63 68/71/63 69/84/63
f 62/72/64 80/81/64 61/69/64
f 74/85/65 54/70/65 55/73/65
f 70/74/66 88/83/66 69/84/66
f 82/86/67 62/72/67 63/75/67
f 56/77/68 74/85/68 55/73/68
f 71/78/69 89/87/69 70/74/69
f 83/88/70 63/75/70 64/79/70
f 76/89/71 56/77/71 57/62/71
f 14/90/72 90/91/72 71/78/72
f 84/92/73 64/79/73 65/61/73
f 77/93/74 57/62/74 58/94/74
f 85/95/75 65/61/75 66/63/75
f 78/96/76 58/94/76 59/64/76
f 67/65/77 85/95/77 66/63/77
f 60/66/78 78/96/78 59/64/78
f 53/67/79 72/97/79 1/98/79
f 87/99/80 67/65/80 68/71/80
f 95/100/81 75/101/81 76/89/81
f 14/102/82 109/103/82 90/91/82
f 103/104/83 83/88/83 84/92/83
f 77/93/84 95/100/84 76/89/84
f 104/105/85 84/92/85 85/95/85
f 97/106/86 77/93/86 78/96/86
f 86/107/87 104/105/87 85/95/87
f 79/108/88 97/106/88 78/96/88
f 72/97/89 91/109/89 1/110/89
f 87/99/90 105/111/90 86/107/90
f 99/112/91 79/108/91 80/81/91
f 92/113/92 72/97/92 73/82/92
f 107/114/93 87/99/93 88/83/93
f 81/115/94 99/112/94 80/81/94
f 93/116/95 73/82/95 74/85/95
f 108/117/96 88/83/96 89/87/96
f 101/118/97 81/115/97 82/86/97
f 94/119/98 74/85/98 75/101/98
f 109/103/99 89/87/99 90/91/99
f 83/88/100 101/118/100 82/86/100
f 91/109/101 110/120/101 1/121/101
f 106/122/102 124/123/102 105/111/102
f 118/124/103 98/125/103 99/112/103
f 111/126/104 91/109/104 92/113/104
f 126/127/105 106/122/105 107/114/105
f 100/128/106 118/124/106 99/112/106
f 112/129/107 92/113/107 93/116/107
f 127/130/108 107/114/108 108/117/108
f 120/131/109 100/128/109 101/118/109
f 113/132/110 93/116/110 94/119/110
f 128/133/111 108/117/111 109/103/111
f 102/134/112 120/131/112 101/118/112
f 114/135/113 94/119/113 95/100/113
f 14/136/114 128/133/114 109/103/114
f 122/137/115 102/134/115 103/104/115
f 115/138/116 95/100/116 96/139/116
f 123/140/117 103/104/117 104/105/117
f 116/141/118 96/139/118 97/106/118
f 124/123/119 104/105/119 105/111/119
f 98/125/120 116/141/120 97/106/120
f 147/142/121 127/130/121 128/133/121
f 121/143/122 139/144/122 120/131/122
f 133/145/123 113/132/123 114/135/123
f 14/146/124 147/142/124 128/133/124
f 141/147/125 121/143/125 122/137/125
f 115/138/126 133/145/126 114/135/126
f 142/148/127 122/137/127 123/140/127
f 135/149/128 115/138/128 116/141/128
f 143/150/129 123/140/129 124/123/129
f 117/151/130 135/149/130 116/141/130
f 110/120/131 129/152/131 1/153/131
f 125/154/132 143/150/132 124/123/132
f 137/155/133 117/151/133 118/124/133
f 130/156/134 110/120/134 111/126/134
f 126/127/135 144/157/135 125/154/135
f 119/158/136 137/155/136 118/124/136
f 131/159/137 111/126/137 112/129/137
f 127/130/138 145/160/138 126/127/138
f 139/144/139 119/158/139 120/131/139
f 132/161/140 112/129/140 113/132/140
f 162/162/141 142/148/141 143/150/141
f 136/163/142 154/164/142 135/149/142
f 129/152/143 148/165/143 1/166/143
f 144/157/144 162/162/144 143/150/144
f 156/167/145 136/163/145 137/155/145
f 149/168/146 129/152/146 130/156/146
f 164/169/147 144/157/147 145/160/147
f 157/170/148 137/155/148 138/171/148
f 150/172/149 130/156/149 131/159/149
f 165/173/150 145/160/150 146/174/150
f 158/175/151 138/171/151 139/144/151
f 151/176/152 131/159/152 132/161/152
f 147/142/153 165/173/153 146/174/153
f 140/177/154 158/175/154 139/144/154
f 152/178/155 132/161/155 133/145/155
f 14/179/156 166/180/156 147/142/156
f 160/181/157 140/177/157 141/147/157
f 134/182/158 152/178/158 133/145/158
f 161/183/159 141/147/159 142/148/159
f 154/164/160 134/182/160 135/149/160
f 177/184/161 157/170/161 158/175/161
f 170/185/162 150/172/162 151/176/162
f 185/186/163 165/173/163 166/180/163
f 178/187/164 158/175/164 159/188/164
f 171/189/165 151/176/165 152/178/165
f 14/190/166 185/186/166 166/180/166
f 179/191/167 159/188/167 160/181/167
f 172/192/168 152/178/168 153/193/168
f 180/194/169 160/181/169 161/183/169
f 173/195/170 153/193/170 154/164/170
f 181/196/171 161/183/171 162/162/171
f 155/197/172 173/195/172 154/164/172
f 148/165/173 167/198/173 1/199/173
f 163/200/174 181/196/174 162/162/174
f 175/201/175 155/197/175 156/167/175
f 149/168/176 167/198/176 148/165/176
f 183/202/177 163/200/177 164/169/177
f 176/203/178 156/167/178 157/170/178
f 169/204/179 149/168/179 150/172/179
f 165/173/180 183/202/180 164/169/180
f 192/205/181 172/192/181 173/195/181
f 200/206/182 180/194/182 181/196/182
f 174/207/183 192/205/183 173/195/183
f 167/198/184 186/208/184 1/209/184
f 201/210/185 181/196/185 182/211/185
f 194/212/186 174/207/186 175/201/186
f 187/213/187 167/198/187 168/214/187
f 183/202/188 201/210/188 182/211/188
f 195/215/189 175/201/189 176/203/189
f 188/216/190 168/214/190 169/204/190
f 203/217/191 183/202/191 184/218/191
f 177/184/192 195/215/192 176/203/192
f 189/219/193 169/204/193 170/185/193
f 204/220/194 184/218/194 185/186/194
f 197/221/195 177/184/195 178/187/195
f 190/222/196 170/185/196 171/189/196
f 14/223/197 204/220/197 185/186/197
f 198/224/198 178/187/198 179/191/198
f 191/225/199 171/189/199 172/192/199
f 199/226/200 179/191/200 180/194/200
f 207/227/201 187/213/201 188/216/201
f 222/228/202 202/229/202 203/217/202
f 215/230/203 195/215/203 196/231/203
f 208/232/204 188/216/204 189/219/204
f 223/233/205 203/217/205 204/220/205
f 197/221/206 215/230/206 196/231/206
f 209/234/207 189/219/207 190/222/207
f 14/235/208 223/233/208 204/220/208
f 217/236/209 197/221/209 198/224/209
f 210/237/210 190/222/210 191/225/210
f 199/226/211 217/236/211 198/224/211
f 211/238/212 191/225/212 192/205/212
f 219/239/213 199/226/213 200/206/213
f 193/240/214 211/238/214 192/205/214
f 186/208/215 205/241/215 1/242/215
f 220/243/216 200/206/216 201/210/216
f 213/244/217 193/240/217 194/212/217
f 206/245/218 186/208/218 187/213/218
f 221/246/219 201/210/219 202/229/219
f 195/215/220 213/244/220 194/212/220
f 218/247/221 236/248/221 217/236/221
f 230/249/222 210/237/222 211/238/222
f 238/250/223 218/247/223 219/239/223
f 212/251/224 230/249/224 211/238/224
f 205/241/225 224/252/225 1/253/225
f 239/254/226 219/239/226 220/243/226
f 232/255/227 212/251/227 213/244/227
f 225/256/228 205/241/228 206/245/228
f 240/257/229 220/243/229 221/246/229
f 233/258/230 213/244/230 214/259/230
f 226/260/231 206/245/231 207/227/231
f 241/261/232 221/246/232 222/228/232
f 234/262/233 214/259/233 215/230/233
f 227/263/234 207/227/234 208/232/234
f 223/233/235 241/261/235 222/228/235
f 216/264/236 234/262/236 215/230/236
f 228/265/237 208/232/237 209/234/237
f 14/266/238 242/267/238 223/233/238
f 236/248/239 216/264/239 217/236/239
f 210/237/240 228/265/240 209/234/240
f 233/258/241 251/268/241 232/255/241
f 245/269/242 225/256/242 226/260/242
f 241/261/243 259/270/243 240/257/243
f 253/271/244 233/258/244 234/262/244
f 246/272/245 226/260/245 227/263/245
f 242/267/246 260/273/246 241/261/246
f 235/274/247 253/271/247 234/262/247
f 247/275/248 227/263/248 228/265/248
f 14/276/249 261/277/249 242/267/249
f 255/278/250 235/274/250 236/248/250
f 229/279/251 247/275/251 228/265/251
f 256/280/252 236/248/252 237/281/252
f 249/282/253 229/279/253 230/249/253
f 257/283/254 237/281/254 238/250/254
f 231/284/255 249/282/255 230/249/255
f 224/252/256 243/285/256 1/286/256
f 239/254/257 257/283/257 238/250/257
f 251/268/258 231/284/258 232/255/258
f 244/287/259 224/252/259 225/256/259
f 240/257/260 258/288/260 239/254/260
f 267/289/261 247/275/261 248/290/261
f 256/280/262 274/291/262 255/278/262
f 268/292/263 248/290/263 249/282/263
f 276/293/264 256/280/264 257/283/264
f 250/294/265 268/292/265 249/282/265
f 243/285/266 262/295/266 1/296/266
f 277/297/267 257/283/267 258/288/267
f 270/298/268 250/294/268 251/268/268
f 263/299/269 243/285/269 244/287/269
f 278/300/270 258/288/270 259/270/270
f 271/301/271 251/268/271 252/302/271
f 264/303/272 244/287/272 245/269/272
f 260/273/273 278/300/273 259/270/273
f 253/271/274 271/301/274 252/302/274
f 265/304/275 245/269/275 246/272/275
f 280/305/276 260/273/276 261/277/276
f 254/306/277 272/307/277 253/271/277
f 266/308/278 246/272/278 247/275/278
f 14/309/279 280/305/279 261/277/279
f 274/291/280 254/306/280 255/278/280
f 282/310/281 262/295/281 263/299/281
f 278/300/282 296/311/282 277/297/282
f 290/312/283 270/298/283 271/301/283
f 283/313/284 263/299/284 264/303/284
f 279/314/285 297/315/285 278/300/285
f 272/307/286 290/312/286 271/301/286
f 284/316/287 264/303/287 265/304/287
f 299/317/288 279/314/288 280/305/288
f 273/318/289 291/319/289 272/307/289
f 285/320/290 265/304/290 266/308/290
f 14/321/291 299/317/291 280/305/291
f 293/322/292 273/318/292 274/291/292
f 267/289/293 285/320/293 266/308/293
f 275/323/294 293/322/294 274/291/294
f 287/324/295 267/289/295 268/292/295
f 295/325/296 275/323/296 276/293/296
f 269/326/297 287/324/297 268/292/297
f 262/295/298 281/327/298 1/328/298
f 277/297/299 295/325/299 276/293/299
f 289/329/300 269/326/300 270/298/300
f 14/330/301 318/331/301 299/317/301
f 312/332/302 292/333/302 293/322/302
f 286/334/303 304/335/303 285/320/303
f 294/336/304 312/332/304 293/322/304
f 306/337/305 286/334/305 287/324/305
f 314/338/306 294/336/306 295/325/306
f 288/339/307 306/337/307 287/324/307
f 281/327/308 300/340/308 1/341/308
f 296/311/309 314/338/309 295/325/309
f 308/342/310 288/339/310 289/329/310
f 301/343/311 281/327/311 282/310/311
f 316/344/312 296/311/312 297/315/312
f 309/345/313 289/329/313 290/312/313
f 302/346/314 282/310/314 283/313/314
f 317/347/315 297/315/315 298/348/315
f 291/319/316 309/345/316 290/312/316
f 284/316/317 302/346/317 283/313/317
f 299/317/318 317/347/318 298/348/318
f 292/333/319 310/349/319 291/319/319
f 304/335/320 284/316/320 285/320/320
f 334/350/321 314/338/321 315/351/321
f 308/342/322 326/352/322 307/353/322
f 320/354/323 300/340/323 301/343/323
f 335/355/324 315/351/324 316/344/324
f 328/356/325 308/342/325 309/345/325
f 321/357/326 301/343/326 302/346/326
f 336/358/327 316/344/327 317/347/327
f 310/349/328 328/356/328 309/345/328
f 322/359/329 302/346/329 303/360/329
f 337/361/330 317/347/330 318/331/330
f 330/362/331 310/349/331 311/363/331
f 323/364/332 303/360/332 304/335/332
f 14/365/333 337/361/333 318/331/333
f 331/366/334 311/363/334 312/332/334
f 305/367/335 323/364/335 304/335/335
f 313/368/336 331/366/336 312/332/336
f 325/369/337 305/367/337 306/337/337
f 333/370/338 313/368/338 314/338/338
f 307/353/339 325/369/339 306/337/339
f 300/340/340 319/371/340 1/372/340
f 330/362/341 348/373/341 329/374/341
f 342/375/342 322/359/342 323/364/342
f 14/376/343 356/377/343 337/361/343
f 350/378/344 330/362/344 331/366/344
f 324/379/345 342/375/345 323/364/345
f 332/380/346 350/378/346 331/366/346
f 344/381/347 324/379/347 325/369/347
f 352/382/348 332/380/348 333/370/348
f 326/352/349 344/381/349 325/369/349
f 319/371/350 338/383/350 1/384/350
f 334/350/351 352/382/351 333/370/351
f 346/385/352 326/352/352 327/386/352
f 339/387/353 319/371/353 320/354/353
f 354/388/354 334/350/354 335/355/354
f 347/389/355 327/386/355 328/356/355
f 340/390/356 320/354/356 321/357/356
f 355/391/357 335/355/357 336/358/357
f 348/373/358 328/356/358 329/374/358
f 341/392/359 321/357/359 322/359/359
f 337/361/360 355/391/360 336/358/360
f 345/393/361 363/394/361 344/381/361
f 338/383/362 357/395/362 1/396/362
f 353/397/363 371/398/363 352/382/363
f 365/399/364 345/393/364 346/385/364
f 358/400/365 338/383/365 339/387/365
f 373/401/366 353/397/366 354/388/366
f 366/402/367 346/385/367 347/389/367
f 340/390/368 358/400/368 339/387/368
f 374/403/369 354/388/369 355/391/369
f 348/373/370 366/402/370 347/389/370
f 360/404/371 340/390/371 341/392/371
f 356/377/372 374/403/372 355/391/372
f 368/405/373 348/373/373 349/406/373
f 361/407/374 341/392/374 342/375/374
f 14/408/375 375/409/375 356/377/375
f 369/410/376 349/406/376 350/378/376
f 343/411/377 361/407/377 342/375/377
f 370/412/378 350/378/378 351/413/378
f 363/394/379 343/411/379 344/381/379
f 371/398/380 351/413/380 352/382/380
f 379/414/381 359/415/381 360/404/381
f 375/409/382 393/416/382 374/403/382
f 368/405/383 386/417/383 367/418/383
f 380/419/384 360/404/384 361/407/384
f 14/420/385 394/421/385 375/409/385
f 388/422/386 368/405/386 369/410/386
f 362/423/387 380/419/387 361/407/387
f 389/424/388 369/410/388 370/412/388
f 363/394/389 381/425/389 362/423/389
f 390/426/390 370/412/390 371/398/390
f 364/427/391 382/428/391 363/394/391
f 357/395/392 376/429/392 1/430/392
f 391/431/393 371/398/393 372/432/393
f 384/433/394 364/427/394 365/399/394
f 377/434/395 357/395/395 358/400/395
f 373/401/396 391/431/396 372/432/396
f 385/435/397 365/399/397 366/402/397
f 378/436/398 358/400/398 359/415/398
f 393/416/399 373/401/399 374/403/399
f 367/418/400 385/435/400 366/402/400
f 409/437/401 389/424/401 390/426/401
f 383/438/402 401/439/402 382/428/402
f 376/429/403 395/440/403 1/441/403
f 391/431/404 409/437/404 390/426/404
f 384/433/405 402/442/405 383/438/405
f 396/443/406 376/429/406 377/434/406
f 392/444/407 410/445/407 391/431/407
f 404/446/408 384/433/408 385/435/408
f 397/447/409 377/434/409 378/436/409
f 412/448/410 392/444/410 393/416/410
f 386/417/411 404/446/411 385/435/411
f 398/449/412 378/436/412 379/414/412
f 394/421/413 412/448/413 393/416/413
f 406/450/414 386/417/414 387/451/414
f 399/452/415 379/414/415 380/419/415
f 14/453/416 413/454/416 394/421/416
f 407/455/417 387/451/417 388/422/417
f 400/456/418 380/419/418 381/425/418
f 408/457/419 388/422/419 389/424/419
f 401/439/420 381/425/420 382/428/420
f 405/458/421 423/459/421 404/446/421
f 417/460/422 397/447/422 398/449/422
f 413/454/423 431/461/423 412/448/423
f 425/462/424 405/458/424 406/450/424
f 418/463/425 398/449/425 399/452/425
f 14/464/426 432/465/426 413/454/426
f 426/466/427 406/450/427 407/455/427
f 400/456/428 418/463/428 399/452/428
f 408/457/429 426/466/429 407/455/429
f 420/467/430 400/456/430 401/439/430
f 428/468/431 408/457/431 409/437/431
f 402/442/432 420/467/432 401/439/432
f 395/440/433 414/469/433 1/470/433
f 429/471/434 409/437/434 410/445/434
f 403/472/435 421/473/435 402/442/435
f 415/474/436 395/440/436 396/443/436
f 430/475/437 410/445/437 411/476/437
f 423/459/438 403/472/438 404/446/438
f 397/447/439 415/474/439 396/443/439
f 431/461/440 411/476/440 412/448/440
f 439/477/441 419/478/441 420/467/441
f 447/479/442 427/480/442 428/468/442
f 421/473/443 439/477/443 420/467/443
f 414/469/444 433/481/444 1/482/444
f 429/471/445 447/479/445 428/468/445
f 422/483/446 440/484/446 421/473/446
f 415/474/447 433/481/447 414/469/447
f 430/475/448 448/485/448 429/471/448
f 442/486/449 422/483/449 423/459/449
f 435/487/450 415/474/450 416/488/450
f 450/489/451 430/475/451 431/461/451
f 424/490/452 442/486/452 423/459/452
f 436/491/453 416/488/453 417/460/453
f 432/465/454 450/489/454 431/461/454
f 444/492/455 424/490/455 425/462/455
f 437/493/456 417/460/456 418/463/456
f 14/494/457 451/495/457 432/465/457
f 445/496/458 425/462/458 426/466/458
f 419/478/459 437/493/459 418/463/459
f 446/497/460 426/466/460 427/480/460
f 454/498/461 434/499/461 435/487/461
f 469/500/462 449/501/462 450/489/462
f 443/502/463 461/503/463 442/486/463
f 455/504/464 435/487/464 436/491/464
f 451/495/465 469/500/465 450/489/465
f 463/505/466 443/502/466 444/492/466
f 456/506/467 436/491/467 437/493/467
f 14/507/468 470/508/468 451/495/468
f 464/509/469 444/492/469 445/496/469
f 438/510/470 456/506/470 437/493/470
f 446/497/471 464/509/471 445/496/471
f 458/511/472 438/510/472 439/477/472
f 466/512/473 446/497/473 447/479/473
f 440/484/474 458/511/474 439/477/474
f 433/481/475 452/513/475 1/514/475
f 467/515/476 447/479/476 448/485/476
f 441/516/477 459/517/477 440/484/477
f 453/518/478 433/481/478 434/499/478
f 468/519/479 448/485/479 449/501/479
f 461/503/480 441/516/480 442/486/480
f 484/520/481 464/521/481 465/522/481
f 477/523/482 457/524/482 458/525/482
f 485/526/483 465/522/483 466/527/483
f 459/528/484 477/523/484 458/525/484
f 452/529/485 471/530/485 1/531/485
f 486/532/486 466/527/486 467/533/486
f 460/534/487 478/535/487 459/528/487
f 472/536/488 452/529/488 453/537/488
f 487/538/489 467/533/489 468/539/489
f 480/540/490 460/534/490 461/541/490
f 473/542/491 453/537/491 454/543/491
f 488/544/492 468/539/492 469/545/492
f 462/546/493 480/540/493 461/541/493
f 474/547/494 454/543/494 455/548/494
f 470/549/495 488/544/495 469/545/495
f 482/550/496 462/546/496 463/551/496
f 456/552/497 474/547/497 455/548/497
f 14/553/498 489/554/498 470/549/498
f 483/555/499 463/551/499 464/521/499
f 457/524/500 475/556/500 456/552/500
f 487/538/501 505/557/501 486/532/501
f 499/558/502 479/559/502 480/540/502
f 492/560/503 472/536/503 473/542/503
f 507/561/504 487/538/504 488/544/504
f 481/562/505 499/558/505 480/540/505
f 493/563/506 473/542/506 474/547/506
f 489/554/507 507/561/507 488/544/507
f 501/564/508 481/562/508 482/550/508
f 475/556/509 493/563/509 474/547/509
f 14/565/510 508/566/510 489/554/510
f 502/567/511 482/550/511 483/555/511
f 476/568/512 494/569/512 475/556/512
f 503/570/513 483/555/513 484/520/513
f 496/571/514 476/568/514 477/523/514
f 504/572/515 484/520/515 485/526/515
f 478/535/516 496/571/516 477/523/516
f 471/530/517 490/573/517 1/574/517
f 505/557/518 485/526/518 486/532/518
f 479/559/519 497/575/519 478/535/519
f 491/576/520 471/530/520 472/536/520
f 521/577/521 501/564/521 502/567/521
f 495/578/522 513/579/522 494/569/522
f 503/570/523 521/577/523 502/567/523
f 515/580/524 495/578/524 496/571/524
f 523/581/525 503/570/525 504/572/525
f 497/575/526 515/580/526 496/571/526
f 490/573/527 509/582/527 1/583/527
f 524/584/528 504/572/528 505/557/528
f 498/585/529 516/586/529 497/575/529
f 510/587/530 490/573/530 491/576/530
f 506/588/531 524/584/531 505/557/531
f 518/589/532 498/585/532 499/558/532
f 492/560/533 510/587/533 491/576/533
f 526/590/534 506/588/534 507/561/534
f 500/591/535 518/589/535 499/558/535
f 512/592/536 492/560/536 493/563/536
f 508/566/537 526/590/537 507/561/537
f 520/593/538 500/591/538 501/564/538
f 494/569/539 512/592/539 493/563/539
f 14/594/540 527/595/540 508/566/540
f 517/596/541 535/597/541 516/586/541
f 529/598/542 509/582/542 510/587/542
f 525/599/543 543/600/543 524/584/543
f 537/601/544 517/596/544 518/589/544
f 530/602/545 510/587/545 511/603/545
f 545/604/546 525/599/546 526/590/546
f 519/605/547 537/601/547 518/589/547
f 531/606/548 511/603/548 512/592/548
f 527/595/549 545/604/549 526/590/549
f 539/607/550 519/605/550 520/593/550
f 513/579/551 531/606/551 512/592/551
f 14/608/552 546/609/552 527/595/552
f 540/610/553 520/593/553 521/577/553
f 533/611/554 513/579/554 514/612/554
f 541/613/555 521/577/555 522/614/555
f 534/615/556 514/612/556 515/580/556
f 542/616/557 522/614/557 523/581/557
f 516/586/558 534/615/558 515/580/558
f 509/582/559 528/617/559 1/618/559
f 543/600/560 523/581/560 524/584/560
f 532/619/561 550/620/561 531/606/561
f 14/621/562 565/622/562 546/609/562
f 559/623/563 539/607/563 540/610/563
f 552/624/564 532/619/564 533/611/564
f 541/613/565 559/623/565 540/610/565
f 553/625/566 533/611/566 534/615/566
f 561/626/567 541/613/567 542/616/567
f 535/597/568 553/625/568 534/615/568
f 528/617/569 547/627/569 1/628/569
f 543/600/570 561/626/570 542/616/570
f 536/629/571 554/630/571 535/597/571
f 548/631/572 528/617/572 529/598/572
f 544/632/573 562/633/573 543/600/573
f 556/634/574 536/629/574 537/601/574
f 549/635/575 529/598/575 530/602/575
f 564/636/576 544/632/576 545/604/576
f 538/637/577 556/634/577 537/601/577
f 550/620/578 530/602/578 531/606/578
f 565/622/579 545/604/579 546/609/579
f 558/638/580 538/637/580 539/607/580
f 547/627/581 566/639/581 1/640/581
f 581/641/582 561/626/582 562/633/582
f 555/642/583 573/643/583 554/630/583
f 567/644/584 547/627/584 548/631/584
f 563/645/585 581/641/585 562/633/585
f 575/646/586 555/642/586 556/634/586
f 568/647/587 548/631/587 549/635/587
f 564/636/588 582/648/588 563/645/588
f 557/649/589 575/646/589 556/634/589
f 569/650/590 549/635/590 550/620/590
f 565/622/591 583/651/591 564/636/591
f 577/652/592 557/649/592 558/638/592
f 570/653/593 550/620/593 551/654/593
f 14/655/594 584/656/594 565/622/594
f 578/657/595 558/638/595 559/623/595
f 571/658/596 551/654/596 552/624/596
f 560/659/597 578/657/597 559/623/597
f 572/660/598 552/624/598 553/625/598
f 561/626/599 579/661/599 560/659/599
f 554/630/600 572/660/600 553/625/600
f 596/662/601 576/663/601 577/652/601
f 570/653/602 588/664/602 569/650/602
f 14/665/603 603/666/603 584/656/603
f 597/667/604 577/652/604 578/657/604
f 590/668/605 570/653/605 571/658/605
f 579/661/606 597/667/606 578/657/606
f 591/669/607 571/658/607 572/660/607
f 599/670/608 579/661/608 580/671/608
f 573/643/609 591/669/609 572/660/609
f 566/639/610 585/672/610 1/673/610
f 600/674/611 580/671/611 581/641/611
f 574/675/612 592/676/612 573/643/612
f 586/677/613 566/639/613 567/644/613
f 582/648/614 600/674/614 581/641/614
f 594/678/615 574/675/615 575/646/615
f 587/679/616 567/644/616 568/647/616
f 602/680/617 582/648/617 583/651/617
f 576/663/618 594/678/618 575/646/618
f 588/664/619 568/647/619 569/650/619
f 584/656/620 602/680/620 583/651/620
f 592/676/621 6/6/621 591/669/621
f 585/672/622 604/7/622 1/681/622
f 12/11/623 599/670/623 600/674/623
f 593/682/624 7/4/624 592/676/624
f 605/14/625 585/672/625 586/677/625
f 609/16/626 600/674/626 601/683/626
f 9/18/627 593/682/627 594/678/627
f 587/679/628 605/14/628 586/677/628
f 13/22/629 601/683/629 602/680/629
f 595/684/630 9/18/630 594/678/630
f 588/664/631 2/19/631 587/679/631
f 610/28/632 602/680/632 603/666/632
f 606/29/633 595/684/633 596/662/633
f 589/685/634 3/25/634 588/664/634
f 14/686/635 610/28/635 603/666/635
f 607/34/636 596/662/636 597/667/636
f 590/668/637 4/31/637 589/685/637
f 11/2/638 597/667/638 598/687/638
f 591/669/639 5/36/639 590/668/639
f 608/3/640 598/687/640 599/670/640
f 29/1/1 28/37/1 11/2/1
f 7/4/2 22/57/2 21/5/2
f 30/10/4 29/1/4 608/3/4
f 23/12/5 22/57/5 7/4/5
f 605/14/6 16/20/6 15/8/6
f 31/15/7 30/10/7 12/11/7
f 24/17/8 23/12/8 8/13/8
f 2/19/9 17/26/9 16/20/9
f 32/21/10 31/15/10 609/16/10
f 25/23/11 24/17/11 9/18/11
f 3/25/12 18/44/12 17/26/12
f 33/27/13 32/21/13 13/22/13
f 606/29/14 26/47/14 25/23/14
f 19/30/15 18/44/15 3/25/15
f 27/33/17 26/47/17 606/29/17
f 20/35/18 19/30/18 4/31/18
f 28/37/641 27/33/641 607/34/641
f 21/5/20 20/35/20 5/36/20
f 35/38/21 34/58/21 15/8/21
f 31/15/22 50/42/22 49/39/22
f 43/40/23 42/60/23 23/12/23
f 36/41/24 35/38/24 16/20/24
f 32/21/25 51/45/25 50/42/25
f 25/23/26 44/76/26 43/40/26
f 37/43/27 36/41/27 17/26/27
f 33/27/28 52/50/28 51/45/28
f 45/46/29 44/76/29 25/23/29
f 38/48/30 37/43/30 18/44/30
f 46/51/32 45/46/32 26/47/32
f 39/52/33 38/48/33 19/30/33
f 47/53/34 46/51/34 27/33/34
f 40/54/35 39/52/35 20/35/35
f 48/55/36 47/53/36 28/37/36
f 41/56/37 40/54/37 21/5/37
f 30/10/39 49/39/39 48/55/39
f 42/60/40 41/56/40 22/57/40
f 65/61/41 64/79/41 45/46/41
f 39/52/42 58/94/42 57/62/42
f 66/63/43 65/61/43 46/51/43
f 59/64/44 58/94/44 39/52/44
f 67/65/45 66/63/45 47/53/45
f 60/66/46 59/64/46 40/54/46
f 49/39/48 68/71/48 67/65/48
f 61/69/49 60/66/49 41/56/49
f 54/70/642 53/67/642 34/58/642
f 50/42/51 69/84/51 68/71/51
f 62/72/52 61/69/52 42/60/52
f 55/73/53 54/70/53 35/38/53
f 70/74/54 69/84/54 50/42/54
f 63/75/55 62/72/55 43/40/55
f 56/77/56 55/73/56 36/41/56
f 71/78/643 70/74/643 51/45/643
f 64/79/58 63/75/58 44/76/58
f 57/62/59 56/77/59 37/43/59
f 80/81/61 79/108/61 60/66/61
f 73/82/62 72/97/62 53/67/62
f 88/83/63 87/99/63 68/71/63
f 62/72/64 81/115/64 80/81/64
f 74/85/65 73/82/65 54/70/65
f 70/74/66 89/87/66 88/83/66
f 82/86/67 81/115/67 62/72/67
f 56/77/68 75/101/68 74/85/68
f 71/78/69 90/91/69 89/87/69
f 83/88/70 82/86/70 63/75/70
f 76/89/71 75/101/71 56/77/71
f 84/92/73 83/88/73 64/79/73
f 77/93/74 76/89/74 57/62/74
f 85/95/75 84/92/75 65/61/75
f 78/96/76 77/93/76 58/94/76
f 67/65/77 86/107/77 85/95/77
f 60/66/78 79/108/78 78/96/78
f 87/99/80 86/107/80 67/65/80
f 95/100/81 94/119/81 75/101/81
f 103/104/83 102/134/83 83/88/83
f 77/93/84 96/139/84 95/100/84
f 104/105/85 103/104/85 84/92/85
f 97/106/86 96/139/86 77/93/86
f 86/107/87 105/111/87 104/105/87
f 79/108/88 98/125/88 97/106/88
f 87/99/90 106/122/90 105/111/90
f 99/112/91 98/125/91 79/108/91
f 92/113/92 91/109/92 72/97/92
f 107/114/93 106/122/93 87/99/93
f 81/115/94 100/128/94 99/112/94
f 93/116/95 92/113/95 73/82/95
f 108/117/96 107/114/96 88/83/96
f 101/118/97 100/128/97 81/115/97
f 94/119/98 93/116/98 74/85/98
f 109/103/99 108/117/99 89/87/99
f 83/88/100 102/134/100 101/118/100
f 106/122/102 125/154/102 124/123/102
f 118/124/103 117/151/103 98/125/103
f 111/126/104 110/120/104 91/109/104
f 126/127/105 125/154/105 106/122/105
f 100/128/106 119/158/106 118/124/106
f 112/129/107 111/126/107 92/113/107
f 127/130/108 126/127/108 107/114/108
f 120/131/109 119/158/109 100/128/109
f 113/132/110 112/129/110 93/116/110
f 128/133/111 127/130/111 108/117/111
f 102/134/112 121/143/112 120/131/112
f 114/135/113 113/132/113 94/119/113
f 122/137/115 121/143/115 102/134/115
f 115/138/116 114/135/116 95/100/116
f 123/140/117 122/137/117 103/104/117
f 116/141/118 115/138/118 96/139/118
f 124/123/119 123/140/119 104/105/119
f 98/125/120 117/151/120 116/141/120
f 147/142/121 146/174/121 127/130/121
f 121/143/122 140/177/122 139/144/122
f 133/145/123 132/161/123 113/132/123
f 141/147/125 140/177/125 121/143/125
f 115/138/126 134/182/126 133/145/126
f 142/148/127 141/147/127 122/137/127
f 135/149/128 134/182/128 115/138/128
f 143/150/129 142/148/129 123/140/129
f 117/151/130 136/163/130 135/149/130
f 125/154/132 144/157/132 143/150/132
f 137/155/133 136/163/133 117/151/133
f 130/156/134 129/152/134 110/120/134
f 126/127/135 145/160/135 144/157/135
f 119/158/136 138/171/136 137/155/136
f 131/159/137 130/156/137 111/126/137
f 127/130/138 146/174/138 145/160/138
f 139/144/139 138/171/139 119/158/139
f 132/161/140 131/159/140 112/129/140
f 162/162/141 161/183/141 142/148/141
f 136/163/142 155/197/142 154/164/142
f 144/157/144 163/200/144 162/162/144
f 156/167/145 155/197/145 136/163/145
f 149/168/146 148/165/146 129/152/146
f 164/169/147 163/200/147 144/157/147
f 157/170/148 156/167/148 137/155/148
f 150/172/149 149/168/149 130/156/149
f 165/173/150 164/169/150 145/160/150
f 158/175/151 157/170/151 138/171/151
f 151/176/152 150/172/152 131/159/152
f 147/142/153 166/180/153 165/173/153
f 140/177/154 159/188/154 158/175/154
f 152/178/155 151/176/155 132/161/155
f 160/181/157 159/188/157 140/177/157
f 134/182/158 153/193/158 152/178/158
f 161/183/644 160/181/644 141/147/644
f 154/164/645 153/193/645 134/182/645
f 177/184/161 176/203/161 157/170/161
f 170/185/162 169/204/162 150/172/162
f 185/186/163 184/218/163 165/173/163
f 178/187/164 177/184/164 158/175/164
f 171/189/165 170/185/165 151/176/165
f 179/191/167 178/187/167 159/188/167
f 172/192/168 171/189/168 152/178/168
f 180/194/646 179/191/646 160/181/646
f 173/195/647 172/192/647 153/193/647
f 181/196/171 180/194/171 161/183/171
f 155/197/172 174/207/172 173/195/172
f 163/200/174 182/211/174 181/196/174
f 175/201/175 174/207/175 155/197/175
f 149/168/176 168/214/176 167/198/176
f 183/202/177 182/211/177 163/200/177
f 176/203/178 175/201/178 156/167/178
f 169/204/179 168/214/179 149/168/179
f 165/173/180 184/218/180 183/202/180
f 192/205/181 191/225/181 172/192/181
f 200/206/182 199/226/182 180/194/182
f 174/207/183 193/240/183 192/205/183
f 201/210/185 200/206/185 181/196/185
f 194/212/186 193/240/186 174/207/186
f 187/213/187 186/208/187 167/198/187
f 183/202/188 202/229/188 201/210/188
f 195/215/189 194/212/189 175/201/189
f 188/216/190 187/213/190 168/214/190
f 203/217/191 202/229/191 183/202/191
f 177/184/192 196/231/192 195/215/192
f 189/219/193 188/216/193 169/204/193
f 204/220/194 203/217/194 184/218/194
f 197/221/195 196/231/195 177/184/195
f 190/222/196 189/219/196 170/185/196
f 198/224/198 197/221/198 178/187/198
f 191/225/199 190/222/199 171/189/199
f 199/226/200 198/224/200 179/191/200
f 207/227/201 206/245/201 187/213/201
f 222/228/202 221/246/202 202/229/202
f 215/230/203 214/259/203 195/215/203
f 208/232/204 207/227/204 188/216/204
f 223/233/205 222/228/205 203/217/205
f 197/221/206 216/264/206 215/230/206
f 209/234/207 208/232/207 189/219/207
f 217/236/209 216/264/209 197/221/209
f 210/237/210 209/234/210 190/222/210
f 199/226/211 218/247/211 217/236/211
f 211/238/212 210/237/212 191/225/212
f 219/239/213 218/247/213 199/226/213
f 193/240/214 212/251/214 211/238/214
f 220/243/216 219/239/216 200/206/216
f 213/244/217 212/251/217 193/240/217
f 206/245/218 205/241/218 186/208/218
f 221/246/219 220/243/219 201/210/219
f 195/215/220 214/259/220 213/244/220
f 218/247/221 237/281/221 236/248/221
f 230/249/222 229/279/222 210/237/222
f 238/250/223 237/281/223 218/247/223
f 212/251/224 231/284/224 230/249/224
f 239/254/226 238/250/226 219/239/226
f 232/255/227 231/284/227 212/251/227
f 225/256/228 224/252/228 205/241/228
f 240/257/229 239/254/229 220/243/229
f 233/258/648 232/255/648 213/244/648
f 226/260/231 225/256/231 206/245/231
f 241/261/232 240/257/232 221/246/232
f 234/262/649 233/258/649 214/259/649
f 227/263/234 226/260/234 207/227/234
f 223/233/235 242/267/235 241/261/235
f 216/264/236 235/274/236 234/262/236
f 228/265/237 227/263/237 208/232/237
f 236/248/239 235/274/239 216/264/239
f 210/237/240 229/279/240 228/265/240
f 233/258/241 252/302/241 251/268/241
f 245/269/242 244/287/242 225/256/242
f 241/261/243 260/273/243 259/270/243
f 253/271/244 252/302/244 233/258/244
f 246/272/245 245/269/245 226/260/245
f 242/267/246 261/277/246 260/273/246
f 235/274/247 254/306/247 253/271/247
f 247/275/248 246/272/248 227/263/248
f 255/278/250 254/306/250 235/274/250
f 229/279/251 248/290/251 247/275/251
f 256/280/252 255/278/252 236/248/252
f 249/282/253 248/290/253 229/279/253
f 257/283/254 256/280/254 237/281/254
f 231/284/255 250/294/255 249/282/255
f 239/254/257 258/288/257 257/283/257
f 251/268/258 250/294/258 231/284/258
f 244/287/259 243/285/259 224/252/259
f 240/257/260 259/270/260 258/288/260
f 267/289/261 266/308/261 247/275/261
f 256/280/262 275/323/262 274/291/262
f 268/292/263 267/289/263 248/290/263
f 276/293/264 275/323/264 256/280/264
f 250/294/265 269/326/265 268/292/265
f 277/297/267 276/293/267 257/283/267
f 270/298/268 269/326/268 250/294/268
f 263/299/650 262/295/650 243/285/650
f 278/300/270 277/297/270 258/288/270
f 271/301/271 270/298/271 251/268/271
f 264/303/272 263/299/272 244/287/272
f 260/273/273 279/314/273 278/300/273
f 253/271/274 272/307/274 271/301/274
f 265/304/275 264/303/275 245/269/275
f 280/305/651 279/314/651 260/273/651
f 254/306/277 273/318/277 272/307/277
f 266/308/278 265/304/278 246/272/278
f 274/291/280 273/318/280 254/306/280
f 282/310/281 281/327/281 262/295/281
f 278/300/282 297/315/282 296/311/282
f 290/312/283 289/329/283 270/298/283
f 283/313/284 282/310/284 263/299/284
f 279/314/285 298/348/285 297/315/285
f 272/307/286 291/319/286 290/312/286
f 284/316/287 283/313/287 264/303/287
f 299/317/288 298/348/288 279/314/288
f 273/318/289 292/333/289 291/319/289
f 285/320/290 284/316/290 265/304/290
f 293/322/292 292/333/292 273/318/292
f 267/289/293 286/334/293 285/320/293
f 275/323/294 294/336/294 293/322/294
f 287/324/295 286/334/295 267/289/295
f 295/325/296 294/336/296 275/323/296
f 269/326/297 288/339/297 287/324/297
f 277/297/299 296/311/299 295/325/299
f 289/329/300 288/339/300 269/326/300
f 312/332/302 311/363/302 292/333/302
f 286/334/303 305/367/303 304/335/303
f 294/336/652 313/368/652 312/332/652
f 306/337/305 305/367/305 286/334/305
f 314/338/306 313/368/306 294/336/306
f 288/339/307 307/353/307 306/337/307
f 296/311/309 315/351/309 314/338/309
f 308/342/310 307/353/310 288/339/310
f 301/343/311 300/340/311 281/327/311
f 316/344/312 315/351/312 296/311/312
f 309/345/313 308/342/313 289/329/313
f 302/346/314 301/343/314 282/310/314
f 317/347/315 316/344/315 297/315/315
f 291/319/316 310/349/316 309/345/316
f 284/316/317 303/360/317 302/346/317
f 299/317/318 318/331/318 317/347/318
f 292/333/319 311/363/319 310/349/319
f 304/335/320 303/360/320 284/316/320
f 334/350/321 333/370/321 314/338/321
f 308/342/322 327/386/322 326/352/322
f 320/354/323 319/371/323 300/340/323
f 335/355/324 334/350/324 315/351/324
f 328/356/325 327/386/325 308/342/325
f 321/357/326 320/354/326 301/343/326
f 336/358/327 335/355/327 316/344/327
f 310/349/328 329/374/328 328/356/328
f 322/359/329 321/357/329 302/346/329
f 337/361/330 336/358/330 317/347/330
f 330/362/331 329/374/331 310/349/331
f 323/364/332 322/359/332 303/360/332
f 331/366/334 330/362/334 311/363/334
f 305/367/335 324/379/335 323/364/335
f 313/368/336 332/380/336 331/366/336
f 325/369/337 324/379/337 305/367/337
f 333/370/338 332/380/338 313/368/338
f 307/353/339 326/352/339 325/369/339
f 330/362/341 349/406/341 348/373/341
f 342/375/342 341/392/342 322/359/342
f 350/378/344 349/406/344 330/362/344
f 324/379/345 343/411/345 342/375/345
f 332/380/346 351/413/346 350/378/346
f 344/381/347 343/411/347 324/379/347
f 352/382/348 351/413/348 332/380/348
f 326/352/349 345/393/349 344/381/349
f 334/350/351 353/397/351 352/382/351
f 346/385/352 345/393/352 326/352/352
f 339/387/353 338/383/353 319/371/353
f 354/388/354 353/397/354 334/350/354
f 347/389/355 346/385/355 327/386/355
f 340/390/356 339/387/356 320/354/356
f 355/391/357 354/388/357 335/355/357
f 348/373/358 347/389/358 328/356/358
f 341/392/359 340/390/359 321/357/359
f 337/361/360 356/377/360 355/391/360
f 345/393/361 364/427/361 363/394/361
f 353/397/363 372/432/363 371/398/363
f 365/399/364 364/427/364 345/393/364
f 358/400/653 357/395/653 338/383/653
f 373/401/366 372/432/366 353/397/366
f 366/402/367 365/399/367 346/385/367
f 340/390/368 359/415/368 358/400/368
f 374/403/369 373/401/369 354/388/369
f 348/373/370 367/418/370 366/402/370
f 360/404/371 359/415/371 340/390/371
f 356/377/654 375/409/654 374/403/654
f 368/405/373 367/418/373 348/373/373
f 361/407/374 360/404/374 341/392/374
f 369/410/376 368/405/376 349/406/376
f 343/411/377 362/423/377 361/407/377
f 370/412/378 369/410/378 350/378/378
f 363/394/379 362/423/379 343/411/379
f 371/398/380 370/412/380 351/413/380
f 379/414/381 378/436/381 359/415/381
f 375/409/382 394/421/382 393/416/382
f 368/405/383 387/451/383 386/417/383
f 380/419/384 379/414/384 360/404/384
f 388/422/386 387/451/386 368/405/386
f 362/423/387 381/425/387 380/419/387
f 389/424/388 388/422/388 369/410/388
f 363/394/389 382/428/389 381/425/389
f 390/426/390 389/424/390 370/412/390
f 364/427/391 383/438/391 382/428/391
f 391/431/393 390/426/393 371/398/393
f 384/433/394 383/438/394 364/427/394
f 377/434/395 376/429/395 357/395/395
f 373/401/396 392/444/396 391/431/396
f 385/435/655 384/433/655 365/399/655
f 378/436/398 377/434/398 358/400/398
f 393/416/399 392/444/399 373/401/399
f 367/418/656 386/417/656 385/435/656
f 409/437/401 408/457/401 389/424/401
f 383/438/402 402/442/402 401/439/402
f 391/431/404 410/445/404 409/437/404
f 384/433/405 403/472/405 402/442/405
f 396/443/406 395/440/406 376/429/406
f 392/444/407 411/476/407 410/445/407
f 404/446/408 403/472/408 384/433/408
f 397/447/409 396/443/409 377/434/409
f 412/448/410 411/476/410 392/444/410
f 386/417/411 405/458/411 404/446/411
f 398/449/412 397/447/412 378/436/412
f 394/421/413 413/454/413 412/448/413
f 406/450/414 405/458/414 386/417/414
f 399/452/415 398/449/415 379/414/415
f 407/455/417 406/450/417 387/451/417
f 400/456/418 399/452/418 380/419/418
f 408/457/419 407/455/419 388/422/419
f 401/439/420 400/456/420 381/425/420
f 405/458/421 424/490/421 423/459/421
f 417/460/422 416/488/422 397/447/422
f 413/454/423 432/465/423 431/461/423
f 425/462/424 424/490/424 405/458/424
f 418/463/425 417/460/425 398/449/425
f 426/466/427 425/462/427 406/450/427
f 400/456/428 419/478/428 418/463/428
f 408/457/429 427/480/429 426/466/429
f 420/467/430 419/478/430 400/456/430
f 428/468/431 427/480/431 408/457/431
f 402/442/432 421/473/432 420/467/432
f 429/471/434 428/468/434 409/437/434
f 403/472/435 422/483/435 421/473/435
f 415/474/436 414/469/436 395/440/436
f 430/475/437 429/471/437 410/445/437
f 423/459/438 422/483/438 403/472/438
f 397/447/439 416/488/439 415/474/439
f 431/461/440 430/475/440 411/476/440
f 439/477/441 438/510/441 419/478/441
f 447/479/442 446/497/442 427/480/442
f 421/473/443 440/484/443 439/477/443
f 429/471/445 448/485/445 447/479/445
f 422/483/446 441/516/446 440/484/446
f 415/474/447 434/499/447 433/481/447
f 430/475/448 449/501/448 448/485/448
f 442/486/449 441/516/449 422/483/449
f 435/487/450 434/499/450 415/474/450
f 450/489/451 449/501/451 430/475/451
f 424/490/452 443/502/452 442/486/452
f 436/491/453 435/487/453 416/488/453
f 432/465/454 451/495/454 450/489/454
f 444/492/455 443/502/455 424/490/455
f 437/493/456 436/491/456 417/460/456
f 445/496/458 444/492/458 425/462/458
f 419/478/459 438/510/459 437/493/459
f 446/497/460 445/496/460 426/466/460
f 454/498/461 453/518/461 434/499/461
f 469/500/462 468/519/462 449/501/462
f 443/502/463 462/688/463 461/503/463
f 455/504/464 454/498/464 435/487/464
f 451/495/465 470/508/465 469/500/465
f 463/505/466 462/688/466 443/502/466
f 456/506/467 455/504/467 436/491/467
f 464/509/469 463/505/469 444/492/469
f 438/510/470 457/689/470 456/506/470
f 446/497/471 465/690/471 464/509/471
f 458/511/472 457/689/472 438/510/472
f 466/512/473 465/690/473 446/497/473
f 440/484/474 459/517/474 458/511/474
f 467/515/476 466/512/476 447/479/476
f 441/516/477 460/691/477 459/517/477
f 453/518/478 452/513/478 433/481/478
f 468/519/479 467/515/479 448/485/479
f 461/503/480 460/691/480 441/516/480
f 484/520/481 483/555/481 464/521/481
f 477/523/482 476/568/482 457/524/482
f 485/526/483 484/520/483 465/522/483
f 459/528/484 478/535/484 477/523/484
f 486/532/486 485/526/486 466/527/486
f 460/534/487 479/559/487 478/535/487
f 472/536/488 471/530/488 452/529/488
f 487/538/489 486/532/489 467/533/489
f 480/540/490 479/559/490 460/534/490
f 473/542/491 472/536/491 453/537/491
f 488/544/492 487/538/492 468/539/492
f 462/546/493 481/562/493 480/540/493
f 474/547/494 473/542/494 454/543/494
f 470/549/495 489/554/495 488/544/495
f 482/550/496 481/562/496 462/546/496
f 456/552/497 475/556/497 474/547/497
f 483/555/499 482/550/499 463/551/499
f 457/524/500 476/568/500 475/556/500
f 487/538/501 506/588/501 505/557/501
f 499/558/502 498/585/502 479/559/502
f 492/560/503 491/576/503 472/536/503
f 507/561/504 506/588/504 487/538/504
f 481/562/505 500/591/505 499/558/505
f 493/563/506 492/560/506 473/542/506
f 489/554/507 508/566/507 507/561/507
f 501/564/508 500/591/508 481/562/508
f 475/556/509 494/569/509 493/563/509
f 502/567/511 501/564/511 482/550/511
f 476/568/512 495/578/512 494/569/512
f 503/570/513 502/567/513 483/555/513
f 496/571/514 495/578/514 476/568/514
f 504/572/515 503/570/515 484/520/515
f 478/535/516 497/575/516 496/571/516
f 505/557/518 504/572/518 485/526/518
f 479/559/519 498/585/519 497/575/519
f 491/576/520 490/573/520 471/530/520
f 521/577/521 520/593/521 501/564/521
f 495/578/522 514/612/522 513/579/522
f 503/570/523 522/614/523 521/577/523
f 515/580/524 514/612/524 495/578/524
f 523/581/525 522/614/525 503/570/525
f 497/575/526 516/586/526 515/580/526
f 524/584/528 523/581/528 504/572/528
f 498/585/529 517/596/529 516/586/529
f 510/587/530 509/582/530 490/573/530
f 506/588/531 525/599/531 524/584/531
f 518/589/532 517/596/532 498/585/532
f 492/560/533 511/603/533 510/587/533
f 526/590/534 525/599/534 506/588/534
f 500/591/535 519/605/535 518/589/535
f 512/592/536 511/603/536 492/560/536
f 508/566/537 527/595/537 526/590/537
f 520/593/538 519/605/538 500/591/538
f 494/569/539 513/579/539 512/592/539
f 517/596/541 536/629/541 535/597/541
f 529/598/542 528/617/542 509/582/542
f 525/599/543 544/632/543 543/600/543
f 537/601/657 536/629/657 517/596/657
f 530/602/545 529/598/545 510/587/545
f 545/604/546 544/632/546 525/599/546
f 519/605/658 538/637/658 537/601/658
f 531/606/548 530/602/548 511/603/548
f 527/595/549 546/609/549 545/604/549
f 539/607/550 538/637/550 519/605/550
f 513/579/551 532/619/551 531/606/551
f 540/610/553 539/607/553 520/593/553
f 533/611/554 532/619/554 513/579/554
f 541/613/555 540/610/555 521/577/555
f 534/615/556 533/611/556 514/612/556
f 542/616/557 541/613/557 522/614/557
f 516/586/558 535/597/558 534/615/558
f 543/600/560 542/616/560 523/581/560
f 532/619/561 551/654/561 550/620/561
f 559/623/563 558/638/563 539/607/563
f 552/624/564 551/654/564 532/619/564
f 541/613/565 560/659/565 559/623/565
f 553/625/566 552/624/566 533/611/566
f 561/626/567 560/659/567 541/613/567
f 535/597/568 554/630/568 553/625/568
f 543/600/570 562/633/570 561/626/570
f 536/629/571 555/642/571 554/630/571
f 548/631/572 547/627/572 528/617/572
f 544/632/573 563/645/573 562/633/573
f 556/634/574 555/642/574 536/629/574
f 549/635/575 548/631/575 529/598/575
f 564/636/576 563/645/576 544/632/576
f 538/637/577 557/649/577 556/634/577
f 550/620/578 549/635/578 530/602/578
f 565/622/579 564/636/579 545/604/579
f 558/638/580 557/649/580 538/637/580
f 581/641/582 580/671/582 561/626/582
f 555/642/583 574/675/583 573/643/583
f 567/644/584 566/639/584 547/627/584
f 563/645/585 582/648/585 581/641/585
f 575/646/586 574/675/586 555/642/586
f 568/647/587 567/644/587 548/631/587
f 564/636/588 583/651/588 582/648/588
f 557/649/589 576/663/589 575/646/589
f 569/650/590 568/647/590 549/635/590
f 565/622/659 584/656/659 583/651/659
f 577/652/592 576/663/592 557/649/592
f 570/653/593 569/650/593 550/620/593
f 578/657/595 577/652/595 558/638/595
f 571/658/596 570/653/596 551/654/596
f 560/659/597 579/661/597 578/657/597
f 572/660/598 571/658/598 552/624/598
f 561/626/599 580/671/599 579/661/599
f 554/630/600 573/643/600 572/660/600
f 596/662/601 595/684/601 576/663/601
f 570/653/602 589/685/602 588/664/602
f 597/667/604 596/662/604 577/652/604
f 590/668/605 589/685/605 570/653/605
f 579/661/606 598/687/606 597/667/606
f 591/669/607 590/668/607 571/658/607
f 599/670/608 598/687/608 579/661/608
f 573/643/609 592/676/609 591/669/609
f 600/674/611 599/670/611 580/671/611
f 574/675/612 593/682/612 592/676/612
f 586/677/613 585/672/613 566/639/613
f 582/648/614 601/683/614 600/674/614
f 594/678/615 593/682/615 574/675/615
f 587/679/616 586/677/616 567/644/616
f 602/680/617 601/683/617 582/648/617
f 576/663/618 595/684/618 594/678/618
f 588/664/619 587/679/619 568/647/619
f 584/656/620 603/666/620 602/680/620
f 592/676/621 7/4/621 6/6/621
f 12/11/623 608/3/623 599/670/623
f 593/682/624 8/13/624 7/4/624
f 605/14/625 604/7/625 585/672/625
f 609/16/626 12/11/626 600/674/626
f 9/18/627 8/13/627 593/682/627
f 587/679/628 2/19/628 605/14/628
f 13/22/629 609/16/629 601/683/629
f 595/684/630 10/24/630 9/18/630
f 588/664/631 3/25/631 2/19/631
f 610/28/632 13/22/632 602/680/632
f 606/29/633 10/24/633 595/684/633
f 589/685/634 4/31/634 3/25/634
f 607/34/636 606/29/636 596/662/636
f 590/668/637 5/36/637 4/31/637
f 11/2/638 607/34/638 597/667/638
f 591/669/660 6/6/660 5/36/660
f 608/3/640 11/2/640 598/687/640
