# Blender 5.1.1
# www.blender.org
mtllib mountain_ring.mtl
o MountainRing
v 150.000000 -11.400000 -26.400002
v 170.923248 -11.400000 -8.158050
v 162.931274 -11.400000 21.358049
v 137.068726 -11.400000 21.358049
v 129.076752 -11.400000 -8.158050
v 150.000000 26.600000 0.000000
v 144.888870 -11.756161 -60.778393
v 168.490631 -11.756161 -45.607491
v 159.475555 -11.756161 -21.060453
v 130.302185 -11.756161 -21.060453
v 121.287117 -11.756161 -45.607491
v 144.888870 27.431046 -38.822857
v 129.903809 -6.683620 -89.343788
v 148.843201 -6.683620 -79.432472
v 141.608994 -6.683620 -63.395634
v 118.198624 -6.683620 -63.395634
v 110.964417 -6.683620 -79.432472
v 129.903809 15.595114 -75.000000
v 106.066017 -5.847776 -117.334198
v 119.994148 -5.847776 -109.548080
v 114.674072 -5.847776 -96.949867
v 97.457962 -5.847776 -96.949867
v 92.137886 -5.847776 -109.548080
v 106.066017 13.644810 -106.066017
v 75.000000 -8.143681 -144.482071
v 87.328583 -8.143681 -134.408737
v 82.619484 -8.143681 -118.109749
v 67.380516 -8.143681 -118.109749
v 62.671417 -8.143681 -134.408737
v 75.000000 19.001923 -129.903809
v 45.293335 -8.497047 -191.053696
v 59.407982 -8.497047 -175.840546
v 54.016663 -8.497047 -151.225159
v 36.570007 -8.497047 -151.225159
v 31.178688 -8.497047 -175.840546
v 45.293335 19.826443 -169.037018
v 0.000000 -3.367873 -200.987442
v 18.995911 -3.367873 -183.030563
v 11.740112 -3.367873 -153.975708
v -11.740112 -3.367873 -153.975708
v -18.995911 -3.367873 -183.030563
v 0.000000 7.858370 -175.000000
v -45.293335 -1.373797 -190.457062
v -24.101761 -1.373797 -175.656174
v -32.196228 -1.373797 -151.707840
v -58.390442 -1.373797 -151.707840
v -66.484909 -1.373797 -175.656174
v -45.293335 3.205526 -169.037018
v -75.000000 -15.741394 -144.230057
v -56.801331 -15.741394 -134.330872
v -63.752609 -15.741394 -118.313637
v -86.247391 -15.741394 -118.313637
v -93.198669 -15.741394 -134.330872
v -75.000000 36.729919 -129.903809
v -106.066010 -9.714348 -117.877319
v -90.631378 -9.714348 -109.715912
v -96.526886 -9.714348 -96.510475
v -115.605133 -9.714348 -96.510475
v -121.500641 -9.714348 -109.715912
v -106.066010 22.666813 -106.066017
v -129.903809 -1.609955 -89.994080
v -115.564636 -1.609955 -79.633423
v -121.041718 -1.609955 -62.869541
v -138.765900 -1.609955 -62.869541
v -144.242981 -1.609955 -79.633423
v -129.903809 3.756560 -75.000000
v -144.888855 -10.553539 -60.414772
v -130.526917 -10.553539 -45.495129
v -136.012695 -10.553539 -21.354626
v -153.765015 -10.553539 -21.354626
v -159.250793 -10.553539 -45.495129
v -144.888855 24.624928 -38.822857
v -150.000000 -11.455513 -24.805450
v -133.064392 -11.455513 -7.665306
v -139.533234 -11.455513 20.068027
v -160.466766 -11.455513 20.068027
v -166.935608 -11.455513 -7.665306
v -150.000000 26.729530 -0.000000
v -144.888855 -7.977890 18.322195
v -126.306458 -7.977890 32.487804
v -133.404297 -7.977890 55.408237
v -156.373413 -7.977890 55.408237
v -163.471252 -7.977890 32.487804
v -144.888855 18.615074 38.822857
v -129.903809 -5.276417 60.423805
v -112.399933 -5.276417 70.495712
v -119.085815 -5.276417 86.792397
v -140.721802 -5.276417 86.792397
v -147.407684 -5.276417 70.495712
v -129.903809 12.311640 75.000000
v -106.066010 -7.343876 93.183601
v -88.800674 -7.343876 102.085129
v -95.395447 -7.343876 116.488113
v -116.736572 -7.343876 116.488113
v -123.331360 -7.343876 102.085129
v -106.066010 17.135712 106.066017
v -75.000000 -15.014990 114.330307
v -58.262146 -15.014990 125.091331
v -64.655441 -15.014990 142.503052
v -85.344559 -15.014990 142.503052
v -91.737854 -15.014990 125.091331
v -75.000000 35.034977 129.903809
v -45.293335 -3.446900 148.289932
v -30.434982 -3.446900 162.625824
v -36.110367 -3.446900 185.821777
v -54.476303 -3.446900 185.821777
v -60.151688 -3.446900 162.625824
v -45.293335 8.042768 169.037018
v 0.000000 -1.154379 151.990494
v 14.975403 -1.154379 167.889664
v 9.255310 -1.154379 193.615097
v -9.255310 -1.154379 193.615097
v -14.975403 -1.154379 167.889664
v 0.000000 2.693550 175.000000
v 45.293335 -9.274334 149.688568
v 61.347618 -9.274334 163.058029
v 55.215431 -9.274334 184.690247
v 35.371239 -9.274334 184.690247
v 29.239052 -9.274334 163.058029
v 45.293335 21.640116 169.037018
v 75.000000 -9.960512 114.761017
v 91.961685 -9.960512 125.224434
v 85.482895 -9.960512 142.154602
v 64.517105 -9.960512 142.154602
v 58.038315 -9.960512 125.224434
v 75.000000 23.241198 129.903809
v 106.066017 -2.334244 91.625313
v 125.360779 -2.334244 101.603592
v 117.990837 -2.334244 117.748795
v 94.141197 -2.334244 117.748795
v 86.771255 -2.334244 101.603592
v 106.066017 5.446571 106.066017
v 129.903809 -9.642479 58.693810
v 149.237274 -9.642479 69.961113
v 141.852554 -9.642479 88.191994
v 117.955063 -9.642479 88.191994
v 110.570335 -9.642479 69.961113
v 129.903809 22.499119 75.000000
v 144.888870 -11.099735 19.217192
v 160.460800 -11.099735 32.764374
v 154.512848 -11.099735 54.684170
v 135.264893 -11.099735 54.684170
v 129.316940 -11.099735 32.764374
v 144.888870 25.899384 38.822857
vn 0.5822 0.4639 -0.6677
vn 0.8718 0.4293 0.2360
vn -0.0000 0.4900 0.8717
vn -0.0000 -1.0000 -0.0000
vn -0.8718 0.4293 0.2360
vn -0.5822 0.4639 -0.6677
vn 0.4891 0.4263 -0.7609
vn 0.8377 0.4513 0.3076
vn -0.0000 0.4128 0.9108
vn -0.8377 0.4513 0.3076
vn -0.4891 0.4263 -0.7609
vn 0.4027 0.4955 -0.7696
vn 0.7492 0.5697 0.3380
vn -0.0000 0.4620 0.8869
vn -0.7492 0.5697 0.3380
vn -0.4027 0.4955 -0.7696
vn 0.4356 0.4505 -0.7793
vn 0.7939 0.5074 0.3352
vn -0.0000 0.4236 0.9058
vn -0.7939 0.5074 0.3352
vn -0.4356 0.4505 -0.7793
vn 0.5842 0.3840 -0.7150
vn 0.8950 0.3636 0.2586
vn -0.0000 0.3985 0.9172
vn -0.8950 0.3636 0.2586
vn -0.5842 0.3840 -0.7150
vn 0.6481 0.4674 -0.6013
vn 0.8956 0.3992 0.1962
vn -0.0000 0.5324 0.8465
vn -0.8956 0.3992 0.1962
vn -0.6481 0.4674 -0.6013
vn 0.3510 0.8596 -0.3713
vn 0.5461 0.8265 0.1364
vn -0.0000 0.8821 0.4710
vn -0.5461 0.8265 0.1364
vn -0.3510 0.8596 -0.3713
vn 0.1445 0.9676 -0.2069
vn 0.2341 0.9690 0.0791
vn -0.0000 0.9668 0.2555
vn -0.2341 0.9690 0.0791
vn -0.1445 0.9676 -0.2069
vn 0.4647 0.2332 -0.8542
vn 0.8823 0.2737 0.3829
vn -0.0000 0.2157 0.9765
vn -0.8823 0.2737 0.3829
vn -0.4647 0.2332 -0.8542
vn 0.4449 0.3069 -0.8414
vn 0.8509 0.3628 0.3799
vn -0.0000 0.2830 0.9591
vn -0.8509 0.3628 0.3799
vn -0.4449 0.3069 -0.8414
vn 0.2366 0.9148 -0.3274
vn 0.3830 0.9152 0.1251
vn -0.0000 0.9145 0.4046
vn -0.3830 0.9152 0.1251
vn -0.2366 0.9148 -0.3274
vn 0.6629 0.3917 -0.6381
vn 0.9186 0.3354 0.2088
vn -0.0000 0.4447 0.8957
vn -0.9186 0.3354 0.2088
vn -0.6629 0.3917 -0.6381
vn 0.6471 0.4153 -0.6394
vn 0.9084 0.3604 0.2119
vn -0.0000 0.4652 0.8852
vn -0.9084 0.3604 0.2119
vn -0.6471 0.4153 -0.6394
vn 0.5168 0.5227 -0.6780
vn 0.8202 0.5126 0.2540
vn -0.0000 0.5292 0.8485
vn -0.8202 0.5126 0.2540
vn -0.5168 0.5227 -0.6780
vn 0.4051 0.5834 -0.7040
vn 0.7142 0.6357 0.2930
vn -0.0000 0.5569 0.8306
vn -0.7142 0.6357 0.2930
vn -0.4051 0.5834 -0.7040
vn 0.4151 0.4237 -0.8051
vn 0.7887 0.4975 0.3611
vn -0.0000 0.3917 0.9201
vn -0.7887 0.4975 0.3611
vn -0.4151 0.4237 -0.8051
vn 0.5232 0.2532 -0.8137
vn 0.9038 0.2703 0.3318
vn -0.0000 0.2441 0.9697
vn -0.9038 0.2703 0.3318
vn -0.5232 0.2532 -0.8137
vn 0.4235 0.7925 -0.4389
vn 0.6458 0.7470 0.1580
vn -0.0000 0.8252 0.5649
vn -0.6458 0.7470 0.1580
vn -0.4235 0.7925 -0.4389
vn 0.1725 0.9715 -0.1625
vn 0.2756 0.9593 0.0613
vn -0.0000 0.9793 0.2024
vn -0.2756 0.9593 0.0613
vn -0.1725 0.9715 -0.1625
vn 0.5767 0.4334 -0.6925
vn 0.8784 0.4080 0.2490
vn -0.0000 0.4517 0.8922
vn -0.8784 0.4080 0.2490
vn -0.5767 0.4334 -0.6925
vn 0.4894 0.3619 -0.7934
vn 0.8590 0.3925 0.3287
vn -0.0000 0.3462 0.9382
vn -0.8590 0.3925 0.3287
vn -0.4894 0.3619 -0.7934
vn 0.2382 0.8550 -0.4607
vn 0.4040 0.8960 0.1844
vn -0.0000 0.8323 0.5543
vn -0.4040 0.8960 0.1844
vn -0.2382 0.8550 -0.4607
vn 0.4612 0.4014 -0.7913
vn 0.8294 0.4462 0.3360
vn -0.0000 0.3797 0.9251
vn -0.8294 0.4462 0.3360
vn -0.4612 0.4014 -0.7913
vn 0.6095 0.3712 -0.7005
vn 0.9071 0.3415 0.2461
vn -0.0000 0.3940 0.9191
vn -0.9071 0.3415 0.2461
vn -0.6095 0.3712 -0.7005
vt 0.250000 0.490000
vt 0.250000 0.250000
vt 0.478254 0.324164
vt 0.391068 0.055836
vt 0.108932 0.055836
vt 0.978254 0.324164
vt 0.608932 0.055836
vt 0.521746 0.324164
vt 0.021746 0.324164
vt 0.250000 0.490000
vt 0.478254 0.324164
vt 0.391068 0.055836
vt 0.108932 0.055836
vt 0.978254 0.324164
vt 0.608932 0.055836
vt 0.521746 0.324164
vt 0.021746 0.324164
vt 0.108932 0.055836
vt 0.478254 0.324164
vt 0.978254 0.324164
vt 0.521746 0.324164
vt 0.021746 0.324164
vt 0.750000 0.490000
vt 0.891068 0.055836
vt 0.750000 0.490000
vt 0.891068 0.055836
s 0
usemtl MatMountainRing
f 1/1/1 6/2/1 2/3/1
f 2/3/2 6/2/2 3/4/2
f 3/4/3 6/2/3 4/5/3
f 2/6/4 4/7/4 5/8/4
f 4/5/5 6/2/5 5/9/5
f 5/9/6 6/2/6 1/1/6
f 7/1/7 12/2/7 8/3/7
f 8/3/8 12/2/8 9/4/8
f 9/4/9 12/2/9 10/5/9
f 8/6/4 10/7/4 11/8/4
f 10/5/10 12/2/10 11/9/10
f 11/9/11 12/2/11 7/1/11
f 13/1/12 18/2/12 14/3/12
f 14/3/13 18/2/13 15/4/13
f 15/4/14 18/2/14 16/5/14
f 14/6/4 16/7/4 17/8/4
f 16/5/15 18/2/15 17/9/15
f 17/9/16 18/2/16 13/1/16
f 19/10/17 24/2/17 20/11/17
f 20/11/18 24/2/18 21/12/18
f 21/12/19 24/2/19 22/13/19
f 20/14/4 22/15/4 23/16/4
f 22/13/20 24/2/20 23/17/20
f 23/17/21 24/2/21 19/10/21
f 25/1/22 30/2/22 26/3/22
f 26/3/23 30/2/23 27/4/23
f 27/4/24 30/2/24 28/5/24
f 26/6/4 28/7/4 29/8/4
f 28/5/25 30/2/25 29/9/25
f 29/9/26 30/2/26 25/1/26
f 31/1/27 36/2/27 32/11/27
f 32/11/28 36/2/28 33/4/28
f 33/4/29 36/2/29 34/5/29
f 32/14/4 34/7/4 35/16/4
f 34/5/30 36/2/30 35/17/30
f 35/17/31 36/2/31 31/1/31
f 37/1/32 42/2/32 38/11/32
f 38/11/33 42/2/33 39/12/33
f 39/12/34 42/2/34 40/18/34
f 38/14/4 40/15/4 41/16/4
f 40/18/35 42/2/35 41/17/35
f 41/17/36 42/2/36 37/1/36
f 43/1/37 48/2/37 44/11/37
f 44/11/38 48/2/38 45/12/38
f 45/12/39 48/2/39 46/18/39
f 44/14/4 46/15/4 47/16/4
f 46/18/40 48/2/40 47/17/40
f 47/17/41 48/2/41 43/1/41
f 49/1/42 54/2/42 50/11/42
f 50/11/43 54/2/43 51/4/43
f 51/4/44 54/2/44 52/5/44
f 50/14/4 52/7/4 53/16/4
f 52/5/45 54/2/45 53/17/45
f 53/17/46 54/2/46 49/1/46
f 55/1/47 60/2/47 56/11/47
f 56/11/48 60/2/48 57/12/48
f 57/12/49 60/2/49 58/18/49
f 56/14/4 58/15/4 59/16/4
f 58/18/50 60/2/50 59/17/50
f 59/17/51 60/2/51 55/1/51
f 61/1/52 66/2/52 62/11/52
f 62/11/53 66/2/53 63/4/53
f 63/4/54 66/2/54 64/5/54
f 62/14/4 64/7/4 65/16/4
f 64/5/55 66/2/55 65/17/55
f 65/17/56 66/2/56 61/1/56
f 67/10/57 72/2/57 68/11/57
f 68/11/58 72/2/58 69/12/58
f 69/12/59 72/2/59 70/18/59
f 68/14/4 70/15/4 71/16/4
f 70/18/60 72/2/60 71/17/60
f 71/17/61 72/2/61 67/10/61
f 73/1/62 78/2/62 74/11/62
f 74/11/63 78/2/63 75/12/63
f 75/12/64 78/2/64 76/18/64
f 74/14/4 76/15/4 77/16/4
f 76/18/65 78/2/65 77/17/65
f 77/17/66 78/2/66 73/1/66
f 79/1/67 84/2/67 80/11/67
f 80/11/68 84/2/68 81/4/68
f 81/4/69 84/2/69 82/5/69
f 80/14/4 82/7/4 83/16/4
f 82/5/70 84/2/70 83/17/70
f 83/17/71 84/2/71 79/1/71
f 85/1/72 90/2/72 86/19/72
f 86/19/73 90/2/73 87/4/73
f 87/4/74 90/2/74 88/5/74
f 86/20/4 88/7/4 89/21/4
f 88/5/75 90/2/75 89/22/75
f 89/22/76 90/2/76 85/1/76
f 91/1/77 96/2/77 92/3/77
f 92/3/78 96/2/78 93/4/78
f 93/4/79 96/2/79 94/5/79
f 92/6/4 94/7/4 95/8/4
f 94/5/80 96/2/80 95/9/80
f 95/9/81 96/2/81 91/1/81
f 97/1/82 102/2/82 98/11/82
f 98/11/83 102/2/83 99/12/83
f 99/12/84 102/2/84 100/13/84
f 98/14/4 100/15/4 101/16/4
f 100/13/85 102/2/85 101/17/85
f 101/17/86 102/2/86 97/1/86
f 103/1/87 108/2/87 104/11/87
f 104/11/88 108/2/88 105/4/88
f 105/4/89 108/2/89 106/5/89
f 104/14/4 106/7/4 107/16/4
f 106/5/90 108/2/90 107/17/90
f 107/17/91 108/2/91 103/1/91
f 109/1/92 114/2/92 110/3/92
f 110/3/93 114/2/93 111/12/93
f 111/12/94 114/2/94 112/13/94
f 110/6/4 112/15/4 113/8/4
f 112/13/95 114/2/95 113/9/95
f 113/9/96 114/2/96 109/1/96
f 115/1/97 120/2/97 116/11/97
f 116/11/98 120/2/98 117/12/98
f 117/12/99 120/2/99 118/18/99
f 116/14/4 118/15/4 119/16/4
f 118/18/100 120/2/100 119/17/100
f 119/17/101 120/2/101 115/1/101
f 121/10/102 126/2/102 122/11/102
f 122/11/103 126/2/103 123/12/103
f 123/12/104 126/2/104 124/13/104
f 122/14/4 124/15/4 125/16/4
f 124/13/105 126/2/105 125/17/105
f 125/17/106 126/2/106 121/10/106
f 127/1/107 132/2/107 128/11/107
f 128/11/108 132/2/108 129/4/108
f 129/4/109 132/2/109 130/5/109
f 128/14/4 130/7/4 131/16/4
f 130/5/110 132/2/110 131/17/110
f 131/17/111 132/2/111 127/1/111
f 133/1/112 138/2/112 134/3/112
f 134/3/113 138/2/113 135/4/113
f 135/4/114 138/2/114 136/5/114
f 134/6/4 136/7/4 137/8/4
f 136/5/115 138/2/115 137/9/115
f 137/9/116 138/2/116 133/1/116
f 139/1/117 144/2/117 140/11/117
f 140/11/118 144/2/118 141/12/118
f 141/12/119 144/2/119 142/18/119
f 140/14/4 142/15/4 143/16/4
f 142/18/120 144/2/120 143/17/120
f 143/17/121 144/2/121 139/1/121
f 5/8/4 1/23/4 2/6/4
f 2/6/4 3/24/4 4/7/4
f 11/8/4 7/23/4 8/6/4
f 8/6/4 9/24/4 10/7/4
f 17/8/4 13/23/4 14/6/4
f 14/6/4 15/24/4 16/7/4
f 23/16/4 19/25/4 20/14/4
f 20/14/4 21/26/4 22/15/4
f 29/8/4 25/23/4 26/6/4
f 26/6/4 27/24/4 28/7/4
f 35/16/4 31/23/4 32/14/4
f 32/14/4 33/24/4 34/7/4
f 41/16/4 37/23/4 38/14/4
f 38/14/4 39/26/4 40/15/4
f 47/16/4 43/23/4 44/14/4
f 44/14/4 45/26/4 46/15/4
f 53/16/4 49/23/4 50/14/4
f 50/14/4 51/24/4 52/7/4
f 59/16/4 55/23/4 56/14/4
f 56/14/4 57/26/4 58/15/4
f 65/16/4 61/23/4 62/14/4
f 62/14/4 63/24/4 64/7/4
f 71/16/4 67/25/4 68/14/4
f 68/14/4 69/26/4 70/15/4
f 77/16/4 73/23/4 74/14/4
f 74/14/4 75/26/4 76/15/4
f 83/16/4 79/23/4 80/14/4
f 80/14/4 81/24/4 82/7/4
f 89/21/4 85/23/4 86/20/4
f 86/20/4 87/24/4 88/7/4
f 95/8/4 91/23/4 92/6/4
f 92/6/4 93/24/4 94/7/4
f 101/16/4 97/23/4 98/14/4
f 98/14/4 99/26/4 100/15/4
f 107/16/4 103/23/4 104/14/4
f 104/14/4 105/24/4 106/7/4
f 113/8/4 109/23/4 110/6/4
f 110/6/4 111/26/4 112/15/4
f 119/16/4 115/23/4 116/14/4
f 116/14/4 117/26/4 118/15/4
f 125/16/4 121/25/4 122/14/4
f 122/14/4 123/26/4 124/15/4
f 131/16/4 127/23/4 128/14/4
f 128/14/4 129/24/4 130/7/4
f 137/8/4 133/23/4 134/6/4
f 134/6/4 135/24/4 136/7/4
f 143/16/4 139/23/4 140/14/4
f 140/14/4 141/26/4 142/15/4
