# Blender 5.1.1
# www.blender.org
mtllib south_spire.mtl
o SouthSpire
v 0.000000 0.000000 -9.000000
v 0.000000 3.000000 -9.000000
v 6.363961 0.000000 -6.363961
v 6.363961 3.000000 -6.363961
v 9.000000 0.000000 0.000000
v 9.000000 3.000000 0.000000
v 6.363961 0.000000 6.363961
v 6.363961 3.000000 6.363961
v 0.000000 0.000000 9.000000
v 0.000000 3.000000 9.000000
v -6.363961 0.000000 6.363961
v -6.363961 3.000000 6.363961
v -9.000000 0.000000 0.000000
v -9.000000 3.000000 0.000000
v -6.363961 0.000000 -6.363961
v -6.363961 3.000000 -6.363961
v 7.466876 0.092344 -3.455812
v 9.378866 0.306446 -2.574889
v 9.153170 0.151347 -0.476658
v 7.101692 -0.158611 -0.060802
v 6.059505 -0.195076 -1.902021
v 6.868977 6.960710 -1.286004
v 0.273841 0.294108 -7.980144
v 1.987556 0.199644 -9.217813
v 3.672939 -0.116446 -7.978000
v 3.000849 -0.217336 -5.974082
v 0.900091 0.036401 -5.975407
v 2.802654 6.960726 -6.796369
v -6.385287 0.240153 -3.933103
v -6.577738 -0.068417 -6.017645
v -4.633446 -0.228225 -6.837255
v -3.239357 -0.018421 -5.259260
v -4.322055 0.271052 -3.464395
v -4.899713 6.960772 -6.139086
v -6.503831 -0.013764 3.047780
v -8.415821 -0.227866 2.166856
v -8.190125 -0.072767 0.068624
v -6.138647 0.237191 -0.347230
v -5.096460 0.273656 1.493989
v -7.832022 6.960710 1.694036
v -1.109440 -0.215559 7.351423
v -2.823154 -0.121095 8.589094
v -4.508538 0.194994 7.349279
v -3.836448 0.295885 5.345362
v -1.735689 0.042148 5.346687
v -1.967055 6.960726 7.425089
v 6.253424 -0.161696 4.969857
v 6.445874 0.146874 7.054399
v 4.501583 0.306682 7.874010
v 3.107494 0.096878 6.296015
v 4.190191 -0.192595 4.501149
v 5.031577 6.960772 5.102332
v 0.000000 3.000000 -3.800000
v 0.000000 17.000000 -3.800000
v 2.687006 3.000000 -2.687006
v 2.687006 17.000000 -2.687006
v 3.800000 3.000000 0.000000
v 3.800000 17.000000 0.000000
v 2.687006 3.000000 2.687006
v 2.687006 17.000000 2.687006
v 0.000000 3.000000 3.800000
v 0.000000 17.000000 3.800000
v -2.687006 3.000000 2.687006
v -2.687006 17.000000 2.687006
v -3.800000 3.000000 0.000000
v -3.800000 17.000000 0.000000
v -2.687006 3.000000 -2.687006
v -2.687006 17.000000 -2.687006
v 4.849455 3.056477 0.400000
v 2.375415 12.745601 0.400000
v 4.849455 3.056477 -0.400000
v 2.375415 12.745601 -0.400000
v 5.624585 3.254399 0.400000
v 3.150545 12.943523 0.400000
v 5.624585 3.254399 -0.400000
v 3.150545 12.943523 -0.400000
v -0.849455 3.056477 -3.600000
v 1.624585 12.745601 -3.600000
v -1.624585 3.254399 -3.600000
v 0.849455 12.943523 -3.600000
v -0.849455 3.056477 -4.400000
v 1.624585 12.745601 -4.400000
v -1.624585 3.254399 -4.400000
v 0.849455 12.943523 -4.400000
v -2.375415 3.254399 -0.400000
v -4.849455 12.943523 -0.400000
v -2.375415 3.254399 0.400000
v -4.849455 12.943523 0.400000
v -3.150545 3.056477 -0.400000
v -5.624585 12.745601 -0.400000
v -3.150545 3.056477 0.400000
v -5.624585 12.745601 0.400000
v -1.624585 3.254399 3.600000
v 0.849455 12.943523 3.600000
v -0.849455 3.056477 3.600000
v 1.624585 12.745601 3.600000
v -1.624585 3.254399 4.400000
v 0.849455 12.943523 4.400000
v -0.849455 3.056477 4.400000
v 1.624585 12.745601 4.400000
v 0.000000 17.000000 -2.600000
v 0.000000 31.000000 -2.600000
v 1.838477 17.000000 -1.838477
v 1.838477 31.000000 -1.838477
v 2.600000 17.000000 0.000000
v 2.600000 31.000000 0.000000
v 1.838477 17.000000 1.838477
v 1.838477 31.000000 1.838477
v 0.000000 17.000000 2.600000
v 0.000000 31.000000 2.600000
v -1.838477 17.000000 1.838477
v -1.838477 31.000000 1.838477
v -2.600000 17.000000 0.000000
v -2.600000 31.000000 0.000000
v -1.838477 17.000000 -1.838477
v -1.838477 31.000000 -1.838477
v 0.000000 31.000000 -1.800000
v 0.000000 41.000000 -1.800000
v 1.272792 31.000000 -1.272792
v 1.272792 41.000000 -1.272792
v 1.800000 31.000000 0.000000
v 1.800000 41.000000 0.000000
v 1.272792 31.000000 1.272792
v 1.272792 41.000000 1.272792
v 0.000000 31.000000 1.800000
v 0.000000 41.000000 1.800000
v -1.272792 31.000000 1.272792
v -1.272792 41.000000 1.272792
v -1.800000 31.000000 0.000000
v -1.800000 41.000000 0.000000
v -1.272792 31.000000 -1.272792
v -1.272792 41.000000 -1.272792
v 0.000000 41.000000 -1.400000
v 1.212435 41.000000 -0.700000
v 1.212435 41.000000 0.700000
v 0.000000 41.000000 1.400000
v -1.212435 41.000000 0.700000
v -1.212435 41.000000 -0.700000
v 0.000000 56.000000 0.000000
v -1.500000 39.000000 -0.700000
v -0.834260 39.000000 -0.216312
v -1.088550 39.000000 0.566312
v -1.911450 39.000000 0.566312
v -2.165740 39.000000 -0.216312
v -1.500000 47.000000 0.000000
v 1.500000 39.000000 -0.700000
v 2.165740 39.000000 -0.216312
v 1.911450 39.000000 0.566312
v 1.088550 39.000000 0.566312
v 0.834260 39.000000 -0.216312
v 1.500000 47.000000 0.000000
v -0.175000 11.000000 2.775000
v -0.175000 13.000000 2.775000
v -0.175000 11.000000 2.625000
v -0.175000 13.000000 2.625000
v 0.175000 11.000000 2.775000
v 0.175000 13.000000 2.775000
v 0.175000 11.000000 2.625000
v 0.175000 13.000000 2.625000
v -0.175000 18.000000 2.775000
v -0.175000 20.000000 2.775000
v -0.175000 18.000000 2.625000
v -0.175000 20.000000 2.625000
v 0.175000 18.000000 2.775000
v 0.175000 20.000000 2.775000
v 0.175000 18.000000 2.625000
v 0.175000 20.000000 2.625000
v -0.175000 25.000000 1.875000
v -0.175000 27.000000 1.875000
v -0.175000 25.000000 1.725000
v -0.175000 27.000000 1.725000
v 0.175000 25.000000 1.875000
v 0.175000 27.000000 1.875000
v 0.175000 25.000000 1.725000
v 0.175000 27.000000 1.725000
v -0.175000 33.000000 1.875000
v -0.175000 35.000000 1.875000
v -0.175000 33.000000 1.725000
v -0.175000 35.000000 1.725000
v 0.175000 33.000000 1.875000
v 0.175000 35.000000 1.875000
v 0.175000 33.000000 1.725000
v 0.175000 35.000000 1.725000
vn 0.3827 -0.0000 -0.9239
vn 0.9239 -0.0000 -0.3827
vn 0.9239 -0.0000 0.3827
vn 0.3827 -0.0000 0.9239
vn -0.3827 -0.0000 0.9239
vn -0.9239 -0.0000 0.3827
vn -0.0000 1.0000 -0.0000
vn -0.9239 -0.0000 -0.3827
vn -0.3827 -0.0000 -0.9239
vn -0.0000 -1.0000 -0.0000
vn 0.3692 0.3090 -0.8765
vn 0.9361 0.3289 0.1250
vn 0.1706 0.1725 0.9701
vn 0.1376 -0.9888 -0.0583
vn -0.8694 0.0561 0.4910
vn -0.7466 0.1404 -0.6503
vn -0.5380 0.3410 -0.7709
vn 0.6046 0.2029 -0.7702
vn 0.9453 0.0628 0.3202
vn -0.1194 -0.9888 -0.0898
vn 0.0132 0.1142 0.9934
vn -0.9035 0.2861 0.3190
vn -0.9710 0.2327 0.0552
vn -0.3821 0.0753 -0.9211
vn 0.7401 0.0921 -0.6661
vn -0.0188 -0.9888 0.1481
vn 0.8448 0.2599 0.4677
vn -0.2127 0.3469 0.9135
vn -0.4253 0.0937 0.9002
vn -0.9921 0.0739 -0.1013
vn -0.2266 0.2302 -0.9464
vn 0.8133 0.3467 -0.4672
vn 0.6906 0.2623 0.6740
vn 0.5866 0.0618 0.8075
vn -0.5560 0.1998 0.8068
vn -0.8966 0.3400 -0.2836
vn 0.0355 0.2886 -0.9568
vn 0.9522 0.1167 -0.2824
vn 0.9786 0.1700 -0.1155
vn 0.3898 0.3275 0.8607
vn -0.7325 0.3107 0.6058
vn -0.8371 0.1428 -0.5280
vn 0.2204 0.0559 -0.9738
vn -0.9689 -0.2474 -0.0000
vn -0.0000 -0.0000 -1.0000
vn 0.9689 0.2474 -0.0000
vn -0.0000 -0.0000 1.0000
vn 0.2474 -0.9689 -0.0000
vn -0.2474 0.9689 -0.0000
vn -0.9689 0.2474 -0.0000
vn 0.9689 -0.2474 -0.0000
vn -0.2474 -0.9689 -0.0000
vn 0.2474 0.9689 -0.0000
vn 0.4984 0.0806 -0.8632
vn 0.9967 0.0806 -0.0000
vn 0.4984 0.0806 0.8632
vn -0.4984 0.0806 0.8632
vn -0.9967 0.0806 -0.0000
vn -0.4984 0.0806 -0.8632
vn 0.5863 0.0706 -0.8070
vn 0.9487 0.0706 0.3082
vn -0.0000 0.0706 0.9975
vn -0.9487 0.0706 0.3082
vn -0.5863 0.0706 -0.8070
vn -1.0000 -0.0000 -0.0000
vn 1.0000 -0.0000 -0.0000
vt 1.000000 1.000000
vt 0.875000 0.500000
vt 1.000000 0.500000
vt 0.875000 1.000000
vt 0.750000 0.500000
vt 0.750000 1.000000
vt 0.625000 0.500000
vt 0.625000 1.000000
vt 0.500000 0.500000
vt 0.500000 1.000000
vt 0.375000 0.500000
vt 0.375000 1.000000
vt 0.250000 0.500000
vt 0.010000 0.250000
vt 0.250000 0.010000
vt 0.490000 0.250000
vt 0.250000 1.000000
vt 0.125000 0.500000
vt 0.125000 1.000000
vt 0.000000 0.500000
vt 0.919706 0.080294
vt 0.580294 0.080294
vt 0.580294 0.419706
vt 0.250000 0.490000
vt 0.250000 0.250000
vt 0.478254 0.324164
vt 0.391068 0.055836
vt 0.108932 0.055836
vt 0.978254 0.324164
vt 0.608932 0.055836
vt 0.521746 0.324164
vt 0.021746 0.324164
vt 0.919706 0.080294
vt 0.580294 0.080294
vt 0.625000 0.000000
vt 0.375000 0.250000
vt 0.375000 0.000000
vt 0.375000 0.750000
vt 0.625000 0.750000
vt 0.125000 0.750000
vt 0.625000 0.250000
vt 0.010000 0.250000
vt 0.250000 0.010000
vt 0.457846 0.370000
vt 0.457846 0.130000
vt 0.042154 0.130000
vt 0.957846 0.370000
vt 0.750000 0.010000
vt 0.542154 0.370000
vt 0.042154 0.370000
vt 0.419706 0.419706
vt 0.080294 0.419706
vt 0.080294 0.080294
vt 0.419706 0.080294
vt 0.000000 1.000000
vt 0.750000 0.490000
vt 0.919706 0.419706
vt 0.990000 0.250000
vt 0.750000 0.010000
vt 0.510000 0.250000
vt 0.891068 0.055836
vt 0.080294 0.419706
vt 0.080294 0.080294
vt 0.419706 0.080294
vt 0.875000 0.750000
vt 0.957846 0.130000
vt 0.542154 0.130000
s 0
usemtl MatSpireBase
f 2/1/1 3/2/1 1/3/1
f 4/4/2 5/5/2 3/2/2
f 6/6/3 7/7/3 5/5/3
f 8/8/4 9/9/4 7/7/4
f 10/10/5 11/11/5 9/9/5
f 12/12/6 13/13/6 11/11/6
f 14/14/7 10/15/7 6/16/7
f 14/17/8 15/18/8 13/13/8
f 16/19/9 1/20/9 15/18/9
f 7/21/10 11/22/10 15/23/10
f 17/24/11 22/25/11 18/26/11
f 18/26/12 22/25/12 19/27/12
f 19/27/13 22/25/13 20/28/13
f 18/29/14 20/30/14 21/31/14
f 20/28/15 22/25/15 21/32/15
f 21/32/16 22/25/16 17/24/16
f 23/24/17 28/25/17 24/26/17
f 24/26/18 28/25/18 25/27/18
f 25/27/19 28/25/19 26/28/19
f 24/29/20 26/30/20 27/31/20
f 26/28/21 28/25/21 27/32/21
f 27/32/22 28/25/22 23/24/22
f 29/24/23 34/25/23 30/26/23
f 30/26/24 34/25/24 31/27/24
f 31/27/25 34/25/25 32/28/25
f 30/29/26 32/30/26 33/31/26
f 32/28/27 34/25/27 33/32/27
f 33/32/28 34/25/28 29/24/28
f 35/24/29 40/25/29 36/26/29
f 36/26/30 40/25/30 37/27/30
f 37/27/31 40/25/31 38/28/31
f 36/29/14 38/30/14 39/31/14
f 38/28/32 40/25/32 39/32/32
f 39/32/33 40/25/33 35/24/33
f 41/24/34 46/25/34 42/26/34
f 42/26/35 46/25/35 43/27/35
f 43/27/36 46/25/36 44/28/36
f 42/29/20 44/30/20 45/31/20
f 44/28/37 46/25/37 45/32/37
f 45/32/38 46/25/38 41/24/38
f 47/24/39 52/25/39 48/26/39
f 48/26/40 52/25/40 49/27/40
f 49/27/41 52/25/41 50/28/41
f 48/29/26 50/30/26 51/31/26
f 50/28/42 52/25/42 51/32/42
f 51/32/43 52/25/43 47/24/43
f 2/1/1 4/4/1 3/2/1
f 4/4/2 6/6/2 5/5/2
f 6/6/3 8/8/3 7/7/3
f 8/8/4 10/10/4 9/9/4
f 10/10/5 12/12/5 11/11/5
f 12/12/6 14/17/6 13/13/6
f 6/16/7 4/51/7 2/24/7
f 2/24/7 16/52/7 14/14/7
f 14/14/7 12/53/7 10/15/7
f 10/15/7 8/54/7 6/16/7
f 6/16/7 2/24/7 14/14/7
f 14/17/8 16/19/8 15/18/8
f 16/19/9 2/55/9 1/20/9
f 15/23/10 1/56/10 3/57/10
f 3/57/10 5/58/10 7/21/10
f 7/21/10 9/59/10 11/22/10
f 11/22/10 13/60/10 15/23/10
f 15/23/10 3/57/10 7/21/10
f 21/31/14 17/56/14 18/29/14
f 18/29/14 19/61/14 20/30/14
f 27/31/20 23/56/20 24/29/20
f 24/29/20 25/61/20 26/30/20
f 33/31/26 29/56/26 30/29/26
f 30/29/26 31/61/26 32/30/26
f 39/31/14 35/56/14 36/29/14
f 36/29/14 37/61/14 38/30/14
f 45/31/20 41/56/20 42/29/20
f 42/29/20 43/61/20 44/30/20
f 51/31/26 47/56/26 48/29/26
f 48/29/26 49/61/26 50/30/26
usemtl MatSpireStone
f 54/1/1 55/2/1 53/3/1
f 56/4/2 57/5/2 55/2/2
f 58/6/3 59/7/3 57/5/3
f 60/8/4 61/9/4 59/7/4
f 62/10/5 63/11/5 61/9/5
f 64/12/6 65/13/6 63/11/6
f 66/14/7 62/15/7 58/16/7
f 66/17/8 67/18/8 65/13/8
f 68/19/9 53/20/9 67/18/9
f 59/33/10 63/34/10 67/23/10
f 70/35/44 71/36/44 69/37/44
f 71/36/45 76/7/45 75/11/45
f 76/7/46 73/38/46 75/11/46
f 74/39/47 69/12/47 73/38/47
f 75/11/48 69/40/48 71/18/48
f 72/2/49 74/39/49 76/7/49
f 77/37/47 80/41/47 79/36/47
f 80/41/50 83/11/50 79/36/50
f 84/7/45 81/38/45 83/11/45
f 82/39/51 77/12/51 81/38/51
f 79/18/52 81/38/52 77/40/52
f 80/2/53 82/39/53 84/7/53
f 86/35/46 87/36/46 85/37/46
f 88/41/47 91/11/47 87/36/47
f 92/7/44 89/38/44 91/11/44
f 89/38/45 86/8/45 85/12/45
f 87/18/48 89/38/48 85/40/48
f 88/2/49 90/39/49 92/7/49
f 94/35/45 95/36/45 93/37/45
f 96/41/51 99/11/51 95/36/51
f 99/11/47 98/39/47 97/38/47
f 98/39/50 93/12/50 97/38/50
f 99/11/52 93/40/52 95/18/52
f 96/2/53 98/39/53 100/7/53
f 102/1/1 103/2/1 101/3/1
f 104/4/2 105/5/2 103/2/2
f 106/6/3 107/7/3 105/5/3
f 108/8/4 109/9/4 107/7/4
f 110/10/5 111/11/5 109/9/5
f 112/12/6 113/13/6 111/11/6
f 114/14/7 110/15/7 106/16/7
f 114/17/8 115/18/8 113/13/8
f 116/19/9 101/20/9 115/18/9
f 107/21/10 111/22/10 115/23/10
f 118/1/1 119/2/1 117/3/1
f 120/4/2 121/5/2 119/2/2
f 122/6/3 123/7/3 121/5/3
f 124/8/4 125/9/4 123/7/4
f 126/10/5 127/11/5 125/9/5
f 128/12/6 129/13/6 127/11/6
f 130/42/7 126/43/7 122/16/7
f 130/17/8 131/18/8 129/13/8
f 132/19/9 117/20/9 131/18/9
f 123/33/10 127/34/10 131/23/10
f 133/24/54 139/25/54 134/44/54
f 134/44/55 139/25/55 135/45/55
f 135/45/56 139/25/56 136/43/56
f 136/43/57 139/25/57 137/46/57
f 134/47/10 136/48/10 138/49/10
f 137/46/58 139/25/58 138/50/58
f 138/50/59 139/25/59 133/24/59
f 140/24/60 145/25/60 141/26/60
f 141/26/61 145/25/61 142/27/61
f 142/27/62 145/25/62 143/28/62
f 141/29/10 143/30/10 144/31/10
f 143/28/63 145/25/63 144/32/63
f 144/32/64 145/25/64 140/24/64
f 146/24/60 151/25/60 147/26/60
f 147/26/61 151/25/61 148/27/61
f 148/27/62 151/25/62 149/28/62
f 147/29/10 149/30/10 150/31/10
f 149/28/63 151/25/63 150/32/63
f 150/32/64 151/25/64 146/24/64
f 54/1/1 56/4/1 55/2/1
f 56/4/2 58/6/2 57/5/2
f 58/6/3 60/8/3 59/7/3
f 60/8/4 62/10/4 61/9/4
f 62/10/5 64/12/5 63/11/5
f 64/12/6 66/17/6 65/13/6
f 58/16/7 56/51/7 54/24/7
f 54/24/7 68/62/7 66/14/7
f 66/14/7 64/63/7 62/15/7
f 62/15/7 60/64/7 58/16/7
f 58/16/7 54/24/7 66/14/7
f 66/17/8 68/19/8 67/18/8
f 68/19/9 54/55/9 53/20/9
f 67/23/10 53/56/10 55/57/10
f 55/57/10 57/58/10 59/33/10
f 59/33/10 61/59/10 63/34/10
f 63/34/10 65/60/10 67/23/10
f 67/23/10 55/57/10 59/33/10
f 70/35/44 72/41/44 71/36/44
f 71/36/45 72/41/45 76/7/45
f 76/7/46 74/39/46 73/38/46
f 74/39/47 70/8/47 69/12/47
f 75/11/48 73/38/48 69/40/48
f 72/2/49 70/65/49 74/39/49
f 77/37/47 78/35/47 80/41/47
f 80/41/50 84/7/50 83/11/50
f 84/7/45 82/39/45 81/38/45
f 82/39/51 78/8/51 77/12/51
f 79/18/52 83/11/52 81/38/52
f 80/2/53 78/65/53 82/39/53
f 86/35/46 88/41/46 87/36/46
f 88/41/47 92/7/47 91/11/47
f 92/7/44 90/39/44 89/38/44
f 89/38/45 90/39/45 86/8/45
f 87/18/48 91/11/48 89/38/48
f 88/2/49 86/65/49 90/39/49
f 94/35/45 96/41/45 95/36/45
f 96/41/51 100/7/51 99/11/51
f 99/11/47 100/7/47 98/39/47
f 98/39/50 94/8/50 93/12/50
f 99/11/52 97/38/52 93/40/52
f 96/2/53 94/65/53 98/39/53
f 102/1/1 104/4/1 103/2/1
f 104/4/2 106/6/2 105/5/2
f 106/6/3 108/8/3 107/7/3
f 108/8/4 110/10/4 109/9/4
f 110/10/5 112/12/5 111/11/5
f 112/12/6 114/17/6 113/13/6
f 106/16/7 104/51/7 102/24/7
f 102/24/7 116/52/7 114/14/7
f 114/14/7 112/53/7 110/15/7
f 110/15/7 108/54/7 106/16/7
f 106/16/7 102/24/7 114/14/7
f 114/17/8 116/19/8 115/18/8
f 116/19/9 102/55/9 101/20/9
f 115/23/10 101/56/10 103/57/10
f 103/57/10 105/58/10 107/21/10
f 107/21/10 109/59/10 111/22/10
f 111/22/10 113/60/10 115/23/10
f 115/23/10 103/57/10 107/21/10
f 118/1/1 120/4/1 119/2/1
f 120/4/2 122/6/2 121/5/2
f 122/6/3 124/8/3 123/7/3
f 124/8/4 126/10/4 125/9/4
f 126/10/5 128/12/5 127/11/5
f 128/12/6 130/17/6 129/13/6
f 122/16/7 120/51/7 118/24/7
f 118/24/7 132/62/7 130/42/7
f 130/42/7 128/63/7 126/43/7
f 126/43/7 124/64/7 122/16/7
f 122/16/7 118/24/7 130/42/7
f 130/17/8 132/19/8 131/18/8
f 132/19/9 118/55/9 117/20/9
f 131/23/10 117/56/10 119/57/10
f 119/57/10 121/58/10 123/33/10
f 123/33/10 125/48/10 127/34/10
f 127/34/10 129/60/10 131/23/10
f 131/23/10 119/57/10 123/33/10
f 138/49/10 133/56/10 134/47/10
f 134/47/10 135/66/10 136/48/10
f 136/48/10 137/67/10 138/49/10
f 144/31/10 140/56/10 141/29/10
f 141/29/10 142/61/10 143/30/10
f 150/31/10 146/56/10 147/29/10
f 147/29/10 148/61/10 149/30/10
usemtl MatGlowSlit
f 153/35/65 154/36/65 152/37/65
f 155/41/45 158/11/45 154/36/45
f 159/7/66 156/38/66 158/11/66
f 157/39/47 152/12/47 156/38/47
f 158/11/10 152/40/10 154/18/10
f 155/2/7 157/39/7 159/7/7
f 161/35/65 162/36/65 160/37/65
f 163/41/45 166/11/45 162/36/45
f 167/7/66 164/38/66 166/11/66
f 165/39/47 160/12/47 164/38/47
f 166/11/10 160/40/10 162/18/10
f 163/2/7 165/39/7 167/7/7
f 169/35/65 170/36/65 168/37/65
f 171/41/45 174/11/45 170/36/45
f 175/7/66 172/38/66 174/11/66
f 173/39/47 168/12/47 172/38/47
f 174/11/10 168/40/10 170/18/10
f 171/2/7 173/39/7 175/7/7
f 177/35/65 178/36/65 176/37/65
f 179/41/45 182/11/45 178/36/45
f 183/7/66 180/38/66 182/11/66
f 181/39/47 176/12/47 180/38/47
f 182/11/10 176/40/10 178/18/10
f 179/2/7 181/39/7 183/7/7
f 153/35/65 155/41/65 154/36/65
f 155/41/45 159/7/45 158/11/45
f 159/7/66 157/39/66 156/38/66
f 157/39/47 153/8/47 152/12/47
f 158/11/10 156/38/10 152/40/10
f 155/2/7 153/65/7 157/39/7
f 161/35/65 163/41/65 162/36/65
f 163/41/45 167/7/45 166/11/45
f 167/7/66 165/39/66 164/38/66
f 165/39/47 161/8/47 160/12/47
f 166/11/10 164/38/10 160/40/10
f 163/2/7 161/65/7 165/39/7
f 169/35/65 171/41/65 170/36/65
f 171/41/45 175/7/45 174/11/45
f 175/7/66 173/39/66 172/38/66
f 173/39/47 169/8/47 168/12/47
f 174/11/10 172/38/10 168/40/10
f 171/2/7 169/65/7 173/39/7
f 177/35/65 179/41/65 178/36/65
f 179/41/45 183/7/45 182/11/45
f 183/7/66 181/39/66 180/38/66
f 181/39/47 177/8/47 176/12/47
f 182/11/10 180/38/10 176/40/10
f 179/2/7 177/65/7 181/39/7
