# Blender 5.1.1
# www.blender.org
mtllib west_cumulus.mtl
o WestCumulus
v 0.000000 15.000000 0.000000
v 0.000000 13.535534 -4.949748
v 0.000000 10.000000 -7.000000
v 0.000000 5.000000 0.000000
v 2.296101 14.619398 -2.319895
v 4.242640 13.535534 -4.286607
v 5.543277 11.913418 -5.600722
v 6.000000 10.000000 -6.062178
v 5.543277 8.086582 -5.600722
v 4.242640 6.464466 -4.286607
v 2.296101 5.380602 -2.319895
v 3.976963 14.619398 -1.339392
v 7.348469 13.535534 -2.474874
v 9.601237 11.913418 -3.233578
v 10.392304 10.000000 -3.500000
v 9.601237 8.086582 -3.233578
v 7.348469 6.464466 -2.474874
v 3.976963 5.380602 -1.339392
v 4.592201 14.619398 0.000000
v 8.485281 13.535534 0.000000
v 11.086554 11.913418 0.000000
v 12.000000 10.000000 0.000000
v 11.086554 8.086582 0.000000
v 8.485281 6.464466 0.000000
v 4.592201 5.380602 0.000000
v 3.976963 14.619398 1.339392
v 7.348468 13.535534 2.474874
v 9.601236 11.913418 3.233578
v 10.392304 10.000000 3.500000
v 9.601236 8.086582 3.233578
v 7.348468 6.464466 2.474874
v 3.976963 5.380602 1.339392
v 2.296101 14.619398 2.319895
v 4.242640 13.535534 4.286607
v 5.543277 11.913418 5.600721
v 6.000000 10.000000 6.062178
v 5.543277 8.086582 5.600721
v 4.242640 6.464466 4.286607
v 2.296101 5.380602 2.319895
v 0.000000 14.619398 2.678784
v -0.000001 13.535534 4.949747
v 0.000000 11.913418 6.467156
v 0.000000 10.000000 7.000000
v 0.000000 8.086582 6.467156
v -0.000001 6.464466 4.949747
v 0.000000 5.380602 2.678784
v -2.296101 14.619398 2.319895
v -4.242641 13.535534 4.286606
v -5.543277 11.913418 5.600721
v -6.000000 10.000000 6.062178
v -5.543277 8.086582 5.600721
v -4.242641 6.464466 4.286606
v -2.296101 5.380602 2.319895
v -3.976963 14.619398 1.339392
v -7.348469 13.535534 2.474873
v -9.601236 11.913418 3.233578
v -10.392304 10.000000 3.500000
v -9.601236 8.086582 3.233578
v -7.348469 6.464466 2.474873
v -3.976963 5.380602 1.339392
v -4.592201 14.619398 0.000000
v -8.485281 13.535534 -0.000001
v -11.086554 11.913418 0.000000
v -12.000000 10.000000 0.000000
v -11.086554 8.086582 0.000000
v -8.485281 6.464466 -0.000001
v -4.592201 5.380602 0.000000
v -3.976963 14.619398 -1.339392
v -7.348467 13.535534 -2.474874
v -9.601237 11.913418 -3.233578
v -10.392304 10.000000 -3.500000
v -9.601237 8.086582 -3.233578
v -7.348467 6.464466 -2.474874
v -3.976963 5.380602 -1.339392
v -2.296101 14.619398 -2.319895
v -4.242639 13.535534 -4.286607
v -5.543277 11.913418 -5.600721
v -6.000000 10.000000 -6.062178
v -5.543277 8.086582 -5.600721
v -4.242639 6.464466 -4.286607
v -2.296101 5.380602 -2.319895
v -0.000000 14.619398 -2.678784
v -0.000000 11.913418 -6.467156
v -0.000000 8.086582 -6.467156
v 0.000001 6.464466 -4.949747
v -0.000000 5.380602 -2.678784
v -4.000000 22.000000 0.000000
v -4.000000 20.242641 -4.242641
v -4.000000 16.000000 -6.000000
v -4.000000 10.000000 0.000000
v -2.277925 21.543278 -1.988482
v -0.818020 20.242641 -3.674235
v 0.157457 18.296101 -4.800619
v 0.500000 16.000000 -5.196153
v 0.157457 13.703899 -4.800619
v -0.818020 11.757360 -3.674235
v -2.277925 10.456723 -1.988482
v -1.017278 21.543278 -1.148050
v 1.511351 20.242641 -2.121320
v 3.200928 18.296101 -2.771638
v 3.794228 16.000000 -3.000000
v 3.200928 13.703899 -2.771638
v 1.511351 11.757360 -2.121320
v -1.017278 10.456723 -1.148050
v -0.555849 21.543278 0.000000
v 2.363961 20.242641 0.000000
v 4.314915 18.296101 0.000000
v 5.000000 16.000000 0.000000
v 4.314915 13.703899 0.000000
v 2.363961 11.757360 0.000000
v -0.555849 10.456723 0.000000
v -1.017278 21.543278 1.148050
v 1.511351 20.242641 2.121320
v 3.200927 18.296101 2.771639
v 3.794228 16.000000 3.000000
v 3.200927 13.703899 2.771639
v 1.511351 11.757360 2.121320
v -1.017278 10.456723 1.148050
v -2.277925 21.543278 1.988482
v -0.818020 20.242641 3.674235
v 0.157457 18.296101 4.800619
v 0.500000 16.000000 5.196153
v 0.157457 13.703899 4.800619
v -0.818020 11.757360 3.674235
v -2.277925 10.456723 1.988482
v -4.000000 21.543278 2.296101
v -4.000000 20.242641 4.242640
v -4.000000 18.296101 5.543277
v -4.000000 16.000000 6.000000
v -4.000000 13.703899 5.543277
v -4.000000 11.757360 4.242640
v -4.000000 10.456723 2.296101
v -5.722075 21.543278 1.988482
v -7.181981 20.242641 3.674234
v -8.157457 18.296101 4.800619
v -8.500000 16.000000 5.196153
v -8.157457 13.703899 4.800619
v -7.181981 11.757360 3.674234
v -5.722075 10.456723 1.988482
v -6.982722 21.543278 1.148050
v -9.511353 20.242641 2.121320
v -11.200928 18.296101 2.771639
v -11.794228 16.000000 3.000000
v -11.200928 13.703899 2.771639
v -9.511353 11.757360 2.121320
v -6.982722 10.456723 1.148050
v -7.444151 21.543278 0.000000
v -10.363961 20.242641 -0.000001
v -12.314916 18.296101 0.000000
v -13.000000 16.000000 0.000000
v -12.314916 13.703899 0.000000
v -10.363961 11.757360 -0.000001
v -7.444151 10.456723 0.000000
v -6.982723 21.543278 -1.148050
v -9.511351 20.242641 -2.121321
v -11.200928 18.296101 -2.771638
v -11.794228 16.000000 -3.000000
v -11.200928 13.703899 -2.771638
v -9.511351 11.757360 -2.121321
v -6.982723 10.456723 -1.148050
v -5.722075 21.543278 -1.988482
v -7.181979 20.242641 -3.674235
v -8.157457 18.296101 -4.800619
v -8.500000 16.000000 -5.196153
v -8.157457 13.703899 -4.800619
v -7.181979 11.757360 -3.674235
v -5.722075 10.456723 -1.988482
v -4.000000 21.543278 -2.296101
v -4.000000 18.296101 -5.543277
v -4.000000 13.703899 -5.543277
v -3.999999 11.757360 -4.242640
v -4.000000 10.456723 -2.296101
v 3.500000 24.000000 0.000000
v 3.500000 22.242641 -4.242641
v 3.500000 18.000000 -6.000000
v 3.500000 12.000000 0.000000
v 5.126405 23.543278 -1.988482
v 6.505204 22.242641 -3.674235
v 7.426489 20.296101 -4.800619
v 7.750000 18.000000 -5.196153
v 7.426489 15.703899 -4.800619
v 6.505204 13.757360 -3.674235
v 5.126405 12.456723 -1.988482
v 6.317016 23.543278 -1.148050
v 8.705166 22.242641 -2.121320
v 10.300877 20.296101 -2.771638
v 10.861217 18.000000 -3.000000
v 10.300877 15.703899 -2.771638
v 8.705166 13.757360 -2.121320
v 6.317016 12.456723 -1.148050
v 6.752810 23.543278 0.000000
v 9.510408 22.242641 0.000000
v 11.352976 20.296101 0.000000
v 12.000000 18.000000 0.000000
v 11.352976 15.703899 0.000000
v 9.510408 13.757360 0.000000
v 6.752810 12.456723 0.000000
v 6.317016 23.543278 1.148050
v 8.705166 22.242641 2.121320
v 10.300877 20.296101 2.771639
v 10.861217 18.000000 3.000000
v 10.300877 15.703899 2.771639
v 8.705166 13.757360 2.121320
v 6.317016 12.456723 1.148050
v 5.126405 23.543278 1.988482
v 6.505204 22.242641 3.674235
v 7.426488 20.296101 4.800619
v 7.750000 18.000000 5.196153
v 7.426488 15.703899 4.800619
v 6.505204 13.757360 3.674235
v 5.126405 12.456723 1.988482
v 3.500000 23.543278 2.296101
v 3.500000 22.242641 4.242640
v 3.500000 20.296101 5.543277
v 3.500000 18.000000 6.000000
v 3.500000 15.703899 5.543277
v 3.500000 13.757360 4.242640
v 3.500000 12.456723 2.296101
v 1.873596 23.543278 1.988482
v 0.494796 22.242641 3.674234
v -0.426488 20.296101 4.800619
v -0.750000 18.000000 5.196153
v -0.426488 15.703899 4.800619
v 0.494796 13.757360 3.674234
v 1.873596 12.456723 1.988482
v 0.682985 23.543278 1.148050
v -1.705165 22.242641 2.121320
v -3.300876 20.296101 2.771639
v -3.861216 18.000000 3.000000
v -3.300876 15.703899 2.771639
v -1.705165 13.757360 2.121320
v 0.682985 12.456723 1.148050
v 0.247191 23.543278 0.000000
v -2.510407 22.242641 -0.000001
v -4.352976 20.296101 0.000000
v -5.000000 18.000000 0.000000
v -4.352976 15.703899 0.000000
v -2.510407 13.757360 -0.000001
v 0.247191 12.456723 0.000000
v 0.682984 23.543278 -1.148050
v -1.705164 22.242641 -2.121321
v -3.300877 20.296101 -2.771638
v -3.861216 18.000000 -3.000000
v -3.300877 15.703899 -2.771638
v -1.705164 13.757360 -2.121321
v 0.682984 12.456723 -1.148050
v 1.873595 23.543278 -1.988482
v 0.494797 22.242641 -3.674235
v -0.426488 20.296101 -4.800619
v -0.750000 18.000000 -5.196153
v -0.426488 15.703899 -4.800619
v 0.494797 13.757360 -3.674235
v 1.873595 12.456723 -1.988482
v 3.500000 23.543278 -2.296101
v 3.500000 20.296101 -5.543277
v 3.500000 15.703899 -5.543277
v 3.500001 13.757360 -4.242640
v 3.500000 12.456723 -2.296101
v 0.000000 31.000002 0.000000
v 0.000000 28.949749 -4.596194
v 0.000000 24.000000 -6.500000
v 0.000000 17.000000 0.000000
v 1.722075 30.467157 -2.154188
v 3.181980 28.949749 -3.980421
v 4.157457 26.678785 -5.200671
v 4.500000 24.000000 -5.629165
v 4.157457 21.321217 -5.200671
v 3.181980 19.050255 -3.980421
v 1.722075 17.532845 -2.154188
v 2.982722 30.467157 -1.243721
v 5.511352 28.949749 -2.298097
v 7.200928 26.678785 -3.002608
v 7.794229 24.000000 -3.250000
v 7.200928 21.321217 -3.002608
v 5.511352 19.050255 -2.298097
v 2.982722 17.532845 -1.243721
v 3.444151 30.467157 0.000000
v 6.363961 28.949749 0.000000
v 8.314915 26.678785 0.000000
v 9.000000 24.000000 0.000000
v 8.314915 21.321217 0.000000
v 6.363961 19.050255 0.000000
v 3.444151 17.532845 0.000000
v 2.982722 30.467157 1.243721
v 5.511351 28.949749 2.298097
v 7.200927 26.678785 3.002609
v 7.794229 24.000000 3.250000
v 7.200927 21.321217 3.002609
v 5.511351 19.050255 2.298097
v 2.982722 17.532845 1.243721
v 1.722075 30.467157 2.154188
v 3.181980 28.949749 3.980421
v 4.157457 26.678785 5.200670
v 4.500000 24.000000 5.629165
v 4.157457 21.321217 5.200670
v 3.181980 19.050255 3.980421
v 1.722075 17.532845 2.154188
v 0.000000 30.467157 2.487442
v -0.000001 28.949749 4.596194
v 0.000000 26.678785 6.005217
v 0.000000 24.000000 6.500000
v 0.000000 21.321217 6.005217
v -0.000001 19.050255 4.596194
v 0.000000 17.532845 2.487442
v -1.722075 30.467157 2.154188
v -3.181981 28.949749 3.980420
v -4.157457 26.678785 5.200670
v -4.500000 24.000000 5.629165
v -4.157457 21.321217 5.200670
v -3.181981 19.050255 3.980420
v -1.722075 17.532845 2.154188
v -2.982722 30.467157 1.243721
v -5.511352 28.949749 2.298096
v -7.200927 26.678785 3.002609
v -7.794229 24.000000 3.250000
v -7.200927 21.321217 3.002609
v -5.511352 19.050255 2.298096
v -2.982722 17.532845 1.243721
v -3.444151 30.467157 0.000000
v -6.363961 28.949749 -0.000001
v -8.314915 26.678785 0.000000
v -9.000000 24.000000 0.000000
v -8.314915 21.321217 0.000000
v -6.363961 19.050255 -0.000001
v -3.444151 17.532845 0.000000
v -2.982722 30.467157 -1.243721
v -5.511351 28.949749 -2.298098
v -7.200928 26.678785 -3.002608
v -7.794229 24.000000 -3.250000
v -7.200928 21.321217 -3.002608
v -5.511351 19.050255 -2.298098
v -2.982722 17.532845 -1.243721
v -1.722075 30.467157 -2.154188
v -3.181979 28.949749 -3.980421
v -4.157457 26.678785 -5.200670
v -4.500000 24.000000 -5.629165
v -4.157457 21.321217 -5.200670
v -3.181979 19.050255 -3.980421
v -1.722075 17.532845 -2.154188
v -0.000000 30.467157 -2.487442
v -0.000000 26.678785 -6.005217
v -0.000000 21.321217 -6.005217
v 0.000001 19.050255 -4.596194
v -0.000000 17.532845 -2.487442
v 1.000000 37.500000 0.000000
v 1.000000 35.596199 -3.889087
v 1.000000 31.000002 -5.500000
v 1.000000 24.500000 0.000000
v 2.435063 37.005219 -1.822775
v 3.651650 35.596199 -3.368048
v 4.464548 33.487442 -4.400568
v 4.750000 31.000002 -4.763140
v 4.464548 28.512558 -4.400568
v 3.651650 26.403807 -3.368048
v 2.435063 24.994785 -1.822775
v 3.485602 37.005219 -1.052379
v 5.592793 35.596199 -1.944544
v 7.000773 33.487442 -2.540668
v 7.495190 31.000002 -2.750000
v 7.000773 28.512558 -2.540668
v 5.592793 26.403807 -1.944544
v 3.485602 24.994785 -1.052379
v 3.870126 37.005219 0.000000
v 6.303300 35.596199 0.000000
v 7.929095 33.487442 0.000000
v 8.500000 31.000002 0.000000
v 7.929095 28.512558 0.000000
v 6.303300 26.403807 0.000000
v 3.870126 24.994785 0.000000
v 3.485602 37.005219 1.052379
v 5.592793 35.596199 1.944544
v 7.000773 33.487442 2.540669
v 7.495190 31.000002 2.750000
v 7.000773 28.512558 2.540669
v 5.592793 26.403807 1.944544
v 3.485602 24.994785 1.052379
v 2.435063 37.005219 1.822775
v 3.651650 35.596199 3.368048
v 4.464548 33.487442 4.400567
v 4.750000 31.000002 4.763140
v 4.464548 28.512558 4.400567
v 3.651650 26.403807 3.368048
v 2.435063 24.994785 1.822775
v 1.000000 37.005219 2.104759
v 1.000000 35.596199 3.889087
v 1.000000 33.487442 5.081337
v 1.000000 31.000002 5.500000
v 1.000000 28.512558 5.081337
v 1.000000 26.403807 3.889087
v 1.000000 24.994785 2.104759
v -0.435063 37.005219 1.822775
v -1.651651 35.596199 3.368048
v -2.464548 33.487442 4.400567
v -2.750000 31.000002 4.763140
v -2.464548 28.512558 4.400567
v -1.651651 26.403807 3.368048
v -0.435063 24.994785 1.822775
v -1.485602 37.005219 1.052379
v -3.592793 35.596199 1.944543
v -5.000773 33.487442 2.540669
v -5.495190 31.000002 2.750000
v -5.000773 28.512558 2.540669
v -3.592793 26.403807 1.944543
v -1.485602 24.994785 1.052379
v -1.870126 37.005219 0.000000
v -4.303300 35.596199 -0.000001
v -5.929096 33.487442 0.000000
v -6.500000 31.000002 0.000000
v -5.929096 28.512558 0.000000
v -4.303300 26.403807 -0.000001
v -1.870126 24.994785 0.000000
v -1.485602 37.005219 -1.052379
v -3.592792 35.596199 -1.944544
v -5.000773 33.487442 -2.540668
v -5.495190 31.000002 -2.750000
v -5.000773 28.512558 -2.540668
v -3.592792 26.403807 -1.944544
v -1.485602 24.994785 -1.052379
v -0.435063 37.005219 -1.822775
v -1.651649 35.596199 -3.368048
v -2.464548 33.487442 -4.400567
v -2.750000 31.000002 -4.763140
v -2.464548 28.512558 -4.400567
v -1.651649 26.403807 -3.368048
v -0.435063 24.994785 -1.822775
v 1.000000 37.005219 -2.104759
v 1.000000 33.487442 -5.081337
v 1.000000 28.512558 -5.081337
v 1.000001 26.403807 -3.889087
v 1.000000 24.994785 -2.104759
v -2.000000 40.000000 0.000000
v -2.000000 38.828430 -4.949748
v -2.000000 36.000000 -7.000000
v -2.000000 32.000000 0.000000
v 0.678784 39.695518 -2.319895
v 2.949748 38.828430 -4.286607
v 4.467157 37.530735 -5.600722
v 5.000000 36.000000 -6.062178
v 4.467157 34.469269 -5.600722
v 2.949748 33.171577 -4.286607
v 0.678784 32.304482 -2.319895
v 2.639791 39.695518 -1.339392
v 6.573214 38.828430 -2.474874
v 9.201445 37.530735 -3.233578
v 10.124355 36.000000 -3.500000
v 9.201445 34.469269 -3.233578
v 6.573214 33.171577 -2.474874
v 2.639791 32.304482 -1.339392
v 3.357569 39.695518 0.000000
v 7.899495 38.828430 0.000000
v 10.934313 37.530735 0.000000
v 12.000002 36.000000 0.000000
v 10.934313 34.469269 0.000000
v 7.899495 33.171577 0.000000
v 3.357569 32.304482 0.000000
v 2.639790 39.695518 1.339392
v 6.573213 38.828430 2.474874
v 9.201443 37.530735 3.233578
v 10.124355 36.000000 3.500000
v 9.201443 34.469269 3.233578
v 6.573213 33.171577 2.474874
v 2.639790 32.304482 1.339392
v 0.678784 39.695518 2.319895
v 2.949746 38.828430 4.286607
v 4.467156 37.530735 5.600721
v 5.000000 36.000000 6.062178
v 4.467156 34.469269 5.600721
v 2.949746 33.171577 4.286607
v 0.678784 32.304482 2.319895
v -2.000000 39.695518 2.678784
v -2.000001 38.828430 4.949747
v -2.000000 37.530735 6.467156
v -2.000000 36.000000 7.000000
v -2.000000 34.469269 6.467156
v -2.000001 33.171577 4.949747
v -2.000000 32.304482 2.678784
v -4.678784 39.695518 2.319895
v -6.949748 38.828430 4.286606
v -8.467156 37.530735 5.600721
v -9.000001 36.000000 6.062178
v -8.467156 34.469269 5.600721
v -6.949748 33.171577 4.286606
v -4.678784 32.304482 2.319895
v -6.639791 39.695518 1.339392
v -10.573215 38.828430 2.474873
v -13.201444 37.530735 3.233578
v -14.124355 36.000000 3.500000
v -13.201444 34.469269 3.233578
v -10.573215 33.171577 2.474873
v -6.639791 32.304482 1.339392
v -7.357569 39.695518 0.000000
v -11.899495 38.828430 -0.000001
v -14.934314 37.530735 0.000000
v -16.000000 36.000000 0.000000
v -14.934314 34.469269 0.000000
v -11.899495 33.171577 -0.000001
v -7.357569 32.304482 0.000000
v -6.639791 39.695518 -1.339392
v -10.573213 38.828430 -2.474874
v -13.201445 37.530735 -3.233578
v -14.124355 36.000000 -3.500000
v -13.201445 34.469269 -3.233578
v -10.573213 33.171577 -2.474874
v -6.639791 32.304482 -1.339392
v -4.678784 39.695518 -2.319895
v -6.949746 38.828430 -4.286607
v -8.467157 37.530735 -5.600721
v -9.000001 36.000000 -6.062178
v -8.467157 34.469269 -5.600721
v -6.949746 33.171577 -4.286607
v -4.678784 32.304482 -2.319895
v -2.000000 39.695518 -2.678784
v -2.000000 37.530735 -6.467156
v -2.000000 34.469269 -6.467156
v -1.999998 33.171577 -4.949747
v -2.000000 32.304482 -2.678784
v 3.000000 40.500000 0.000000
v 3.000000 39.474873 -4.596194
v 3.000000 37.000000 -6.500000
v 3.000000 33.500000 0.000000
v 5.296101 40.233578 -2.154188
v 7.242641 39.474873 -3.980421
v 8.543277 38.339394 -5.200671
v 9.000000 37.000000 -5.629165
v 8.543277 35.660606 -5.200671
v 7.242641 34.525127 -3.980421
v 5.296101 33.766422 -2.154188
v 6.976964 40.233578 -1.243721
v 10.348469 39.474873 -2.298097
v 12.601238 38.339394 -3.002608
v 13.392305 37.000000 -3.250000
v 12.601238 35.660606 -3.002608
v 10.348469 34.525127 -2.298097
v 6.976964 33.766422 -1.243721
v 7.592201 40.233578 0.000000
v 11.485281 39.474873 0.000000
v 14.086553 38.339394 0.000000
v 15.000000 37.000000 0.000000
v 14.086553 35.660606 0.000000
v 11.485281 34.525127 0.000000
v 7.592201 33.766422 0.000000
v 6.976963 40.233578 1.243721
v 10.348468 39.474873 2.298097
v 12.601236 38.339394 3.002609
v 13.392305 37.000000 3.250000
v 12.601236 35.660606 3.002609
v 10.348468 34.525127 2.298097
v 6.976963 33.766422 1.243721
v 5.296101 40.233578 2.154188
v 7.242640 39.474873 3.980421
v 8.543276 38.339394 5.200670
v 9.000000 37.000000 5.629165
v 8.543276 35.660606 5.200670
v 7.242640 34.525127 3.980421
v 5.296101 33.766422 2.154188
v 3.000000 40.233578 2.487442
v 2.999999 39.474873 4.596194
v 3.000000 38.339394 6.005217
v 3.000000 37.000000 6.500000
v 3.000000 35.660606 6.005217
v 2.999999 34.525127 4.596194
v 3.000000 33.766422 2.487442
v 0.703899 40.233578 2.154188
v -1.242641 39.474873 3.980420
v -2.543277 38.339394 5.200670
v -3.000000 37.000000 5.629165
v -2.543277 35.660606 5.200670
v -1.242641 34.525127 3.980420
v 0.703899 33.766422 2.154188
v -0.976963 40.233578 1.243721
v -4.348469 39.474873 2.298096
v -6.601237 38.339394 3.002609
v -7.392304 37.000000 3.250000
v -6.601237 35.660606 3.002609
v -4.348469 34.525127 2.298096
v -0.976963 33.766422 1.243721
v -1.592201 40.233578 0.000000
v -5.485281 39.474873 -0.000001
v -8.086554 38.339394 0.000000
v -9.000000 37.000000 0.000000
v -8.086554 35.660606 0.000000
v -5.485281 34.525127 -0.000001
v -1.592201 33.766422 0.000000
v -0.976963 40.233578 -1.243721
v -4.348467 39.474873 -2.298098
v -6.601237 38.339394 -3.002608
v -7.392304 37.000000 -3.250000
v -6.601237 35.660606 -3.002608
v -4.348467 34.525127 -2.298098
v -0.976963 33.766422 -1.243721
v 0.703899 40.233578 -2.154188
v -1.242639 39.474873 -3.980421
v -2.543277 38.339394 -5.200670
v -3.000000 37.000000 -5.629165
v -2.543277 35.660606 -5.200670
v -1.242639 34.525127 -3.980421
v 0.703899 33.766422 -2.154188
v 3.000000 40.233578 -2.487442
v 3.000000 38.339394 -6.005217
v 3.000000 35.660606 -6.005217
v 3.000001 34.525127 -4.596194
v 3.000000 33.766422 -2.487442
vn 0.0672 -0.9004 -0.4298
vn 0.1489 -0.2653 -0.9526
vn 0.1134 0.6787 -0.7256
vn 0.0220 0.9898 -0.1406
vn 0.0220 -0.9898 -0.1406
vn 0.1134 -0.6787 -0.7256
vn 0.1489 0.2653 -0.9526
vn 0.0672 0.9004 -0.4298
vn 0.0602 0.9928 -0.1033
vn 0.0602 -0.9928 -0.1033
vn 0.3383 -0.7411 -0.5799
vn 0.4787 0.3122 -0.8206
vn 0.1889 0.9270 -0.3239
vn 0.1889 -0.9270 -0.3239
vn 0.4787 -0.3122 -0.8206
vn 0.3383 0.7411 -0.5799
vn 0.5142 -0.8245 -0.2362
vn 0.8337 0.3980 -0.3829
vn 0.2662 0.9561 -0.1223
vn 0.2662 -0.9561 -0.1223
vn 0.8337 -0.3980 -0.3829
vn 0.5142 0.8245 -0.2362
vn 0.0825 0.9959 -0.0379
vn 0.0825 -0.9959 -0.0379
vn 0.2662 -0.9561 0.1223
vn 0.8337 -0.3980 0.3829
vn 0.5142 0.8245 0.2362
vn 0.0825 0.9959 0.0379
vn 0.0825 -0.9959 0.0379
vn 0.5142 -0.8245 0.2362
vn 0.8337 0.3980 0.3829
vn 0.2662 0.9561 0.1223
vn 0.4787 -0.3122 0.8206
vn 0.3383 0.7411 0.5799
vn 0.0602 0.9928 0.1033
vn 0.0602 -0.9928 0.1033
vn 0.3383 -0.7411 0.5799
vn 0.4787 0.3122 0.8206
vn 0.1889 0.9270 0.3239
vn 0.1889 -0.9270 0.3239
vn 0.0220 -0.9898 0.1406
vn 0.1134 -0.6787 0.7256
vn 0.1489 0.2653 0.9526
vn 0.0672 0.9004 0.4298
vn 0.0672 -0.9004 0.4298
vn 0.1489 -0.2653 0.9526
vn 0.1134 0.6787 0.7256
vn 0.0220 0.9898 0.1406
vn -0.1489 0.2653 0.9526
vn -0.0672 0.9004 0.4298
vn -0.0672 -0.9004 0.4298
vn -0.1489 -0.2653 0.9526
vn -0.1134 0.6787 0.7256
vn -0.0220 0.9898 0.1406
vn -0.0220 -0.9898 0.1406
vn -0.1134 -0.6787 0.7256
vn -0.1889 -0.9270 0.3239
vn -0.4787 -0.3122 0.8206
vn -0.3383 0.7411 0.5799
vn -0.0602 0.9928 0.1033
vn -0.0602 -0.9928 0.1033
vn -0.3383 -0.7411 0.5799
vn -0.4787 0.3122 0.8206
vn -0.1889 0.9270 0.3239
vn -0.5142 0.8245 0.2362
vn -0.0825 0.9959 0.0379
vn -0.0825 -0.9959 0.0379
vn -0.5142 -0.8245 0.2362
vn -0.8337 0.3980 0.3829
vn -0.2662 0.9561 0.1223
vn -0.2662 -0.9561 0.1223
vn -0.8337 -0.3980 0.3829
vn -0.0825 -0.9959 -0.0379
vn -0.5142 -0.8245 -0.2362
vn -0.8337 0.3980 -0.3829
vn -0.2662 0.9561 -0.1223
vn -0.2662 -0.9561 -0.1223
vn -0.8337 -0.3980 -0.3829
vn -0.5142 0.8245 -0.2362
vn -0.0825 0.9959 -0.0379
vn -0.1889 0.9270 -0.3239
vn -0.1889 -0.9270 -0.3239
vn -0.4787 -0.3122 -0.8206
vn -0.3383 0.7411 -0.5799
vn -0.0602 0.9928 -0.1033
vn -0.0602 -0.9928 -0.1033
vn -0.3383 -0.7411 -0.5799
vn -0.4787 0.3122 -0.8206
vn -0.0672 -0.9004 -0.4298
vn -0.1489 -0.2653 -0.9526
vn -0.1134 0.6787 -0.7256
vn -0.0220 0.9898 -0.1406
vn -0.0220 -0.9898 -0.1406
vn -0.1134 -0.6787 -0.7256
vn -0.1489 0.2653 -0.9526
vn -0.0672 0.9004 -0.4298
vn 0.0988 -0.8274 -0.5529
vn 0.1726 -0.1922 -0.9661
vn 0.1469 0.5495 -0.8224
vn 0.0348 0.9802 -0.1950
vn 0.0348 -0.9802 -0.1950
vn 0.1469 -0.5495 -0.8224
vn 0.1726 0.1922 -0.9661
vn 0.0988 0.8274 -0.5529
vn 0.4417 0.6048 -0.6626
vn 0.0956 0.9850 -0.1434
vn 0.0956 -0.9850 -0.1434
vn 0.4417 -0.6048 -0.6626
vn 0.5410 0.2205 -0.8116
vn 0.2811 0.8621 -0.4217
vn 0.2811 -0.8621 -0.4217
vn 0.5410 -0.2205 -0.8116
vn 0.1313 -0.9899 -0.0528
vn 0.6795 -0.6810 -0.2731
vn 0.8942 0.2668 -0.3594
vn 0.4016 0.9015 -0.1614
vn 0.4016 -0.9015 -0.1614
vn 0.8942 -0.2668 -0.3594
vn 0.6795 0.6810 -0.2731
vn 0.1313 0.9899 -0.0528
vn 0.4016 0.9015 0.1614
vn 0.4016 -0.9015 0.1614
vn 0.8942 -0.2668 0.3594
vn 0.6795 0.6810 0.2731
vn 0.1313 0.9899 0.0528
vn 0.1313 -0.9899 0.0528
vn 0.6795 -0.6810 0.2731
vn 0.8942 0.2668 0.3594
vn 0.2811 -0.8621 0.4217
vn 0.5410 -0.2205 0.8116
vn 0.4417 0.6048 0.6626
vn 0.0956 0.9850 0.1434
vn 0.0956 -0.9850 0.1434
vn 0.4417 -0.6048 0.6626
vn 0.5410 0.2205 0.8116
vn 0.2811 0.8621 0.4217
vn 0.0348 0.9802 0.1950
vn 0.0348 -0.9802 0.1950
vn 0.1469 -0.5495 0.8224
vn 0.1726 0.1922 0.9661
vn 0.0988 0.8274 0.5529
vn 0.0988 -0.8274 0.5529
vn 0.1726 -0.1922 0.9661
vn 0.1469 0.5495 0.8224
vn -0.1469 -0.5495 0.8224
vn -0.1726 0.1922 0.9661
vn -0.0988 0.8274 0.5529
vn -0.0988 -0.8274 0.5529
vn -0.1726 -0.1922 0.9661
vn -0.1469 0.5495 0.8224
vn -0.0348 0.9802 0.1950
vn -0.0348 -0.9802 0.1950
vn -0.2811 -0.8621 0.4217
vn -0.5410 -0.2205 0.8116
vn -0.4417 0.6048 0.6626
vn -0.0956 0.9850 0.1434
vn -0.0956 -0.9850 0.1434
vn -0.4417 -0.6048 0.6626
vn -0.5410 0.2205 0.8116
vn -0.2811 0.8621 0.4217
vn -0.8942 -0.2668 0.3594
vn -0.6795 0.6810 0.2731
vn -0.1313 0.9899 0.0528
vn -0.1313 -0.9899 0.0528
vn -0.6795 -0.6810 0.2731
vn -0.8942 0.2668 0.3594
vn -0.4016 0.9015 0.1614
vn -0.4016 -0.9015 0.1614
vn -0.1313 -0.9899 -0.0528
vn -0.6795 -0.6810 -0.2731
vn -0.8942 0.2668 -0.3594
vn -0.4016 0.9015 -0.1614
vn -0.4016 -0.9015 -0.1614
vn -0.8942 -0.2668 -0.3594
vn -0.6795 0.6810 -0.2731
vn -0.1313 0.9899 -0.0528
vn -0.5410 0.2205 -0.8116
vn -0.2811 0.8621 -0.4217
vn -0.2811 -0.8621 -0.4217
vn -0.5410 -0.2205 -0.8116
vn -0.4417 0.6048 -0.6626
vn -0.0956 0.9850 -0.1434
vn -0.0956 -0.9850 -0.1434
vn -0.4417 -0.6048 -0.6626
vn -0.0988 -0.8274 -0.5529
vn -0.1726 -0.1922 -0.9661
vn -0.1469 0.5495 -0.8224
vn -0.0348 0.9802 -0.1950
vn -0.0348 -0.9802 -0.1950
vn -0.1469 -0.5495 -0.8224
vn -0.1726 0.1922 -0.9661
vn -0.0988 0.8274 -0.5529
vn 0.1045 0.8269 -0.5525
vn 0.1045 -0.8269 -0.5525
vn 0.1824 -0.1918 -0.9643
vn 0.1554 0.5488 -0.8214
vn 0.0369 0.9801 -0.1950
vn 0.0369 -0.9801 -0.1950
vn 0.1554 -0.5488 -0.8214
vn 0.1824 0.1918 -0.9643
vn 0.5630 -0.2167 -0.7976
vn 0.4623 0.5978 -0.6549
vn 0.1012 0.9845 -0.1434
vn 0.1012 -0.9845 -0.1434
vn 0.4623 -0.5978 -0.6549
vn 0.5630 0.2167 -0.7976
vn 0.2962 0.8580 -0.4197
vn 0.2962 -0.8580 -0.4197
vn 0.1389 -0.9889 -0.0527
vn 0.7001 -0.6627 -0.2658
vn 0.9041 0.2548 -0.3432
vn 0.4211 0.8928 -0.1598
vn 0.4211 -0.8928 -0.1598
vn 0.9041 -0.2548 -0.3432
vn 0.7001 0.6627 -0.2658
vn 0.1389 0.9889 -0.0527
vn 0.9041 0.2548 0.3432
vn 0.4211 0.8928 0.1598
vn 0.4211 -0.8928 0.1598
vn 0.9041 -0.2548 0.3432
vn 0.7001 0.6627 0.2658
vn 0.1389 0.9889 0.0527
vn 0.1389 -0.9889 0.0527
vn 0.7001 -0.6627 0.2658
vn 0.2962 -0.8580 0.4197
vn 0.5630 -0.2167 0.7976
vn 0.4623 0.5978 0.6549
vn 0.1012 0.9845 0.1434
vn 0.1012 -0.9845 0.1434
vn 0.4623 -0.5978 0.6549
vn 0.5630 0.2167 0.7976
vn 0.2962 0.8580 0.4197
vn 0.1554 0.5488 0.8214
vn 0.0369 0.9801 0.1950
vn 0.0369 -0.9801 0.1950
vn 0.1554 -0.5488 0.8214
vn 0.1824 0.1918 0.9643
vn 0.1045 0.8269 0.5525
vn 0.1045 -0.8269 0.5525
vn 0.1824 -0.1918 0.9643
vn -0.0369 -0.9801 0.1950
vn -0.1554 -0.5488 0.8214
vn -0.1824 0.1918 0.9643
vn -0.1045 0.8269 0.5525
vn -0.1045 -0.8269 0.5525
vn -0.1824 -0.1918 0.9643
vn -0.1554 0.5488 0.8214
vn -0.0369 0.9801 0.1950
vn -0.2962 0.8580 0.4197
vn -0.2962 -0.8580 0.4197
vn -0.5630 -0.2167 0.7976
vn -0.4623 0.5978 0.6549
vn -0.1012 0.9845 0.1434
vn -0.1012 -0.9845 0.1434
vn -0.4623 -0.5978 0.6549
vn -0.5630 0.2167 0.7976
vn -0.4211 -0.8928 0.1598
vn -0.9041 -0.2548 0.3432
vn -0.7001 0.6627 0.2658
vn -0.1389 0.9889 0.0527
vn -0.1389 -0.9889 0.0527
vn -0.7001 -0.6627 0.2658
vn -0.9041 0.2548 0.3432
vn -0.4211 0.8928 0.1598
vn -0.1389 0.9889 -0.0527
vn -0.1389 -0.9889 -0.0527
vn -0.7001 -0.6627 -0.2658
vn -0.9041 0.2548 -0.3432
vn -0.4211 0.8928 -0.1598
vn -0.4211 -0.8928 -0.1598
vn -0.9041 -0.2548 -0.3432
vn -0.7001 0.6627 -0.2658
vn -0.4623 -0.5978 -0.6549
vn -0.5630 0.2167 -0.7976
vn -0.2962 0.8580 -0.4197
vn -0.2962 -0.8580 -0.4197
vn -0.5630 -0.2167 -0.7976
vn -0.4623 0.5978 -0.6549
vn -0.1012 0.9845 -0.1434
vn -0.1012 -0.9845 -0.1434
vn -0.1045 -0.8269 -0.5525
vn -0.1824 -0.1918 -0.9643
vn -0.1554 0.5488 -0.8214
vn -0.0369 0.9801 -0.1950
vn -0.0369 -0.9801 -0.1950
vn -0.1554 -0.5488 -0.8214
vn -0.1824 0.1918 -0.9643
vn -0.1045 0.8269 -0.5525
vn 0.1869 0.1784 -0.9660
vn 0.1123 0.8066 -0.5804
vn 0.1123 -0.8066 -0.5804
vn 0.1869 -0.1784 -0.9660
vn 0.1623 0.5202 -0.8385
vn 0.0405 0.9770 -0.2093
vn 0.0405 -0.9770 -0.2093
vn 0.1623 -0.5202 -0.8385
vn 0.3190 -0.8385 -0.4417
vn 0.5736 -0.2004 -0.7942
vn 0.4826 0.5663 -0.6682
vn 0.1112 0.9818 -0.1540
vn 0.1112 -0.9818 -0.1540
vn 0.4826 -0.5663 -0.6682
vn 0.5736 0.2004 -0.7942
vn 0.3190 0.8385 -0.4417
vn 0.1526 0.9867 -0.0566
vn 0.1526 -0.9867 -0.0566
vn 0.7302 -0.6273 -0.2709
vn 0.9117 0.2332 -0.3383
vn 0.4545 0.8746 -0.1686
vn 0.4545 -0.8746 -0.1686
vn 0.9117 -0.2332 -0.3383
vn 0.7302 0.6273 -0.2709
vn 0.7302 -0.6273 0.2709
vn 0.9117 0.2332 0.3383
vn 0.4545 0.8746 0.1686
vn 0.4545 -0.8746 0.1686
vn 0.9117 -0.2332 0.3383
vn 0.7302 0.6273 0.2709
vn 0.1526 0.9867 0.0566
vn 0.1526 -0.9867 0.0566
vn 0.3190 -0.8385 0.4417
vn 0.5736 -0.2004 0.7942
vn 0.4826 0.5663 0.6682
vn 0.1112 0.9818 0.1540
vn 0.1112 -0.9818 0.1540
vn 0.4826 -0.5663 0.6682
vn 0.5736 0.2004 0.7942
vn 0.3190 0.8385 0.4417
vn 0.1869 -0.1784 0.9660
vn 0.1623 0.5202 0.8385
vn 0.0405 0.9770 0.2093
vn 0.0405 -0.9770 0.2093
vn 0.1623 -0.5202 0.8385
vn 0.1869 0.1784 0.9660
vn 0.1123 0.8066 0.5804
vn 0.1123 -0.8066 0.5804
vn -0.0405 -0.9770 0.2093
vn -0.1623 -0.5202 0.8385
vn -0.1869 0.1784 0.9660
vn -0.1123 0.8066 0.5804
vn -0.1123 -0.8066 0.5804
vn -0.1869 -0.1784 0.9660
vn -0.1623 0.5202 0.8385
vn -0.0405 0.9770 0.2093
vn -0.5736 0.2004 0.7942
vn -0.3190 0.8385 0.4417
vn -0.3190 -0.8385 0.4417
vn -0.5736 -0.2004 0.7942
vn -0.4826 0.5663 0.6682
vn -0.1112 0.9818 0.1540
vn -0.1112 -0.9818 0.1540
vn -0.4826 -0.5663 0.6682
vn -0.4545 -0.8746 0.1686
vn -0.9117 -0.2332 0.3383
vn -0.7302 0.6273 0.2709
vn -0.1526 0.9867 0.0566
vn -0.1526 -0.9867 0.0566
vn -0.7302 -0.6273 0.2709
vn -0.9117 0.2332 0.3383
vn -0.4545 0.8746 0.1686
vn -0.7302 0.6273 -0.2709
vn -0.1526 0.9867 -0.0566
vn -0.1526 -0.9867 -0.0566
vn -0.7302 -0.6273 -0.2709
vn -0.9117 0.2332 -0.3383
vn -0.4545 0.8746 -0.1686
vn -0.4545 -0.8746 -0.1686
vn -0.9117 -0.2332 -0.3383
vn -0.1112 -0.9818 -0.1540
vn -0.4826 -0.5663 -0.6682
vn -0.5736 0.2004 -0.7942
vn -0.3190 0.8385 -0.4417
vn -0.3190 -0.8385 -0.4417
vn -0.5736 -0.2004 -0.7942
vn -0.4826 0.5663 -0.6682
vn -0.1112 0.9818 -0.1540
vn -0.1123 0.8066 -0.5804
vn -0.1123 -0.8066 -0.5804
vn -0.1869 -0.1784 -0.9660
vn -0.1623 0.5202 -0.8385
vn -0.0405 0.9770 -0.2093
vn -0.0405 -0.9770 -0.2093
vn -0.1623 -0.5202 -0.8385
vn -0.1869 0.1784 -0.9660
vn 0.1686 -0.4851 -0.8580
vn 0.1902 0.1629 -0.9681
vn 0.1209 0.7791 -0.6152
vn 0.1209 -0.7791 -0.6152
vn 0.1902 -0.1629 -0.9681
vn 0.1686 0.4851 -0.8580
vn 0.0449 0.9725 -0.2286
vn 0.0449 -0.9725 -0.2286
vn 0.3445 -0.8127 -0.4698
vn 0.5815 -0.1823 -0.7929
vn 0.5020 0.5287 -0.6845
vn 0.1234 0.9780 -0.1683
vn 0.1234 -0.9780 -0.1683
vn 0.5020 -0.5287 -0.6845
vn 0.5815 0.1823 -0.7929
vn 0.3445 0.8127 -0.4698
vn 0.7607 0.5865 -0.2780
vn 0.1696 0.9836 -0.0620
vn 0.1696 -0.9836 -0.0620
vn 0.7607 -0.5865 -0.2780
vn 0.9182 0.2107 -0.3355
vn 0.4929 0.8512 -0.1801
vn 0.4929 -0.8512 -0.1801
vn 0.9182 -0.2107 -0.3355
vn 0.1696 -0.9836 0.0620
vn 0.7607 -0.5865 0.2780
vn 0.9182 0.2107 0.3355
vn 0.4929 0.8512 0.1801
vn 0.4929 -0.8512 0.1801
vn 0.9182 -0.2107 0.3355
vn 0.7607 0.5865 0.2780
vn 0.1696 0.9836 0.0620
vn 0.3445 0.8127 0.4698
vn 0.3445 -0.8127 0.4698
vn 0.5815 -0.1823 0.7929
vn 0.5020 0.5287 0.6845
vn 0.1234 0.9780 0.1683
vn 0.1234 -0.9780 0.1683
vn 0.5020 -0.5287 0.6845
vn 0.5815 0.1823 0.7929
vn 0.1209 -0.7791 0.6152
vn 0.1902 -0.1629 0.9681
vn 0.1686 0.4851 0.8580
vn 0.0449 0.9725 0.2286
vn 0.0449 -0.9725 0.2286
vn 0.1686 -0.4851 0.8580
vn 0.1902 0.1629 0.9681
vn 0.1209 0.7791 0.6152
vn -0.0449 0.9725 0.2286
vn -0.0449 -0.9725 0.2286
vn -0.1686 -0.4851 0.8580
vn -0.1902 0.1629 0.9681
vn -0.1209 0.7791 0.6152
vn -0.1209 -0.7791 0.6152
vn -0.1902 -0.1629 0.9681
vn -0.1686 0.4851 0.8580
vn -0.5020 -0.5287 0.6845
vn -0.5815 0.1823 0.7929
vn -0.3445 0.8127 0.4698
vn -0.3445 -0.8127 0.4698
vn -0.5815 -0.1823 0.7929
vn -0.5020 0.5287 0.6845
vn -0.1234 0.9780 0.1683
vn -0.1234 -0.9780 0.1683
vn -0.4929 -0.8512 0.1801
vn -0.9182 -0.2107 0.3355
vn -0.7607 0.5865 0.2780
vn -0.1696 0.9836 0.0620
vn -0.1696 -0.9836 0.0620
vn -0.7607 -0.5865 0.2780
vn -0.9182 0.2107 0.3355
vn -0.4929 0.8512 0.1801
vn -0.9182 -0.2107 -0.3355
vn -0.7607 0.5865 -0.2780
vn -0.1696 0.9836 -0.0620
vn -0.1696 -0.9836 -0.0620
vn -0.7607 -0.5865 -0.2780
vn -0.9182 0.2107 -0.3355
vn -0.4929 0.8512 -0.1801
vn -0.4929 -0.8512 -0.1801
vn -0.1234 -0.9780 -0.1683
vn -0.5020 -0.5287 -0.6845
vn -0.5815 0.1823 -0.7929
vn -0.3445 0.8127 -0.4698
vn -0.3445 -0.8127 -0.4698
vn -0.5815 -0.1823 -0.7929
vn -0.5020 0.5287 -0.6845
vn -0.1234 0.9780 -0.1683
vn -0.1902 0.1629 -0.9681
vn -0.1209 0.7791 -0.6152
vn -0.1209 -0.7791 -0.6152
vn -0.1902 -0.1629 -0.9681
vn -0.1686 0.4851 -0.8580
vn -0.0449 0.9725 -0.2286
vn -0.0449 -0.9725 -0.2286
vn -0.1686 -0.4851 -0.8580
vn 0.0151 -0.9935 -0.1129
vn 0.0867 -0.7571 -0.6475
vn 0.1255 0.3261 -0.9369
vn 0.0477 0.9332 -0.3563
vn 0.0477 -0.9332 -0.3563
vn 0.1255 -0.3261 -0.9369
vn 0.0867 0.7571 -0.6475
vn 0.0151 0.9935 -0.1129
vn 0.1334 -0.9545 -0.2668
vn 0.4115 -0.3914 -0.8231
vn 0.2564 0.8193 -0.5129
vn 0.0414 0.9957 -0.0829
vn 0.0414 -0.9957 -0.0829
vn 0.2564 -0.8193 -0.5129
vn 0.4115 0.3914 -0.8231
vn 0.1334 0.9545 -0.2668
vn 0.7512 -0.5230 -0.4026
vn 0.3847 0.8997 -0.2062
vn 0.0567 0.9979 -0.0304
vn 0.0567 -0.9979 -0.0304
vn 0.3847 -0.8997 -0.2062
vn 0.7512 0.5230 -0.4026
vn 0.1866 0.9773 -0.1000
vn 0.1866 -0.9773 -0.1000
vn 0.0567 -0.9979 0.0304
vn 0.3847 -0.8997 0.2062
vn 0.7512 0.5230 0.4026
vn 0.1866 0.9773 0.1000
vn 0.1866 -0.9773 0.1000
vn 0.7512 -0.5230 0.4026
vn 0.3847 0.8997 0.2062
vn 0.0567 0.9979 0.0304
vn 0.4115 0.3914 0.8231
vn 0.1334 0.9545 0.2668
vn 0.1334 -0.9545 0.2668
vn 0.4115 -0.3914 0.8231
vn 0.2564 0.8193 0.5129
vn 0.0414 0.9957 0.0829
vn 0.0414 -0.9957 0.0829
vn 0.2564 -0.8193 0.5129
vn 0.0477 -0.9332 0.3563
vn 0.1255 -0.3261 0.9369
vn 0.0867 0.7571 0.6475
vn 0.0151 0.9935 0.1129
vn 0.0151 -0.9935 0.1129
vn 0.0867 -0.7571 0.6475
vn 0.1255 0.3261 0.9369
vn 0.0477 0.9332 0.3563
vn -0.0867 0.7571 0.6475
vn -0.0151 0.9935 0.1129
vn -0.0151 -0.9935 0.1129
vn -0.0867 -0.7571 0.6475
vn -0.1255 0.3261 0.9369
vn -0.0477 0.9332 0.3563
vn -0.0477 -0.9332 0.3563
vn -0.1255 -0.3261 0.9369
vn -0.0414 -0.9957 0.0829
vn -0.2564 -0.8193 0.5129
vn -0.4115 0.3914 0.8231
vn -0.1334 0.9545 0.2668
vn -0.1334 -0.9545 0.2668
vn -0.4115 -0.3914 0.8231
vn -0.2564 0.8193 0.5129
vn -0.0414 0.9957 0.0829
vn -0.1866 0.9773 0.1000
vn -0.1866 -0.9773 0.1000
vn -0.7512 -0.5230 0.4026
vn -0.3847 0.8997 0.2062
vn -0.0567 0.9979 0.0304
vn -0.0567 -0.9979 0.0304
vn -0.3847 -0.8997 0.2062
vn -0.7512 0.5230 0.4026
vn -0.1866 -0.9773 -0.1000
vn -0.7512 -0.5230 -0.4026
vn -0.3847 0.8997 -0.2062
vn -0.0567 0.9979 -0.0304
vn -0.0567 -0.9979 -0.0304
vn -0.3847 -0.8997 -0.2062
vn -0.7512 0.5230 -0.4026
vn -0.1866 0.9773 -0.1000
vn -0.0414 0.9957 -0.0829
vn -0.0414 -0.9957 -0.0829
vn -0.2564 -0.8193 -0.5129
vn -0.4115 0.3914 -0.8231
vn -0.1334 0.9545 -0.2668
vn -0.1334 -0.9545 -0.2668
vn -0.4115 -0.3914 -0.8231
vn -0.2564 0.8193 -0.5129
vn -0.0867 -0.7571 -0.6475
vn -0.1255 0.3261 -0.9369
vn -0.0477 0.9332 -0.3563
vn -0.0477 -0.9332 -0.3563
vn -0.1255 -0.3261 -0.9369
vn -0.0867 0.7571 -0.6475
vn -0.0151 0.9935 -0.1129
vn -0.0151 -0.9935 -0.1129
vn 0.0907 -0.7754 -0.6249
vn 0.1349 0.3434 -0.9295
vn 0.0491 0.9398 -0.3381
vn 0.0491 -0.9398 -0.3381
vn 0.1349 -0.3434 -0.9295
vn 0.0907 0.7754 -0.6249
vn 0.0155 0.9942 -0.1065
vn 0.0155 -0.9942 -0.1065
vn 0.1367 -0.9579 -0.2523
vn 0.4354 -0.4056 -0.8037
vn 0.2654 0.8304 -0.4899
vn 0.0423 0.9960 -0.0781
vn 0.0423 -0.9960 -0.0781
vn 0.2654 -0.8304 -0.4899
vn 0.4354 0.4056 -0.8037
vn 0.1367 0.9579 -0.2523
vn 0.3924 0.8991 -0.1941
vn 0.0579 0.9979 -0.0286
vn 0.0579 -0.9979 -0.0286
vn 0.3924 -0.8991 -0.1941
vn 0.7648 0.5216 -0.3783
vn 0.1904 0.9772 -0.0942
vn 0.1904 -0.9772 -0.0942
vn 0.7648 -0.5216 -0.3783
vn 0.0579 -0.9979 0.0286
vn 0.3924 -0.8991 0.1941
vn 0.7648 0.5216 0.3783
vn 0.1904 0.9772 0.0942
vn 0.1904 -0.9772 0.0942
vn 0.7648 -0.5216 0.3783
vn 0.3924 0.8991 0.1941
vn 0.0579 0.9979 0.0286
vn 0.1367 0.9579 0.2523
vn 0.1367 -0.9579 0.2523
vn 0.4354 -0.4056 0.8037
vn 0.2654 0.8304 0.4899
vn 0.0423 0.9960 0.0781
vn 0.0423 -0.9960 0.0781
vn 0.2654 -0.8304 0.4899
vn 0.4354 0.4056 0.8037
vn 0.0491 -0.9398 0.3381
vn 0.1349 -0.3434 0.9295
vn 0.0907 0.7754 0.6249
vn 0.0155 0.9942 0.1065
vn 0.0155 -0.9942 0.1065
vn 0.0907 -0.7754 0.6249
vn 0.1349 0.3434 0.9295
vn 0.0491 0.9398 0.3381
vn -0.0155 0.9942 0.1065
vn -0.0155 -0.9942 0.1065
vn -0.0907 -0.7754 0.6249
vn -0.1349 0.3434 0.9295
vn -0.0491 0.9398 0.3381
vn -0.0491 -0.9398 0.3381
vn -0.1349 -0.3434 0.9295
vn -0.0907 0.7754 0.6249
vn -0.2654 -0.8304 0.4899
vn -0.4354 0.4056 0.8037
vn -0.1367 0.9579 0.2523
vn -0.1367 -0.9579 0.2523
vn -0.4354 -0.4056 0.8037
vn -0.2654 0.8304 0.4899
vn -0.0423 0.9960 0.0781
vn -0.0423 -0.9960 0.0781
vn -0.1904 -0.9772 0.0942
vn -0.7648 -0.5216 0.3783
vn -0.3924 0.8991 0.1941
vn -0.0579 0.9979 0.0286
vn -0.0579 -0.9979 0.0286
vn -0.3924 -0.8991 0.1941
vn -0.7648 0.5216 0.3783
vn -0.1904 0.9772 0.0942
vn -0.7648 -0.5216 -0.3783
vn -0.3924 0.8991 -0.1941
vn -0.0579 0.9979 -0.0286
vn -0.0579 -0.9979 -0.0286
vn -0.3924 -0.8991 -0.1941
vn -0.7648 0.5216 -0.3783
vn -0.1904 0.9772 -0.0942
vn -0.1904 -0.9772 -0.0942
vn -0.0423 -0.9960 -0.0781
vn -0.2654 -0.8304 -0.4899
vn -0.4354 0.4056 -0.8037
vn -0.1367 0.9579 -0.2523
vn -0.1367 -0.9579 -0.2523
vn -0.4354 -0.4056 -0.8037
vn -0.2654 0.8304 -0.4899
vn -0.0423 0.9960 -0.0781
vn -0.1349 0.3434 -0.9295
vn -0.0491 0.9398 -0.3381
vn -0.0491 -0.9398 -0.3381
vn -0.1349 -0.3434 -0.9295
vn -0.0907 0.7754 -0.6249
vn -0.0155 0.9942 -0.1065
vn -0.0155 -0.9942 -0.1065
vn -0.0907 -0.7754 -0.6249
vt 0.750000 0.250000
vt 0.666667 0.125000
vt 0.750000 0.125000
vt 0.750000 0.500000
vt 0.666667 0.375000
vt 0.750000 0.375000
vt 0.750000 0.750000
vt 0.666667 0.625000
vt 0.750000 0.625000
vt 0.750000 0.875000
vt 0.708333 1.000000
vt 0.666667 0.875000
vt 0.708333 0.000000
vt 0.666667 0.250000
vt 0.666667 0.500000
vt 0.666667 0.750000
vt 0.625000 1.000000
vt 0.583333 0.875000
vt 0.625000 0.000000
vt 0.583333 0.125000
vt 0.583333 0.250000
vt 0.583333 0.500000
vt 0.583333 0.750000
vt 0.583333 0.375000
vt 0.583333 0.625000
vt 0.500000 0.250000
vt 0.500000 0.500000
vt 0.500000 0.750000
vt 0.500000 0.125000
vt 0.500000 0.375000
vt 0.500000 0.625000
vt 0.541667 1.000000
vt 0.500000 0.875000
vt 0.541667 0.000000
vt 0.416667 0.125000
vt 0.416667 0.375000
vt 0.416667 0.625000
vt 0.458333 1.000000
vt 0.416667 0.875000
vt 0.458333 0.000000
vt 0.416667 0.250000
vt 0.416667 0.500000
vt 0.416667 0.750000
vt 0.333333 0.375000
vt 0.333333 0.625000
vt 0.375000 1.000000
vt 0.333333 0.875000
vt 0.375000 0.000000
vt 0.333333 0.125000
vt 0.333333 0.250000
vt 0.333333 0.500000
vt 0.333333 0.750000
vt 0.291667 0.000000
vt 0.250000 0.125000
vt 0.250000 0.250000
vt 0.250000 0.500000
vt 0.250000 0.875000
vt 0.250000 0.750000
vt 0.250000 0.375000
vt 0.250000 0.625000
vt 0.291667 1.000000
vt 0.166667 0.500000
vt 0.166667 0.750000
vt 0.166667 0.125000
vt 0.166667 0.375000
vt 0.166667 0.625000
vt 0.208333 1.000000
vt 0.166667 0.875000
vt 0.208333 0.000000
vt 0.166667 0.250000
vt 0.083333 0.125000
vt 0.083333 0.375000
vt 0.083333 0.625000
vt 0.125000 1.000000
vt 0.083333 0.875000
vt 0.125000 0.000000
vt 0.083333 0.250000
vt 0.083333 0.500000
vt 0.083333 0.750000
vt 0.000000 0.625000
vt 0.041667 1.000000
vt 0.000000 0.875000
vt 0.041667 0.000000
vt 0.000000 0.125000
vt 0.000000 0.375000
vt 0.000000 0.250000
vt 0.000000 0.500000
vt 0.000000 0.750000
vt 0.958333 0.000000
vt 1.000000 0.125000
vt 0.916667 0.125000
vt 1.000000 0.250000
vt 0.916667 0.375000
vt 0.916667 0.250000
vt 1.000000 0.625000
vt 0.916667 0.500000
vt 1.000000 0.500000
vt 1.000000 0.750000
vt 0.916667 0.875000
vt 0.916667 0.750000
vt 1.000000 0.375000
vt 0.916667 0.625000
vt 1.000000 0.875000
vt 0.958333 1.000000
vt 0.833333 0.875000
vt 0.833333 0.750000
vt 0.833333 0.125000
vt 0.833333 0.375000
vt 0.833333 0.625000
vt 0.875000 1.000000
vt 0.875000 0.000000
vt 0.833333 0.250000
vt 0.833333 0.500000
vt 0.791667 1.000000
vt 0.791667 0.000000
s 0
usemtl MatCumulusAnvil
f 85/1/1 11/2/1 86/3/1
f 3/4/2 9/5/2 84/6/2
f 2/7/3 7/8/3 83/9/3
f 82/10/4 1/11/4 5/12/4
f 4/13/5 86/3/5 11/2/5
f 85/1/6 9/5/6 10/14/6
f 3/4/7 7/8/7 8/15/7
f 82/10/8 6/16/8 2/7/8
f 5/12/9 1/17/9 12/18/9
f 4/19/10 11/2/10 18/20/10
f 9/5/11 17/21/11 10/14/11
f 7/8/12 15/22/12 8/15/12
f 5/12/13 13/23/13 6/16/13
f 10/14/14 18/20/14 11/2/14
f 8/15/15 16/24/15 9/5/15
f 6/16/16 14/25/16 7/8/16
f 16/24/17 24/26/17 17/21/17
f 14/25/18 22/27/18 15/22/18
f 12/18/19 20/28/19 13/23/19
f 18/20/20 24/26/20 25/29/20
f 16/24/21 22/27/21 23/30/21
f 13/23/22 21/31/22 14/25/22
f 12/18/23 1/32/23 19/33/23
f 4/34/24 18/20/24 25/29/24
f 24/26/25 32/35/25 25/29/25
f 22/27/26 30/36/26 23/30/26
f 20/28/27 28/37/27 21/31/27
f 19/33/28 1/38/28 26/39/28
f 4/40/29 25/29/29 32/35/29
f 24/26/30 30/36/30 31/41/30
f 22/27/31 28/37/31 29/42/31
f 19/33/32 27/43/32 20/28/32
f 29/42/33 37/44/33 30/36/33
f 27/43/34 35/45/34 28/37/34
f 26/39/35 1/46/35 33/47/35
f 4/48/36 32/35/36 39/49/36
f 31/41/37 37/44/37 38/50/37
f 28/37/38 36/51/38 29/42/38
f 27/43/39 33/47/39 34/52/39
f 31/41/40 39/49/40 32/35/40
f 4/53/41 39/49/41 46/54/41
f 37/44/42 45/55/42 38/50/42
f 35/45/43 43/56/43 36/51/43
f 34/52/44 40/57/44 41/58/44
f 38/50/45 46/54/45 39/49/45
f 36/51/46 44/59/46 37/44/46
f 34/52/47 42/60/47 35/45/47
f 33/47/48 1/61/48 40/57/48
f 42/60/49 50/62/49 43/56/49
f 40/57/50 48/63/50 41/58/50
f 45/55/51 53/64/51 46/54/51
f 43/56/52 51/65/52 44/59/52
f 41/58/53 49/66/53 42/60/53
f 40/57/54 1/67/54 47/68/54
f 4/69/55 46/54/55 53/64/55
f 44/59/56 52/70/56 45/55/56
f 52/70/57 60/71/57 53/64/57
f 50/62/58 58/72/58 51/65/58
f 48/63/59 56/73/59 49/66/59
f 47/68/60 1/74/60 54/75/60
f 4/76/61 53/64/61 60/71/61
f 52/70/62 58/72/62 59/77/62
f 49/66/63 57/78/63 50/62/63
f 48/63/64 54/75/64 55/79/64
f 55/79/65 63/80/65 56/73/65
f 54/75/66 1/81/66 61/82/66
f 4/83/67 60/71/67 67/84/67
f 59/77/68 65/85/68 66/86/68
f 56/73/69 64/87/69 57/78/69
f 55/79/70 61/82/70 62/88/70
f 59/77/71 67/84/71 60/71/71
f 57/78/72 65/85/72 58/72/72
f 4/89/73 67/90/73 74/91/73
f 66/92/74 72/93/74 73/94/74
f 63/95/75 71/96/75 64/97/75
f 62/98/76 68/99/76 69/100/76
f 66/92/77 74/91/77 67/90/77
f 64/97/78 72/93/78 65/101/78
f 62/98/79 70/102/79 63/95/79
f 61/103/80 1/104/80 68/99/80
f 69/100/81 75/105/81 76/106/81
f 73/94/82 81/107/82 74/91/82
f 71/96/83 79/108/83 72/93/83
f 69/100/84 77/109/84 70/102/84
f 68/99/85 1/110/85 75/105/85
f 4/111/86 74/91/86 81/107/86
f 73/94/87 79/108/87 80/112/87
f 71/96/88 77/109/88 78/113/88
f 80/112/89 86/3/89 81/107/89
f 78/113/90 84/6/90 79/108/90
f 76/106/91 83/9/91 77/109/91
f 75/105/92 1/114/92 82/10/92
f 4/115/93 81/107/93 86/3/93
f 80/112/94 84/6/94 85/1/94
f 77/109/95 3/4/95 78/113/95
f 76/106/96 82/10/96 2/7/96
f 172/3/97 96/14/97 97/2/97
f 170/6/98 94/15/98 95/5/98
f 88/7/99 93/8/99 169/9/99
f 168/10/100 87/11/100 91/12/100
f 90/13/101 172/3/101 97/2/101
f 171/1/102 95/5/102 96/14/102
f 169/9/103 94/15/103 89/4/103
f 168/10/104 92/16/104 88/7/104
f 92/16/105 100/25/105 93/8/105
f 91/12/106 87/17/106 98/18/106
f 90/19/107 97/2/107 104/20/107
f 96/14/108 102/24/108 103/21/108
f 93/8/109 101/22/109 94/15/109
f 91/12/110 99/23/110 92/16/110
f 97/2/111 103/21/111 104/20/111
f 95/5/112 101/22/112 102/24/112
f 90/34/113 104/20/113 111/29/113
f 103/21/114 109/30/114 110/26/114
f 100/25/115 108/27/115 101/22/115
f 98/18/116 106/28/116 99/23/116
f 104/20/117 110/26/117 111/29/117
f 102/24/118 108/27/118 109/30/118
f 99/23/119 107/31/119 100/25/119
f 98/18/120 87/32/120 105/33/120
f 106/28/121 112/39/121 113/43/121
f 110/26/122 118/35/122 111/29/122
f 108/27/123 116/36/123 109/30/123
f 107/31/124 113/43/124 114/37/124
f 105/33/125 87/38/125 112/39/125
f 90/40/126 111/29/126 118/35/126
f 109/30/127 117/41/127 110/26/127
f 108/27/128 114/37/128 115/42/128
f 117/41/129 125/49/129 118/35/129
f 115/42/130 123/44/130 116/36/130
f 114/37/131 120/52/131 121/45/131
f 112/39/132 87/46/132 119/47/132
f 90/48/133 118/35/133 125/49/133
f 116/36/134 124/50/134 117/41/134
f 115/42/135 121/45/135 122/51/135
f 113/43/136 119/47/136 120/52/136
f 119/47/137 87/61/137 126/57/137
f 90/53/138 125/49/138 132/54/138
f 123/44/139 131/55/139 124/50/139
f 122/51/140 128/60/140 129/56/140
f 120/52/141 126/57/141 127/58/141
f 124/50/142 132/54/142 125/49/142
f 122/51/143 130/59/143 123/44/143
f 121/45/144 127/58/144 128/60/144
f 131/55/145 137/65/145 138/70/145
f 128/60/146 136/62/146 129/56/146
f 126/57/147 134/63/147 127/58/147
f 132/54/148 138/70/148 139/64/148
f 130/59/149 136/62/149 137/65/149
f 127/58/150 135/66/150 128/60/150
f 126/57/151 87/67/151 133/68/151
f 90/69/152 132/54/152 139/64/152
f 139/64/153 145/77/153 146/71/153
f 137/65/154 143/78/154 144/72/154
f 134/63/155 142/73/155 135/66/155
f 133/68/156 87/74/156 140/75/156
f 90/76/157 139/64/157 146/71/157
f 138/70/158 144/72/158 145/77/158
f 135/66/159 143/78/159 136/62/159
f 133/68/160 141/79/160 134/63/160
f 144/72/161 150/87/161 151/85/161
f 141/79/162 149/80/162 142/73/162
f 140/75/163 87/81/163 147/82/163
f 90/83/164 146/71/164 153/84/164
f 145/77/165 151/85/165 152/86/165
f 142/73/166 150/87/166 143/78/166
f 140/75/167 148/88/167 141/79/167
f 146/71/168 152/86/168 153/84/168
f 90/89/169 153/90/169 160/91/169
f 151/101/170 159/94/170 152/92/170
f 150/97/171 156/102/171 157/96/171
f 148/98/172 154/99/172 155/100/172
f 152/92/173 160/91/173 153/90/173
f 150/97/174 158/93/174 151/101/174
f 149/95/175 155/100/175 156/102/175
f 147/103/176 87/104/176 154/99/176
f 157/96/177 163/109/177 164/113/177
f 155/100/178 161/105/178 162/106/178
f 159/94/179 167/107/179 160/91/179
f 157/96/180 165/108/180 158/93/180
f 156/102/181 162/106/181 163/109/181
f 154/99/182 87/110/182 161/105/182
f 90/111/183 160/91/183 167/107/183
f 158/93/184 166/112/184 159/94/184
f 166/112/185 172/3/185 167/107/185
f 164/113/186 170/6/186 165/108/186
f 163/109/187 88/7/187 169/9/187
f 161/105/188 87/114/188 168/10/188
f 90/115/189 167/107/189 172/3/189
f 165/108/190 171/1/190 166/112/190
f 164/113/191 169/9/191 89/4/191
f 162/106/192 168/10/192 88/7/192
f 254/10/193 178/16/193 174/7/193
f 258/3/194 182/14/194 183/2/194
f 256/6/195 180/15/195 181/5/195
f 174/7/196 179/8/196 255/9/196
f 254/10/197 173/11/197 177/12/197
f 176/13/198 258/3/198 183/2/198
f 257/1/199 181/5/199 182/14/199
f 255/9/200 180/15/200 175/4/200
f 181/5/201 187/22/201 188/24/201
f 178/16/202 186/25/202 179/8/202
f 177/12/203 173/17/203 184/18/203
f 176/19/204 183/2/204 190/20/204
f 182/14/205 188/24/205 189/21/205
f 179/8/206 187/22/206 180/15/206
f 177/12/207 185/23/207 178/16/207
f 183/2/208 189/21/208 190/20/208
f 176/34/209 190/20/209 197/29/209
f 189/21/210 195/30/210 196/26/210
f 186/25/211 194/27/211 187/22/211
f 184/18/212 192/28/212 185/23/212
f 190/20/213 196/26/213 197/29/213
f 188/24/214 194/27/214 195/30/214
f 185/23/215 193/31/215 186/25/215
f 184/18/216 173/32/216 191/33/216
f 194/27/217 200/37/217 201/42/217
f 192/28/218 198/39/218 199/43/218
f 196/26/219 204/35/219 197/29/219
f 194/27/220 202/36/220 195/30/220
f 193/31/221 199/43/221 200/37/221
f 191/33/222 173/38/222 198/39/222
f 176/40/223 197/29/223 204/35/223
f 195/30/224 203/41/224 196/26/224
f 203/41/225 211/49/225 204/35/225
f 201/42/226 209/44/226 202/36/226
f 200/37/227 206/52/227 207/45/227
f 198/39/228 173/46/228 205/47/228
f 176/48/229 204/35/229 211/49/229
f 202/36/230 210/50/230 203/41/230
f 201/42/231 207/45/231 208/51/231
f 199/43/232 205/47/232 206/52/232
f 207/45/233 213/58/233 214/60/233
f 205/47/234 173/61/234 212/57/234
f 176/53/235 211/49/235 218/54/235
f 209/44/236 217/55/236 210/50/236
f 208/51/237 214/60/237 215/56/237
f 206/52/238 212/57/238 213/58/238
f 210/50/239 218/54/239 211/49/239
f 208/51/240 216/59/240 209/44/240
f 176/69/241 218/54/241 225/64/241
f 217/55/242 223/65/242 224/70/242
f 214/60/243 222/62/243 215/56/243
f 212/57/244 220/63/244 213/58/244
f 218/54/245 224/70/245 225/64/245
f 216/59/246 222/62/246 223/65/246
f 213/58/247 221/66/247 214/60/247
f 212/57/248 173/67/248 219/68/248
f 219/68/249 227/79/249 220/63/249
f 225/64/250 231/77/250 232/71/250
f 223/65/251 229/78/251 230/72/251
f 220/63/252 228/73/252 221/66/252
f 219/68/253 173/74/253 226/75/253
f 176/76/254 225/64/254 232/71/254
f 224/70/255 230/72/255 231/77/255
f 221/66/256 229/78/256 222/62/256
f 232/71/257 238/86/257 239/84/257
f 230/72/258 236/87/258 237/85/258
f 227/79/259 235/80/259 228/73/259
f 226/75/260 173/81/260 233/82/260
f 176/83/261 232/71/261 239/84/261
f 231/77/262 237/85/262 238/86/262
f 228/73/263 236/87/263 229/78/263
f 226/75/264 234/88/264 227/79/264
f 233/103/265 173/104/265 240/99/265
f 176/89/266 239/90/266 246/91/266
f 237/101/267 245/94/267 238/92/267
f 236/97/268 242/102/268 243/96/268
f 234/98/269 240/99/269 241/100/269
f 238/92/270 246/91/270 239/90/270
f 236/97/271 244/93/271 237/101/271
f 235/95/272 241/100/272 242/102/272
f 244/93/273 252/112/273 245/94/273
f 243/96/274 249/109/274 250/113/274
f 241/100/275 247/105/275 248/106/275
f 245/94/276 253/107/276 246/91/276
f 243/96/277 251/108/277 244/93/277
f 242/102/278 248/106/278 249/109/278
f 240/99/279 173/110/279 247/105/279
f 176/111/280 246/91/280 253/107/280
f 252/112/281 258/3/281 253/107/281
f 250/113/282 256/6/282 251/108/282
f 249/109/283 174/7/283 255/9/283
f 247/105/284 173/114/284 254/10/284
f 176/115/285 253/107/285 258/3/285
f 251/108/286 257/1/286 252/112/286
f 250/113/287 255/9/287 175/4/287
f 248/106/288 254/10/288 174/7/288
f 341/9/289 266/15/289 261/4/289
f 340/10/290 264/16/290 260/7/290
f 344/3/291 268/14/291 269/2/291
f 342/6/292 266/15/292 267/5/292
f 260/7/293 265/8/293 341/9/293
f 340/10/294 259/11/294 263/12/294
f 262/13/295 344/3/295 269/2/295
f 343/1/296 267/5/296 268/14/296
f 269/2/297 275/21/297 276/20/297
f 267/5/298 273/22/298 274/24/298
f 264/16/299 272/25/299 265/8/299
f 263/12/300 259/17/300 270/18/300
f 262/19/301 269/2/301 276/20/301
f 268/14/302 274/24/302 275/21/302
f 265/8/303 273/22/303 266/15/303
f 263/12/304 271/23/304 264/16/304
f 270/18/305 259/32/305 277/33/305
f 262/34/306 276/20/306 283/29/306
f 275/21/307 281/30/307 282/26/307
f 272/25/308 280/27/308 273/22/308
f 270/18/309 278/28/309 271/23/309
f 276/20/310 282/26/310 283/29/310
f 274/24/311 280/27/311 281/30/311
f 271/23/312 279/31/312 272/25/312
f 281/30/313 289/41/313 282/26/313
f 280/27/314 286/37/314 287/42/314
f 278/28/315 284/39/315 285/43/315
f 282/26/316 290/35/316 283/29/316
f 280/27/317 288/36/317 281/30/317
f 279/31/318 285/43/318 286/37/318
f 277/33/319 259/38/319 284/39/319
f 262/40/320 283/29/320 290/35/320
f 289/41/321 297/49/321 290/35/321
f 287/42/322 295/44/322 288/36/322
f 286/37/323 292/52/323 293/45/323
f 284/39/324 259/46/324 291/47/324
f 262/48/325 290/35/325 297/49/325
f 288/36/326 296/50/326 289/41/326
f 287/42/327 293/45/327 294/51/327
f 285/43/328 291/47/328 292/52/328
f 294/51/329 302/59/329 295/44/329
f 293/45/330 299/58/330 300/60/330
f 291/47/331 259/61/331 298/57/331
f 262/53/332 297/49/332 304/54/332
f 295/44/333 303/55/333 296/50/333
f 294/51/334 300/60/334 301/56/334
f 292/52/335 298/57/335 299/58/335
f 296/50/336 304/54/336 297/49/336
f 262/69/337 304/54/337 311/64/337
f 303/55/338 309/65/338 310/70/338
f 300/60/339 308/62/339 301/56/339
f 298/57/340 306/63/340 299/58/340
f 304/54/341 310/70/341 311/64/341
f 302/59/342 308/62/342 309/65/342
f 299/58/343 307/66/343 300/60/343
f 298/57/344 259/67/344 305/68/344
f 307/66/345 315/78/345 308/62/345
f 305/68/346 313/79/346 306/63/346
f 311/64/347 317/77/347 318/71/347
f 309/65/348 315/78/348 316/72/348
f 306/63/349 314/73/349 307/66/349
f 305/68/350 259/74/350 312/75/350
f 262/76/351 311/64/351 318/71/351
f 310/70/352 316/72/352 317/77/352
f 318/71/353 324/86/353 325/84/353
f 316/72/354 322/87/354 323/85/354
f 313/79/355 321/80/355 314/73/355
f 312/75/356 259/81/356 319/82/356
f 262/83/357 318/71/357 325/84/357
f 317/77/358 323/85/358 324/86/358
f 314/73/359 322/87/359 315/78/359
f 312/75/360 320/88/360 313/79/360
f 321/95/361 327/100/361 328/102/361
f 319/103/362 259/104/362 326/99/362
f 262/89/363 325/90/363 332/91/363
f 323/101/364 331/94/364 324/92/364
f 322/97/365 328/102/365 329/96/365
f 320/98/366 326/99/366 327/100/366
f 324/92/367 332/91/367 325/90/367
f 322/97/368 330/93/368 323/101/368
f 262/111/369 332/91/369 339/107/369
f 330/93/370 338/112/370 331/94/370
f 329/96/371 335/109/371 336/113/371
f 327/100/372 333/105/372 334/106/372
f 331/94/373 339/107/373 332/91/373
f 329/96/374 337/108/374 330/93/374
f 328/102/375 334/106/375 335/109/375
f 326/99/376 259/110/376 333/105/376
f 334/106/377 340/10/377 260/7/377
f 338/112/378 344/3/378 339/107/378
f 336/113/379 342/6/379 337/108/379
f 335/109/380 260/7/380 341/9/380
f 333/105/381 259/114/381 340/10/381
f 262/115/382 339/107/382 344/3/382
f 337/108/383 343/1/383 338/112/383
f 336/113/384 341/9/384 261/4/384
f 429/1/385 353/5/385 354/14/385
f 427/9/386 352/15/386 347/4/386
f 426/10/387 350/16/387 346/7/387
f 430/3/388 354/14/388 355/2/388
f 428/6/389 352/15/389 353/5/389
f 346/7/390 351/8/390 427/9/390
f 426/10/391 345/11/391 349/12/391
f 348/13/392 430/3/392 355/2/392
f 355/2/393 361/21/393 362/20/393
f 353/5/394 359/22/394 360/24/394
f 350/16/395 358/25/395 351/8/395
f 349/12/396 345/17/396 356/18/396
f 348/19/397 355/2/397 362/20/397
f 354/14/398 360/24/398 361/21/398
f 351/8/399 359/22/399 352/15/399
f 349/12/400 357/23/400 350/16/400
f 357/23/401 365/31/401 358/25/401
f 356/18/402 345/32/402 363/33/402
f 348/34/403 362/20/403 369/29/403
f 361/21/404 367/30/404 368/26/404
f 358/25/405 366/27/405 359/22/405
f 356/18/406 364/28/406 357/23/406
f 362/20/407 368/26/407 369/29/407
f 360/24/408 366/27/408 367/30/408
f 348/40/409 369/29/409 376/35/409
f 367/30/410 375/41/410 368/26/410
f 366/27/411 372/37/411 373/42/411
f 364/28/412 370/39/412 371/43/412
f 368/26/413 376/35/413 369/29/413
f 366/27/414 374/36/414 367/30/414
f 365/31/415 371/43/415 372/37/415
f 363/33/416 345/38/416 370/39/416
f 371/43/417 377/47/417 378/52/417
f 375/41/418 383/49/418 376/35/418
f 373/42/419 381/44/419 374/36/419
f 372/37/420 378/52/420 379/45/420
f 370/39/421 345/46/421 377/47/421
f 348/48/422 376/35/422 383/49/422
f 374/36/423 382/50/423 375/41/423
f 373/42/424 379/45/424 380/51/424
f 382/50/425 390/54/425 383/49/425
f 380/51/426 388/59/426 381/44/426
f 379/45/427 385/58/427 386/60/427
f 377/47/428 345/61/428 384/57/428
f 348/53/429 383/49/429 390/54/429
f 381/44/430 389/55/430 382/50/430
f 380/51/431 386/60/431 387/56/431
f 378/52/432 384/57/432 385/58/432
f 384/57/433 345/67/433 391/68/433
f 348/69/434 390/54/434 397/64/434
f 389/55/435 395/65/435 396/70/435
f 386/60/436 394/62/436 387/56/436
f 384/57/437 392/63/437 385/58/437
f 390/54/438 396/70/438 397/64/438
f 388/59/439 394/62/439 395/65/439
f 385/58/440 393/66/440 386/60/440
f 396/70/441 402/72/441 403/77/441
f 393/66/442 401/78/442 394/62/442
f 391/68/443 399/79/443 392/63/443
f 397/64/444 403/77/444 404/71/444
f 395/65/445 401/78/445 402/72/445
f 392/63/446 400/73/446 393/66/446
f 391/68/447 345/74/447 398/75/447
f 348/76/448 397/64/448 404/71/448
f 404/71/449 410/86/449 411/84/449
f 402/72/450 408/87/450 409/85/450
f 399/79/451 407/80/451 400/73/451
f 398/75/452 345/81/452 405/82/452
f 348/83/453 404/71/453 411/84/453
f 403/77/454 409/85/454 410/86/454
f 400/73/455 408/87/455 401/78/455
f 398/75/456 406/88/456 399/79/456
f 408/97/457 416/93/457 409/101/457
f 407/95/458 413/100/458 414/102/458
f 405/103/459 345/104/459 412/99/459
f 348/89/460 411/90/460 418/91/460
f 409/101/461 417/94/461 410/92/461
f 408/97/462 414/102/462 415/96/462
f 406/98/463 412/99/463 413/100/463
f 410/92/464 418/91/464 411/90/464
f 348/111/465 418/91/465 425/107/465
f 416/93/466 424/112/466 417/94/466
f 415/96/467 421/109/467 422/113/467
f 413/100/468 419/105/468 420/106/468
f 417/94/469 425/107/469 418/91/469
f 415/96/470 423/108/470 416/93/470
f 414/102/471 420/106/471 421/109/471
f 412/99/472 345/110/472 419/105/472
f 422/113/473 427/9/473 347/4/473
f 420/106/474 426/10/474 346/7/474
f 424/112/475 430/3/475 425/107/475
f 422/113/476 428/6/476 423/108/476
f 421/109/477 346/7/477 427/9/477
f 419/105/478 345/114/478 426/10/478
f 348/115/479 425/107/479 430/3/479
f 423/108/480 429/1/480 424/112/480
f 434/13/481 516/3/481 441/2/481
f 514/6/482 440/14/482 515/1/482
f 433/4/483 437/8/483 438/15/483
f 432/7/484 435/12/484 436/16/484
f 515/1/485 441/2/485 516/3/485
f 433/4/486 439/5/486 514/6/486
f 513/9/487 436/16/487 437/8/487
f 512/10/488 431/11/488 435/12/488
f 440/14/489 448/20/489 441/2/489
f 438/15/490 446/24/490 439/5/490
f 437/8/491 443/23/491 444/25/491
f 435/12/492 431/17/492 442/18/492
f 434/19/493 441/2/493 448/20/493
f 439/5/494 447/21/494 440/14/494
f 438/15/495 444/25/495 445/22/495
f 436/16/496 442/18/496 443/23/496
f 445/22/497 453/30/497 446/24/497
f 444/25/498 450/28/498 451/31/498
f 442/18/499 431/32/499 449/33/499
f 434/34/500 448/20/500 455/29/500
f 446/24/501 454/26/501 447/21/501
f 445/22/502 451/31/502 452/27/502
f 443/23/503 449/33/503 450/28/503
f 447/21/504 455/29/504 448/20/504
f 434/40/505 455/29/505 462/35/505
f 454/26/506 460/36/506 461/41/506
f 451/31/507 459/42/507 452/27/507
f 449/33/508 457/43/508 450/28/508
f 455/29/509 461/41/509 462/35/509
f 453/30/510 459/42/510 460/36/510
f 450/28/511 458/37/511 451/31/511
f 449/33/512 431/38/512 456/39/512
f 458/37/513 466/51/513 459/42/513
f 456/39/514 464/52/514 457/43/514
f 462/35/515 468/50/515 469/49/515
f 460/36/516 466/51/516 467/44/516
f 457/43/517 465/45/517 458/37/517
f 456/39/518 431/46/518 463/47/518
f 434/48/519 462/35/519 469/49/519
f 461/41/520 467/44/520 468/50/520
f 469/49/521 475/55/521 476/54/521
f 467/44/522 473/56/522 474/59/522
f 464/52/523 472/60/523 465/45/523
f 463/47/524 431/61/524 470/57/524
f 434/53/525 469/49/525 476/54/525
f 468/50/526 474/59/526 475/55/526
f 465/45/527 473/56/527 466/51/527
f 463/47/528 471/58/528 464/52/528
f 472/60/529 478/63/529 479/66/529
f 470/57/530 431/67/530 477/68/530
f 434/69/531 476/54/531 483/64/531
f 474/59/532 482/70/532 475/55/532
f 473/56/533 479/66/533 480/62/533
f 471/58/534 477/68/534 478/63/534
f 475/55/535 483/64/535 476/54/535
f 473/56/536 481/65/536 474/59/536
f 434/76/537 483/64/537 490/71/537
f 481/65/538 489/77/538 482/70/538
f 480/62/539 486/73/539 487/78/539
f 478/63/540 484/75/540 485/79/540
f 482/70/541 490/71/541 483/64/541
f 480/62/542 488/72/542 481/65/542
f 479/66/543 485/79/543 486/73/543
f 477/68/544 431/74/544 484/75/544
f 485/79/545 491/82/545 492/88/545
f 489/77/546 497/84/546 490/71/546
f 487/78/547 495/85/547 488/72/547
f 486/73/548 492/88/548 493/80/548
f 484/75/549 431/81/549 491/82/549
f 434/83/550 490/71/550 497/84/550
f 488/72/551 496/86/551 489/77/551
f 487/78/552 493/80/552 494/87/552
f 497/90/553 503/94/553 504/91/553
f 495/101/554 501/96/554 502/93/554
f 492/98/555 500/102/555 493/95/555
f 491/103/556 431/104/556 498/99/556
f 434/89/557 497/90/557 504/91/557
f 496/92/558 502/93/558 503/94/558
f 493/95/559 501/96/559 494/97/559
f 491/103/560 499/100/560 492/98/560
f 498/99/561 431/110/561 505/105/561
f 434/111/562 504/91/562 511/107/562
f 503/94/563 509/108/563 510/112/563
f 500/102/564 508/113/564 501/96/564
f 498/99/565 506/106/565 499/100/565
f 504/91/566 510/112/566 511/107/566
f 502/93/567 508/113/567 509/108/567
f 499/100/568 507/109/568 500/102/568
f 510/112/569 514/6/569 515/1/569
f 507/109/570 433/4/570 508/113/570
f 505/105/571 432/7/571 506/106/571
f 511/107/572 515/1/572 516/3/572
f 509/108/573 433/4/573 514/6/573
f 506/106/574 513/9/574 507/109/574
f 505/105/575 431/114/575 512/10/575
f 434/115/576 511/107/576 516/3/576
f 600/6/577 526/14/577 601/1/577
f 519/4/578 523/8/578 524/15/578
f 518/7/579 521/12/579 522/16/579
f 601/1/580 527/2/580 602/3/580
f 519/4/581 525/5/581 600/6/581
f 599/9/582 522/16/582 523/8/582
f 598/10/583 517/11/583 521/12/583
f 520/13/584 602/3/584 527/2/584
f 526/14/585 534/20/585 527/2/585
f 524/15/586 532/24/586 525/5/586
f 523/8/587 529/23/587 530/25/587
f 521/12/588 517/17/588 528/18/588
f 520/19/589 527/2/589 534/20/589
f 525/5/590 533/21/590 526/14/590
f 524/15/591 530/25/591 531/22/591
f 522/16/592 528/18/592 529/23/592
f 530/25/593 536/28/593 537/31/593
f 528/18/594 517/32/594 535/33/594
f 520/34/595 534/20/595 541/29/595
f 532/24/596 540/26/596 533/21/596
f 531/22/597 537/31/597 538/27/597
f 529/23/598 535/33/598 536/28/598
f 533/21/599 541/29/599 534/20/599
f 531/22/600 539/30/600 532/24/600
f 520/40/601 541/29/601 548/35/601
f 540/26/602 546/36/602 547/41/602
f 537/31/603 545/42/603 538/27/603
f 535/33/604 543/43/604 536/28/604
f 541/29/605 547/41/605 548/35/605
f 539/30/606 545/42/606 546/36/606
f 536/28/607 544/37/607 537/31/607
f 535/33/608 517/38/608 542/39/608
f 542/39/609 550/52/609 543/43/609
f 548/35/610 554/50/610 555/49/610
f 546/36/611 552/51/611 553/44/611
f 543/43/612 551/45/612 544/37/612
f 542/39/613 517/46/613 549/47/613
f 520/48/614 548/35/614 555/49/614
f 547/41/615 553/44/615 554/50/615
f 544/37/616 552/51/616 545/42/616
f 555/49/617 561/55/617 562/54/617
f 553/44/618 559/56/618 560/59/618
f 550/52/619 558/60/619 551/45/619
f 549/47/620 517/61/620 556/57/620
f 520/53/621 555/49/621 562/54/621
f 554/50/622 560/59/622 561/55/622
f 551/45/623 559/56/623 552/51/623
f 549/47/624 557/58/624 550/52/624
f 556/57/625 517/67/625 563/68/625
f 520/69/626 562/54/626 569/64/626
f 560/59/627 568/70/627 561/55/627
f 559/56/628 565/66/628 566/62/628
f 557/58/629 563/68/629 564/63/629
f 561/55/630 569/64/630 562/54/630
f 559/56/631 567/65/631 560/59/631
f 558/60/632 564/63/632 565/66/632
f 567/65/633 575/77/633 568/70/633
f 566/62/634 572/73/634 573/78/634
f 564/63/635 570/75/635 571/79/635
f 568/70/636 576/71/636 569/64/636
f 566/62/637 574/72/637 567/65/637
f 565/66/638 571/79/638 572/73/638
f 563/68/639 517/74/639 570/75/639
f 520/76/640 569/64/640 576/71/640
f 575/77/641 583/84/641 576/71/641
f 573/78/642 581/85/642 574/72/642
f 572/73/643 578/88/643 579/80/643
f 570/75/644 517/81/644 577/82/644
f 520/83/645 576/71/645 583/84/645
f 574/72/646 582/86/646 575/77/646
f 573/78/647 579/80/647 580/87/647
f 571/79/648 577/82/648 578/88/648
f 581/101/649 587/96/649 588/93/649
f 578/98/650 586/102/650 579/95/650
f 577/103/651 517/104/651 584/99/651
f 520/89/652 583/90/652 590/91/652
f 582/92/653 588/93/653 589/94/653
f 579/95/654 587/96/654 580/97/654
f 577/103/655 585/100/655 578/98/655
f 583/90/656 589/94/656 590/91/656
f 520/111/657 590/91/657 597/107/657
f 589/94/658 595/108/658 596/112/658
f 586/102/659 594/113/659 587/96/659
f 584/99/660 592/106/660 585/100/660
f 590/91/661 596/112/661 597/107/661
f 588/93/662 594/113/662 595/108/662
f 585/100/663 593/109/663 586/102/663
f 584/99/664 517/110/664 591/105/664
f 593/109/665 519/4/665 594/113/665
f 591/105/666 518/7/666 592/106/666
f 597/107/667 601/1/667 602/3/667
f 595/108/668 519/4/668 600/6/668
f 592/106/669 599/9/669 593/109/669
f 591/105/670 517/114/670 598/10/670
f 520/115/671 597/107/671 602/3/671
f 596/112/672 600/6/672 601/1/672
f 85/1/1 10/14/1 11/2/1
f 3/4/2 8/15/2 9/5/2
f 2/7/3 6/16/3 7/8/3
f 85/1/6 84/6/6 9/5/6
f 3/4/7 83/9/7 7/8/7
f 82/10/8 5/12/8 6/16/8
f 9/5/11 16/24/11 17/21/11
f 7/8/12 14/25/12 15/22/12
f 5/12/13 12/18/13 13/23/13
f 10/14/14 17/21/14 18/20/14
f 8/15/15 15/22/15 16/24/15
f 6/16/16 13/23/16 14/25/16
f 16/24/17 23/30/17 24/26/17
f 14/25/18 21/31/18 22/27/18
f 12/18/19 19/33/19 20/28/19
f 18/20/20 17/21/20 24/26/20
f 16/24/21 15/22/21 22/27/21
f 13/23/22 20/28/22 21/31/22
f 24/26/25 31/41/25 32/35/25
f 22/27/26 29/42/26 30/36/26
f 20/28/27 27/43/27 28/37/27
f 24/26/30 23/30/30 30/36/30
f 22/27/31 21/31/31 28/37/31
f 19/33/32 26/39/32 27/43/32
f 29/42/33 36/51/33 37/44/33
f 27/43/34 34/52/34 35/45/34
f 31/41/37 30/36/37 37/44/37
f 28/37/38 35/45/38 36/51/38
f 27/43/39 26/39/39 33/47/39
f 31/41/40 38/50/40 39/49/40
f 37/44/42 44/59/42 45/55/42
f 35/45/43 42/60/43 43/56/43
f 34/52/44 33/47/44 40/57/44
f 38/50/45 45/55/45 46/54/45
f 36/51/46 43/56/46 44/59/46
f 34/52/47 41/58/47 42/60/47
f 42/60/49 49/66/49 50/62/49
f 40/57/50 47/68/50 48/63/50
f 45/55/51 52/70/51 53/64/51
f 43/56/52 50/62/52 51/65/52
f 41/58/53 48/63/53 49/66/53
f 44/59/56 51/65/56 52/70/56
f 52/70/57 59/77/57 60/71/57
f 50/62/58 57/78/58 58/72/58
f 48/63/59 55/79/59 56/73/59
f 52/70/62 51/65/62 58/72/62
f 49/66/63 56/73/63 57/78/63
f 48/63/64 47/68/64 54/75/64
f 55/79/65 62/88/65 63/80/65
f 59/77/68 58/72/68 65/85/68
f 56/73/69 63/80/69 64/87/69
f 55/79/70 54/75/70 61/82/70
f 59/77/71 66/86/71 67/84/71
f 57/78/72 64/87/72 65/85/72
f 66/92/74 65/101/74 72/93/74
f 63/95/75 70/102/75 71/96/75
f 62/98/76 61/103/76 68/99/76
f 66/92/77 73/94/77 74/91/77
f 64/97/78 71/96/78 72/93/78
f 62/98/79 69/100/79 70/102/79
f 69/100/81 68/99/81 75/105/81
f 73/94/82 80/112/82 81/107/82
f 71/96/83 78/113/83 79/108/83
f 69/100/84 76/106/84 77/109/84
f 73/94/87 72/93/87 79/108/87
f 71/96/88 70/102/88 77/109/88
f 80/112/89 85/1/89 86/3/89
f 78/113/90 3/4/90 84/6/90
f 76/106/91 2/7/91 83/9/91
f 80/112/94 79/108/94 84/6/94
f 77/109/95 83/9/95 3/4/95
f 76/106/96 75/105/96 82/10/96
f 172/3/97 171/1/97 96/14/97
f 170/6/98 89/4/98 94/15/98
f 88/7/99 92/16/99 93/8/99
f 171/1/102 170/6/102 95/5/102
f 169/9/103 93/8/103 94/15/103
f 168/10/104 91/12/104 92/16/104
f 92/16/105 99/23/105 100/25/105
f 96/14/108 95/5/108 102/24/108
f 93/8/109 100/25/109 101/22/109
f 91/12/110 98/18/110 99/23/110
f 97/2/111 96/14/111 103/21/111
f 95/5/112 94/15/112 101/22/112
f 103/21/114 102/24/114 109/30/114
f 100/25/115 107/31/115 108/27/115
f 98/18/116 105/33/116 106/28/116
f 104/20/117 103/21/117 110/26/117
f 102/24/118 101/22/118 108/27/118
f 99/23/119 106/28/119 107/31/119
f 106/28/121 105/33/121 112/39/121
f 110/26/122 117/41/122 118/35/122
f 108/27/123 115/42/123 116/36/123
f 107/31/124 106/28/124 113/43/124
f 109/30/127 116/36/127 117/41/127
f 108/27/128 107/31/128 114/37/128
f 117/41/129 124/50/129 125/49/129
f 115/42/130 122/51/130 123/44/130
f 114/37/131 113/43/131 120/52/131
f 116/36/134 123/44/134 124/50/134
f 115/42/135 114/37/135 121/45/135
f 113/43/136 112/39/136 119/47/136
f 123/44/139 130/59/139 131/55/139
f 122/51/140 121/45/140 128/60/140
f 120/52/141 119/47/141 126/57/141
f 124/50/142 131/55/142 132/54/142
f 122/51/143 129/56/143 130/59/143
f 121/45/144 120/52/144 127/58/144
f 131/55/145 130/59/145 137/65/145
f 128/60/146 135/66/146 136/62/146
f 126/57/147 133/68/147 134/63/147
f 132/54/148 131/55/148 138/70/148
f 130/59/149 129/56/149 136/62/149
f 127/58/150 134/63/150 135/66/150
f 139/64/153 138/70/153 145/77/153
f 137/65/154 136/62/154 143/78/154
f 134/63/155 141/79/155 142/73/155
f 138/70/158 137/65/158 144/72/158
f 135/66/159 142/73/159 143/78/159
f 133/68/160 140/75/160 141/79/160
f 144/72/161 143/78/161 150/87/161
f 141/79/162 148/88/162 149/80/162
f 145/77/165 144/72/165 151/85/165
f 142/73/166 149/80/166 150/87/166
f 140/75/167 147/82/167 148/88/167
f 146/71/168 145/77/168 152/86/168
f 151/101/170 158/93/170 159/94/170
f 150/97/171 149/95/171 156/102/171
f 148/98/172 147/103/172 154/99/172
f 152/92/173 159/94/173 160/91/173
f 150/97/174 157/96/174 158/93/174
f 149/95/175 148/98/175 155/100/175
f 157/96/177 156/102/177 163/109/177
f 155/100/178 154/99/178 161/105/178
f 159/94/179 166/112/179 167/107/179
f 157/96/180 164/113/180 165/108/180
f 156/102/181 155/100/181 162/106/181
f 158/93/184 165/108/184 166/112/184
f 166/112/185 171/1/185 172/3/185
f 164/113/186 89/4/186 170/6/186
f 163/109/187 162/106/187 88/7/187
f 165/108/190 170/6/190 171/1/190
f 164/113/191 163/109/191 169/9/191
f 162/106/192 161/105/192 168/10/192
f 254/10/193 177/12/193 178/16/193
f 258/3/194 257/1/194 182/14/194
f 256/6/195 175/4/195 180/15/195
f 174/7/196 178/16/196 179/8/196
f 257/1/199 256/6/199 181/5/199
f 255/9/200 179/8/200 180/15/200
f 181/5/201 180/15/201 187/22/201
f 178/16/202 185/23/202 186/25/202
f 182/14/205 181/5/205 188/24/205
f 179/8/206 186/25/206 187/22/206
f 177/12/207 184/18/207 185/23/207
f 183/2/208 182/14/208 189/21/208
f 189/21/210 188/24/210 195/30/210
f 186/25/211 193/31/211 194/27/211
f 184/18/212 191/33/212 192/28/212
f 190/20/213 189/21/213 196/26/213
f 188/24/214 187/22/214 194/27/214
f 185/23/215 192/28/215 193/31/215
f 194/27/217 193/31/217 200/37/217
f 192/28/218 191/33/218 198/39/218
f 196/26/219 203/41/219 204/35/219
f 194/27/220 201/42/220 202/36/220
f 193/31/221 192/28/221 199/43/221
f 195/30/224 202/36/224 203/41/224
f 203/41/225 210/50/225 211/49/225
f 201/42/226 208/51/226 209/44/226
f 200/37/227 199/43/227 206/52/227
f 202/36/230 209/44/230 210/50/230
f 201/42/231 200/37/231 207/45/231
f 199/43/232 198/39/232 205/47/232
f 207/45/233 206/52/233 213/58/233
f 209/44/236 216/59/236 217/55/236
f 208/51/237 207/45/237 214/60/237
f 206/52/238 205/47/238 212/57/238
f 210/50/239 217/55/239 218/54/239
f 208/51/240 215/56/240 216/59/240
f 217/55/242 216/59/242 223/65/242
f 214/60/243 221/66/243 222/62/243
f 212/57/244 219/68/244 220/63/244
f 218/54/245 217/55/245 224/70/245
f 216/59/246 215/56/246 222/62/246
f 213/58/247 220/63/247 221/66/247
f 219/68/249 226/75/249 227/79/249
f 225/64/250 224/70/250 231/77/250
f 223/65/251 222/62/251 229/78/251
f 220/63/252 227/79/252 228/73/252
f 224/70/255 223/65/255 230/72/255
f 221/66/256 228/73/256 229/78/256
f 232/71/257 231/77/257 238/86/257
f 230/72/258 229/78/258 236/87/258
f 227/79/259 234/88/259 235/80/259
f 231/77/262 230/72/262 237/85/262
f 228/73/263 235/80/263 236/87/263
f 226/75/264 233/82/264 234/88/264
f 237/101/267 244/93/267 245/94/267
f 236/97/268 235/95/268 242/102/268
f 234/98/269 233/103/269 240/99/269
f 238/92/270 245/94/270 246/91/270
f 236/97/271 243/96/271 244/93/271
f 235/95/272 234/98/272 241/100/272
f 244/93/273 251/108/273 252/112/273
f 243/96/274 242/102/274 249/109/274
f 241/100/275 240/99/275 247/105/275
f 245/94/276 252/112/276 253/107/276
f 243/96/277 250/113/277 251/108/277
f 242/102/278 241/100/278 248/106/278
f 252/112/281 257/1/281 258/3/281
f 250/113/282 175/4/282 256/6/282
f 249/109/283 248/106/283 174/7/283
f 251/108/286 256/6/286 257/1/286
f 250/113/287 249/109/287 255/9/287
f 248/106/288 247/105/288 254/10/288
f 341/9/289 265/8/289 266/15/289
f 340/10/290 263/12/290 264/16/290
f 344/3/291 343/1/291 268/14/291
f 342/6/292 261/4/292 266/15/292
f 260/7/293 264/16/293 265/8/293
f 343/1/296 342/6/296 267/5/296
f 269/2/297 268/14/297 275/21/297
f 267/5/298 266/15/298 273/22/298
f 264/16/299 271/23/299 272/25/299
f 268/14/302 267/5/302 274/24/302
f 265/8/303 272/25/303 273/22/303
f 263/12/304 270/18/304 271/23/304
f 275/21/307 274/24/307 281/30/307
f 272/25/308 279/31/308 280/27/308
f 270/18/309 277/33/309 278/28/309
f 276/20/310 275/21/310 282/26/310
f 274/24/311 273/22/311 280/27/311
f 271/23/312 278/28/312 279/31/312
f 281/30/313 288/36/313 289/41/313
f 280/27/314 279/31/314 286/37/314
f 278/28/315 277/33/315 284/39/315
f 282/26/316 289/41/316 290/35/316
f 280/27/317 287/42/317 288/36/317
f 279/31/318 278/28/318 285/43/318
f 289/41/321 296/50/321 297/49/321
f 287/42/322 294/51/322 295/44/322
f 286/37/323 285/43/323 292/52/323
f 288/36/326 295/44/326 296/50/326
f 287/42/327 286/37/327 293/45/327
f 285/43/328 284/39/328 291/47/328
f 294/51/329 301/56/329 302/59/329
f 293/45/330 292/52/330 299/58/330
f 295/44/333 302/59/333 303/55/333
f 294/51/334 293/45/334 300/60/334
f 292/52/335 291/47/335 298/57/335
f 296/50/336 303/55/336 304/54/336
f 303/55/338 302/59/338 309/65/338
f 300/60/339 307/66/339 308/62/339
f 298/57/340 305/68/340 306/63/340
f 304/54/341 303/55/341 310/70/341
f 302/59/342 301/56/342 308/62/342
f 299/58/343 306/63/343 307/66/343
f 307/66/345 314/73/345 315/78/345
f 305/68/346 312/75/346 313/79/346
f 311/64/347 310/70/347 317/77/347
f 309/65/348 308/62/348 315/78/348
f 306/63/349 313/79/349 314/73/349
f 310/70/352 309/65/352 316/72/352
f 318/71/353 317/77/353 324/86/353
f 316/72/354 315/78/354 322/87/354
f 313/79/355 320/88/355 321/80/355
f 317/77/358 316/72/358 323/85/358
f 314/73/359 321/80/359 322/87/359
f 312/75/360 319/82/360 320/88/360
f 321/95/361 320/98/361 327/100/361
f 323/101/364 330/93/364 331/94/364
f 322/97/365 321/95/365 328/102/365
f 320/98/366 319/103/366 326/99/366
f 324/92/367 331/94/367 332/91/367
f 322/97/368 329/96/368 330/93/368
f 330/93/370 337/108/370 338/112/370
f 329/96/371 328/102/371 335/109/371
f 327/100/372 326/99/372 333/105/372
f 331/94/373 338/112/373 339/107/373
f 329/96/374 336/113/374 337/108/374
f 328/102/375 327/100/375 334/106/375
f 334/106/377 333/105/377 340/10/377
f 338/112/378 343/1/378 344/3/378
f 336/113/379 261/4/379 342/6/379
f 335/109/380 334/106/380 260/7/380
f 337/108/383 342/6/383 343/1/383
f 336/113/384 335/109/384 341/9/384
f 429/1/385 428/6/385 353/5/385
f 427/9/386 351/8/386 352/15/386
f 426/10/387 349/12/387 350/16/387
f 430/3/388 429/1/388 354/14/388
f 428/6/389 347/4/389 352/15/389
f 346/7/390 350/16/390 351/8/390
f 355/2/393 354/14/393 361/21/393
f 353/5/394 352/15/394 359/22/394
f 350/16/395 357/23/395 358/25/395
f 354/14/398 353/5/398 360/24/398
f 351/8/399 358/25/399 359/22/399
f 349/12/400 356/18/400 357/23/400
f 357/23/401 364/28/401 365/31/401
f 361/21/404 360/24/404 367/30/404
f 358/25/405 365/31/405 366/27/405
f 356/18/406 363/33/406 364/28/406
f 362/20/407 361/21/407 368/26/407
f 360/24/408 359/22/408 366/27/408
f 367/30/410 374/36/410 375/41/410
f 366/27/411 365/31/411 372/37/411
f 364/28/412 363/33/412 370/39/412
f 368/26/413 375/41/413 376/35/413
f 366/27/414 373/42/414 374/36/414
f 365/31/415 364/28/415 371/43/415
f 371/43/417 370/39/417 377/47/417
f 375/41/418 382/50/418 383/49/418
f 373/42/419 380/51/419 381/44/419
f 372/37/420 371/43/420 378/52/420
f 374/36/423 381/44/423 382/50/423
f 373/42/424 372/37/424 379/45/424
f 382/50/425 389/55/425 390/54/425
f 380/51/426 387/56/426 388/59/426
f 379/45/427 378/52/427 385/58/427
f 381/44/430 388/59/430 389/55/430
f 380/51/431 379/45/431 386/60/431
f 378/52/432 377/47/432 384/57/432
f 389/55/435 388/59/435 395/65/435
f 386/60/436 393/66/436 394/62/436
f 384/57/437 391/68/437 392/63/437
f 390/54/438 389/55/438 396/70/438
f 388/59/439 387/56/439 394/62/439
f 385/58/440 392/63/440 393/66/440
f 396/70/441 395/65/441 402/72/441
f 393/66/442 400/73/442 401/78/442
f 391/68/443 398/75/443 399/79/443
f 397/64/444 396/70/444 403/77/444
f 395/65/445 394/62/445 401/78/445
f 392/63/446 399/79/446 400/73/446
f 404/71/449 403/77/449 410/86/449
f 402/72/450 401/78/450 408/87/450
f 399/79/451 406/88/451 407/80/451
f 403/77/454 402/72/454 409/85/454
f 400/73/455 407/80/455 408/87/455
f 398/75/456 405/82/456 406/88/456
f 408/97/457 415/96/457 416/93/457
f 407/95/458 406/98/458 413/100/458
f 409/101/461 416/93/461 417/94/461
f 408/97/462 407/95/462 414/102/462
f 406/98/463 405/103/463 412/99/463
f 410/92/464 417/94/464 418/91/464
f 416/93/466 423/108/466 424/112/466
f 415/96/467 414/102/467 421/109/467
f 413/100/468 412/99/468 419/105/468
f 417/94/469 424/112/469 425/107/469
f 415/96/470 422/113/470 423/108/470
f 414/102/471 413/100/471 420/106/471
f 422/113/473 421/109/473 427/9/473
f 420/106/474 419/105/474 426/10/474
f 424/112/475 429/1/475 430/3/475
f 422/113/476 347/4/476 428/6/476
f 421/109/477 420/106/477 346/7/477
f 423/108/480 428/6/480 429/1/480
f 514/6/482 439/5/482 440/14/482
f 433/4/483 513/9/483 437/8/483
f 432/7/484 512/10/484 435/12/484
f 515/1/485 440/14/485 441/2/485
f 433/4/486 438/15/486 439/5/486
f 513/9/487 432/7/487 436/16/487
f 440/14/489 447/21/489 448/20/489
f 438/15/490 445/22/490 446/24/490
f 437/8/491 436/16/491 443/23/491
f 439/5/494 446/24/494 447/21/494
f 438/15/495 437/8/495 444/25/495
f 436/16/496 435/12/496 442/18/496
f 445/22/497 452/27/497 453/30/497
f 444/25/498 443/23/498 450/28/498
f 446/24/501 453/30/501 454/26/501
f 445/22/502 444/25/502 451/31/502
f 443/23/503 442/18/503 449/33/503
f 447/21/504 454/26/504 455/29/504
f 454/26/506 453/30/506 460/36/506
f 451/31/507 458/37/507 459/42/507
f 449/33/508 456/39/508 457/43/508
f 455/29/509 454/26/509 461/41/509
f 453/30/510 452/27/510 459/42/510
f 450/28/511 457/43/511 458/37/511
f 458/37/513 465/45/513 466/51/513
f 456/39/514 463/47/514 464/52/514
f 462/35/515 461/41/515 468/50/515
f 460/36/516 459/42/516 466/51/516
f 457/43/517 464/52/517 465/45/517
f 461/41/520 460/36/520 467/44/520
f 469/49/521 468/50/521 475/55/521
f 467/44/522 466/51/522 473/56/522
f 464/52/523 471/58/523 472/60/523
f 468/50/526 467/44/526 474/59/526
f 465/45/527 472/60/527 473/56/527
f 463/47/528 470/57/528 471/58/528
f 472/60/529 471/58/529 478/63/529
f 474/59/532 481/65/532 482/70/532
f 473/56/533 472/60/533 479/66/533
f 471/58/534 470/57/534 477/68/534
f 475/55/535 482/70/535 483/64/535
f 473/56/536 480/62/536 481/65/536
f 481/65/538 488/72/538 489/77/538
f 480/62/539 479/66/539 486/73/539
f 478/63/540 477/68/540 484/75/540
f 482/70/541 489/77/541 490/71/541
f 480/62/542 487/78/542 488/72/542
f 479/66/543 478/63/543 485/79/543
f 485/79/545 484/75/545 491/82/545
f 489/77/546 496/86/546 497/84/546
f 487/78/547 494/87/547 495/85/547
f 486/73/548 485/79/548 492/88/548
f 488/72/551 495/85/551 496/86/551
f 487/78/552 486/73/552 493/80/552
f 497/90/553 496/92/553 503/94/553
f 495/101/554 494/97/554 501/96/554
f 492/98/555 499/100/555 500/102/555
f 496/92/558 495/101/558 502/93/558
f 493/95/559 500/102/559 501/96/559
f 491/103/560 498/99/560 499/100/560
f 503/94/563 502/93/563 509/108/563
f 500/102/564 507/109/564 508/113/564
f 498/99/565 505/105/565 506/106/565
f 504/91/566 503/94/566 510/112/566
f 502/93/567 501/96/567 508/113/567
f 499/100/568 506/106/568 507/109/568
f 510/112/569 509/108/569 514/6/569
f 507/109/570 513/9/570 433/4/570
f 505/105/571 512/10/571 432/7/571
f 511/107/572 510/112/572 515/1/572
f 509/108/573 508/113/573 433/4/573
f 506/106/574 432/7/574 513/9/574
f 600/6/577 525/5/577 526/14/577
f 519/4/578 599/9/578 523/8/578
f 518/7/579 598/10/579 521/12/579
f 601/1/580 526/14/580 527/2/580
f 519/4/581 524/15/581 525/5/581
f 599/9/582 518/7/582 522/16/582
f 526/14/585 533/21/585 534/20/585
f 524/15/586 531/22/586 532/24/586
f 523/8/587 522/16/587 529/23/587
f 525/5/590 532/24/590 533/21/590
f 524/15/591 523/8/591 530/25/591
f 522/16/592 521/12/592 528/18/592
f 530/25/593 529/23/593 536/28/593
f 532/24/596 539/30/596 540/26/596
f 531/22/597 530/25/597 537/31/597
f 529/23/598 528/18/598 535/33/598
f 533/21/599 540/26/599 541/29/599
f 531/22/600 538/27/600 539/30/600
f 540/26/602 539/30/602 546/36/602
f 537/31/603 544/37/603 545/42/603
f 535/33/604 542/39/604 543/43/604
f 541/29/605 540/26/605 547/41/605
f 539/30/606 538/27/606 545/42/606
f 536/28/607 543/43/607 544/37/607
f 542/39/609 549/47/609 550/52/609
f 548/35/610 547/41/610 554/50/610
f 546/36/611 545/42/611 552/51/611
f 543/43/612 550/52/612 551/45/612
f 547/41/615 546/36/615 553/44/615
f 544/37/616 551/45/616 552/51/616
f 555/49/617 554/50/617 561/55/617
f 553/44/618 552/51/618 559/56/618
f 550/52/619 557/58/619 558/60/619
f 554/50/622 553/44/622 560/59/622
f 551/45/623 558/60/623 559/56/623
f 549/47/624 556/57/624 557/58/624
f 560/59/627 567/65/627 568/70/627
f 559/56/628 558/60/628 565/66/628
f 557/58/629 556/57/629 563/68/629
f 561/55/630 568/70/630 569/64/630
f 559/56/631 566/62/631 567/65/631
f 558/60/632 557/58/632 564/63/632
f 567/65/633 574/72/633 575/77/633
f 566/62/634 565/66/634 572/73/634
f 564/63/635 563/68/635 570/75/635
f 568/70/636 575/77/636 576/71/636
f 566/62/637 573/78/637 574/72/637
f 565/66/638 564/63/638 571/79/638
f 575/77/641 582/86/641 583/84/641
f 573/78/642 580/87/642 581/85/642
f 572/73/643 571/79/643 578/88/643
f 574/72/646 581/85/646 582/86/646
f 573/78/647 572/73/647 579/80/647
f 571/79/648 570/75/648 577/82/648
f 581/101/649 580/97/649 587/96/649
f 578/98/650 585/100/650 586/102/650
f 582/92/653 581/101/653 588/93/653
f 579/95/654 586/102/654 587/96/654
f 577/103/655 584/99/655 585/100/655
f 583/90/656 582/92/656 589/94/656
f 589/94/658 588/93/658 595/108/658
f 586/102/659 593/109/659 594/113/659
f 584/99/660 591/105/660 592/106/660
f 590/91/661 589/94/661 596/112/661
f 588/93/662 587/96/662 594/113/662
f 585/100/663 592/106/663 593/109/663
f 593/109/665 599/9/665 519/4/665
f 591/105/666 598/10/666 518/7/666
f 597/107/667 596/112/667 601/1/667
f 595/108/668 594/113/668 519/4/668
f 592/106/669 518/7/669 599/9/669
f 596/112/672 595/108/672 600/6/672
